<svg width="163" height="43" viewBox="0 0 163 43" fill="none" xmlns="http://www.w3.org/2000/svg">
<g clip-path="url(#clip0_7190_4840)">
<path d="M18.2628 9.31217C13.0652 6.31334 7.87065 3.30898 2.67921 0.299075C1.40014 -0.442941 0.134008 0.254775 0.0748607 1.74065C0.0471352 2.41068 0.0397417 3.08071 0.0378933 3.75259C0.0243387 12.1203 0.0120162 20.4879 0.000926028 28.8556C-0.0190398 29.2449 0.0651128 29.6326 0.244744 29.9787C0.424374 30.3248 0.693011 30.6169 1.02307 30.8251C5.19545 33.6836 9.35797 36.5551 13.5106 39.4395C15.2 40.606 16.8931 41.7707 18.6861 43.0074C18.7027 42.773 18.7138 42.6752 18.7138 42.5755C18.7138 31.732 18.7175 20.8879 18.7249 10.0431C18.7267 9.65549 18.5622 9.48567 18.2628 9.31217Z" fill="#969696"/>
<path d="M44.615 1.10733C43.458 1.00765 42.4765 1.79397 42.2288 3.06573C42.2101 3.21826 42.1546 3.36398 42.067 3.49034C41.9794 3.6167 41.8624 3.71992 41.726 3.79114C36.9338 6.56846 32.1441 9.35195 27.3568 12.1416C26.8707 12.424 26.5509 12.7156 26.4142 13.3358C26.063 14.9361 24.2904 15.6006 23.0871 14.6611C21.8284 13.6736 21.7526 11.6174 22.9466 10.5468C23.5825 9.97829 24.3292 9.80848 25.1037 10.1776C25.2651 10.2671 25.4489 10.3082 25.6331 10.2961C25.8173 10.284 25.9942 10.2191 26.1425 10.1093C28.2903 8.83758 30.4528 7.58797 32.6117 6.33097C34.1884 5.40806 35.7724 4.50362 37.3399 3.56225C37.7897 3.28053 38.1129 2.83589 38.2418 2.32149C38.3707 1.80708 38.2952 1.26283 38.0311 0.802768C37.4582 -0.17182 36.4342 -0.190278 35.5303 0.341315C30.4528 3.34814 25.3403 6.29036 20.2277 9.22889C19.7915 9.47992 19.6251 9.74387 19.627 10.2533C19.6418 20.911 19.6455 31.5694 19.6381 42.2283V42.9758C19.9042 42.819 20.0669 42.734 20.2166 42.6307C25.9527 38.6708 31.6869 34.7122 37.4193 30.7547C37.7048 30.5748 37.9386 30.3238 38.0977 30.0264C38.2568 29.729 38.3358 29.3955 38.3269 29.0584C38.3269 28.0303 38.3435 27.0022 38.3269 25.9741C38.3139 25.8206 38.3493 25.6668 38.4282 25.5344C38.5071 25.402 38.6255 25.2976 38.7668 25.2358C39.6281 24.7558 40.4784 24.2556 41.3286 23.7591C42.1068 23.305 42.3563 22.4855 41.9404 21.7859C41.5708 21.1676 40.9885 21.1233 40.1346 21.6217C37.972 22.8756 35.8076 24.1264 33.6413 25.3742C32.9204 25.7895 32.2236 25.5145 32.0092 24.7503C31.8243 24.095 32.0554 23.5598 32.7226 23.174C34.3011 22.2511 35.887 21.3522 37.4711 20.4422C39.2529 19.4159 41.0421 18.4118 42.8147 17.3615C42.9733 17.2674 43.1112 17.1421 43.22 16.9932C43.3288 16.8444 43.4063 16.675 43.4477 16.4955C43.4892 16.3159 43.4938 16.1298 43.4612 15.9484C43.4287 15.767 43.3597 15.5941 43.2583 15.44C42.8887 14.8531 42.3064 14.7626 41.5634 15.1909C37.7816 17.3689 33.9986 19.5445 30.2144 21.7176C30.0755 21.7823 29.9555 21.8813 29.8659 22.0054C29.7763 22.1295 29.72 22.2744 29.7024 22.4264C29.6563 22.8258 29.5066 23.2062 29.2679 23.5299C29.0293 23.8537 28.7101 24.1096 28.342 24.2722C27.0389 24.8481 25.636 23.9695 25.3551 22.3895C25.1702 21.3928 25.4456 20.5086 26.2404 19.8423C26.9668 19.2332 27.769 19.2037 28.5823 19.6577C28.8226 19.7906 28.9742 19.6836 29.1553 19.5784C30.244 18.9452 31.3327 18.3158 32.4214 17.6809C34.1422 16.6767 35.8686 15.6782 37.582 14.6611C38.3084 14.231 38.5228 13.4355 38.1365 12.7728C37.7668 12.1453 37.2234 12.0641 36.4009 12.5384C34.6911 13.5241 32.9925 14.5264 31.2828 15.5102C30.5674 15.92 29.8983 15.6209 29.6895 14.8235C29.5176 14.1646 29.7375 13.6754 30.4288 13.2675C34.5285 10.8717 38.6263 8.47949 42.7223 6.09101C42.8486 6.00232 42.9977 5.95155 43.1519 5.94468C43.3062 5.93781 43.4592 5.97514 43.5929 6.05225C43.857 6.18831 44.1506 6.25745 44.4477 6.25359C44.7449 6.24973 45.0366 6.17298 45.2971 6.0301C46.3229 5.49113 46.6963 4.58299 46.6501 3.46443C46.5965 2.22589 45.713 1.19962 44.615 1.10733ZM44.3618 4.7528C43.8886 4.72142 43.4376 4.11969 43.4598 3.56779C43.4659 3.31399 43.5694 3.07224 43.749 2.89255C43.9286 2.71286 44.1705 2.60899 44.4246 2.60243C44.9514 2.61351 45.3488 3.07681 45.3488 3.66931C45.3488 4.26182 44.8867 4.78603 44.3618 4.7528Z" fill="#049DD9"/>
<path d="M65.5043 7.8337C65.4988 7.72856 65.4988 7.6232 65.5043 7.51806C65.5394 7.18766 65.3878 7.08061 65.0644 7.08245C63.6991 7.09476 62.3331 7.09476 60.9666 7.08245C60.6542 7.08245 60.5248 7.17659 60.4934 7.50514C60.3862 8.58863 60.2457 9.67028 60.1237 10.7538C59.7626 13.8166 59.401 16.8769 59.0387 19.9348C59.0202 20.0991 59.0868 20.3944 58.8335 20.3889C58.6117 20.3889 58.6616 20.0973 58.6395 19.9256C58.499 18.8033 58.3677 17.6793 58.2347 16.5552C57.8816 13.6019 57.523 10.6486 57.1866 7.68419C57.1349 7.21904 56.9667 7.05661 56.4824 7.07138C55.244 7.1083 54.0019 7.11199 52.7635 7.07138C52.2256 7.05477 52.1036 7.23012 52.1055 7.74325C52.1277 11.457 52.1166 15.169 52.1166 18.8827C52.1166 23.6043 52.1258 28.324 52.1055 33.0438C52.1055 33.5975 52.1998 33.8356 52.8153 33.7821C53.5913 33.7286 54.37 33.7286 55.146 33.7821C55.7006 33.819 55.8392 33.64 55.8355 33.0881C55.8133 27.9069 55.8225 22.7257 55.8262 17.5427C55.8262 17.3138 55.769 17.0664 55.9002 16.8339C56.1497 16.9538 56.085 17.144 56.0961 17.2935C56.6395 22.3584 57.1799 27.4245 57.7171 32.4919C57.8502 33.7729 57.828 33.7489 59.1034 33.7839C59.6246 33.7969 59.8187 33.675 59.8742 33.1158C60.3621 28.2336 60.8871 23.3533 61.4028 18.4748C61.4619 17.9211 61.5395 17.3784 61.6246 16.6973C61.9628 17.1495 61.8371 17.515 61.839 17.8491C61.8476 22.9472 61.8476 28.0453 61.839 33.1434C61.839 33.616 61.9314 33.8153 62.4526 33.7839C63.2295 33.7378 64.0084 33.7378 64.7853 33.7839C65.3527 33.8172 65.5246 33.6566 65.5246 33.0641C65.5 24.6558 65.4932 16.2457 65.5043 7.8337Z" fill="#969696"/>
<path d="M126.027 20.4347C125.742 20.3202 125.596 20.1818 125.977 20.0046C126.995 19.5321 127.389 18.6572 127.465 17.6235C127.655 15.2823 127.648 12.9292 127.445 10.5891C127.289 8.97588 126.389 7.88686 124.801 7.42171C124.054 7.20365 123.28 7.09181 122.502 7.08947C120.674 7.08947 118.846 7.10792 117.02 7.0747C116.478 7.06362 116.367 7.24267 116.369 7.74842C116.38 9.86741 116.385 11.9858 116.382 14.1035C116.38 16.2213 116.38 18.3397 116.382 20.4587V33.1689C116.382 33.4772 116.303 33.7928 116.822 33.7873C118.964 33.7633 121.108 33.8279 123.249 33.7577C125.683 33.6765 127.241 32.2811 127.463 29.8446C127.685 27.3578 127.675 24.8558 127.432 22.3709C127.354 21.4923 126.901 20.7854 126.027 20.4347ZM123.136 28.6393C123.11 29.8557 122.138 30.4667 120.992 30.0753C120.724 29.983 120.807 29.7819 120.807 29.612C120.807 28.416 120.807 27.2125 120.807 26.0275C120.807 25.1304 120.807 24.2334 120.807 23.3381C120.807 23.0391 120.807 22.7401 120.807 22.4411C120.807 22.0885 120.907 21.9409 121.267 21.9741C121.537 21.9981 121.813 21.9962 122.084 21.9999C122.663 21.9999 122.968 22.3192 123.073 22.8601C123.118 23.0416 123.145 23.2271 123.155 23.4138C123.145 25.1599 123.175 26.9005 123.136 28.6393ZM123.136 16.9738C123.084 18.2419 122.245 18.7901 121.021 18.4394C120.707 18.3508 120.805 18.1219 120.803 17.9354C120.803 16.828 120.803 15.7205 120.803 14.613C120.803 13.7787 120.803 12.9518 120.803 12.1138C120.803 11.835 120.803 11.56 120.803 11.2795C120.803 10.9103 120.914 10.7885 121.269 10.8235C121.498 10.8457 121.731 10.8235 121.962 10.8235C122.635 10.842 122.946 11.1004 123.099 11.7649C123.18 12.262 123.205 12.7666 123.173 13.2692C123.158 14.5022 123.18 15.7389 123.132 16.9812L123.136 16.9738Z" fill="#049DD9"/>
<path d="M161.567 26.6313C161.279 25.1307 160.602 23.6596 161.124 22.0722C161.235 21.6681 161.324 21.2583 161.392 20.8447C161.878 18.5707 162.356 16.2948 162.859 14.0245C162.955 13.587 162.885 13.4356 162.401 13.4504C161.308 13.4855 160.216 13.4744 159.124 13.4504C158.778 13.4504 158.641 13.5575 158.606 13.8989C158.538 14.5431 158.432 15.191 158.342 15.8278C158.081 17.6976 157.824 19.5656 157.554 21.4317C157.516 21.6993 157.554 22.0427 157.083 22.0094C156.571 21.9725 156.789 21.6034 156.747 21.356C156.736 21.2332 156.736 21.1097 156.747 20.9869C156.747 16.3723 156.747 11.7578 156.758 7.14328C156.758 6.60246 156.669 6.36804 156.055 6.40495C155.132 6.46133 154.206 6.46133 153.283 6.40495C152.693 6.37173 152.51 6.51017 152.516 7.14328C152.523 8.22492 152.529 9.30534 152.532 10.3845C152.532 13.6239 152.532 16.8652 152.532 20.1064C152.532 23.3772 152.532 26.6492 152.532 29.9224C152.532 31.0115 152.532 32.1017 152.532 33.1932C152.532 33.6565 152.638 33.8115 153.12 33.7912C154.105 33.7525 155.096 33.7433 156.078 33.7912C156.651 33.8208 156.773 33.6399 156.765 33.0935C156.734 30.6404 156.752 28.1874 156.75 25.7324C156.75 25.4906 156.737 25.2784 157.092 25.2747C157.381 25.2747 157.521 25.3633 157.538 25.6531C157.538 25.7989 157.58 25.9429 157.602 26.0887C157.972 28.4882 158.342 30.8878 158.686 33.3003C158.739 33.6694 158.87 33.7912 159.24 33.7839C160.331 33.7636 161.425 33.758 162.515 33.7839C162.987 33.7949 163.07 33.6602 162.976 33.2061C162.473 31.0225 161.987 28.8334 161.567 26.6313Z" fill="#049DD9"/>
<path d="M152.529 20.1042C152.529 23.375 152.529 26.647 152.529 29.9202C152.534 26.6482 152.534 23.3762 152.529 20.1042Z" fill="#FEFEFE"/>
<path d="M139.027 16.6009C138.55 15.0116 137.597 13.858 135.948 13.3929C134.748 13.0468 133.475 13.0468 132.275 13.3929C130.406 13.9281 129.161 15.5543 128.967 17.7803C128.793 19.748 128.944 21.723 128.902 23.2089C128.902 25.4571 128.902 27.2198 128.902 28.9826C128.902 29.1911 128.931 29.3997 128.95 29.6101C129.155 31.8067 130.327 33.3442 132.225 33.8444C133.409 34.1577 134.652 34.1717 135.842 33.885C137.375 33.5159 138.41 32.6114 138.935 31.1163C139.176 30.4433 139.301 29.7343 139.304 29.0195C139.313 25.4743 139.313 21.9279 139.304 18.3802C139.298 17.7769 139.204 17.1777 139.027 16.6009ZM135.083 28.8903C135.084 29.1622 135.063 29.4337 135.022 29.7024C134.948 30.162 134.702 30.4721 134.201 30.5035C133.7 30.5349 133.377 30.2765 133.221 29.7966C133.15 29.5339 133.119 29.2619 133.131 28.99V23.5873C133.131 21.7858 133.131 19.9849 133.131 18.1846C133.11 17.828 133.185 17.4723 133.349 17.1546C133.431 17.0076 133.555 16.8886 133.705 16.8131C133.855 16.7377 134.025 16.7094 134.192 16.7319C134.362 16.7285 134.528 16.7808 134.665 16.8808C134.802 16.9809 134.903 17.1231 134.952 17.2857C135.058 17.6264 135.102 17.9833 135.083 18.3396C135.086 21.8553 135.086 25.3722 135.083 28.8903Z" fill="#049DD9"/>
<path d="M151.025 18.1181C150.912 15.1944 149.177 13.3485 146.426 13.1732C144.243 13.0348 142.36 13.5922 141.297 15.7093C140.805 16.6821 140.646 17.7397 140.646 18.8214C140.646 22.0946 140.646 25.3678 140.646 28.6411C140.646 28.9974 140.664 29.3535 140.7 29.708C140.942 31.9894 142.21 33.4919 144.303 33.9293C145.396 34.1645 146.528 34.15 147.615 33.8869C149.278 33.4826 150.315 32.4342 150.783 30.8062C150.973 30.1181 151.064 29.4065 151.055 28.6928C151.055 27.0555 151.055 25.4183 151.055 23.7829H151.036C151.038 21.8947 151.097 20.0045 151.025 18.1181ZM146.835 28.87C146.834 29.1836 146.802 29.4964 146.741 29.8039C146.714 30.0048 146.614 30.1886 146.458 30.3188C146.303 30.4491 146.104 30.5163 145.901 30.5072C145.7 30.5238 145.5 30.4701 145.334 30.3553C145.168 30.2405 145.047 30.0717 144.992 29.8778C144.892 29.5567 144.85 29.2206 144.866 28.8847C144.866 27.1251 144.866 25.366 144.866 23.6076C144.866 21.8491 144.866 20.0894 144.866 18.3285C144.846 17.9725 144.901 17.6161 145.025 17.282C145.09 17.1031 145.214 16.9513 145.376 16.8509C145.538 16.7504 145.729 16.7073 145.918 16.7282C146.11 16.7189 146.298 16.7803 146.448 16.9008C146.597 17.0213 146.697 17.1925 146.728 17.3816C146.8 17.7083 146.835 18.042 146.833 18.3765C146.84 21.8762 146.841 25.374 146.835 28.87Z" fill="#049DD9"/>
<path d="M106.985 17.8065C106.817 15.1873 105.48 13.6682 103.242 13.2529C100.028 12.6548 97.6063 14.137 96.9778 17.0903C96.8534 17.664 96.7914 18.2495 96.793 18.8365C96.8059 20.4515 96.793 22.0666 96.793 23.6817C96.793 25.4217 96.793 27.1623 96.793 28.9035C96.793 28.9866 96.793 29.0715 96.8041 29.1545C96.9353 31.7885 98.2033 33.4627 100.453 33.9407C101.175 34.0898 101.915 34.1296 102.649 34.0589C104.497 33.8964 105.861 33.0695 106.569 31.2901C107.201 29.6917 106.996 28.0268 107.027 26.3784C107.027 26.1126 106.843 26.0942 106.645 26.072C105.58 25.9594 104.514 25.8487 103.453 25.714C103.103 25.6697 102.963 25.7361 102.976 26.1219C103.002 26.9174 102.976 27.7148 102.976 28.5122C102.976 28.994 103.007 29.4794 102.835 29.9427C102.788 30.1047 102.688 30.2466 102.552 30.3466C102.416 30.4466 102.25 30.4993 102.081 30.4964C101.903 30.5193 101.721 30.4854 101.563 30.3996C101.405 30.3138 101.278 30.1804 101.2 30.0184C101.046 29.6701 100.977 29.2907 100.998 28.9109C100.998 27.6096 101.02 26.3083 100.985 25.0089C100.972 24.5086 101.126 24.3739 101.619 24.3831C103.257 24.4127 104.896 24.3831 106.534 24.396C106.8 24.396 107.033 24.4108 107.029 24.0269C107.022 21.9651 107.116 19.8738 106.985 17.8065ZM102.887 21.2877C102.462 21.5664 101.835 21.356 101.296 21.3781C101.068 21.3874 101.013 21.2489 101.017 21.0588C101.031 19.9513 101.017 18.8438 101.07 17.7364C101.092 17.2601 101.29 16.8264 101.854 16.7396C102.418 16.6529 102.734 16.8781 102.885 17.4133C103.07 18.0926 102.948 18.7848 102.992 19.3644C102.992 19.6597 103.005 19.848 102.992 20.0344C102.955 20.4682 103.198 21.0828 102.887 21.2877Z" fill="#969696"/>
<path d="M96.7949 18.8364C96.8079 20.4515 96.7949 22.0666 96.7949 23.6817C96.7986 22.0666 96.8079 20.4515 96.7949 18.8364Z" fill="#FDFDFE"/>
<path d="M76.9549 17.2029C76.5852 14.5376 75.149 13.2566 72.4504 13.1422C70.1048 13.0388 68.2103 14.1887 67.4598 16.2117C66.9053 17.7069 67.1179 19.2278 67.3804 20.7451C67.4395 21.0847 67.6946 21.0238 67.9182 20.9979C68.8794 20.8909 69.8368 20.7617 70.798 20.6749C71.1824 20.6398 71.2379 20.5106 71.1492 20.1562C70.9266 19.3456 70.8521 18.5015 70.9292 17.6644C71.0068 16.9611 71.3414 16.6086 71.87 16.6215C72.3987 16.6344 72.6408 16.9814 72.7443 17.6552C73.0253 19.608 72.5151 21.2508 70.9514 22.5392C70.1584 23.1926 69.4099 23.9014 68.6761 24.6194C66.3656 26.8787 66.2473 30.1679 67.0624 32.1208C67.6169 33.4424 68.6631 34.0552 70.0827 34.0829C71.432 34.1087 72.3173 33.4978 72.7351 32.2112C72.7499 32.1632 72.8072 32.1282 72.9014 32.0266C73.1269 32.5066 73.138 32.9496 73.1953 33.3833C73.2434 33.7525 73.3986 33.8226 73.7239 33.8171C74.6056 33.8005 75.491 33.7709 76.3708 33.8171C76.9586 33.854 77.0492 33.6325 77.0473 33.1064C77.0288 28.2409 77.0473 23.3753 77.0325 18.5098C77.0368 18.0729 77.0109 17.6363 76.9549 17.2029ZM72.7277 29.8209C72.6833 30.4651 72.2545 30.8527 71.7296 30.8213C71.1381 30.7863 70.8867 30.4023 70.8368 29.8671C70.6205 27.5321 71.3044 25.4574 72.724 23.6005C72.7609 25.6863 72.8663 27.7554 72.7277 29.8209Z" fill="#969696"/>
<path d="M85.6125 22.4523C84.7678 21.6697 83.8491 20.9628 83.1153 20.0528C82.5368 19.344 82.291 18.5558 82.4943 17.6532C82.6163 17.1198 82.864 16.7045 83.4979 16.7303C84.1319 16.7562 84.35 17.1992 84.4388 17.7289C84.5148 18.2498 84.4751 18.7811 84.3223 19.2849C84.2391 19.5839 84.3371 19.7095 84.6402 19.7353C85.1837 19.7814 85.7252 19.8516 86.2686 19.9033C88.3018 20.0971 88.3018 20.0878 88.3018 18.0224C88.3018 15.7963 87.544 14.3105 85.899 13.622C85.0855 13.2703 84.2055 13.0983 83.3193 13.1177C82.433 13.1371 81.5615 13.3476 80.7642 13.7346C80.2724 13.956 79.8319 14.2768 79.4705 14.6768C79.1091 15.0768 78.8347 15.5472 78.6645 16.0584C77.7643 18.6426 78.1968 21.0089 80.0008 23.0984C80.925 24.1652 82.0784 24.9903 83.0285 26.0295C83.9785 27.0687 84.4314 28.2039 84.1005 29.6012C83.9767 30.1198 83.716 30.4945 83.1357 30.5093C82.5553 30.5241 82.2244 30.166 82.0655 29.6307C81.8677 28.9643 81.9398 28.2943 82.0876 27.6391C82.1708 27.2699 82.0876 27.1536 81.718 27.1167C80.7143 27.0152 79.7143 26.8915 78.7144 26.766C78.5055 26.7401 78.3447 26.7438 78.2782 26.9912C77.8031 28.6524 77.8142 31.1221 79.2948 32.6191C80.8492 34.1917 82.7808 34.3855 84.7881 33.8502C86.7086 33.3389 87.8379 31.9638 88.2261 30.0478C88.849 27.0152 87.8453 24.5196 85.6125 22.4523Z" fill="#969696"/>
<path d="M95.8149 29.8466C95.7668 29.531 95.6873 29.4332 95.338 29.4996C94.6874 29.6251 94.3584 29.3483 94.2807 28.6764C94.2444 28.343 94.2284 28.0076 94.2327 27.6723C94.2327 24.4446 94.2327 21.2156 94.2327 17.9854C94.2327 16.7931 94.2327 16.7746 95.4397 16.7598C95.8334 16.7598 95.9443 16.6288 95.9332 16.2522C95.9073 15.4973 95.9055 14.7405 95.9332 13.9874C95.9498 13.585 95.8371 13.4337 95.4119 13.4521C94.6005 13.4854 93.7872 13.4614 92.9739 13.4614L92.8908 13.3266C93.9462 12.6178 94.4452 11.5934 94.6689 10.401C94.7465 9.98201 94.6689 9.80297 94.1791 9.81774C93.046 9.85281 91.9111 9.84542 90.7762 9.81774C90.3696 9.80666 90.2513 9.92664 90.2328 10.3346C90.1829 11.442 89.9593 12.5015 89.1404 13.334C89.0916 13.3881 89.0548 13.452 89.0325 13.5213C89.0102 13.5907 89.0029 13.664 89.011 13.7364C89.011 14.6168 89.011 15.4973 89.011 16.3777C89.011 16.6435 89.0979 16.7894 89.3807 16.7469C89.9574 16.6528 90.0092 16.9592 90.0073 17.4335C89.9907 21.3762 90.0073 25.317 89.9962 29.2597C89.9742 30.0363 90.0638 30.812 90.2624 31.5632C90.5914 32.6892 91.2032 33.5825 92.401 33.9111C93.5655 34.2436 94.8134 34.1167 95.887 33.5567C96.2419 33.3721 96.3749 33.1599 96.301 32.7612C96.1211 31.7927 95.9591 30.8212 95.8149 29.8466Z" fill="#969696"/>
<path d="M115.223 13.229C114.826 13.026 114.375 13.325 113.999 13.5557C113.711 13.7318 113.472 13.9791 113.306 14.2737L112.809 15.1966L112.683 15.1671C112.683 14.7702 112.663 14.3734 112.683 13.9784C112.706 13.6092 112.626 13.4505 112.208 13.4616C111.116 13.4893 110.022 13.4874 108.929 13.4616C108.532 13.4616 108.44 13.5926 108.441 13.9673C108.45 20.408 108.45 26.8486 108.441 33.2893C108.441 33.6713 108.552 33.8024 108.94 33.7932C109.97 33.771 111.001 33.7489 112.029 33.7932C112.617 33.8245 112.709 33.6086 112.707 33.0807C112.687 28.8224 112.695 24.5623 112.696 20.304C112.696 18.759 113.334 18.089 114.874 18.1204C115.301 18.1204 115.352 17.9801 115.347 17.6239C115.33 16.4905 115.347 15.3572 115.334 14.2257C115.34 13.8824 115.524 13.384 115.223 13.229Z" fill="#969696"/>
<path d="M24.3265 11.4438C23.7942 11.4438 23.3395 11.9348 23.3303 12.5255C23.3192 13.1549 23.7683 13.6441 24.3469 13.633C24.9254 13.6219 25.2988 13.1641 25.2951 12.5255C25.2914 11.8868 24.8774 11.4438 24.3265 11.4438Z" fill="#049DD9"/>
<path d="M26.5625 21.9208C26.5625 22.5391 26.9914 23.0098 27.5366 23.0098C28.0819 23.0098 28.4849 22.5539 28.4867 21.9023C28.4885 21.2507 28.1004 20.7948 27.5625 20.7764C27.0246 20.7579 26.557 21.2784 26.5625 21.9208Z" fill="#049DD9"/>
</g>
<defs>
<clipPath id="clip0_7190_4840">
<rect width="163" height="43" fill="white"/>
</clipPath>
</defs>
</svg>
