<svg width="163" height="43" viewBox="0 0 163 43" fill="none" xmlns="http://www.w3.org/2000/svg">
<g clip-path="url(#clip0_1923_5924)">
<path d="M18.2618 9.31217C13.0642 6.31334 7.86968 3.30898 2.67823 0.299075C1.39916 -0.442941 0.133032 0.254775 0.0738841 1.74065C0.0461586 2.41068 0.0387652 3.08071 0.0369168 3.75259C0.0233621 12.1203 0.0110397 20.4879 -5.05345e-05 28.8556C-0.0200163 29.2449 0.0641362 29.6326 0.243767 29.9787C0.423398 30.3248 0.692035 30.6169 1.0221 30.8251C5.19447 33.6836 9.35699 36.5551 13.5097 39.4395C15.1991 40.606 16.8922 41.7707 18.6851 43.0074C18.7017 42.773 18.7128 42.6752 18.7128 42.5755C18.7128 31.732 18.7165 20.8879 18.7239 10.0431C18.7257 9.65549 18.5612 9.48567 18.2618 9.31217Z" fill="#FEFEFE"/>
<path d="M44.614 1.10684C43.457 1.00716 42.4755 1.79348 42.2278 3.06524C42.2091 3.21778 42.1536 3.36349 42.066 3.48985C41.9784 3.61621 41.8614 3.71943 41.7251 3.79065C36.9329 6.56798 32.1431 9.35146 27.3559 12.1411C26.8697 12.4235 26.55 12.7151 26.4132 13.3353C26.062 14.9357 24.2894 15.6001 23.0861 14.6606C21.8274 13.6731 21.7516 11.6169 22.9457 10.5463C23.5815 9.9778 24.3282 9.80799 25.1027 10.1772C25.2641 10.2666 25.4479 10.3077 25.6322 10.2956C25.8164 10.2835 25.9932 10.2187 26.1415 10.1089C28.2893 8.83709 30.4519 7.58748 32.6108 6.33048C34.1874 5.40758 35.7715 4.50313 37.3389 3.56177C37.7887 3.28005 38.112 2.8354 38.2408 2.321C38.3697 1.80659 38.2942 1.26234 38.0302 0.80228C37.4572 -0.172308 36.4332 -0.190766 35.5293 0.340827C30.4519 3.34765 25.3393 6.28987 20.2267 9.2284C19.7905 9.47943 19.6241 9.74339 19.626 10.2528C19.6408 20.9105 19.6445 31.5689 19.6371 42.2278V42.9754C19.9032 42.8185 20.0659 42.7336 20.2156 42.6302C25.9517 38.6703 31.686 34.7117 37.4184 30.7542C37.7039 30.5743 37.9376 30.3233 38.0967 30.0259C38.2558 29.7285 38.3348 29.395 38.3259 29.0579C38.3259 28.0298 38.3425 27.0017 38.3259 25.9736C38.3129 25.8201 38.3484 25.6664 38.4273 25.534C38.5061 25.4016 38.6245 25.2971 38.7658 25.2353C39.6272 24.7554 40.4774 24.2551 41.3277 23.7586C42.1058 23.3046 42.3553 22.485 41.9395 21.7855C41.5698 21.1671 40.9876 21.1228 40.1336 21.6212C37.971 22.8751 35.8066 24.1259 33.6403 25.3737C32.9194 25.789 32.2226 25.514 32.0082 24.7498C31.8234 24.0946 32.0544 23.5593 32.7217 23.1735C34.3002 22.2506 35.8861 21.3517 37.4701 20.4417C39.2519 19.4154 41.0412 18.4113 42.8137 17.361C42.9724 17.2669 43.1102 17.1416 43.219 16.9927C43.3278 16.8439 43.4053 16.6746 43.4468 16.495C43.4882 16.3154 43.4928 16.1293 43.4603 15.9479C43.4277 15.7665 43.3587 15.5936 43.2574 15.4396C42.8877 14.8526 42.3054 14.7621 41.5624 15.1904C37.7806 17.3684 33.9977 19.544 30.2134 21.7172C30.0746 21.7818 29.9546 21.8808 29.8649 22.0049C29.7753 22.129 29.719 22.274 29.7014 22.4259C29.6553 22.8253 29.5056 23.2057 29.267 23.5295C29.0283 23.8532 28.7092 24.1091 28.341 24.2718C27.0379 24.8477 25.635 23.969 25.3541 22.389C25.1692 21.3923 25.4446 20.5082 26.2394 19.8418C26.9659 19.2327 27.768 19.2032 28.5813 19.6572C28.8216 19.7901 28.9732 19.6831 29.1543 19.5779C30.243 18.9447 31.3317 18.3153 32.4204 17.6804C34.1412 16.6763 35.8676 15.6777 37.581 14.6606C38.3074 14.2306 38.5218 13.435 38.1355 12.7724C37.7659 12.1448 37.2224 12.0636 36.3999 12.5379C34.6902 13.5236 32.9915 14.5259 31.2818 15.5097C30.5665 15.9195 29.8974 15.6204 29.6885 14.8231C29.5166 14.1641 29.7366 13.675 30.4278 13.267C34.5275 10.8712 38.6253 8.479 42.7213 6.09053C42.8476 6.00183 42.9967 5.95106 43.1509 5.94419C43.3052 5.93732 43.4582 5.97465 43.5919 6.05176C43.856 6.18782 44.1496 6.25696 44.4468 6.2531C44.7439 6.24924 45.0356 6.17249 45.2961 6.02961C46.3219 5.49064 46.6953 4.5825 46.6491 3.46394C46.5955 2.2254 45.712 1.19913 44.614 1.10684ZM44.3608 4.75231C43.8876 4.72093 43.4366 4.1192 43.4588 3.5673C43.4649 3.3135 43.5685 3.07175 43.748 2.89206C43.9276 2.71237 44.1695 2.6085 44.4237 2.60194C44.9505 2.61302 45.3479 3.07632 45.3479 3.66882C45.3479 4.26133 44.8858 4.78554 44.3608 4.75231Z" fill="#FDFDFE"/>
<path d="M65.5023 7.8337C65.4968 7.72856 65.4968 7.6232 65.5023 7.51806C65.5375 7.18766 65.3859 7.08061 65.0624 7.08245C63.6971 7.09476 62.3312 7.09476 60.9646 7.08245C60.6522 7.08245 60.5228 7.17659 60.4914 7.50514C60.3842 8.58863 60.2437 9.67028 60.1217 10.7538C59.7607 13.8166 59.399 16.8769 59.0368 19.9348C59.0183 20.0991 59.0848 20.3944 58.8316 20.3889C58.6098 20.3889 58.6597 20.0973 58.6375 19.9256C58.497 18.8033 58.3658 17.6793 58.2327 16.5552C57.8797 13.6019 57.5211 10.6486 57.1847 7.68419C57.1329 7.21904 56.9647 7.05661 56.4805 7.07138C55.2421 7.1083 54 7.11199 52.7616 7.07138C52.2237 7.05477 52.1017 7.23012 52.1035 7.74325C52.1257 11.457 52.1146 15.169 52.1146 18.8827C52.1146 23.6043 52.1239 28.324 52.1035 33.0438C52.1035 33.5975 52.1978 33.8356 52.8133 33.7821C53.5893 33.7286 54.3681 33.7286 55.1441 33.7821C55.6986 33.819 55.8372 33.64 55.8335 33.0881C55.8114 27.9069 55.8206 22.7257 55.8243 17.5427C55.8243 17.3138 55.767 17.0664 55.8982 16.8339C56.1478 16.9538 56.0831 17.144 56.0942 17.2935C56.6376 22.3584 57.1779 27.4245 57.7152 32.4919C57.8483 33.7729 57.8261 33.7489 59.1014 33.7839C59.6227 33.7969 59.8168 33.675 59.8722 33.1158C60.3602 28.2336 60.8851 23.3533 61.4008 18.4748C61.46 17.9211 61.5376 17.3784 61.6226 16.6973C61.9609 17.1495 61.8352 17.515 61.837 17.8491C61.8457 22.9472 61.8457 28.0453 61.837 33.1434C61.837 33.616 61.9294 33.8153 62.4507 33.7839C63.2275 33.7378 64.0065 33.7378 64.7833 33.7839C65.3508 33.8172 65.5227 33.6566 65.5227 33.0641C65.498 24.6558 65.4913 16.2457 65.5023 7.8337Z" fill="#FDFDFE"/>
<path d="M126.025 20.4347C125.741 20.3202 125.595 20.1818 125.976 20.0046C126.994 19.5321 127.388 18.6572 127.463 17.6235C127.654 15.2823 127.647 12.9292 127.443 10.5891C127.288 8.97588 126.388 7.88686 124.8 7.42171C124.053 7.20365 123.279 7.09181 122.501 7.08947C120.673 7.08947 118.845 7.10792 117.018 7.0747C116.477 7.06362 116.366 7.24267 116.368 7.74842C116.379 9.86741 116.383 11.9858 116.381 14.1035C116.378 16.2213 116.378 18.3397 116.381 20.4587V33.1689C116.381 33.4772 116.301 33.7928 116.821 33.7873C118.963 33.7633 121.107 33.8279 123.247 33.7577C125.682 33.6765 127.24 32.2811 127.462 29.8446C127.684 27.3578 127.673 24.8558 127.43 22.3709C127.353 21.4923 126.9 20.7854 126.025 20.4347ZM123.135 28.6393C123.109 29.8557 122.136 30.4667 120.99 30.0753C120.722 29.983 120.806 29.7819 120.806 29.612C120.806 28.416 120.806 27.2125 120.806 26.0275C120.806 25.1304 120.806 24.2334 120.806 23.3381C120.806 23.0391 120.806 22.7401 120.806 22.4411C120.806 22.0885 120.905 21.9409 121.266 21.9741C121.536 21.9981 121.811 21.9962 122.083 21.9999C122.661 21.9999 122.966 22.3192 123.072 22.8601C123.117 23.0416 123.144 23.2271 123.153 23.4138C123.144 25.1599 123.173 26.9005 123.135 28.6393ZM123.135 16.9738C123.083 18.2419 122.244 18.7901 121.02 18.4394C120.706 18.3508 120.804 18.1219 120.802 17.9354C120.802 16.828 120.802 15.7205 120.802 14.613C120.802 13.7787 120.802 12.9518 120.802 12.1138C120.802 11.835 120.802 11.56 120.802 11.2795C120.802 10.9103 120.913 10.7885 121.268 10.8235C121.497 10.8457 121.73 10.8235 121.961 10.8235C122.634 10.842 122.944 11.1004 123.098 11.7649C123.179 12.262 123.203 12.7666 123.172 13.2692C123.157 14.5022 123.179 15.7389 123.131 16.9812L123.135 16.9738Z" fill="#FDFDFE"/>
<path d="M116.38 14.1035C116.38 16.2225 116.38 18.3409 116.38 20.4586C116.379 18.3396 116.379 16.2213 116.38 14.1035Z" fill="#FDFDFE"/>
<path d="M161.566 26.6313C161.277 25.1307 160.601 23.6596 161.122 22.0722C161.233 21.6681 161.323 21.2583 161.39 20.8447C161.876 18.5707 162.355 16.2948 162.858 14.0245C162.954 13.587 162.884 13.4356 162.399 13.4504C161.307 13.4855 160.215 13.4744 159.122 13.4504C158.777 13.4504 158.64 13.5575 158.605 13.8989C158.536 14.5431 158.431 15.191 158.34 15.8278C158.08 17.6976 157.823 19.5656 157.553 21.4317C157.514 21.6993 157.553 22.0427 157.082 22.0094C156.57 21.9725 156.788 21.6034 156.745 21.356C156.735 21.2332 156.735 21.1097 156.745 20.9869C156.745 16.3723 156.745 11.7578 156.756 7.14328C156.756 6.60246 156.668 6.36804 156.054 6.40495C155.131 6.46133 154.205 6.46133 153.281 6.40495C152.692 6.37173 152.509 6.51017 152.514 7.14328C152.522 8.22492 152.527 9.30534 152.531 10.3845C152.531 13.6239 152.531 16.8652 152.531 20.1064C152.531 23.3772 152.531 26.6492 152.531 29.9224C152.531 31.0115 152.531 32.1017 152.531 33.1932C152.531 33.6565 152.636 33.8115 153.119 33.7912C154.104 33.7525 155.095 33.7433 156.076 33.7912C156.649 33.8208 156.771 33.6399 156.764 33.0935C156.732 30.6404 156.751 28.1874 156.749 25.7324C156.749 25.4906 156.736 25.2784 157.091 25.2747C157.379 25.2747 157.52 25.3633 157.536 25.6531C157.536 25.7989 157.579 25.9429 157.601 26.0887C157.971 28.4882 158.34 30.8878 158.684 33.3003C158.738 33.6694 158.869 33.7912 159.239 33.7839C160.329 33.7636 161.423 33.758 162.514 33.7839C162.985 33.7949 163.068 33.6602 162.974 33.2061C162.471 31.0225 161.985 28.8334 161.566 26.6313Z" fill="#FEFEFE"/>
<path d="M152.529 20.1047C152.529 23.3755 152.529 26.6475 152.529 29.9207C152.534 26.6487 152.534 23.3767 152.529 20.1047Z" fill="#FEFEFE"/>
<path d="M139.027 16.6004C138.55 15.0111 137.596 13.8575 135.947 13.3924C134.748 13.0463 133.474 13.0463 132.275 13.3924C130.406 13.9276 129.16 15.5538 128.966 17.7799C128.792 19.7475 128.944 21.7225 128.901 23.2084C128.901 25.4566 128.901 27.2193 128.901 28.9821C128.901 29.1907 128.931 29.3992 128.949 29.6097C129.155 31.8062 130.326 33.3437 132.225 33.8439C133.408 34.1572 134.652 34.1712 135.842 33.8846C137.374 33.5154 138.409 32.6109 138.934 31.1158C139.175 30.4428 139.3 29.7338 139.304 29.019C139.313 25.4738 139.313 21.9274 139.304 18.3797C139.297 17.7764 139.204 17.1772 139.027 16.6004ZM135.082 28.8898C135.083 29.1617 135.063 29.4332 135.021 29.7019C134.947 30.1616 134.702 30.4716 134.201 30.503C133.7 30.5344 133.376 30.276 133.221 29.7961C133.149 29.5334 133.119 29.2614 133.13 28.9895V23.5868C133.13 21.7853 133.13 19.9844 133.13 18.1841C133.11 17.8275 133.185 17.4718 133.349 17.1541C133.43 17.0071 133.554 16.8881 133.704 16.8126C133.855 16.7372 134.025 16.7089 134.191 16.7314C134.361 16.728 134.528 16.7803 134.665 16.8803C134.802 16.9804 134.903 17.1226 134.951 17.2852C135.057 17.6259 135.102 17.9828 135.082 18.3391C135.086 21.8548 135.086 25.3717 135.082 28.8898Z" fill="#FDFDFE"/>
<path d="M151.025 18.1171C150.912 15.1934 149.176 13.3476 146.426 13.1722C144.243 13.0338 142.359 13.5912 141.297 15.7084C140.805 16.6811 140.646 17.7388 140.646 18.8204C140.646 22.0936 140.646 25.3669 140.646 28.6401C140.645 28.9964 140.663 29.3525 140.7 29.707C140.942 31.9884 142.21 33.4909 144.302 33.9284C145.395 34.1635 146.528 34.149 147.614 33.8859C149.278 33.4817 150.315 32.4333 150.782 30.8052C150.972 30.1171 151.064 29.4055 151.054 28.6918C151.054 27.0546 151.054 25.4173 151.054 23.7819H151.036C151.038 21.8937 151.097 20.0036 151.025 18.1171ZM146.834 28.869C146.834 29.1826 146.802 29.4955 146.74 29.803C146.714 30.0039 146.613 30.1876 146.458 30.3179C146.302 30.4481 146.104 30.5153 145.901 30.5062C145.7 30.5228 145.499 30.4692 145.333 30.3543C145.167 30.2395 145.047 30.0707 144.992 29.8768C144.892 29.5557 144.849 29.2196 144.866 28.8838C144.866 27.1241 144.866 25.365 144.866 23.6066C144.866 21.8481 144.866 20.0885 144.866 18.3276C144.846 17.9715 144.9 17.6152 145.025 17.281C145.09 17.1021 145.213 16.9503 145.375 16.8499C145.537 16.7495 145.728 16.7063 145.918 16.7272C146.109 16.7179 146.298 16.7794 146.447 16.8999C146.596 17.0204 146.696 17.1915 146.727 17.3807C146.799 17.7074 146.835 18.041 146.832 18.3756C146.84 21.8752 146.841 25.373 146.834 28.869Z" fill="#FEFEFE"/>
<path d="M106.983 17.8055C106.815 15.1863 105.479 13.6672 103.24 13.2519C100.026 12.6539 97.6048 14.1361 96.9764 17.0893C96.8519 17.663 96.7899 18.2485 96.7915 18.8355C96.8045 20.4506 96.7915 22.0657 96.7915 23.6807C96.7915 25.4207 96.7915 27.1613 96.7915 28.9025C96.7915 28.9856 96.7915 29.0705 96.8026 29.1536C96.9339 31.7875 98.2018 33.4617 100.451 33.9398C101.173 34.0888 101.913 34.1286 102.647 34.0579C104.496 33.8955 105.86 33.0685 106.568 31.2892C107.2 29.6907 106.995 28.0258 107.026 26.3775C107.026 26.1117 106.841 26.0932 106.643 26.0711C105.579 25.9585 104.512 25.8477 103.451 25.713C103.102 25.6687 102.961 25.7351 102.974 26.1209C103 26.9164 102.974 27.7138 102.974 28.5112C102.974 28.993 103.006 29.4784 102.834 29.9417C102.786 30.1037 102.687 30.2456 102.55 30.3456C102.414 30.4457 102.249 30.4983 102.08 30.4955C101.901 30.5183 101.72 30.4844 101.562 30.3986C101.403 30.3128 101.276 30.1794 101.198 30.0174C101.045 29.6691 100.976 29.2897 100.997 28.9099C100.997 27.6086 101.019 26.3073 100.984 25.0079C100.971 24.5077 101.124 24.3729 101.618 24.3821C103.255 24.4117 104.895 24.3821 106.532 24.3951C106.799 24.3951 107.031 24.4098 107.028 24.0259C107.02 21.9641 107.115 19.8728 106.983 17.8055ZM102.886 21.2867C102.46 21.5654 101.834 21.355 101.294 21.3772C101.067 21.3864 101.011 21.248 101.015 21.0578C101.03 19.9504 101.015 18.8429 101.069 17.7354C101.091 17.2592 101.289 16.8254 101.852 16.7386C102.416 16.6519 102.732 16.8771 102.884 17.4124C103.069 18.0916 102.947 18.7838 102.991 19.3634C102.991 19.6587 103.004 19.847 102.991 20.0334C102.954 20.4672 103.196 21.0818 102.886 21.2867Z" fill="#FDFDFE"/>
<path d="M96.7935 18.8359C96.8064 20.451 96.7935 22.0661 96.7935 23.6812C96.7972 22.0661 96.8064 20.451 96.7935 18.8359Z" fill="#FDFDFE"/>
<path d="M76.9549 17.202C76.5852 14.5366 75.149 13.2556 72.4504 13.1412C70.1048 13.0378 68.2103 14.1878 67.4598 16.2108C66.9053 17.7059 67.1179 19.2268 67.3804 20.7441C67.4395 21.0837 67.6946 21.0228 67.9182 20.997C68.8794 20.8899 69.8368 20.7607 70.798 20.6739C71.1824 20.6389 71.2379 20.5097 71.1492 20.1553C70.9266 19.3446 70.8521 18.5005 70.9292 17.6634C71.0068 16.9602 71.3414 16.6076 71.87 16.6205C72.3987 16.6335 72.6408 16.9805 72.7443 17.6542C73.0253 19.6071 72.5151 21.2498 70.9514 22.5382C70.1584 23.1916 69.4099 23.9004 68.6761 24.6184C66.3656 26.8777 66.2473 30.1669 67.0624 32.1198C67.6169 33.4414 68.6631 34.0542 70.0827 34.0819C71.432 34.1077 72.3173 33.4968 72.7351 32.2103C72.7499 32.1623 72.8072 32.1272 72.9014 32.0257C73.1269 32.5056 73.138 32.9486 73.1953 33.3823C73.2434 33.7515 73.3986 33.8216 73.7239 33.8161C74.6056 33.7995 75.491 33.77 76.3708 33.8161C76.9586 33.853 77.0492 33.6315 77.0473 33.1055C77.0288 28.2399 77.0473 23.3744 77.0325 18.5088C77.0368 18.0719 77.0109 17.6353 76.9549 17.202ZM72.7277 29.8199C72.6833 30.4641 72.2545 30.8517 71.7296 30.8204C71.1381 30.7853 70.8867 30.4014 70.8368 29.8661C70.6205 27.5311 71.3044 25.4564 72.724 23.5995C72.7609 25.6853 72.8663 27.7545 72.7277 29.8199Z" fill="#FDFDFE"/>
<path d="M85.6105 22.4514C84.7658 21.6687 83.8472 20.9618 83.1134 20.0518C82.5348 19.343 82.289 18.5548 82.4923 17.6522C82.6143 17.1188 82.862 16.7035 83.496 16.7293C84.13 16.7552 84.3481 17.1982 84.4368 17.7279C84.5129 18.2488 84.4731 18.7801 84.3204 19.2839C84.2372 19.583 84.3351 19.7085 84.6383 19.7343C85.1817 19.7805 85.7233 19.8506 86.2667 19.9023C88.2999 20.0961 88.2999 20.0869 88.2999 18.0214C88.2999 15.7954 87.5421 14.3095 85.897 13.621C85.0835 13.2693 84.2035 13.0973 83.3173 13.1167C82.4311 13.1361 81.5595 13.3466 80.7623 13.7336C80.2705 13.955 79.83 14.2759 79.4686 14.6758C79.1072 15.0758 78.8327 15.5462 78.6625 16.0575C77.7624 18.6416 78.1949 21.0079 79.9989 23.0974C80.9231 24.1643 82.0764 24.9893 83.0265 26.0285C83.9766 27.0677 84.4294 28.2029 84.0986 29.6002C83.9747 30.1188 83.7141 30.4935 83.1337 30.5083C82.5533 30.5231 82.2225 30.165 82.0635 29.6297C81.8657 28.9634 81.9378 28.2933 82.0857 27.6381C82.1689 27.2689 82.0857 27.1526 81.716 27.1157C80.7124 27.0142 79.7124 26.8905 78.7124 26.765C78.5036 26.7392 78.3427 26.7429 78.2762 26.9902C77.8012 28.6514 77.8123 31.1211 79.2928 32.6181C80.8473 34.1907 82.7788 34.3845 84.7861 33.8492C86.7066 33.3379 87.836 31.9628 88.2241 30.0469C88.847 27.0142 87.8434 24.5187 85.6105 22.4514Z" fill="#FDFDFE"/>
<path d="M95.8139 29.8461C95.7659 29.5305 95.6864 29.4327 95.337 29.4991C94.6864 29.6246 94.3574 29.3478 94.2798 28.6759C94.2434 28.3425 94.2274 28.0071 94.2317 27.6718C94.2317 24.4441 94.2317 21.2151 94.2317 17.985C94.2317 16.7926 94.2317 16.7741 95.4387 16.7593C95.8324 16.7593 95.9433 16.6283 95.9322 16.2517C95.9063 15.4968 95.9045 14.74 95.9322 13.9869C95.9488 13.5845 95.8361 13.4332 95.411 13.4516C94.5995 13.4849 93.7863 13.4609 92.973 13.4609L92.8898 13.3261C93.9452 12.6173 94.4443 11.5929 94.6679 10.4005C94.7455 9.98152 94.6679 9.80248 94.1781 9.81725C93.0451 9.85232 91.9102 9.84493 90.7753 9.81725C90.3686 9.80617 90.2503 9.92615 90.2318 10.3341C90.1819 11.4416 89.9583 12.5011 89.1395 13.3335C89.0906 13.3876 89.0538 13.4515 89.0315 13.5208C89.0092 13.5902 89.0019 13.6635 89.0101 13.7359C89.0101 14.6164 89.0101 15.4968 89.0101 16.3773C89.0101 16.6431 89.0969 16.7889 89.3797 16.7464C89.9564 16.6523 90.0082 16.9587 90.0063 17.4331C89.9897 21.3757 90.0063 25.3165 89.9953 29.2592C89.9732 30.0358 90.0628 30.8116 90.2614 31.5627C90.5904 32.6887 91.2022 33.5821 92.4 33.9106C93.5645 34.2431 94.8124 34.1162 95.886 33.5562C96.2409 33.3716 96.374 33.1594 96.3 32.7607C96.1201 31.7922 95.9581 30.8207 95.8139 29.8461Z" fill="#FDFDFE"/>
<path d="M115.222 13.2275C114.824 13.0245 114.373 13.3235 113.998 13.5542C113.709 13.7304 113.471 13.9776 113.305 14.2723L112.808 15.1952L112.682 15.1656C112.682 14.7688 112.662 14.3719 112.682 13.9769C112.704 13.6078 112.625 13.449 112.207 13.4601C111.115 13.4878 110.02 13.4859 108.928 13.4601C108.531 13.4601 108.438 13.5912 108.44 13.9659C108.449 20.4065 108.449 26.8471 108.44 33.2878C108.44 33.6699 108.551 33.8009 108.939 33.7917C109.969 33.7696 111 33.7474 112.028 33.7917C112.615 33.8231 112.708 33.6071 112.706 33.0792C112.686 28.8209 112.693 24.5608 112.695 20.3025C112.695 18.7576 113.333 18.0875 114.872 18.1189C115.299 18.1189 115.351 17.9786 115.345 17.6224C115.329 16.4891 115.345 15.3557 115.333 14.2243C115.338 13.8809 115.523 13.3826 115.222 13.2275Z" fill="#FDFDFE"/>
<path d="M24.3261 11.4434C23.7937 11.4434 23.339 11.9343 23.3298 12.525C23.3187 13.1544 23.7679 13.6436 24.3464 13.6325C24.9249 13.6214 25.2983 13.1637 25.2946 12.525C25.2909 11.8864 24.8769 11.4434 24.3261 11.4434Z" fill="#FDFDFE"/>
<path d="M26.5611 21.9203C26.5611 22.5386 26.9899 23.0093 27.5352 23.0093C28.0804 23.0093 28.4834 22.5534 28.4852 21.9018C28.4871 21.2502 28.0989 20.7943 27.5611 20.7759C27.0232 20.7574 26.5555 21.2779 26.5611 21.9203Z" fill="#FDFDFE"/>
</g>
<defs>
<clipPath id="clip0_1923_5924">
<rect width="163" height="43" fill="white"/>
</clipPath>
</defs>
</svg>
