<svg width="22" height="22" viewBox="0 0 22 22" fill="none" xmlns="http://www.w3.org/2000/svg">
<path d="M9.08119 12.3333H12.4891C12.7151 12.3333 12.9318 12.2455 13.0916 12.0893C13.2513 11.933 13.3411 11.721 13.3411 11.5C13.3411 11.279 13.2513 11.067 13.0916 10.9107C12.9318 10.7545 12.7151 10.6667 12.4891 10.6667H9.08119C8.85523 10.6667 8.63853 10.7545 8.47875 10.9107C8.31897 11.067 8.22921 11.279 8.22921 11.5C8.22921 11.721 8.31897 11.933 8.47875 12.0893C8.63853 12.2455 8.85523 12.3333 9.08119 12.3333ZM16.749 4H4.82128C4.22187 4.00455 3.64317 4.21501 3.18633 4.5946C2.72949 4.97418 2.42358 5.49874 2.32208 6.07658C2.22057 6.65441 2.32993 7.24876 2.63103 7.75572C2.93213 8.26269 3.40582 8.65002 3.9693 8.85V16.5C3.9693 17.163 4.23858 17.7989 4.71792 18.2678C5.19725 18.7366 5.84736 19 6.52524 19H15.0451C15.7229 19 16.3731 18.7366 16.8524 18.2678C17.3317 17.7989 17.601 17.163 17.601 16.5V8.85C18.1645 8.65002 18.6382 8.26269 18.9393 7.75572C19.2404 7.24876 19.3497 6.65441 19.2482 6.07658C19.1467 5.49874 18.8408 4.97418 18.384 4.5946C17.9271 4.21501 17.3484 4.00455 16.749 4ZM15.8971 16.5C15.8971 16.721 15.8073 16.933 15.6475 17.0893C15.4877 17.2455 15.271 17.3333 15.0451 17.3333H6.52524C6.29928 17.3333 6.08258 17.2455 5.9228 17.0893C5.76302 16.933 5.67326 16.721 5.67326 16.5V9H15.8971V16.5ZM16.749 7.33333H4.82128C4.59532 7.33333 4.37861 7.24554 4.21884 7.08926C4.05906 6.93298 3.9693 6.72101 3.9693 6.5C3.9693 6.27899 4.05906 6.06702 4.21884 5.91074C4.37861 5.75446 4.59532 5.66667 4.82128 5.66667H16.749C16.975 5.66667 17.1917 5.75446 17.3515 5.91074C17.5113 6.06702 17.601 6.27899 17.601 6.5C17.601 6.72101 17.5113 6.93298 17.3515 7.08926C17.1917 7.24554 16.975 7.33333 16.749 7.33333Z" fill="#0468BF"/>
</svg>
