<svg width="25" height="25" viewBox="0 0 25 25" fill="none" xmlns="http://www.w3.org/2000/svg">
<path d="M18.75 19.5312H20.3125C20.5197 19.5312 20.7184 19.4489 20.8649 19.3024C21.0114 19.1559 21.0938 18.9572 21.0938 18.75V9.375C21.0938 9.1678 21.0114 8.96909 20.8649 8.82257C20.7184 8.67606 20.5197 8.59375 20.3125 8.59375H17.1875L16.4062 6.25H8.59375L7.8125 8.59375H4.6875C4.4803 8.59375 4.28159 8.67606 4.13507 8.82257C3.98856 8.96909 3.90625 9.1678 3.90625 9.375V18.75C3.90625 18.9572 3.98856 19.1559 4.13507 19.3024C4.28159 19.4489 4.4803 19.5312 4.6875 19.5312H6.25" stroke="white" stroke-width="2" stroke-linecap="round" stroke-linejoin="round"/>
<path d="M12.5 20.3125C15.0888 20.3125 17.1875 18.2138 17.1875 15.625C17.1875 13.0362 15.0888 10.9375 12.5 10.9375C9.91117 10.9375 7.8125 13.0362 7.8125 15.625C7.8125 18.2138 9.91117 20.3125 12.5 20.3125Z" stroke="white" stroke-width="2" stroke-linecap="round" stroke-linejoin="round"/>
<path d="M16.4062 6.25H8.59375L7.8125 7.8125H17.1875L16.4062 6.25Z" fill="white"/>
<path d="M7.8125 8.98438H17.1875" stroke="white" stroke-miterlimit="10"/>
</svg>
