<svg width="22" height="22" viewBox="0 0 22 22" fill="none" xmlns="http://www.w3.org/2000/svg">
<path d="M16.6437 17.3126H17.983C18.1606 17.3126 18.331 17.2421 18.4565 17.1165C18.5821 16.9909 18.6527 16.8206 18.6527 16.643V8.60728C18.6527 8.42968 18.5821 8.25936 18.4565 8.13377C18.331 8.00819 18.1606 7.93764 17.983 7.93764H15.3045L14.6348 5.92871H7.93839L7.26875 7.93764H4.59018C4.41257 7.93764 4.24225 8.00819 4.11667 8.13377C3.99108 8.25936 3.92053 8.42968 3.92053 8.60728V16.643C3.92053 16.8206 3.99108 16.9909 4.11667 17.1165C4.24225 17.2421 4.41257 17.3126 4.59018 17.3126H5.92946" stroke="white" stroke-width="2" stroke-linecap="round" stroke-linejoin="round"/>
<path d="M11.2867 17.9822C13.5057 17.9822 15.3045 16.1834 15.3045 13.9644C15.3045 11.7454 13.5057 9.94653 11.2867 9.94653C9.06765 9.94653 7.2688 11.7454 7.2688 13.9644C7.2688 16.1834 9.06765 17.9822 11.2867 17.9822Z" stroke="white" stroke-width="2" stroke-linecap="round" stroke-linejoin="round"/>
<path d="M14.6349 5.92871H7.93844L7.2688 7.268H15.3045L14.6349 5.92871Z" fill="white"/>
<path d="M7.2688 8.27246H15.3045" stroke="white" stroke-miterlimit="10"/>
</svg>
