<svg width="54" height="52" viewBox="0 0 54 52" fill="none" xmlns="http://www.w3.org/2000/svg">
<g clip-path="url(#clip0_2756_6106)">
<path d="M37.9664 17.0054C38.7994 16.1748 40.1507 16.1748 40.9837 17.0054C41.8168 17.8364 41.8168 19.1837 40.9837 20.0144L24.9586 35.9937C24.1252 36.8244 22.774 36.8244 21.9409 35.9937L13.928 28.004C13.095 27.1734 13.095 25.826 13.928 24.9954C14.7614 24.1645 16.1126 24.1645 16.9457 24.9954L23.4497 31.4806L37.9664 17.0054ZM27.4557 1C34.5168 1 40.911 3.85466 45.539 8.46926C50.167 13.0836 53.0299 19.4595 53.0299 26.4999C53.0299 33.5413 50.1673 39.9161 45.539 44.5307C40.911 49.1453 34.5168 52 27.4557 52C20.3941 52 14.0005 49.1456 9.37279 44.5307C4.74421 39.9161 1.88184 33.5413 1.88184 26.4999C1.88184 19.4595 4.74479 13.0836 9.37279 8.46926C14.0005 3.85409 20.3941 1 27.4557 1ZM42.5216 11.4779C38.6663 7.63402 33.3395 5.25619 27.4557 5.25619C21.5717 5.25619 16.2449 7.63402 12.3902 11.4779C8.53512 15.3218 6.15038 20.6334 6.15038 26.4999C6.15038 32.3672 8.53512 37.6785 12.3902 41.5221C16.2449 45.366 21.5717 47.7435 27.4557 47.7435C33.3395 47.7435 38.6663 45.366 42.5216 41.5221C46.3767 37.6785 48.7611 32.3672 48.7611 26.4999C48.7611 20.6334 46.3767 15.3218 42.5216 11.4779Z" fill="#049DD9"/>
</g>
<defs>
<clipPath id="clip0_2756_6106">
<rect width="52.151" height="52" fill="white" transform="translate(0.878906)"/>
</clipPath>
</defs>
</svg>
