<svg width="18" height="20" viewBox="0 0 18 20" fill="none" xmlns="http://www.w3.org/2000/svg">
<path d="M16.8667 9.2081L9.20837 16.8664C8.27017 17.8046 6.99769 18.3317 5.67087 18.3317C4.34405 18.3317 3.07157 17.8046 2.13337 16.8664C1.19517 15.9282 0.668091 14.6558 0.668091 13.3289C0.668091 12.0021 1.19517 10.7296 2.13337 9.79144L9.7917 2.1331C10.4172 1.50763 11.2655 1.15625 12.15 1.15625C13.0346 1.15625 13.8829 1.50763 14.5084 2.1331C15.1338 2.75857 15.4852 3.60689 15.4852 4.49144C15.4852 5.37598 15.1338 6.2243 14.5084 6.84977L6.8417 14.5081C6.52897 14.8208 6.10481 14.9965 5.66254 14.9965C5.22026 14.9965 4.79611 14.8208 4.48337 14.5081C4.17064 14.1954 3.99494 13.7712 3.99494 13.3289C3.99494 12.8867 4.17064 12.4625 4.48337 12.1498L11.5584 5.0831" stroke="#049DD9" stroke-width="2" stroke-linecap="round" stroke-linejoin="round"/>
</svg>
