<svg width="47" height="41" viewBox="0 0 47 41" fill="none" xmlns="http://www.w3.org/2000/svg">
<path d="M0.426636 40.5021H21.5442V8.30217L0.426636 15.0318V40.5021ZM14.7777 21.1418V27.4319C14.7777 27.7994 14.4763 28.102 14.1104 28.102H7.84612C7.48017 28.102 7.1788 27.7994 7.1788 27.4319V21.1418C7.1788 20.7743 7.48017 20.4717 7.84612 20.4717H14.1104C14.4835 20.4717 14.7777 20.7743 14.7777 21.1418ZM22.8717 0.614258V40.5093H28.9637V26.7474C28.9637 26.3799 29.2651 26.0773 29.631 26.0773H39.5978C39.9638 26.0773 40.2651 26.3799 40.2651 26.7474V40.5093H46.35V0.614258H22.8717ZM38.4067 8.95784V15.248C38.4067 15.6154 38.1053 15.918 37.7393 15.918H31.4751C31.1092 15.918 30.8078 15.6154 30.8078 15.248V8.95784C30.8078 8.59038 31.1092 8.28776 31.4751 8.28776H37.7393C38.1053 8.29497 38.4067 8.59038 38.4067 8.95784Z" fill="#C3CBD0"/>
</svg>
