<svg width="23" height="22" viewBox="0 0 23 22" fill="none" xmlns="http://www.w3.org/2000/svg">
<path d="M9.79604 12.3333H13.204C13.4299 12.3333 13.6466 12.2455 13.8064 12.0893C13.9662 11.933 14.0559 11.721 14.0559 11.5C14.0559 11.279 13.9662 11.067 13.8064 10.9107C13.6466 10.7545 13.4299 10.6667 13.204 10.6667H9.79604C9.57008 10.6667 9.35337 10.7545 9.19359 10.9107C9.03381 11.067 8.94405 11.279 8.94405 11.5C8.94405 11.721 9.03381 11.933 9.19359 12.0893C9.35337 12.2455 9.57008 12.3333 9.79604 12.3333ZM17.4639 4H5.53612C4.93672 4.00455 4.35801 4.21501 3.90118 4.5946C3.44434 4.97418 3.13842 5.49874 3.03692 6.07658C2.93541 6.65441 3.04477 7.24876 3.34587 7.75572C3.64697 8.26269 4.12066 8.65002 4.68414 8.85V16.5C4.68414 17.163 4.95343 17.7989 5.43276 18.2678C5.91209 18.7366 6.56221 19 7.24009 19H15.7599C16.4378 19 17.0879 18.7366 17.5672 18.2678C18.0466 17.7989 18.3159 17.163 18.3159 16.5V8.85C18.8793 8.65002 19.353 8.26269 19.6541 7.75572C19.9552 7.24876 20.0646 6.65441 19.9631 6.07658C19.8616 5.49874 19.5557 4.97418 19.0988 4.5946C18.642 4.21501 18.0633 4.00455 17.4639 4ZM16.6119 16.5C16.6119 16.721 16.5221 16.933 16.3624 17.0893C16.2026 17.2455 15.9859 17.3333 15.7599 17.3333H7.24009C7.01413 17.3333 6.79742 17.2455 6.63765 17.0893C6.47787 16.933 6.38811 16.721 6.38811 16.5V9H16.6119V16.5ZM17.4639 7.33333H5.53612C5.31016 7.33333 5.09346 7.24554 4.93368 7.08926C4.7739 6.93298 4.68414 6.72101 4.68414 6.5C4.68414 6.27899 4.7739 6.06702 4.93368 5.91074C5.09346 5.75446 5.31016 5.66667 5.53612 5.66667H17.4639C17.6898 5.66667 17.9065 5.75446 18.0663 5.91074C18.2261 6.06702 18.3159 6.27899 18.3159 6.5C18.3159 6.72101 18.2261 6.93298 18.0663 7.08926C17.9065 7.24554 17.6898 7.33333 17.4639 7.33333Z" fill="#0468BF"/>
</svg>
