<svg width="17" height="17" viewBox="0 0 17 17" fill="none" xmlns="http://www.w3.org/2000/svg">
<path d="M13.458 12.75H3.54134C3.15014 12.75 2.83301 13.0671 2.83301 13.4583C2.83301 13.8495 3.15014 14.1667 3.54134 14.1667H13.458C13.8492 14.1667 14.1663 13.8495 14.1663 13.4583C14.1663 13.0671 13.8492 12.75 13.458 12.75Z" fill="#0468BF"/>
<path d="M2.83301 12.0415V13.4582C2.83301 13.8494 3.15014 14.1665 3.54134 14.1665C3.93254 14.1665 4.24967 13.8494 4.24967 13.4582V12.0415C4.24967 11.6503 3.93254 11.3332 3.54134 11.3332C3.15014 11.3332 2.83301 11.6503 2.83301 12.0415Z" fill="#0468BF"/>
<path d="M12.75 12.0415V13.4582C12.75 13.8494 13.0671 14.1665 13.4583 14.1665C13.8495 14.1665 14.1667 13.8494 14.1667 13.4582V12.0415C14.1667 11.6503 13.8495 11.3332 13.4583 11.3332C13.0671 11.3332 12.75 11.6503 12.75 12.0415Z" fill="#0468BF"/>
<path d="M8.4997 10.6252C8.35285 10.6263 8.20928 10.5817 8.08887 10.4977L5.25553 8.50017C5.10283 8.39184 4.99922 8.22745 4.96736 8.04295C4.93551 7.85845 4.97799 7.66885 5.08553 7.51558C5.13922 7.43897 5.20754 7.37376 5.28656 7.3237C5.36559 7.27364 5.45374 7.23973 5.54594 7.22392C5.63814 7.20812 5.73256 7.21073 5.82374 7.23161C5.91492 7.25249 6.00107 7.29123 6.0772 7.34558L8.4997 9.0385L10.908 7.22517C11.0583 7.11245 11.2472 7.06405 11.4332 7.09062C11.6192 7.11719 11.787 7.21654 11.8997 7.36683C12.0124 7.51712 12.0608 7.70603 12.0342 7.89201C12.0077 8.07798 11.9083 8.24578 11.758 8.3585L8.9247 10.4835C8.80209 10.5755 8.65296 10.6252 8.4997 10.6252Z" fill="#0468BF"/>
<path d="M8.49935 9.20833C8.31149 9.20833 8.13132 9.13371 7.99848 9.00087C7.86564 8.86803 7.79102 8.68786 7.79102 8.5V2.83333C7.79102 2.64547 7.86564 2.4653 7.99848 2.33247C8.13132 2.19963 8.31149 2.125 8.49935 2.125C8.68721 2.125 8.86738 2.19963 9.00022 2.33247C9.13305 2.4653 9.20768 2.64547 9.20768 2.83333V8.5C9.20768 8.68786 9.13305 8.86803 9.00022 9.00087C8.86738 9.13371 8.68721 9.20833 8.49935 9.20833Z" fill="#0468BF"/>
</svg>
