<svg width="19" height="20" viewBox="0 0 19 20" fill="none" xmlns="http://www.w3.org/2000/svg">
<path d="M3.43055 15.5055H7.18766C7.30428 15.5062 7.41988 15.4831 7.52784 15.4374C7.63581 15.3918 7.734 15.3246 7.8168 15.2396L13.9487 8.88714L16.4652 6.33881C16.5483 6.25359 16.6142 6.15221 16.6592 6.04051C16.7042 5.9288 16.7274 5.80899 16.7274 5.68798C16.7274 5.56697 16.7042 5.44715 16.6592 5.33545C16.6142 5.22374 16.5483 5.12236 16.4652 5.03714L12.7081 1.10464C12.6258 1.01873 12.5278 0.950532 12.4198 0.903994C12.3118 0.857456 12.196 0.833496 12.079 0.833496C11.962 0.833496 11.8462 0.857456 11.7382 0.903994C11.6302 0.950532 11.5322 1.01873 11.4499 1.10464L8.95102 3.69881L2.80141 10.0513C2.71929 10.137 2.65431 10.2385 2.61021 10.3502C2.56612 10.4619 2.54376 10.5815 2.54444 10.7021V14.5888C2.54444 14.8319 2.6378 15.0651 2.80398 15.237C2.97015 15.4089 3.19554 15.5055 3.43055 15.5055ZM12.079 3.04798L14.5867 5.64214L13.3284 6.94381L10.8207 4.34964L12.079 3.04798ZM4.31666 11.078L9.5713 5.64214L12.079 8.23631L6.82436 13.6721H4.31666V11.078ZM17.6083 17.3388H1.65833C1.42332 17.3388 1.19793 17.4354 1.03175 17.6073C0.865575 17.7792 0.772217 18.0124 0.772217 18.2555C0.772217 18.4986 0.865575 18.7318 1.03175 18.9037C1.19793 19.0756 1.42332 19.1721 1.65833 19.1721H17.6083C17.8433 19.1721 18.0687 19.0756 18.2349 18.9037C18.4011 18.7318 18.4944 18.4986 18.4944 18.2555C18.4944 18.0124 18.4011 17.7792 18.2349 17.6073C18.0687 17.4354 17.8433 17.3388 17.6083 17.3388Z" fill="#0468BF"/>
</svg>
