<svg width="29" height="24" viewBox="0 0 29 24" fill="none" xmlns="http://www.w3.org/2000/svg">
<path d="M26.6196 6H18.3849V6.77594C19.1351 6.97576 19.6838 7.60124 19.6838 8.33976C19.6838 9.23883 18.8708 9.97019 17.8713 9.97019H11.1287C10.1292 9.97019 9.3162 9.23883 9.3162 8.33976C9.3162 7.60124 9.86491 6.97576 10.6151 6.77594V6H2.38038C1.06791 6 0 6.95825 0 8.13596V21.8587C0 23.0394 1.06791 24 2.38038 24H26.6196C27.9321 24 29 23.0394 29 21.8587V8.13596C29 6.95825 27.9321 6 26.6196 6ZM3.34298 16.575C3.34298 15.552 4.19498 14.7125 5.29409 14.5756C4.89554 14.0417 4.65928 13.4016 4.65928 12.8033C4.65928 11.3766 5.94963 10.2159 7.53556 10.2159C9.1215 10.2159 10.4118 11.3766 10.4118 12.8033C10.4118 13.4015 10.1757 14.0415 9.77722 14.5754C10.8776 14.7111 11.7308 15.5512 11.7308 16.575V18.3261C11.7308 18.6263 11.4603 18.8696 11.1266 18.8696H3.94714C3.61349 18.8696 3.34298 18.6263 3.34298 18.3261V16.575ZM25.375 21.2826H3.625C3.29135 21.2826 3.02083 21.0393 3.02083 20.7391C3.02083 20.439 3.29135 20.1957 3.625 20.1957H25.375C25.7086 20.1957 25.9792 20.439 25.9792 20.7391C25.9792 21.0393 25.7086 21.2826 25.375 21.2826ZM25.375 18.0671H13.2191C12.8854 18.0671 12.6149 17.8238 12.6149 17.5237C12.6149 17.2235 12.8854 16.9802 13.2191 16.9802H25.375C25.7086 16.9802 25.9792 17.2235 25.9792 17.5237C25.9792 17.8238 25.7086 18.0671 25.375 18.0671ZM25.375 14.8514H13.2191C12.8854 14.8514 12.6149 14.608 12.6149 14.3079C12.6149 14.0078 12.8854 13.7644 13.2191 13.7644H25.375C25.7086 13.7644 25.9792 14.0078 25.9792 14.3079C25.9792 14.608 25.7086 14.8514 25.375 14.8514ZM25.375 11.6359H13.2191C12.8854 11.6359 12.6149 11.3926 12.6149 11.0924C12.6149 10.7923 12.8854 10.549 13.2191 10.549H25.375C25.7086 10.549 25.9792 10.7923 25.9792 11.0924C25.9792 11.3926 25.7086 11.6359 25.375 11.6359Z" fill="#969696"/>
<path d="M11.5319 9H17.4681C17.766 9 18 8.68701 18 8.30448C18 7.92196 17.766 7.60896 17.4681 7.60896H16.8564V0.695518C16.8564 0.312991 16.617 0 16.3245 0H12.6755C12.383 0 12.1436 0.312991 12.1436 0.695518V7.60896H11.5319C11.234 7.60896 11 7.92196 11 8.30448C11 8.68701 11.234 9 11.5319 9Z" fill="#969696"/>
</svg>
