<svg width="17" height="12" viewBox="0 0 17 12" fill="none" xmlns="http://www.w3.org/2000/svg">
<path d="M14.5323 0H2.46774C1.81348 0.000703327 1.18622 0.25289 0.723586 0.70123C0.260952 1.14957 0.00072575 1.75745 0 2.3915V9.6085C0 10.927 1.10719 12 2.46774 12H14.5323C15.8928 12 17 10.927 17 9.6085V2.3915C17 1.07298 15.8928 0 14.5323 0ZM13.8029 1.59433L13.0461 2.1736L9.01 5.26129C8.70839 5.48981 8.29161 5.48981 7.99 5.26129L4.09645 2.27989L3.19874 1.59433H13.8029ZM14.5323 10.4057H2.46774C2.01423 10.4057 1.64516 10.048 1.64516 9.6085V2.44198L6.97 6.5155C7.41968 6.86094 7.96258 7.031 8.5 7.031C9.03742 7.031 9.58032 6.86094 10.03 6.5155L15.3548 2.44358V9.6085C15.3548 10.048 14.9858 10.4057 14.5323 10.4057Z" fill="#009D74"/>
</svg>
