<svg width="22" height="22" viewBox="0 0 22 22" fill="none" xmlns="http://www.w3.org/2000/svg">
<path d="M11 4.58337C7.04002 4.58337 3.66669 7.63587 1.77835 10.4959L1.45752 11L1.78752 11.5042C3.66669 14.3642 7.04002 17.4167 11 17.4167C14.96 17.4167 18.3334 14.3642 20.2217 11.5042L20.5517 11L20.2217 10.4959C18.3334 7.63587 14.96 4.58337 11 4.58337ZM11 15.5834C7.99335 15.5834 5.30752 13.3009 3.66669 11C5.31669 8.69921 8.00252 6.41671 11 6.41671C13.9975 6.41671 16.6925 8.69921 18.3334 11C16.6925 13.3009 14.0067 15.5834 11 15.5834Z" fill="#0468BF"/>
<path d="M11.0002 7.33337C10.275 7.33337 9.56605 7.54842 8.96307 7.95132C8.36009 8.35422 7.89013 8.92687 7.61261 9.59687C7.33508 10.2669 7.26247 11.0041 7.40395 11.7154C7.54543 12.4266 7.89465 13.08 8.40744 13.5928C8.92023 14.1056 9.57357 14.4548 10.2848 14.5963C10.9961 14.7377 11.7333 14.6651 12.4033 14.3876C13.0733 14.1101 13.646 13.6401 14.0489 13.0371C14.4518 12.4342 14.6668 11.7252 14.6668 11C14.6668 10.0276 14.2805 9.09495 13.5929 8.40732C12.9053 7.71968 11.9726 7.33337 11.0002 7.33337ZM11.0002 12.8334C10.6376 12.8334 10.2831 12.7259 9.98162 12.5244C9.68013 12.323 9.44515 12.0366 9.30639 11.7016C9.16762 11.3666 9.13132 10.998 9.20206 10.6424C9.2728 10.2867 9.44741 9.96007 9.7038 9.70368C9.9602 9.44728 10.2869 9.27267 10.6425 9.20193C10.9981 9.13119 11.3668 9.1675 11.7018 9.30626C12.0367 9.44502 12.3231 9.68001 12.5245 9.9815C12.726 10.283 12.8335 10.6374 12.8335 11C12.8335 11.4863 12.6403 11.9526 12.2965 12.2964C11.9527 12.6402 11.4864 12.8334 11.0002 12.8334Z" fill="#0468BF"/>
</svg>
