<svg width="17" height="17" viewBox="0 0 17 17" fill="none" xmlns="http://www.w3.org/2000/svg">
<path d="M16.9354 8.20392C15.5428 5.17862 12.3957 2.125 8.49983 2.125C4.60399 2.125 1.45687 5.17862 0.0642842 8.20392C0.0219215 8.29688 0 8.39784 0 8.5C0 8.60216 0.0219215 8.70312 0.0642842 8.79608C1.45687 11.8214 4.60399 14.875 8.49983 14.875C12.3957 14.875 15.5428 11.8214 16.9354 8.79608C16.9777 8.70312 16.9997 8.60216 16.9997 8.5C16.9997 8.39784 16.9777 8.29688 16.9354 8.20392ZM8.49983 13.4583C5.37537 13.4583 2.72974 10.9423 1.49441 8.5C2.72974 6.05767 5.37537 3.54167 8.49983 3.54167C11.6243 3.54167 14.2699 6.05767 15.5052 8.5C14.2699 10.9423 11.6243 13.4583 8.49983 13.4583Z" fill="#0468BF"/>
<path d="M8.49968 4.9585C7.7992 4.9585 7.11446 5.16621 6.53203 5.55537C5.94961 5.94454 5.49566 6.49767 5.2276 7.14483C4.95954 7.79198 4.88941 8.50409 5.02606 9.19111C5.16272 9.87812 5.50003 10.5092 5.99534 11.0045C6.49065 11.4998 7.12172 11.8371 7.80873 11.9738C8.49575 12.1104 9.20786 12.0403 9.85501 11.7722C10.5022 11.5042 11.0553 11.0502 11.4445 10.4678C11.8336 9.88538 12.0413 9.20064 12.0413 8.50016C12.0402 7.5612 11.6667 6.66102 11.0028 5.99707C10.3388 5.33312 9.43864 4.95962 8.49968 4.9585ZM8.49968 10.6252C8.07939 10.6252 7.66854 10.5005 7.31909 10.267C6.96963 10.0335 6.69727 9.70166 6.53643 9.31336C6.3756 8.92507 6.33351 8.49781 6.41551 8.0856C6.4975 7.67339 6.69989 7.29475 6.99707 6.99756C7.29426 6.70037 7.6729 6.49799 8.08511 6.41599C8.49732 6.334 8.92459 6.37608 9.31288 6.53692C9.70117 6.69775 10.0331 6.97012 10.2665 7.31958C10.5 7.66903 10.6247 8.07988 10.6247 8.50016C10.6247 9.06375 10.4008 9.60425 10.0023 10.0028C9.60376 10.4013 9.06326 10.6252 8.49968 10.6252Z" fill="#0468BF"/>
</svg>
