<svg width="14" height="14" viewBox="0 0 14 14" fill="none" xmlns="http://www.w3.org/2000/svg">
<path d="M7 0.268738C5.61553 0.268738 4.26216 0.663519 3.11101 1.40316C1.95987 2.1428 1.06266 3.19408 0.532847 4.42406C0.00303299 5.65403 -0.13559 7.00747 0.134506 8.3132C0.404603 9.61894 1.07129 10.8183 2.05026 11.7597C3.02922 12.7011 4.2765 13.3422 5.63437 13.6019C6.99224 13.8617 8.39971 13.7283 9.67879 13.2189C10.9579 12.7094 12.0511 11.8466 12.8203 10.7397C13.5895 9.63274 14 8.33132 14 7C14 6.11604 13.8189 5.24073 13.4672 4.42406C13.1154 3.60738 12.5998 2.86533 11.9498 2.24028C11.2997 1.61522 10.5281 1.1194 9.67879 0.781125C8.82951 0.442847 7.91926 0.268738 7 0.268738ZM7 12.385C5.89243 12.385 4.80973 12.0692 3.88881 11.4775C2.96789 10.8858 2.25013 10.0447 1.82628 9.06075C1.40243 8.07677 1.29153 6.99403 1.50761 5.94944C1.72368 4.90485 2.25703 3.94533 3.04021 3.19222C3.82338 2.43912 4.8212 1.92624 5.9075 1.71846C6.99379 1.51068 8.11977 1.61732 9.14303 2.0249C10.1663 2.43248 11.0409 3.12269 11.6562 4.00825C12.2716 4.89381 12.6 5.93495 12.6 7C12.6 8.42819 12.01 9.79789 10.9598 10.8078C9.9096 11.8177 8.48522 12.385 7 12.385Z" fill="#4DA9FF"/>
<path d="M6.9998 4.98041C7.3864 4.98041 7.6998 4.67904 7.6998 4.30728C7.6998 3.93552 7.3864 3.63416 6.9998 3.63416C6.61321 3.63416 6.2998 3.93552 6.2998 4.30728C6.2998 4.67904 6.61321 4.98041 6.9998 4.98041Z" fill="#4DA9FF"/>
<path d="M6.9998 5.65381C6.81415 5.65381 6.63611 5.72473 6.50483 5.85096C6.37355 5.9772 6.2998 6.14841 6.2998 6.32693V9.69257C6.2998 9.87109 6.37355 10.0423 6.50483 10.1685C6.63611 10.2948 6.81415 10.3657 6.9998 10.3657C7.18546 10.3657 7.3635 10.2948 7.49478 10.1685C7.62606 10.0423 7.6998 9.87109 7.6998 9.69257V6.32693C7.6998 6.14841 7.62606 5.9772 7.49478 5.85096C7.3635 5.72473 7.18546 5.65381 6.9998 5.65381Z" fill="#4DA9FF"/>
</svg>
