<svg width="53" height="52" viewBox="0 0 53 52" fill="none" xmlns="http://www.w3.org/2000/svg">
<g clip-path="url(#clip0_7328_1332)">
<path d="M26.8465 0.999756C33.9117 0.999756 40.3096 3.85442 44.9403 8.46902C49.5709 13.0833 52.4355 19.4593 52.4355 26.4996C52.4355 33.5411 49.5712 39.9159 44.9403 44.5305C40.3096 49.1451 33.9117 51.9998 26.8465 51.9998C19.7808 51.9998 13.3835 49.1454 8.7531 44.5305C4.12185 39.9159 1.25781 33.5411 1.25781 26.4996C1.25781 19.4593 4.12242 13.0833 8.7531 8.46902C13.3835 3.85384 19.7808 0.999756 26.8465 0.999756ZM41.9211 11.4777C38.0636 7.63378 32.7337 5.25594 26.8465 5.25594C20.9591 5.25594 15.6292 7.63378 11.7722 11.4777C7.91495 15.3215 5.52883 20.6332 5.52883 26.4996C5.52883 32.3669 7.91495 37.6783 11.7722 41.5219C15.6292 45.3657 20.9591 47.7433 26.8465 47.7433C32.7337 47.7433 38.0636 45.3657 41.9211 41.5219C45.7784 37.6783 48.1642 32.3669 48.1642 26.4996C48.1642 20.6332 45.7784 15.3215 41.9211 11.4777Z" fill="#049DD9"/>
<path d="M26.3494 33.9939C25.8172 33.9939 25.3067 33.7832 24.9303 33.4081C24.5539 33.0331 24.3425 32.5244 24.3425 31.9939C24.3232 30.3803 24.8898 28.814 25.938 27.5839C26.0885 27.4239 26.2993 27.2339 26.5501 27.0039C27.7945 25.8939 30.3634 23.5739 30.3634 21.0039C30.3989 20.4695 30.3194 19.9337 30.1302 19.4323C29.941 18.931 29.6465 18.4757 29.2665 18.097C28.8864 17.7183 28.4296 17.4248 27.9265 17.2363C27.4234 17.0478 26.8857 16.9686 26.3494 17.0039C25.8131 16.9686 25.2755 17.0478 24.7724 17.2363C24.2693 17.4248 23.8124 17.7183 23.4324 18.097C23.0523 18.4757 22.7579 18.931 22.5687 19.4323C22.3795 19.9337 22.3 20.4695 22.3355 21.0039C22.3355 21.5344 22.1241 22.0431 21.7477 22.4181C21.3713 22.7932 20.8608 23.0039 20.3285 23.0039C19.7963 23.0039 19.2858 22.7932 18.9094 22.4181C18.533 22.0431 18.3216 21.5344 18.3216 21.0039C18.2867 19.944 18.4704 18.8881 18.8615 17.9018C19.2526 16.9154 19.8427 16.0196 20.5952 15.2697C21.3477 14.5198 22.2467 13.9317 23.2365 13.542C24.2263 13.1523 25.2858 12.9691 26.3494 13.0039C27.4131 12.9691 28.4726 13.1523 29.4624 13.542C30.4522 13.9317 31.3511 14.5198 32.1037 15.2697C32.8562 16.0196 33.4463 16.9154 33.8374 17.9018C34.2284 18.8881 34.4122 19.944 34.3773 21.0039C34.3773 25.3539 30.9153 28.4839 29.2495 30.0039L28.7678 30.4339C28.4921 30.922 28.3502 31.4738 28.3564 32.0339C28.3459 32.5574 28.1298 33.0559 27.7546 33.4224C27.3793 33.7888 26.8748 33.994 26.3494 33.9939ZM26.3494 40.0039C25.8195 40.0043 25.3108 39.7958 24.9345 39.4239C24.7464 39.238 24.5971 39.0168 24.4952 38.7731C24.3933 38.5294 24.3409 38.2679 24.3409 38.0039C24.3409 37.7399 24.3933 37.4785 24.4952 37.2348C24.5971 36.9911 24.7464 36.7699 24.9345 36.5839C25.3189 36.2276 25.8244 36.0294 26.3494 36.0294C26.8745 36.0294 27.38 36.2276 27.7644 36.5839C27.8593 36.6776 27.9434 36.7816 28.0152 36.8939C28.0884 37.0016 28.1522 37.1154 28.2059 37.2339C28.2532 37.3573 28.2901 37.4844 28.3163 37.6139C28.3698 37.8712 28.3698 38.1367 28.3163 38.3939C28.2901 38.5202 28.2532 38.644 28.2059 38.7639C28.1542 38.8866 28.0903 39.0039 28.0152 39.1139C27.9434 39.2262 27.8593 39.3302 27.7644 39.4239C27.3881 39.7958 26.8794 40.0043 26.3494 40.0039Z" fill="#049DD9"/>
</g>
<defs>
<clipPath id="clip0_7328_1332">
<rect width="52.1812" height="52" fill="white" transform="translate(0.253906)"/>
</clipPath>
</defs>
</svg>
