<svg width="36" height="28" viewBox="0 0 36 28" fill="none" xmlns="http://www.w3.org/2000/svg">
<path d="M33.3329 0.530273H16.0492C14.5766 0.530273 13.3828 1.72407 13.3828 3.19669V3.20244C13.3828 4.67506 14.5766 5.86886 16.0492 5.86886H33.3329C34.8055 5.86886 35.9993 4.67506 35.9993 3.20244V3.19669C35.9993 1.72407 34.8055 0.530273 33.3329 0.530273Z" fill="white"/>
<path d="M3.40909 0.530273H3.33439C1.86176 0.530273 0.667969 1.72407 0.667969 3.19669V3.20244C0.667969 4.67506 1.86176 5.86886 3.33439 5.86886H3.40909C4.88171 5.86886 6.07551 4.67506 6.07551 3.20244V3.19669C6.07551 1.72407 4.88171 0.530273 3.40909 0.530273Z" fill="white"/>
<path d="M33.2919 22.1318H33.2172C31.7446 22.1318 30.5508 23.3256 30.5508 24.7983V24.804C30.5508 26.2766 31.7446 27.4704 33.2172 27.4704H33.2919C34.7645 27.4704 35.9583 26.2766 35.9583 24.804V24.7983C35.9583 23.3256 34.7645 22.1318 33.2919 22.1318Z" fill="white"/>
<path d="M22.9986 22.1318H3.44376C1.97114 22.1318 0.777344 23.3256 0.777344 24.7983V24.804C0.777344 26.2766 1.97114 27.4704 3.44376 27.4704H22.9986C24.4712 27.4704 25.665 26.2766 25.665 24.804V24.7983C25.665 23.3256 24.4712 22.1318 22.9986 22.1318Z" fill="white"/>
<path d="M33.327 11.3623H3.17423C1.70161 11.3623 0.507812 12.5561 0.507812 14.0287V14.0345C0.507812 15.5071 1.70161 16.7009 3.17423 16.7009H33.327C34.7996 16.7009 35.9934 15.5071 35.9934 14.0345V14.0287C35.9934 12.5561 34.7996 11.3623 33.327 11.3623Z" fill="white"/>
</svg>
