<svg width="30" height="30" viewBox="0 0 22 23" fill="none" xmlns="http://www.w3.org/2000/svg">
<g clip-path="url(#clip0_7082_1207)">
<path d="M2.75 12.0859H13.9973V18.0845H2.75V12.0859Z" fill="#80D8FF"/>
<path d="M19.9957 6.36882C19.9991 6.35148 19.9991 6.33367 19.9957 6.31633C19.9774 6.27164 19.9507 6.23091 19.917 6.19636L14.6682 0.947606C14.6337 0.913883 14.593 0.887149 14.5483 0.868875C14.5309 0.865535 14.5131 0.865535 14.4958 0.868875C14.4577 0.848728 14.4152 0.838418 14.3721 0.838882H3.87455C3.77512 0.838882 3.67976 0.878382 3.60945 0.948691C3.53914 1.019 3.49964 1.11436 3.49964 1.21379V11.3364H2.37491C2.27548 11.3364 2.18012 11.3759 2.10981 11.4462C2.0395 11.5165 2 11.6119 2 11.7113V18.4597C2 18.5591 2.0395 18.6545 2.10981 18.7248C2.18012 18.7951 2.27548 18.8346 2.37491 18.8346H3.49964V21.459C3.49964 21.5584 3.53914 21.6538 3.60945 21.7241C3.67976 21.7944 3.77512 21.8339 3.87455 21.8339H19.6208C19.7202 21.8339 19.8156 21.7944 19.8859 21.7241C19.9562 21.6538 19.9957 21.5584 19.9957 21.459V6.46254C20.0014 6.43156 20.0014 6.3998 19.9957 6.36882ZM14.747 2.11733L18.7173 6.08763H14.747V2.11733ZM2.74982 12.0862H13.9971V18.0848H2.74982V12.0862ZM4.24946 21.0841V18.8346H14.3721C14.4715 18.8346 14.5669 18.7951 14.6372 18.7248C14.7075 18.6545 14.747 18.5591 14.747 18.4597V11.7113C14.747 11.6119 14.7075 11.5165 14.6372 11.4462C14.5669 11.3759 14.4715 11.3364 14.3721 11.3364H4.24946V1.5887H13.9971V6.46254C13.9971 6.56198 14.0366 6.65734 14.107 6.72765C14.1773 6.79796 14.2726 6.83746 14.3721 6.83746H19.2459V21.0841H4.24946Z" fill="#01579B"/>
<path d="M18.7174 6.08798H14.7471V2.11768L18.7174 6.08798Z" fill="white"/>
<path d="M19.2464 6.83811V21.0847H4.25V18.8353H14.3726C14.472 18.8353 14.5674 18.7958 14.6377 18.7254C14.708 18.6551 14.7475 18.5598 14.7475 18.4603V11.7119C14.7475 11.6125 14.708 11.5172 14.6377 11.4468C14.5674 11.3765 14.472 11.337 14.3726 11.337H4.25V1.58936H13.9977V6.4632C13.9977 6.56263 14.0372 6.65799 14.1075 6.7283C14.1778 6.79861 14.2732 6.83811 14.3726 6.83811H19.2464Z" fill="white"/>
<path d="M4.62402 16.5856V13.5863H5.62129C5.87733 13.5693 6.13073 13.6466 6.33362 13.8037C6.43602 13.8928 6.51714 14.0037 6.57099 14.1283C6.62485 14.2529 6.65007 14.388 6.64479 14.5236C6.64253 14.6988 6.59193 14.8701 6.49858 15.0185C6.4109 15.1647 6.27986 15.28 6.12367 15.3484C5.98812 15.4087 5.84085 15.4382 5.69252 15.4346H5.24263V16.5856H4.62402ZM5.25762 14.891H5.61004C5.72107 14.8968 5.83 14.8592 5.91372 14.786C5.95079 14.7488 5.97963 14.7042 5.99836 14.6551C6.01709 14.606 6.02529 14.5535 6.02244 14.5011C6.02244 14.2711 5.88497 14.1562 5.61004 14.1562H5.25762V14.891ZM7.22965 16.5856V13.5863H8.35439C8.6363 13.5763 8.91261 13.6667 9.1342 13.8412C9.31773 13.9905 9.46334 14.1811 9.55913 14.3975C9.65491 14.6138 9.69815 14.8497 9.68532 15.0859C9.68856 15.361 9.62419 15.6326 9.49786 15.877C9.37963 16.1055 9.1972 16.2945 8.97299 16.4206C8.71393 16.545 8.4276 16.6017 8.14069 16.5856H7.22965ZM7.86325 16.0157H8.26816C8.41216 16.021 8.55446 15.9831 8.67681 15.907C8.80654 15.8096 8.90912 15.6806 8.97476 15.5322C9.0404 15.3839 9.0669 15.2212 9.05172 15.0597C9.06449 14.9079 9.03851 14.7553 8.97621 14.6163C8.91392 14.4773 8.81735 14.3564 8.69556 14.2649C8.57484 14.1882 8.43355 14.1503 8.29065 14.1562H7.86325V16.0157ZM10.3377 16.5856V13.5863H12.0548V14.1562H10.9713V14.7673H11.9648V15.3371H10.9713V16.5856H10.3377Z" fill="#01579B"/>
</g>
<defs>
<clipPath id="clip0_7082_1207">
<rect width="22" height="22" fill="white" transform="translate(0 0.5)"/>
</clipPath>
</defs>
</svg>
