<svg width="18" height="18" viewBox="0 0 18 18" fill="none" xmlns="http://www.w3.org/2000/svg">
<g clip-path="url(#clip0_6769_16296)">
<path d="M3.375 14.3044H4.31437V16.875C4.31437 17.0988 4.40327 17.3134 4.5615 17.4716C4.71974 17.6299 4.93435 17.7188 5.15812 17.7188H12.8419C13.0657 17.7188 13.2803 17.6299 13.4385 17.4716C13.5967 17.3134 13.6856 17.0988 13.6856 16.875V14.3044H14.625C16.3311 14.3044 17.7188 12.9167 17.7188 11.2106V6.78937C17.7188 5.08331 16.3311 3.69563 14.625 3.69563H13.6856V1.125C13.6856 0.901224 13.5967 0.686612 13.4385 0.528379C13.2803 0.370145 13.0657 0.28125 12.8419 0.28125H5.15812C4.93435 0.28125 4.71974 0.370145 4.5615 0.528379C4.40327 0.686612 4.31437 0.901224 4.31437 1.125V3.69563H3.375C2.55476 3.69652 1.76837 4.02275 1.18838 4.60275C0.608378 5.18275 0.282143 5.96914 0.28125 6.78937V11.2106C0.28125 12.9167 1.66894 14.3044 3.375 14.3044ZM11.9981 16.0312H6.00187V9.84375H11.9981V16.0312ZM6.00187 1.96875H11.9981V3.69563H6.00187V1.96875ZM1.96875 6.78937C1.96875 6.01369 2.59987 5.38312 3.375 5.38312H14.625C15.4001 5.38312 16.0312 6.01369 16.0312 6.78937V11.2106C16.0312 11.9863 15.4001 12.6169 14.625 12.6169H13.6856V9.83813C13.9087 9.83082 14.1196 9.73521 14.2722 9.57233C14.4247 9.40946 14.5063 9.19266 14.499 8.96963C14.4917 8.74659 14.3961 8.5356 14.2332 8.38307C14.0703 8.23053 13.8535 8.14894 13.6305 8.15625H4.3695C4.14647 8.14887 3.92964 8.23038 3.76671 8.38287C3.60378 8.53535 3.5081 8.74631 3.50072 8.96934C3.49333 9.19237 3.57485 9.4092 3.72734 9.57213C3.87982 9.73506 4.09078 9.83074 4.31381 9.83813V12.6169H3.375C3.00218 12.6164 2.64475 12.4681 2.38112 12.2045C2.1175 11.9409 1.9692 11.5834 1.96875 11.2106V6.78937Z" fill="#0468BF"/>
<path d="M3.95996 7.54877H4.92184C5.03264 7.54877 5.14236 7.52694 5.24473 7.48454C5.34709 7.44214 5.44011 7.37999 5.51846 7.30164C5.59681 7.22329 5.65896 7.13027 5.70136 7.02791C5.74376 6.92554 5.76559 6.81582 5.76559 6.70502C5.76559 6.59421 5.74376 6.4845 5.70136 6.38213C5.65896 6.27976 5.59681 6.18675 5.51846 6.1084C5.44011 6.03005 5.34709 5.9679 5.24473 5.92549C5.14236 5.88309 5.03264 5.86127 4.92184 5.86127H3.95996C3.84916 5.86127 3.73944 5.88309 3.63707 5.92549C3.5347 5.9679 3.44169 6.03005 3.36334 6.1084C3.28499 6.18675 3.22284 6.27976 3.18044 6.38213C3.13804 6.4845 3.11621 6.59421 3.11621 6.70502C3.11621 6.81582 3.13804 6.92554 3.18044 7.02791C3.22284 7.13027 3.28499 7.22329 3.36334 7.30164C3.44169 7.37999 3.5347 7.44214 3.63707 7.48454C3.73944 7.52694 3.84916 7.54877 3.95996 7.54877Z" fill="#0468BF"/>
</g>
<defs>
<clipPath id="clip0_6769_16296">
<rect width="18" height="18" fill="white"/>
</clipPath>
</defs>
</svg>
