<svg width="150" height="110" viewBox="0 0 133 96" fill="none" xmlns="http://www.w3.org/2000/svg">
<path d="M132.925 86.9924H0.379883V87.0588H132.925V86.9924Z" fill="#EBEBEB"/>
<path d="M119.645 91.2664H110.865V91.3328H119.645V91.2664Z" fill="#EBEBEB"/>
<path d="M88.1825 91.989H85.8789V92.0554H88.1825V91.989Z" fill="#EBEBEB"/>
<path d="M110.599 88.801H105.512V88.8674H110.599V88.801Z" fill="#EBEBEB"/>
<path d="M25.7364 89.2473H14.2871V89.3137H25.7364V89.2473Z" fill="#EBEBEB"/>
<path d="M29.7757 89.2473H28.0977V89.3137H29.7757V89.2473Z" fill="#EBEBEB"/>
<path d="M60.0651 90.3689H35.2314V90.4353H60.0651V90.3689Z" fill="#EBEBEB"/>
<path d="M63.2061 75.1434H12.0198C11.6188 75.1427 11.2345 74.9825 10.9512 74.6981C10.6679 74.4137 10.5088 74.0283 10.5088 73.6264V1.51695C10.5088 1.11509 10.6679 0.729649 10.9512 0.445242C11.2345 0.160835 11.6188 0.000703782 12.0198 0L63.2061 0C63.6076 0 63.9926 0.159821 64.2765 0.444304C64.5603 0.728787 64.7198 1.11463 64.7198 1.51695V73.6264C64.7198 73.8256 64.6806 74.0229 64.6046 74.2069C64.5285 74.391 64.417 74.5582 64.2765 74.6991C64.1359 74.8399 63.969 74.9517 63.7854 75.0279C63.6017 75.1041 63.4049 75.1434 63.2061 75.1434ZM12.0198 0.0664163C11.6364 0.06712 11.2689 0.220254 10.9981 0.492205C10.7272 0.764156 10.5751 1.1327 10.5751 1.51695V73.6264C10.5751 74.0107 10.7272 74.3792 10.9981 74.6512C11.2689 74.9231 11.6364 75.0763 12.0198 75.077H63.2061C63.5898 75.0763 63.9575 74.9232 64.2288 74.6513C64.5001 74.3795 64.6528 74.0109 64.6535 73.6264V1.51695C64.6528 1.13246 64.5001 0.763918 64.2288 0.492043C63.9575 0.220168 63.5898 0.0671185 63.2061 0.0664163H12.0198Z" fill="#EBEBEB"/>
<path d="M120.547 75.1434H69.3584C68.9572 75.1427 68.5726 74.9826 68.2888 74.6983C68.0051 74.414 67.8454 74.0285 67.8447 73.6264V1.51695C67.8454 1.11484 68.0051 0.72941 68.2888 0.44508C68.5726 0.160749 68.9572 0.000702366 69.3584 0L120.547 0C120.948 0.00140596 121.332 0.161847 121.614 0.446178C121.897 0.730509 122.056 1.11555 122.056 1.51695V73.6264C122.056 74.0278 121.897 74.4129 121.614 74.6972C121.332 74.9815 120.948 75.142 120.547 75.1434ZM69.3584 0.0664163C68.9747 0.0671185 68.607 0.220168 68.3357 0.492043C68.0644 0.763918 67.9117 1.13246 67.911 1.51695V73.6264C67.9117 74.0109 68.0644 74.3795 68.3357 74.6513C68.607 74.9232 68.9747 75.0763 69.3584 75.077H120.547C120.931 75.0763 121.299 74.9232 121.57 74.6513C121.841 74.3795 121.994 74.0109 121.995 73.6264V1.51695C121.994 1.13246 121.841 0.763918 121.57 0.492043C121.299 0.220168 120.931 0.0671185 120.547 0.0664163H69.3584Z" fill="#EBEBEB"/>
<path d="M77.1741 31.6431L113.698 31.6431V7.6721L77.1741 7.6721V31.6431Z" fill="#E6E6E6"/>
<path d="M76.0568 31.6431L113.175 31.6431V7.6721L76.0568 7.6721V31.6431Z" fill="#F0F0F0"/>
<path d="M77.1741 36.3457L113.698 36.3457V31.6408L77.1741 31.6408V36.3457Z" fill="#E6E6E6"/>
<path d="M74.2053 36.3457L111.323 36.3457V31.6408L74.2053 31.6408V36.3457Z" fill="#F0F0F0"/>
<path d="M111.617 30.0814V9.2373L77.6193 9.2373V30.0814L111.617 30.0814Z" fill="#FAFAFA"/>
<path d="M103.951 30.0787L99.6087 9.2373H92.833L97.1752 30.0787H103.951Z" fill="white"/>
<path d="M110.896 28.5215C110.925 28.5215 110.953 28.5098 110.974 28.4888C110.995 28.4679 111.007 28.4395 111.007 28.4099V10.2517C111.007 10.2371 111.004 10.2226 110.998 10.209C110.993 10.1955 110.985 10.1832 110.974 10.1728C110.964 10.1625 110.952 10.1542 110.938 10.1486C110.925 10.143 110.91 10.1401 110.896 10.1401C110.881 10.1401 110.866 10.143 110.853 10.1486C110.839 10.1542 110.827 10.1625 110.817 10.1728C110.806 10.1832 110.798 10.1955 110.793 10.209C110.787 10.2226 110.784 10.2371 110.784 10.2517V28.4099C110.784 28.4246 110.787 28.4391 110.793 28.4526C110.798 28.4662 110.806 28.4785 110.817 28.4888C110.827 28.4992 110.839 28.5074 110.853 28.513C110.866 28.5186 110.881 28.5215 110.896 28.5215Z" fill="#F0F0F0"/>
<path d="M95.7195 30.0787L91.3773 9.2373H88.7344L93.0792 30.0787H95.7195Z" fill="white"/>
<path d="M77.8174 30.0814V9.2373H77.6186V30.0814H77.8174Z" fill="#E6E6E6"/>
<path opacity="0.6" d="M75.6914 11.5935H112.216L112.359 9.84277H75.8346L75.6914 11.5935Z" fill="#EBEBEB"/>
<path opacity="0.6" d="M75.6914 14.4626H112.216L112.359 12.7119H75.8346L75.6914 14.4626Z" fill="#EBEBEB"/>
<path opacity="0.6" d="M75.6914 17.3321H112.216L112.359 15.584H75.8346L75.6914 17.3321Z" fill="#EBEBEB"/>
<path opacity="0.6" d="M75.6914 20.2039H112.216L112.359 18.4531H75.8346L75.6914 20.2039Z" fill="#EBEBEB"/>
<path opacity="0.6" d="M75.6914 23.0725H112.216L112.359 21.3218H75.8346L75.6914 23.0725Z" fill="#EBEBEB"/>
<path opacity="0.6" d="M75.6914 25.9421H112.216L112.359 24.1914H75.8346L75.6914 25.9421Z" fill="#EBEBEB"/>
<path d="M108.454 69.5591H100.796V71.0734H108.454V69.5591Z" fill="#E6E6E6"/>
<path d="M86.3507 86.9924H87.7637V52.1717H86.3507V86.9924Z" fill="#E6E6E6"/>
<path d="M81.4529 71.0708H100.794V69.5565H81.4529V71.0708Z" fill="#F5F5F5"/>
<path d="M108.454 77.8401H100.796V79.3544H108.454V77.8401Z" fill="#E6E6E6"/>
<path d="M81.4529 79.3516H100.794V77.8373H81.4529V79.3516Z" fill="#F5F5F5"/>
<path d="M108.454 53.0005H100.796V54.5148H108.454V53.0005Z" fill="#E6E6E6"/>
<path d="M81.4529 54.5112H100.794V52.9969H81.4529V54.5112Z" fill="#F5F5F5"/>
<path d="M108.454 61.2783H100.796V62.7926H108.454V61.2783Z" fill="#E6E6E6"/>
<path d="M81.4529 62.7925H100.794V61.2782H81.4529V62.7925Z" fill="#F5F5F5"/>
<path d="M105.695 86.9924H107.108V52.1717H105.695V86.9924Z" fill="#E6E6E6"/>
<path d="M99.381 86.9924H100.794V52.1717H99.381V86.9924Z" fill="#F5F5F5"/>
<path d="M81.4533 86.9924H82.8662V52.1717H81.4533V86.9924Z" fill="#F5F5F5"/>
<path d="M17.712 86.9924H32.1807V58.8612H17.712L17.712 86.9924Z" fill="#E6E6E6"/>
<path d="M21.574 86.9919H17.709V83.1079H25.6246L21.574 86.9919Z" fill="#FAFAFA"/>
<path d="M57.1573 90.8491H71.626V62.7178H57.1573V90.8491Z" fill="#E6E6E6"/>
<path d="M17.7122 85.6553H60.5322V58.8603H17.7122V85.6553Z" fill="#FAFAFA"/>
<path d="M56.6668 86.9919H60.5292V83.1079H52.6162L56.6668 86.9919Z" fill="#FAFAFA"/>
<path d="M20.7068 75.5498H57.5332V68.8444H20.7068V75.5498Z" fill="#F0F0F0"/>
<path d="M20.7068 83.6897H57.5332V76.9843H20.7068V83.6897Z" fill="#F0F0F0"/>
<path d="M50.5346 69.5483H27.7077C27.3857 69.5483 27.0769 69.4201 26.8492 69.192C26.6215 68.9638 26.4936 68.6543 26.4936 68.3316V68.2492H51.7461V68.3316C51.7461 68.6538 51.6185 68.9629 51.3914 69.191C51.1643 69.4191 50.8562 69.5476 50.5346 69.5483Z" fill="#FAFAFA"/>
<path d="M20.7068 67.4126H57.5332V60.7072L20.7068 60.7072V67.4126Z" fill="#F0F0F0"/>
<path d="M50.5346 61.4219H27.7077C27.3857 61.4219 27.0769 61.2937 26.8492 61.0655C26.6215 60.8373 26.4936 60.5278 26.4936 60.2051V60.1228H51.7461V60.2051C51.7461 60.5274 51.6185 60.8365 51.3914 61.0646C51.1643 61.2927 50.8562 61.4212 50.5346 61.4219Z" fill="#FAFAFA"/>
<path d="M50.5346 77.6992H27.7077C27.3857 77.6992 27.0769 77.571 26.8492 77.3428C26.6215 77.1147 26.4936 76.8052 26.4936 76.4825V76.4001H51.7461V76.4825C51.7461 76.8047 51.6185 77.1138 51.3914 77.3419C51.1643 77.57 50.8562 77.6985 50.5346 77.6992Z" fill="#FAFAFA"/>
<path d="M20.0149 31.6431L56.5391 31.6431V7.6721L20.0149 7.6721V31.6431Z" fill="#E6E6E6"/>
<path d="M18.9025 31.6431L56.0205 31.6431V7.6721L18.9025 7.6721V31.6431Z" fill="#F0F0F0"/>
<path d="M20.0149 36.3457L56.5391 36.3457V31.6408L20.0149 31.6408V36.3457Z" fill="#E6E6E6"/>
<path d="M17.0441 36.3457L54.1621 36.3457V31.6408L17.0441 31.6408V36.3457Z" fill="#F0F0F0"/>
<path d="M54.458 30.0814V9.2373L20.4602 9.2373V30.0814L54.458 30.0814Z" fill="#FAFAFA"/>
<path d="M46.7917 30.0787L42.4495 9.2373H35.6738L40.016 30.0787H46.7917Z" fill="white"/>
<path d="M53.7344 28.5215C53.7639 28.5215 53.7922 28.5098 53.8131 28.4888C53.834 28.4679 53.8457 28.4395 53.8457 28.4099V10.2517C53.8457 10.2371 53.8428 10.2226 53.8372 10.209C53.8317 10.1955 53.8235 10.1832 53.8131 10.1728C53.8028 10.1625 53.7905 10.1542 53.777 10.1486C53.7635 10.143 53.749 10.1401 53.7344 10.1401C53.7049 10.1401 53.6765 10.1519 53.6557 10.1728C53.6348 10.1937 53.623 10.2221 53.623 10.2517V28.4099C53.623 28.4395 53.6348 28.4679 53.6557 28.4888C53.6765 28.5098 53.7049 28.5215 53.7344 28.5215Z" fill="#F0F0F0"/>
<path d="M38.5613 30.0787L34.2191 9.2373H31.5762L35.9184 30.0787H38.5613Z" fill="white"/>
<path d="M20.6592 30.0814V9.2373H20.4604V30.0814H20.6592Z" fill="#E6E6E6"/>
<path opacity="0.6" d="M18.5312 11.5935H55.0554L55.1986 9.84277H18.6744L18.5312 11.5935Z" fill="#EBEBEB"/>
<path opacity="0.6" d="M18.5312 12.5791H55.0554L55.1986 10.8311H18.6744L18.5312 12.5791Z" fill="#EBEBEB"/>
<path opacity="0.6" d="M18.5312 13.5676H55.0554L55.1986 11.8169H18.6744L18.5312 13.5676Z" fill="#EBEBEB"/>
<path opacity="0.6" d="M18.5312 14.5537H55.0554L55.1986 12.8057H18.6744L18.5312 14.5537Z" fill="#EBEBEB"/>
<path opacity="0.6" d="M18.5312 15.5413H55.0554L55.1986 13.7905H18.6744L18.5312 15.5413Z" fill="#EBEBEB"/>
<path opacity="0.6" d="M18.5312 16.53H55.0554L55.1986 14.7793H18.6744L18.5312 16.53Z" fill="#EBEBEB"/>
<path d="M25.8339 57.9976H27.0957V43.8934H25.8339V57.9976Z" fill="#F5F5F5"/>
<path d="M25.9917 57.9893H26.3496V43.8851H25.9917V57.9893Z" fill="#FAFAFA"/>
<path d="M26.4992 57.9893H26.6396V43.8851H26.4992V57.9893Z" fill="#FAFAFA"/>
<path d="M31.1387 58.8608H21.7969C21.7969 58.548 21.9209 58.248 22.1416 58.0268C22.3624 57.8056 22.6617 57.6813 22.9739 57.6813H29.959C30.2712 57.6813 30.5706 57.8056 30.7913 58.0268C31.012 58.248 31.136 58.548 31.136 58.8608H31.1387Z" fill="#F0F0F0"/>
<path d="M24.1959 52.6522C24.292 52.6515 24.384 52.613 24.4519 52.5448C24.5199 52.4767 24.5584 52.3846 24.5591 52.2883V43.0378C24.5591 42.9413 24.5208 42.8487 24.4527 42.7804C24.3846 42.7122 24.2922 42.6738 24.1959 42.6738C24.148 42.6735 24.1005 42.6826 24.0561 42.7008C24.0117 42.7189 23.9714 42.7457 23.9374 42.7795C23.9034 42.8133 23.8764 42.8536 23.858 42.8979C23.8396 42.9422 23.8301 42.9898 23.8301 43.0378V52.2856C23.8301 52.3828 23.8686 52.4761 23.9372 52.5448C24.0058 52.6136 24.0989 52.6522 24.1959 52.6522Z" fill="#F0F0F0"/>
<path d="M20.8105 47.2489H32.1167L30.8151 39.332H22.1121L20.8105 47.2489Z" fill="#E0E0E0"/>
<path d="M66.6523 94.7044C95.0388 94.7044 118.051 93.3579 118.051 91.697C118.051 90.0361 95.0388 88.6897 66.6523 88.6897C38.2658 88.6897 15.2539 90.0361 15.2539 91.697C15.2539 93.3579 38.2658 94.7044 66.6523 94.7044Z" fill="#F5F5F5"/>
<path d="M27.9812 39.1626L27.7168 39.1816L28.0689 44.0811L28.3334 44.062L27.9812 39.1626Z" fill="#407BFF"/>
<path d="M28.5134 46.5908L28.249 46.6099L28.3816 48.4541L28.646 48.435L28.5134 46.5908Z" fill="#407BFF"/>
<path d="M89.9031 69.1286H33.1313C32.4993 69.1172 31.894 68.8718 31.4319 68.4396C30.9698 68.0074 30.6837 67.4191 30.6288 66.7881L27.8401 27.9664C27.8141 27.667 27.8511 27.3655 27.9485 27.0813C28.0459 26.7971 28.2016 26.5364 28.4057 26.3162C28.6097 26.0959 28.8575 25.921 29.1331 25.8025C29.4087 25.6841 29.706 25.6249 30.0059 25.6286H86.7776C87.4092 25.6399 88.0142 25.885 88.4762 26.3166C88.9382 26.7482 89.2246 27.3359 89.2801 27.9664L92.0688 66.7881C92.0948 67.0876 92.0578 67.3892 91.9604 67.6736C91.8631 67.958 91.7074 68.2188 91.5034 68.4392C91.2994 68.6597 91.0516 68.8349 90.776 68.9536C90.5004 69.0723 90.203 69.1319 89.9031 69.1286Z" fill="#407BFF"/>
<path d="M90.1208 69.1286H33.3491C32.7171 69.1172 32.1117 68.8718 31.6497 68.4396C31.1876 68.0074 30.9015 67.4191 30.8466 66.7881L28.0579 27.9664C28.0319 27.667 28.0688 27.3655 28.1663 27.0813C28.2637 26.7971 28.4194 26.5364 28.6234 26.3162C28.8275 26.0959 29.0753 25.921 29.3509 25.8025C29.6265 25.6841 29.9238 25.6249 30.2236 25.6286H86.9954C87.6269 25.6399 88.232 25.885 88.694 26.3166C89.156 26.7482 89.4423 27.3359 89.4979 27.9664L92.2866 66.7881C92.313 67.0877 92.2763 67.3895 92.1791 67.6741C92.0818 67.9586 91.9262 68.2196 91.7221 68.4401C91.518 68.6606 91.2701 68.8358 90.9943 68.9544C90.7185 69.073 90.4209 69.1323 90.1208 69.1286Z" fill="#407BFF"/>
<path opacity="0.5" d="M90.1208 69.1286H33.3491C32.7171 69.1172 32.1117 68.8718 31.6497 68.4396C31.1876 68.0074 30.9015 67.4191 30.8466 66.7881L28.0579 27.9664C28.0319 27.667 28.0688 27.3655 28.1663 27.0813C28.2637 26.7971 28.4194 26.5364 28.6234 26.3162C28.8275 26.0959 29.0753 25.921 29.3509 25.8025C29.6265 25.6841 29.9238 25.6249 30.2236 25.6286H86.9954C87.6269 25.6399 88.232 25.885 88.694 26.3166C89.156 26.7482 89.4423 27.3359 89.4979 27.9664L92.2866 66.7881C92.313 67.0877 92.2763 67.3895 92.1791 67.6741C92.0818 67.9586 91.9262 68.2196 91.7221 68.4401C91.518 68.6606 91.2701 68.8358 90.9943 68.9544C90.7185 69.073 90.4209 69.1323 90.1208 69.1286Z" fill="white"/>
<path d="M87.0798 26.7974H30.308C30.2444 26.7974 30.1808 26.7974 30.1172 26.7974C28.6671 26.9169 28.964 29.1299 30.4273 29.1299H87.2945C88.7605 29.1299 88.7393 26.9169 87.2707 26.7974C87.2071 26.7974 87.1434 26.7974 87.0798 26.7974Z" fill="#407BFF"/>
<path d="M31.7872 27.9669C31.7928 28.0354 31.784 28.1043 31.7613 28.1691C31.7387 28.234 31.7027 28.2934 31.6557 28.3435C31.6088 28.3935 31.5519 28.4332 31.4887 28.4598C31.4255 28.4865 31.3574 28.4996 31.2888 28.4982C31.1448 28.4962 31.0065 28.4408 30.9008 28.3427C30.7951 28.2446 30.7293 28.1107 30.7162 27.9669C30.7111 27.8987 30.7201 27.8302 30.7428 27.7657C30.7654 27.7012 30.8012 27.6421 30.8478 27.5922C30.8943 27.5423 30.9508 27.5026 31.0135 27.4756C31.0762 27.4486 31.1437 27.435 31.212 27.4356C31.3563 27.4375 31.4949 27.4928 31.601 27.5909C31.7072 27.689 31.7735 27.8229 31.7872 27.9669Z" fill="#FAFAFA"/>
<path d="M33.6085 27.9669C33.6141 28.0354 33.6053 28.1043 33.5826 28.1691C33.56 28.234 33.524 28.2934 33.477 28.3435C33.4301 28.3935 33.3732 28.4332 33.31 28.4598C33.2468 28.4865 33.1787 28.4996 33.1101 28.4982C32.9661 28.4962 32.8278 28.4408 32.7221 28.3427C32.6164 28.2446 32.5506 28.1107 32.5375 27.9669C32.5324 27.8987 32.5414 27.8302 32.5641 27.7657C32.5867 27.7012 32.6224 27.6421 32.669 27.5922C32.7156 27.5423 32.7721 27.5026 32.8348 27.4756C32.8974 27.4486 32.965 27.435 33.0333 27.4356C33.1776 27.4375 33.3162 27.4928 33.4223 27.5909C33.5285 27.689 33.5948 27.8229 33.6085 27.9669Z" fill="#FAFAFA"/>
<path d="M35.4274 27.9669C35.4329 28.0352 35.4242 28.1039 35.4017 28.1685C35.3792 28.2332 35.3435 28.2925 35.2968 28.3425C35.2501 28.3925 35.1935 28.4322 35.1306 28.459C35.0678 28.4859 35 28.4992 34.9316 28.4983C34.7874 28.4968 34.6488 28.4416 34.543 28.3434C34.4371 28.2452 34.3715 28.111 34.359 27.9669C34.3535 27.8987 34.3622 27.83 34.3847 27.7653C34.4072 27.7006 34.4429 27.6414 34.4896 27.5914C34.5363 27.5413 34.5929 27.5016 34.6558 27.4748C34.7186 27.448 34.7864 27.4346 34.8548 27.4356C34.9987 27.4382 35.1366 27.4938 35.2422 27.5918C35.3478 27.6898 35.4137 27.8233 35.4274 27.9669Z" fill="#FAFAFA"/>
<path d="M88.6161 65.2526H34.3124C34.0834 65.2489 33.8639 65.1601 33.6965 65.0036C33.529 64.8471 33.4254 64.6338 33.4058 64.4052L31.1127 32.4802C31.1025 32.3706 31.1157 32.2602 31.1513 32.1561C31.187 32.052 31.2443 31.9568 31.3196 31.8766C31.3948 31.7965 31.4861 31.7333 31.5876 31.6912C31.689 31.6492 31.7983 31.6292 31.908 31.6327H86.225C86.4542 31.6359 86.674 31.7244 86.8416 31.8811C87.0092 32.0377 87.1126 32.2513 87.1316 32.4802L89.4273 64.4052C89.4369 64.5159 89.4227 64.6274 89.3858 64.7323C89.3489 64.8371 89.2901 64.9328 89.2133 65.013C89.1365 65.0933 89.0435 65.1561 88.9405 65.1975C88.8376 65.2388 88.727 65.2576 88.6161 65.2526Z" fill="white"/>
<path d="M65.7319 53.0925L64.8465 40.7868L62.169 39.1689H54.7969L55.7989 53.0925H65.7319Z" fill="white"/>
<path d="M65.7324 53.2206H55.7995C55.7668 53.2207 55.7353 53.2084 55.7112 53.1863C55.6871 53.1641 55.6723 53.1337 55.6696 53.101L54.6702 39.1802C54.669 39.1623 54.6715 39.1444 54.6774 39.1275C54.6833 39.1106 54.6926 39.0951 54.7047 39.0819C54.7165 39.0691 54.7309 39.059 54.7468 39.0521C54.7628 39.0452 54.7801 39.0418 54.7974 39.042H62.1696C62.193 39.0416 62.2161 39.048 62.2359 39.0606L64.9133 40.6759C64.9315 40.686 64.9468 40.7006 64.9579 40.7182C64.969 40.7359 64.9756 40.756 64.9769 40.7768L65.857 53.0824C65.8587 53.1003 65.8565 53.1184 65.8505 53.1353C65.8446 53.1523 65.835 53.1678 65.8226 53.1807C65.7986 53.2049 65.7664 53.2191 65.7324 53.2206ZM55.9241 52.9549H65.5919L64.7224 40.8538L62.1458 39.2997H54.9353L55.9241 52.9549Z" fill="#407BFF"/>
<path d="M64.8473 40.7868L62.1699 39.1689L63.1534 41.3102L64.8473 40.7868Z" fill="#EBEBEB"/>
<path d="M63.1531 41.444C63.1283 41.4439 63.104 41.4366 63.0833 41.4229C63.0625 41.4092 63.0463 41.3898 63.0364 41.3669L62.053 39.2416C62.0402 39.2166 62.0361 39.188 62.0412 39.1604C62.0463 39.1328 62.0604 39.1076 62.0813 39.0888C62.1021 39.07 62.1286 39.0587 62.1565 39.0565C62.1845 39.0544 62.2124 39.0615 62.2359 39.0769L64.9133 40.6921C64.9349 40.7051 64.9523 40.724 64.9636 40.7466C64.9749 40.7692 64.9795 40.7945 64.9769 40.8197C64.9729 40.8439 64.9624 40.8666 64.9465 40.8853C64.9306 40.904 64.91 40.9181 64.8868 40.9259L63.1902 41.4573L63.1531 41.444ZM62.4612 39.4993L63.222 41.157L64.5475 40.7506L62.4612 39.4993Z" fill="#407BFF"/>
<path d="M58.9646 45.4423C58.9689 45.5147 58.9584 45.5873 58.9337 45.6555C58.909 45.7236 58.8707 45.7861 58.821 45.8388C58.7713 45.8916 58.7114 45.9336 58.6449 45.9623C58.5784 45.9909 58.5068 46.0057 58.4344 46.0055C58.2826 46.0028 58.1373 45.9436 58.0266 45.8395C57.9159 45.7355 57.8477 45.5939 57.8353 45.4423C57.8284 45.3695 57.8372 45.296 57.861 45.2269C57.8848 45.1577 57.9231 45.0944 57.9733 45.0414C58.0235 44.9883 58.0845 44.9465 58.1521 44.919C58.2198 44.8915 58.2925 44.8788 58.3655 44.8818C58.5168 44.8845 58.6618 44.9433 58.7724 45.0468C58.883 45.1503 58.9515 45.2912 58.9646 45.4423Z" fill="#407BFF"/>
<path d="M62.5968 45.4422C62.6037 45.5152 62.5949 45.5887 62.5711 45.658C62.5473 45.7273 62.5091 45.7907 62.4589 45.844C62.4087 45.8973 62.3478 45.9393 62.2801 45.9671C62.2125 45.995 62.1397 46.008 62.0667 46.0054C61.9146 46.0027 61.769 45.9436 61.6579 45.8396C61.5467 45.7356 61.478 45.594 61.4649 45.4422C61.4585 45.3695 61.4675 45.2962 61.4915 45.2272C61.5155 45.1583 61.5538 45.0952 61.6039 45.0422C61.6541 44.9892 61.7148 44.9475 61.7823 44.9198C61.8497 44.8921 61.9223 44.8791 61.9951 44.8817C62.147 44.8831 62.293 44.9414 62.4043 45.0451C62.5156 45.1488 62.5843 45.2904 62.5968 45.4422Z" fill="#407BFF"/>
<path d="M63.6257 49.0896C63.5933 49.0897 63.562 49.0774 63.5384 49.0552C63.5147 49.0329 63.5004 49.0025 63.4984 48.9701C63.4321 48.0668 62.0166 47.3309 60.3438 47.3309C59.2331 47.3309 58.2364 47.6604 57.7433 48.1943C57.6424 48.2919 57.5632 48.4099 57.5111 48.5404C57.459 48.6709 57.4352 48.811 57.4411 48.9515C57.4423 48.9689 57.4401 48.9865 57.4346 49.003C57.429 49.0196 57.4203 49.0349 57.4088 49.0481C57.3857 49.0748 57.353 49.0912 57.3178 49.0936C57.2827 49.0961 57.248 49.0845 57.2214 49.0613C57.1948 49.0381 57.1785 49.0053 57.176 48.9701C57.1683 48.7944 57.1974 48.619 57.2613 48.4552C57.3252 48.2915 57.4226 48.1429 57.5471 48.019C58.0773 47.4345 59.1562 47.0732 60.3359 47.0732C62.173 47.0732 63.6707 47.8995 63.745 48.9515C63.7464 48.9685 63.7444 48.9855 63.7392 49.0017C63.7339 49.0179 63.7255 49.0329 63.7144 49.0458C63.7033 49.0587 63.6897 49.0692 63.6745 49.0767C63.6592 49.0842 63.6426 49.0886 63.6257 49.0896Z" fill="#407BFF"/>
<path d="M56.8896 44.3022C56.8734 44.3025 56.8574 44.2996 56.8424 44.2937C56.8273 44.2878 56.8136 44.2789 56.8021 44.2676C56.7902 44.2558 56.7808 44.2417 56.7744 44.2262C56.768 44.2107 56.7646 44.1941 56.7646 44.1773C56.7646 44.1605 56.768 44.1439 56.7744 44.1284C56.7808 44.1129 56.7902 44.0988 56.8021 44.087L57.3667 43.4786C57.3784 43.4664 57.3923 43.4567 57.4078 43.45C57.4233 43.4434 57.44 43.4399 57.4568 43.4399C57.4737 43.4399 57.4904 43.4434 57.5059 43.45C57.5214 43.4567 57.5353 43.4664 57.547 43.4786C57.5588 43.4904 57.5683 43.5045 57.5747 43.52C57.5811 43.5355 57.5844 43.5521 57.5844 43.5689C57.5844 43.5857 57.5811 43.6023 57.5747 43.6178C57.5683 43.6333 57.5588 43.6474 57.547 43.6592L56.9823 44.2676C56.97 44.2794 56.9555 44.2886 56.9395 44.2945C56.9236 44.3005 56.9066 44.3031 56.8896 44.3022Z" fill="#407BFF"/>
<path d="M63.3597 44.3022C63.3273 44.3017 63.2962 44.2895 63.2722 44.2676L62.6228 43.6619C62.6105 43.65 62.6007 43.6358 62.5941 43.62C62.5874 43.6043 62.584 43.5874 62.584 43.5703C62.584 43.5532 62.5874 43.5362 62.5941 43.5205C62.6007 43.5047 62.6105 43.4905 62.6228 43.4786C62.6344 43.4664 62.6484 43.4567 62.6639 43.45C62.6794 43.4434 62.696 43.4399 62.7129 43.4399C62.7297 43.4399 62.7464 43.4434 62.7619 43.45C62.7774 43.4567 62.7914 43.4664 62.803 43.4786L63.4525 44.087C63.4644 44.0988 63.4738 44.1129 63.4802 44.1284C63.4866 44.1439 63.4899 44.1605 63.4899 44.1773C63.4899 44.1941 63.4866 44.2107 63.4802 44.2262C63.4738 44.2417 63.4644 44.2558 63.4525 44.2676C63.427 44.2905 63.3939 44.3028 63.3597 44.3022Z" fill="#407BFF"/>
<path d="M53.9971 55.8428H54.5962L55.4604 56.9931L55.3782 55.8428H55.9826L56.131 57.9229H55.5187L54.6598 56.7806L54.742 57.9229H54.1376L53.9971 55.8428Z" fill="#407BFF"/>
<path d="M56.4012 56.8843C56.3806 56.7429 56.3902 56.5986 56.4295 56.4612C56.4688 56.3238 56.5369 56.1963 56.6292 56.0873C56.7295 55.9875 56.8501 55.9104 56.9827 55.8614C57.1153 55.8123 57.2569 55.7925 57.3979 55.8031C57.6966 55.7868 57.9901 55.8868 58.2171 56.082C58.425 56.2895 58.5455 56.5691 58.5537 56.8631C58.5752 57.0658 58.5479 57.2708 58.4742 57.4608C58.4056 57.6138 58.2905 57.7411 58.1455 57.8248C57.971 57.9171 57.7754 57.962 57.5782 57.955C57.3751 57.9619 57.173 57.9228 56.987 57.8407C56.8238 57.763 56.6859 57.6405 56.5894 57.4874C56.4757 57.3061 56.4108 57.0983 56.4012 56.8843ZM57.0454 56.8843C57.043 57.0481 57.0953 57.208 57.1938 57.3386C57.2356 57.3837 57.2866 57.4194 57.3433 57.4432C57.4 57.4671 57.4611 57.4785 57.5225 57.4768C57.5813 57.4809 57.6402 57.4707 57.6942 57.4471C57.7482 57.4235 57.7957 57.3872 57.8327 57.3413C57.9125 57.1916 57.9378 57.0188 57.9043 56.8524C57.9054 56.6962 57.853 56.5443 57.7558 56.4221C57.7133 56.3772 57.6618 56.3419 57.6047 56.3186C57.5475 56.2952 57.4861 56.2843 57.4244 56.2866C57.3668 56.2841 57.3093 56.2953 57.2568 56.3193C57.2043 56.3433 57.1582 56.3794 57.1222 56.4247C57.0409 56.5642 57.0136 56.7287 57.0454 56.887V56.8843Z" fill="#407BFF"/>
<path d="M59.7998 55.8429H60.7541C60.9114 55.8379 61.0682 55.8641 61.2154 55.9199C61.3319 55.9689 61.4354 56.0444 61.5176 56.1404C61.6011 56.238 61.665 56.3507 61.7058 56.4725C61.7488 56.6033 61.7755 56.739 61.7853 56.8763C61.8057 57.05 61.7922 57.2259 61.7456 57.3944C61.7091 57.511 61.6444 57.6169 61.5574 57.7025C61.4847 57.7796 61.3934 57.8363 61.2923 57.8673C61.1689 57.9023 61.0414 57.9211 60.9132 57.923H59.9615L59.7998 55.8429ZM60.4758 56.3211L60.558 57.4581H60.7144C60.8109 57.4651 60.9077 57.4505 60.998 57.4156C61.056 57.3796 61.0992 57.324 61.12 57.2589C61.1502 57.1409 61.1574 57.0183 61.1412 56.8976C61.1456 56.7348 61.0962 56.5751 61.0007 56.4433C60.9511 56.3992 60.8931 56.3656 60.8302 56.3446C60.7674 56.3236 60.7009 56.3156 60.6348 56.3211H60.4758Z" fill="#407BFF"/>
<path d="M63.3259 57.5802H62.5969L62.52 57.9229H61.8652L62.4962 55.8428H63.2066L64.1371 57.9229H63.4637L63.3259 57.5802ZM63.1589 57.1313L62.8779 56.3821L62.7029 57.1313H63.1589Z" fill="#407BFF"/>
<path d="M63.834 55.8428H65.7851L65.8222 56.3555H65.1674L65.2787 57.9229H64.6372L64.5259 56.3555H63.8711L63.834 55.8428Z" fill="#407BFF"/>
<path d="M67.281 57.5802H66.552L66.4751 57.9229H65.8203L66.4512 55.8428H67.1511L68.0789 57.9229H67.4082L67.281 57.5802ZM67.114 57.1313L66.8303 56.3821L66.658 57.1313H67.114Z" fill="#407BFF"/>
<path d="M94.1406 31.383C94.3766 31.2634 94.6708 31.1173 94.92 30.9659C95.1692 30.8145 95.4502 30.6657 95.7153 30.5089C96.2322 30.1875 96.7571 29.8713 97.2528 29.518C98.249 28.837 99.1823 28.068 100.042 27.22C100.15 27.1191 100.246 27.0048 100.349 26.8986L100.5 26.7365L100.574 26.6541L100.611 26.6143C100.574 26.686 100.611 26.6648 100.611 26.5957C100.635 26.5008 100.648 26.4038 100.651 26.3061C100.645 25.7412 100.58 25.1785 100.458 24.6271C100.222 23.4343 99.8639 22.2096 99.5114 21.0088L100.54 20.5571C101.19 21.7107 101.732 22.9219 102.16 24.1755C102.401 24.8517 102.554 25.5562 102.616 26.2716C102.632 26.494 102.625 26.7175 102.594 26.9384C102.555 27.25 102.444 27.5482 102.271 27.8098L102.226 27.8709L102.191 27.9161L102.152 27.9665L102.069 28.0648L101.905 28.2641C101.796 28.3969 101.69 28.5297 101.574 28.6573C100.667 29.6597 99.6556 30.5619 98.557 31.3484C98.0269 31.7443 97.4649 32.1215 96.8896 32.4616C96.6068 32.6387 96.3179 32.8061 96.0228 32.9637C95.7232 33.1284 95.4422 33.2745 95.1029 33.4313L94.1406 31.383Z" fill="#A7D5F2"/>
<path d="M91.7806 93.8403C91.9791 93.8354 92.1764 93.8086 92.3691 93.7606C92.3788 93.7577 92.3876 93.7522 92.3946 93.7447C92.4016 93.7372 92.4065 93.7281 92.4088 93.7181C92.4101 93.7079 92.4086 93.6976 92.4044 93.6882C92.4002 93.6788 92.3935 93.6708 92.385 93.665C92.3081 93.6145 91.6348 93.1788 91.375 93.2957C91.3462 93.3092 91.3215 93.33 91.3033 93.3562C91.2852 93.3823 91.2742 93.4128 91.2716 93.4445C91.2615 93.4946 91.2642 93.5465 91.2795 93.5952C91.2948 93.644 91.3222 93.6881 91.3591 93.7234C91.4815 93.8109 91.6307 93.8523 91.7806 93.8403ZM92.218 93.6836C91.8336 93.7606 91.542 93.7474 91.4227 93.6464C91.3988 93.6219 91.3815 93.5918 91.3722 93.5589C91.3629 93.5259 91.3621 93.4912 91.3697 93.4578C91.3697 93.4126 91.3962 93.3993 91.4148 93.3914C91.5553 93.3303 91.9449 93.5136 92.218 93.6836Z" fill="#407BFF"/>
<path d="M92.366 93.7613C92.3798 93.7606 92.3929 93.7548 92.4028 93.745C92.4126 93.7352 92.4184 93.722 92.419 93.7081C92.419 93.6816 92.419 93.0413 92.1751 92.8261C92.1452 92.7992 92.1098 92.779 92.0713 92.7671C92.0329 92.7552 91.9923 92.7518 91.9524 92.7571C91.9106 92.7574 91.8702 92.7721 91.8379 92.7987C91.8056 92.8253 91.7833 92.8621 91.7748 92.9032C91.7245 93.1529 92.1274 93.6338 92.3395 93.756L92.366 93.7613ZM91.9869 92.8607C92.0084 92.8601 92.0297 92.8637 92.0498 92.8715C92.0698 92.8793 92.0881 92.8909 92.1035 92.9058C92.2437 93.1123 92.316 93.3575 92.3103 93.6072C92.0982 93.4372 91.8464 93.0759 91.8782 92.9244C91.8782 92.8979 91.8968 92.8686 91.963 92.8607H91.9869Z" fill="#407BFF"/>
<path d="M92.1597 24.7363C91.8946 26.0647 91.3645 28.7213 92.279 29.6139C92.279 29.6139 91.9185 30.9423 89.4717 30.9423C86.7784 30.9423 88.186 29.6139 88.186 29.6139C89.6546 29.2633 89.6149 28.1687 89.3604 27.1433L92.1597 24.7363Z" fill="#A7D5F2"/>
<path d="M87.6686 30.145C87.2472 30.2035 87.6077 29.1063 87.7773 28.992C88.175 28.7264 93.3071 28.3571 93.2727 28.992C93.2515 29.2577 93.1242 29.789 92.9015 29.9617C92.6789 30.1344 91.3587 29.5924 87.6686 30.145Z" fill="#263238"/>
<path d="M88.5062 29.7756C88.1696 29.8898 88.2014 28.7847 88.3154 28.6518C88.5805 28.3437 92.7344 27.273 92.8564 27.8788C92.9041 28.1444 92.9279 28.6757 92.7848 28.8644C92.6416 29.053 91.4222 28.7315 88.5062 29.7756Z" fill="#263238"/>
<path d="M86.9614 22.3585C86.9448 22.3586 86.9284 22.3551 86.9133 22.3483C86.8982 22.3414 86.8847 22.3313 86.8739 22.3186C86.793 22.2141 86.6887 22.1301 86.5695 22.0733C86.4502 22.0165 86.3193 21.9887 86.1873 21.9919C86.1735 21.9937 86.1595 21.9928 86.1461 21.989C86.1327 21.9853 86.1202 21.9789 86.1093 21.9703C86.0984 21.9616 86.0893 21.9508 86.0827 21.9385C86.0761 21.9262 86.072 21.9128 86.0707 21.8989C86.0684 21.8712 86.0767 21.8437 86.0939 21.822C86.1112 21.8003 86.1361 21.786 86.1635 21.782C86.3303 21.7757 86.4962 21.8091 86.6478 21.8792C86.7994 21.9494 86.9322 22.0544 87.0356 22.1858C87.0534 22.2074 87.062 22.2351 87.0595 22.2629C87.057 22.2908 87.0437 22.3165 87.0224 22.3346C87.0044 22.3475 86.9834 22.3558 86.9614 22.3585Z" fill="#263238"/>
<path d="M86.4462 23.6577C86.3259 24.0815 86.1475 24.4866 85.916 24.8612C86.0132 24.9172 86.1215 24.9512 86.2333 24.9609C86.345 24.9705 86.4575 24.9555 86.5628 24.917L86.4462 23.6577Z" fill="#049DD9"/>
<path d="M86.5768 23.3335C86.5954 23.5142 86.5132 23.6683 86.3966 23.6789C86.2799 23.6895 86.1713 23.554 86.1553 23.376C86.1394 23.198 86.219 23.044 86.333 23.0307C86.4469 23.0174 86.5583 23.1555 86.5768 23.3335Z" fill="#263238"/>
<path d="M86.3863 23.0358L85.9463 22.9561C85.9463 22.9561 86.1981 23.2695 86.3863 23.0358Z" fill="#263238"/>
<path d="M94.9383 93.7079H92.7168L92.8918 88.554H95.1132L94.9383 93.7079Z" fill="#A7D5F2"/>
<path d="M92.5412 93.4502H95.0357C95.079 93.4498 95.1209 93.4652 95.1536 93.4936C95.1863 93.522 95.2075 93.5613 95.2133 93.6043L95.497 95.5808C95.5022 95.6307 95.4968 95.6812 95.4814 95.7289C95.4659 95.7766 95.4406 95.8205 95.4071 95.8578C95.3736 95.8952 95.3327 95.925 95.287 95.9455C95.2413 95.9659 95.1918 95.9766 95.1417 95.9767C94.2722 95.9607 93.8534 95.9103 92.7559 95.9103C92.0799 95.9103 91.0938 95.982 90.1633 95.982C89.2329 95.982 89.1799 95.0575 89.5695 94.9725C91.3085 94.5979 91.5842 94.0825 92.1701 93.5883C92.2736 93.4997 92.4051 93.4508 92.5412 93.4502Z" fill="#263238"/>
<g opacity="0.2">
<path d="M95.1124 88.5569H92.8909L92.8008 91.2135H95.0222L95.1124 88.5569Z" fill="black"/>
</g>
<path d="M86.1021 32.7006C84.7289 32.1693 83.4194 31.5769 82.1125 30.9074C80.7709 30.2496 79.4931 29.4687 78.2952 28.5749C77.9738 28.3251 77.6708 28.0525 77.3885 27.7593C77.3143 27.6796 77.2401 27.6078 77.1685 27.5148C77.0845 27.4198 77.0066 27.3195 76.9352 27.2146C76.7401 26.929 76.6181 26.5996 76.58 26.2556C76.5508 25.9293 76.5952 25.6006 76.7099 25.2939C76.8024 25.0468 76.9281 24.8135 77.0837 24.6005C77.3412 24.2508 77.6433 23.9364 77.9823 23.6654C78.5824 23.1859 79.231 22.771 79.9175 22.4274C80.2462 22.252 80.5802 22.0953 80.9195 21.9492C81.2589 21.803 81.5929 21.6649 81.9561 21.54L82.4253 22.5628C81.2695 23.2934 80.0713 24.0957 79.1912 24.9963C78.9942 25.1964 78.8208 25.4183 78.6742 25.6578C78.547 25.8677 78.5496 26.0245 78.5708 26.0112C78.592 25.9979 78.5708 26.0112 78.608 26.0377L78.714 26.152C78.76 26.2024 78.8086 26.2503 78.8598 26.2954C79.0836 26.5042 79.3219 26.6969 79.5729 26.8719C80.1207 27.2593 80.6908 27.6141 81.2801 27.9346C81.8765 28.2667 82.4915 28.5855 83.1171 28.8883C84.3684 29.4861 85.662 30.0652 86.9318 30.5912L86.1021 32.7006Z" fill="#A7D5F2"/>
<path d="M83.0889 21.8375L83.4547 21.0405L81.7794 20.4561C81.7794 20.4561 81.2492 22.0235 81.8775 22.7487C82.1387 22.7086 82.3859 22.6045 82.5973 22.4455C82.8086 22.2865 82.9775 22.0777 83.0889 21.8375Z" fill="#A7D5F2"/>
<path d="M83.4467 19.3144L82.1133 18.9292L81.7793 20.4594L83.4467 21.0412V19.3144Z" fill="#A7D5F2"/>
<path d="M100.677 21.1175L100.87 19.2578L99.1524 19.659C99.1524 19.659 99.1259 21.407 100.035 21.686L100.677 21.1175Z" fill="#A7D5F2"/>
<path d="M100.043 17.9458L98.9219 18.4718L99.1525 19.6567L100.87 19.2529L100.043 17.9458Z" fill="#A7D5F2"/>
<path d="M92.5103 22.1299C92.5925 24.3376 92.672 25.2701 91.6779 26.5054C90.1801 28.3651 87.4577 27.9798 86.7207 25.8412C86.058 23.9152 86.0368 20.6316 88.0939 19.545C88.5463 19.3039 89.0528 19.1827 89.5651 19.193C90.0774 19.2032 90.5787 19.3446 91.0212 19.6036C91.4636 19.8626 91.8327 20.2306 92.0934 20.6728C92.354 21.1149 92.4975 21.6165 92.5103 22.1299Z" fill="#A7D5F2"/>
<path d="M91.5507 26.5C93.7138 25.5648 95.1347 23.5776 94.5356 20.5039C93.9577 17.5497 91.9722 17.2681 91.1504 17.8712C90.3286 18.4742 88.2795 17.571 87.0494 18.5964C84.9287 20.3923 86.9328 22.3157 87.9826 23.4767C88.6082 24.7784 89.43 27.4192 91.5507 26.5Z" fill="#263238"/>
<path d="M90.6513 19.9726C90.9149 20.3123 91.2721 20.567 91.6786 20.7055C92.0851 20.844 92.5232 20.8601 92.9388 20.7518C93.3543 20.6436 93.7291 20.4157 94.0169 20.0963C94.3046 19.777 94.4927 19.3801 94.558 18.9548C94.6232 18.5295 94.5626 18.0944 94.3838 17.7032C94.205 17.3119 93.9158 16.9818 93.5518 16.7535C93.1879 16.5252 92.7651 16.4088 92.3359 16.4185C91.9066 16.4283 91.4896 16.5639 91.1364 16.8086C90.6546 17.1645 90.333 17.6973 90.2421 18.2902C90.1512 18.8832 90.2983 19.4881 90.6513 19.9726Z" fill="#407BFF"/>
<path d="M91.2128 18.0785C90.9026 16.2985 92.5806 14.9277 94.8286 15.5892C97.0766 16.2507 95.889 18.2458 95.4251 19.8398C94.9612 21.4338 96.1753 22.9534 96.6789 21.7393C97.1826 20.5252 96.3343 20.1453 96.3343 20.1453C96.3343 20.1453 98.7201 20.7643 96.504 23.4582C94.2878 26.152 92.2811 23.1925 92.8245 21.4232C93.2646 20.0099 91.507 19.7601 91.2128 18.0785Z" fill="#263238"/>
<path d="M88.9681 18.7507C87.9422 18.2194 86.2058 17.7811 85.217 19.4468C84.7505 20.2438 84.9307 21.3064 84.9307 21.3064L87.9501 21.5083L88.9681 18.7507Z" fill="#263238"/>
<path d="M84.5746 20.7802C84.5658 20.7802 84.557 20.7784 84.5489 20.7749C84.5409 20.7713 84.5336 20.7662 84.5276 20.7597C84.5216 20.7532 84.5171 20.7455 84.5142 20.7371C84.5113 20.7288 84.5102 20.7199 84.511 20.7111C84.511 20.6659 84.5878 19.598 85.232 18.9258C86.7881 17.3053 88.6119 18.6602 89.1315 19.1012C89.1427 19.113 89.1491 19.1286 89.1496 19.1449C89.1501 19.1612 89.1445 19.1771 89.134 19.1896C89.1236 19.2021 89.1089 19.2102 89.0927 19.2126C89.0766 19.2149 89.0602 19.2112 89.0467 19.2021C88.5456 18.7691 86.8013 17.4833 85.3354 19.0188C84.7257 19.6538 84.6515 20.7084 84.6515 20.7191C84.6508 20.7283 84.6483 20.7373 84.644 20.7455C84.6397 20.7537 84.6338 20.7609 84.6265 20.7667C84.6193 20.7724 84.6109 20.7766 84.602 20.7789C84.593 20.7813 84.5837 20.7817 84.5746 20.7802Z" fill="#263238"/>
<path d="M88.3504 23.3997C88.338 23.8176 88.1837 24.2187 87.913 24.5368C87.5471 24.9645 87.1177 24.7546 87.0302 24.2711C86.9427 23.8408 87.0302 23.1022 87.4915 22.8419C87.9527 22.5815 88.3557 22.9083 88.3504 23.3997Z" fill="#A7D5F2"/>
<path d="M87.8721 43.6143C87.8721 43.6143 88.0152 59.06 89.3513 67.6676C90.4328 74.62 92.429 90.6981 92.429 90.6981H95.459C95.459 90.6981 95.7532 75.1779 95.1939 68.2999C93.8075 50.9015 97.3888 47.6471 94.4993 43.6143H87.8721Z" fill="#263238"/>
<path opacity="0.1" d="M87.8721 43.6143C87.8721 43.6143 88.0152 59.06 89.3513 67.6676C90.4328 74.62 92.429 90.6981 92.429 90.6981H95.459C95.459 90.6981 95.7532 75.1779 95.1939 68.2999C93.8075 50.9015 97.3888 47.6471 94.4993 43.6143H87.8721Z" fill="white"/>
<path opacity="0.3" d="M89.4662 50.6223C90.5266 55.2847 89.681 62.6277 89.1004 65.8608C88.4854 60.9513 88.1752 54.5887 88.0215 49.9209C88.5702 49.0336 89.0898 48.9752 89.4662 50.6223Z" fill="black"/>
<path d="M92.0153 90.7594H95.8724L96.0739 89.4018L91.9941 89.2637L92.0153 90.7594Z" fill="#407BFF"/>
<path d="M93.1164 30.5753C93.4795 29.8527 95.4306 29.3984 96.4963 29.3984L97.2915 32.9504C97.2915 32.9504 95.1708 36.1091 94.2854 35.7744C93.2436 35.3786 92.3396 32.1242 93.1164 30.5753Z" fill="#407BFF"/>
<path opacity="0.4" d="M93.1164 30.5753C93.4795 29.8527 95.4306 29.3984 96.4963 29.3984L97.2915 32.9504C97.2915 32.9504 95.1708 36.1091 94.2854 35.7744C93.2436 35.3786 92.3396 32.1242 93.1164 30.5753Z" fill="black"/>
<path d="M90.8684 89.8903C90.8731 89.8822 90.8755 89.8731 90.8755 89.8638C90.8755 89.8544 90.8731 89.8453 90.8684 89.8372C90.8628 89.8278 90.8545 89.8202 90.8446 89.8155C90.8347 89.8108 90.8236 89.8091 90.8127 89.8106C90.7014 89.8266 89.7206 89.9833 89.588 90.2649C89.5739 90.29 89.5664 90.3184 89.5664 90.3473C89.5664 90.3761 89.5739 90.4045 89.588 90.4296C89.6102 90.4721 89.6427 90.5082 89.6826 90.5347C89.7225 90.5612 89.7683 90.5771 89.816 90.5811C90.1368 90.6156 90.6113 90.1693 90.8499 89.8983L90.8684 89.8903ZM89.6914 90.2994C89.7815 90.1507 90.2905 90.0125 90.6775 89.9408C90.3276 90.2968 90.0201 90.496 89.8399 90.4721C89.8088 90.4686 89.7791 90.4575 89.7533 90.4399C89.7274 90.4224 89.7062 90.3988 89.6914 90.3712C89.6856 90.3611 89.6825 90.3496 89.6825 90.338C89.6825 90.3263 89.6856 90.3149 89.6914 90.3048C89.6914 90.3048 89.6888 90.3021 89.6914 90.2994Z" fill="#407BFF"/>
<path d="M90.8687 89.8898C90.8731 89.8821 90.8755 89.8734 90.8755 89.8646C90.8755 89.8557 90.8731 89.847 90.8687 89.8393C90.8528 89.8181 90.4605 89.3665 90.0973 89.3425C90.0449 89.3375 89.9921 89.3436 89.9423 89.3606C89.8925 89.3775 89.8468 89.4049 89.8084 89.4409C89.7696 89.4646 89.7409 89.5019 89.7277 89.5454C89.7145 89.589 89.7177 89.6359 89.7368 89.6773C89.8508 89.9058 90.5559 89.9828 90.8396 89.9244C90.8469 89.9215 90.8534 89.9168 90.8585 89.9108C90.8636 89.9047 90.8671 89.8975 90.8687 89.8898ZM89.8322 89.5551C89.8438 89.5371 89.8581 89.5209 89.8746 89.5073C89.9023 89.4809 89.9354 89.4608 89.9715 89.4484C90.0077 89.4361 90.046 89.4317 90.084 89.4355C90.33 89.4965 90.5512 89.6319 90.7176 89.8234C90.4022 89.85 89.8932 89.7543 89.8243 89.6188C89.8198 89.6085 89.8182 89.5971 89.8196 89.5859C89.821 89.5747 89.8254 89.5641 89.8322 89.5551Z" fill="#407BFF"/>
<path d="M93.1822 88.9473L91.1516 89.8505L90.2476 87.9643L89.0653 85.4936L88.9248 85.2067L90.9554 84.3008L91.1118 84.6222L92.257 87.0159L93.1822 88.9473Z" fill="#A7D5F2"/>
<path opacity="0.2" d="M92.2571 87.016L90.2477 87.9644L89.0654 85.4937L91.1119 84.6223L92.2571 87.016Z" fill="black"/>
<path d="M85.4932 43.6143C85.4932 43.6143 79.0064 59.7747 80.7639 67.386C82.3545 74.264 89.3794 87.2896 89.3794 87.2896L92.1019 85.9241C92.1019 85.9241 87.757 70.1994 87.2878 66.7829C86.3706 60.1413 92.2636 50.7553 92.2636 43.6143H85.4932Z" fill="#263238"/>
<path opacity="0.1" d="M85.4932 43.6143C85.4932 43.6143 79.0064 59.7747 80.7639 67.386C82.3545 74.264 89.3794 87.2896 89.3794 87.2896L92.1019 85.9241C92.1019 85.9241 87.757 70.1994 87.2878 66.7829C86.3706 60.1413 92.2636 50.7553 92.2636 43.6143H85.4932Z" fill="white"/>
<path d="M90.7914 89.5692L92.8061 88.0975C92.8406 88.0717 92.8833 88.0594 92.9262 88.0628C92.9691 88.0662 93.0093 88.0852 93.0394 88.1161L94.4311 89.548C94.4649 89.5854 94.4904 89.6295 94.506 89.6774C94.5216 89.7253 94.5269 89.776 94.5217 89.8261C94.5164 89.8763 94.5007 89.9247 94.4755 89.9684C94.4503 90.012 94.4162 90.0498 94.3754 90.0793C93.6623 90.5788 93.2939 90.786 92.4085 91.4316C91.8624 91.8301 90.7755 92.7094 90.0226 93.2593C89.2698 93.8093 88.6972 93.092 88.9623 92.7944C90.1499 91.4661 90.3991 90.6425 90.5846 89.8987C90.6134 89.7682 90.6865 89.6517 90.7914 89.5692Z" fill="#263238"/>
<path d="M89.204 87.8659L92.7112 86.2586L92.2632 84.8267L88.5068 86.5429L89.204 87.8659Z" fill="#407BFF"/>
<path d="M87.2126 30.3948C86.9237 29.6403 84.3894 28.8008 83.117 28.5352L82.5576 32.7114C82.5576 32.7114 84.6359 35.7028 85.5452 35.4531C86.6215 35.1635 87.8382 32.0101 87.2126 30.3948Z" fill="#407BFF"/>
<path opacity="0.4" d="M87.2126 30.3948C86.9237 29.6403 84.3894 28.8008 83.117 28.5352L82.5576 32.7114C82.5576 32.7114 84.6359 35.7028 85.5452 35.4531C86.6215 35.1635 87.8382 32.0101 87.2126 30.3948Z" fill="black"/>
<path d="M84.4321 30.1819C84.4321 30.1819 83.3717 30.5565 85.4924 43.6139H94.5055C94.3544 39.9344 94.3491 37.6683 96.0961 30.1181C94.8331 29.857 93.5529 29.6883 92.2655 29.6134C90.9029 29.5149 89.5351 29.5149 88.1725 29.6134C86.4256 29.7728 84.4321 30.1819 84.4321 30.1819Z" fill="#407BFF"/>
<path opacity="0.4" d="M84.4321 30.1819C84.4321 30.1819 83.3717 30.5565 85.4924 43.6139H94.5055C94.3544 39.9344 94.3491 37.6683 96.0961 30.1181C94.8331 29.857 93.5529 29.6883 92.2655 29.6134C90.9029 29.5149 89.5351 29.5149 88.1725 29.6134C86.4256 29.7728 84.4321 30.1819 84.4321 30.1819Z" fill="black"/>
<path d="M94.6455 43.0828L95.0511 43.8931C95.0829 43.9542 95.0087 44.0179 94.9053 44.0179H85.4469C85.3647 44.0179 85.2984 43.9781 85.2931 43.9276L85.2109 43.1306C85.2109 43.0748 85.2772 43.027 85.3647 43.027H94.4865C94.5155 43.0213 94.5456 43.0235 94.5735 43.0333C94.6015 43.0431 94.6263 43.0602 94.6455 43.0828Z" fill="#407BFF"/>
<path opacity="0.3" d="M94.6455 43.0828L95.0511 43.8931C95.0829 43.9542 95.0087 44.0179 94.9053 44.0179H85.4469C85.3647 44.0179 85.2984 43.9781 85.2931 43.9276L85.2109 43.1306C85.2109 43.0748 85.2772 43.027 85.3647 43.027H94.4865C94.5155 43.0213 94.5456 43.0235 94.5735 43.0333C94.6015 43.0431 94.6263 43.0602 94.6455 43.0828Z" fill="white"/>
<path d="M93.4264 44.1004H93.6702C93.7206 44.1004 93.7577 44.0765 93.7524 44.0446L93.6384 42.9952C93.6384 42.9634 93.5934 42.9395 93.5456 42.9395H93.2991C93.2514 42.9395 93.2143 42.9634 93.2169 42.9952L93.3309 44.0446C93.3283 44.0818 93.3707 44.1004 93.4264 44.1004Z" fill="#263238"/>
<path d="M87.4908 44.1004H87.7347C87.7824 44.1004 87.8195 44.0765 87.8169 44.0446L87.7029 42.9952C87.7029 42.9634 87.6578 42.9395 87.6074 42.9395H87.3636C87.3132 42.9395 87.2787 42.9634 87.2814 42.9952L87.3954 44.0446C87.398 44.0818 87.4404 44.1004 87.4908 44.1004Z" fill="#263238"/>
</svg>
