<svg width="18" height="18" viewBox="0 0 18 18" fill="none" xmlns="http://www.w3.org/2000/svg">
<path d="M6.7035 5.85047L8.65 3.89498V12.0485C8.65 12.274 8.73955 12.4903 8.89896 12.6497C9.05837 12.8092 9.27457 12.8987 9.5 12.8987C9.72543 12.8987 9.94164 12.8092 10.101 12.6497C10.2604 12.4903 10.35 12.274 10.35 12.0485V3.89498L12.2965 5.85047C12.3755 5.93016 12.4695 5.99341 12.5731 6.03657C12.6767 6.07974 12.7878 6.10196 12.9 6.10196C13.0122 6.10196 13.1233 6.07974 13.2269 6.03657C13.3305 5.99341 13.4245 5.93016 13.5035 5.85047C13.5832 5.77143 13.6464 5.6774 13.6896 5.57379C13.7327 5.47019 13.7549 5.35906 13.7549 5.24682C13.7549 5.13458 13.7327 5.02345 13.6896 4.91985C13.6464 4.81624 13.5832 4.72221 13.5035 4.64317L10.1035 1.24232C10.0227 1.16492 9.92734 1.10424 9.823 1.06378C9.61606 0.978741 9.38394 0.978741 9.177 1.06378C9.07266 1.10424 8.97734 1.16492 8.8965 1.24232L5.4965 4.64317C5.41725 4.72244 5.35438 4.81655 5.31149 4.92013C5.2686 5.0237 5.24652 5.13471 5.24652 5.24682C5.24652 5.35893 5.2686 5.46994 5.31149 5.57351C5.35438 5.67709 5.41725 5.7712 5.4965 5.85047C5.57575 5.92974 5.66984 5.99263 5.77339 6.03553C5.87694 6.07843 5.98792 6.10051 6.1 6.10051C6.21208 6.10051 6.32306 6.07843 6.42661 6.03553C6.53016 5.99263 6.62425 5.92974 6.7035 5.85047ZM17.15 10.1983C16.9246 10.1983 16.7084 10.2879 16.549 10.4473C16.3896 10.6068 16.3 10.823 16.3 11.0485V14.4494C16.3 14.6749 16.2104 14.8911 16.051 15.0506C15.8916 15.21 15.6754 15.2996 15.45 15.2996H3.55C3.32457 15.2996 3.10837 15.21 2.94896 15.0506C2.78955 14.8911 2.7 14.6749 2.7 14.4494V11.0485C2.7 10.823 2.61045 10.6068 2.45104 10.4473C2.29163 10.2879 2.07543 10.1983 1.85 10.1983C1.62457 10.1983 1.40837 10.2879 1.24896 10.4473C1.08955 10.6068 1 10.823 1 11.0485V14.4494C1 15.1258 1.26866 15.7746 1.74688 16.2529C2.2251 16.7313 2.8737 17 3.55 17H15.45C16.1263 17 16.7749 16.7313 17.2531 16.2529C17.7313 15.7746 18 15.1258 18 14.4494V11.0485C18 10.823 17.9104 10.6068 17.751 10.4473C17.5916 10.2879 17.3754 10.1983 17.15 10.1983Z" fill="#079CD9"/>
</svg>
