<svg width="83" height="84" viewBox="0 0 83 84" fill="none" xmlns="http://www.w3.org/2000/svg">
<path fill-rule="evenodd" clip-rule="evenodd" d="M41.494 83.8814C64.4156 83.8814 82.9961 65.3187 82.9961 42.4191C82.9961 19.5195 64.4156 0.956787 41.494 0.956787C18.5723 0.956787 -0.00817871 19.5195 -0.00817871 42.4191C-0.00817871 65.3187 18.5723 83.8814 41.494 83.8814ZM53.9446 34.1266C53.9446 37.4256 52.6328 40.5894 50.2979 42.9221C47.963 45.2548 44.7961 46.5653 41.494 46.5653C38.1918 46.5653 35.025 45.2548 32.69 42.9221C30.3551 40.5894 29.0433 37.4256 29.0433 34.1266C29.0433 30.8277 30.3551 27.6639 32.69 25.3312C35.025 22.9984 38.1918 21.6879 41.494 21.6879C44.7961 21.6879 47.963 22.9984 50.2979 25.3312C52.6328 27.6639 53.9446 30.8277 53.9446 34.1266ZM16.5927 63.1503C19.4896 59.2855 23.2486 56.149 27.5713 53.9897C31.894 51.8305 36.6611 50.708 41.494 50.7116C46.3268 50.708 51.094 51.8305 55.4166 53.9897C59.7393 56.149 63.4984 59.2855 66.3952 63.1503C63.4984 67.015 59.7393 70.1516 55.4166 72.3108C51.094 74.4701 46.3268 75.5925 41.494 75.589C36.6611 75.5925 31.894 74.4701 27.5713 72.3108C23.2486 70.1516 19.4896 67.015 16.5927 63.1503Z" fill="#EBEBEB"/>
</svg>

