<svg width="19" height="19" viewBox="0 0 19 19" fill="none" xmlns="http://www.w3.org/2000/svg">
<g clip-path="url(#clip0_5805_41584)">
<path d="M2.40788 16.4558V17.5483C2.40788 18.0766 2.83619 18.5049 3.36447 18.5049C3.89276 18.5049 4.32107 18.0766 4.32107 17.5483V16.5917H13.887V17.5483C13.887 18.0766 14.3154 18.5049 14.8436 18.5049C15.3719 18.5049 15.8002 18.0766 15.8002 17.5483V16.4558C17.4459 16.028 18.67 14.5429 18.67 12.7653V11.8087C18.67 10.359 17.8502 9.11028 16.6586 8.4612L16.5217 7.98231H16.7568C17.2851 7.98231 17.7134 7.554 17.7134 7.02572C17.7134 6.49744 17.2851 6.06912 16.7568 6.06912H15.975L15.4013 4.06158C14.9352 2.42723 13.4223 1.28613 11.7226 1.28613H6.48556C4.78583 1.28613 3.27293 2.42723 2.80678 4.06111L2.23301 6.06912H1.45128C0.923 6.06912 0.494683 6.49744 0.494683 7.02572C0.494683 7.554 0.923 7.98231 1.45128 7.98231H1.68634L1.54954 8.4612C0.357947 9.11028 -0.461914 10.359 -0.461914 11.8087V12.7653C-0.461914 14.5429 0.762262 16.028 2.40788 16.4558ZM4.64616 4.58658C4.87971 3.76964 5.63592 3.19933 6.48556 3.19933H11.7226C12.5722 3.19933 13.3284 3.76964 13.562 4.58704L14.5321 7.98231H3.67602L4.64616 4.58658ZM1.45128 11.8087C1.45128 10.7535 2.30932 9.89551 3.36447 9.89551H14.8436C15.8988 9.89551 16.7568 10.7535 16.7568 11.8087V12.7653C16.7568 13.8205 15.8988 14.6785 14.8436 14.6785H3.36447C2.30932 14.6785 1.45128 13.8205 1.45128 12.7653V11.8087Z" fill="#0B63F8"/>
<path d="M4.32086 13.7218C4.84917 13.7218 5.27745 13.2935 5.27745 12.7652C5.27745 12.2369 4.84917 11.8086 4.32086 11.8086C3.79254 11.8086 3.36426 12.2369 3.36426 12.7652C3.36426 13.2935 3.79254 13.7218 4.32086 13.7218Z" fill="#0B63F8"/>
<path d="M13.8873 13.7218C14.4156 13.7218 14.8439 13.2935 14.8439 12.7652C14.8439 12.2369 14.4156 11.8086 13.8873 11.8086C13.3589 11.8086 12.9307 12.2369 12.9307 12.7652C12.9307 13.2935 13.3589 13.7218 13.8873 13.7218Z" fill="#0B63F8"/>
</g>
<defs>
<clipPath id="clip0_5805_41584">
<rect width="19" height="19" fill="white"/>
</clipPath>
</defs>
</svg>
