<svg width="562" height="498" viewBox="0 0 562 498" fill="none" xmlns="http://www.w3.org/2000/svg">
<path d="M265.347 378.179H7.60842C5.58932 378.176 3.65412 377.371 2.22764 375.942C0.801171 374.513 -3.0964e-06 372.576 0 370.557V8.22555C-3.0964e-06 6.2063 0.801171 4.26957 2.22764 2.8405C3.65412 1.41143 5.58932 0.606808 7.60842 0.603271L265.347 0.603271C267.368 0.603271 269.307 1.40633 270.736 2.83578C272.166 4.26524 272.969 6.20399 272.969 8.22555V370.557C272.969 371.558 272.772 372.549 272.389 373.474C272.006 374.399 271.444 375.239 270.736 375.947C270.029 376.655 269.188 377.216 268.264 377.599C267.339 377.982 266.348 378.179 265.347 378.179ZM7.60842 0.936996C5.67782 0.940532 3.8275 1.70999 2.46361 3.07648C1.09972 4.44296 0.333699 6.29481 0.333703 8.22555V370.557C0.333699 372.488 1.09972 374.34 2.46361 375.706C3.8275 377.073 5.67782 377.842 7.60842 377.846H265.347C267.279 377.842 269.131 377.073 270.497 375.707C271.863 374.341 272.632 372.489 272.635 370.557V8.22555C272.632 6.29359 271.863 4.44176 270.497 3.07566C269.131 1.70956 267.279 0.940525 265.347 0.936996H7.60842Z" fill="#EBEBEB"/>
<path d="M554.079 378.179H296.327C294.307 378.176 292.37 377.372 290.941 375.943C289.513 374.514 288.709 372.578 288.705 370.557V8.22555C288.709 6.20508 289.513 4.26837 290.941 2.83968C292.37 1.41099 294.307 0.606801 296.327 0.603271L554.079 0.603271C556.096 0.610336 558.027 1.41651 559.451 2.8452C560.875 4.27389 561.674 6.20861 561.674 8.22555V370.557C561.674 372.574 560.875 374.509 559.451 375.938C558.027 377.366 556.096 378.172 554.079 378.179ZM296.327 0.936996C294.395 0.940525 292.543 1.70956 291.177 3.07566C289.811 4.44176 289.042 6.29359 289.039 8.22555V370.557C289.042 372.489 289.811 374.341 291.177 375.707C292.543 377.073 294.395 377.842 296.327 377.846H554.079C556.011 377.842 557.862 377.073 559.228 375.707C560.594 374.341 561.363 372.489 561.367 370.557V8.22555C561.363 6.29359 560.594 4.44176 559.228 3.07566C557.862 1.70956 556.011 0.940525 554.079 0.936996H296.327Z" fill="#EBEBEB"/>
<path d="M549.527 459.194H514.822V459.528H549.527V459.194Z" fill="#EBEBEB"/>
<path d="M424.229 462.825H364.122V463.159H424.229V462.825Z" fill="#EBEBEB"/>
<path d="M513.489 446.807H432.346V447.14H513.489V446.807Z" fill="#EBEBEB"/>
<path d="M44.6899 449.049H19.0215V449.383H44.6899V449.049Z" fill="#EBEBEB"/>
<path d="M130.385 449.049H56.583V449.383H130.385V449.049Z" fill="#EBEBEB"/>
<path d="M274.878 454.683H175.475V455.016H274.878V454.683Z" fill="#EBEBEB"/>
<path d="M39.0167 339.761H10.7188V437.716H39.0167V339.761Z" fill="#FAFAFA"/>
<path d="M63.7911 361.253H35.4932V437.716H63.7911V361.253Z" fill="#FAFAFA"/>
<path d="M81.8908 298.232H53.5928V437.703H81.8908V298.232Z" fill="#FAFAFA"/>
<path d="M100.698 185.153H72.3999V437.716H100.698V185.153Z" fill="#FAFAFA"/>
<path d="M170.696 204.816H94.7588V437.716H170.696V204.816Z" fill="#FAFAFA"/>
<path d="M465.942 437.703H498.271V370.664H465.942V437.703Z" fill="#FAFAFA"/>
<path d="M437.618 437.716H469.947V385.388H437.618V437.716Z" fill="#FAFAFA"/>
<path d="M416.955 437.703H449.284V342.244H416.955V437.703Z" fill="#FAFAFA"/>
<path d="M395.465 437.703H427.794V264.847H395.465V437.703Z" fill="#FAFAFA"/>
<path d="M412.844 226.548H313.628V437.716H412.844V226.548Z" fill="#F0F0F0"/>
<path d="M403.393 235.399H398.668V261.095H403.393V235.399Z" fill="#F5F5F5"/>
<path d="M403.393 275.579H398.668V301.276H403.393V275.579Z" fill="#F5F5F5"/>
<path d="M403.393 315.773H398.668V341.47H403.393V315.773Z" fill="#F5F5F5"/>
<path d="M403.393 355.953H398.668V381.65H403.393V355.953Z" fill="#F5F5F5"/>
<path d="M403.393 396.134H398.668V421.831H403.393V396.134Z" fill="#F5F5F5"/>
<path d="M386.655 235.399H381.93V261.095H386.655V235.399Z" fill="#F5F5F5"/>
<path d="M386.655 275.579H381.93V301.276H386.655V275.579Z" fill="#F5F5F5"/>
<path d="M386.655 315.773H381.93V341.47H386.655V315.773Z" fill="#F5F5F5"/>
<path d="M386.655 355.953H381.93V381.65H386.655V355.953Z" fill="#F5F5F5"/>
<path d="M386.655 396.134H381.93V421.831H386.655V396.134Z" fill="#F5F5F5"/>
<path d="M369.916 235.399H365.19V261.095H369.916V235.399Z" fill="#F5F5F5"/>
<path d="M369.916 275.579H365.19V301.276H369.916V275.579Z" fill="#F5F5F5"/>
<path d="M369.916 315.773H365.19V341.47H369.916V315.773Z" fill="#F5F5F5"/>
<path d="M369.916 355.953H365.19V381.65H369.916V355.953Z" fill="#F5F5F5"/>
<path d="M369.916 396.134H365.19V421.831H369.916V396.134Z" fill="#F5F5F5"/>
<path d="M353.178 235.399H348.453V261.095H353.178V235.399Z" fill="#F5F5F5"/>
<path d="M353.178 275.579H348.453V301.276H353.178V275.579Z" fill="#F5F5F5"/>
<path d="M353.178 315.773H348.453V341.47H353.178V315.773Z" fill="#F5F5F5"/>
<path d="M353.178 355.953H348.453V381.65H353.178V355.953Z" fill="#F5F5F5"/>
<path d="M353.178 396.134H348.453V421.831H353.178V396.134Z" fill="#F5F5F5"/>
<path d="M336.426 235.399H331.701V261.095H336.426V235.399Z" fill="#F5F5F5"/>
<path d="M336.426 275.579H331.701V301.276H336.426V275.579Z" fill="#F5F5F5"/>
<path d="M336.426 315.773H331.701V341.47H336.426V315.773Z" fill="#F5F5F5"/>
<path d="M336.426 355.953H331.701V381.65H336.426V355.953Z" fill="#F5F5F5"/>
<path d="M336.426 396.134H331.701V421.831H336.426V396.134Z" fill="#F5F5F5"/>
<path opacity="0.5" d="M313.628 226.548H334.064L342.954 437.716H313.628V226.548Z" fill="#E0E0E0"/>
<path d="M264.853 144.959L323.691 156.092V437.716H264.853V144.959Z" fill="#F0F0F0"/>
<path d="M264.853 144.959H217.774V437.716H264.853V144.959Z" fill="#E6E6E6"/>
<path d="M217.774 170.709H323.691V169.214H217.774V170.709Z" fill="#E0E0E0"/>
<path d="M217.774 186.648H323.691V185.153H217.774V186.648Z" fill="#E0E0E0"/>
<path d="M217.774 202.6H323.691V201.105H217.774V202.6Z" fill="#E0E0E0"/>
<path d="M217.774 218.539H323.691V217.044H217.774V218.539Z" fill="#E0E0E0"/>
<path d="M217.774 234.478H323.691V232.982H217.774V234.478Z" fill="#E0E0E0"/>
<path d="M217.774 250.403H323.691V248.908H217.774V250.403Z" fill="#E0E0E0"/>
<path d="M217.774 266.355H323.691V264.86H217.774V266.355Z" fill="#E0E0E0"/>
<path d="M217.774 282.294H323.691V280.799H217.774V282.294Z" fill="#E0E0E0"/>
<path d="M217.774 298.232H323.691V296.737H217.774V298.232Z" fill="#E0E0E0"/>
<path d="M217.774 314.171H323.691V312.676H217.774V314.171Z" fill="#E0E0E0"/>
<path d="M217.774 330.123H323.691V328.628H217.774V330.123Z" fill="#E0E0E0"/>
<path d="M217.774 346.062H323.691V344.567H217.774V346.062Z" fill="#E0E0E0"/>
<path d="M217.774 362H323.691V360.505H217.774V362Z" fill="#E0E0E0"/>
<path d="M217.774 377.926H323.691V376.431H217.774V377.926Z" fill="#E0E0E0"/>
<path d="M217.774 393.878H323.691V392.383H217.774V393.878Z" fill="#E0E0E0"/>
<path d="M217.774 409.817H323.691V408.322H217.774V409.817Z" fill="#E0E0E0"/>
<path d="M217.774 425.755H323.691V424.26H217.774V425.755Z" fill="#E0E0E0"/>
<path d="M192.026 82.7395H142.811V437.716H192.026V82.7395Z" fill="#F0F0F0"/>
<path d="M192.026 82.7397H142.811L160.924 51.3962H231.402L192.026 82.7397Z" fill="#FAFAFA"/>
<path d="M192.026 82.7397L231.403 51.3962V437.716H192.026V82.7397Z" fill="#EBEBEB"/>
<path d="M231.402 99.2791H142.811V101.175H231.402V99.2791Z" fill="#E0E0E0"/>
<path d="M231.402 119.369H142.811V121.265H231.402V119.369Z" fill="#E0E0E0"/>
<path d="M231.402 139.459H142.811V141.355H231.402V139.459Z" fill="#E0E0E0"/>
<path d="M231.402 159.55H142.811V161.445H231.402V159.55Z" fill="#E0E0E0"/>
<path d="M231.402 179.653H142.811V181.549H231.402V179.653Z" fill="#E0E0E0"/>
<path d="M231.402 199.743H142.811V201.639H231.402V199.743Z" fill="#E0E0E0"/>
<path d="M231.402 219.834H142.811V221.729H231.402V219.834Z" fill="#E0E0E0"/>
<path d="M231.402 239.924H142.811V241.82H231.402V239.924Z" fill="#E0E0E0"/>
<path d="M231.402 260.014H142.811V261.91H231.402V260.014Z" fill="#E0E0E0"/>
<path d="M231.402 280.104H142.811V282H231.402V280.104Z" fill="#E0E0E0"/>
<path d="M231.402 300.195H142.811V302.09H231.402V300.195Z" fill="#E0E0E0"/>
<path d="M231.402 320.298H142.811V322.194H231.402V320.298Z" fill="#E0E0E0"/>
<path d="M231.402 340.388H142.811V342.284H231.402V340.388Z" fill="#E0E0E0"/>
<path d="M231.402 360.479H142.811V362.374H231.402V360.479Z" fill="#E0E0E0"/>
<path d="M231.402 380.569H142.811V382.465H231.402V380.569Z" fill="#E0E0E0"/>
<path d="M231.402 400.659H142.811V402.555H231.402V400.659Z" fill="#E0E0E0"/>
<path d="M231.402 420.749H142.811V422.645H231.402V420.749Z" fill="#E0E0E0"/>
<path d="M134.268 254.501H80.5415V437.703H134.268V254.501Z" fill="#F0F0F0"/>
<path d="M99.7366 263.979H91.1138V293.387H99.7366V263.979Z" fill="#E6E6E6"/>
<path d="M120.893 263.979H112.27V293.387H120.893V263.979Z" fill="#E6E6E6"/>
<path d="M99.7366 302.05H91.1138V331.458H99.7366V302.05Z" fill="#E6E6E6"/>
<path d="M120.893 302.05H112.27V331.458H120.893V302.05Z" fill="#E6E6E6"/>
<path d="M99.7366 340.135H91.1138V369.543H99.7366V340.135Z" fill="#E6E6E6"/>
<path d="M120.893 340.135H112.27V369.543H120.893V340.135Z" fill="#E6E6E6"/>
<path d="M99.7366 378.206H91.1138V407.614H99.7366V378.206Z" fill="#E6E6E6"/>
<path d="M120.893 378.206H112.27V407.614H120.893V378.206Z" fill="#E6E6E6"/>
<path d="M134.254 254.501H80.5415L93.1421 241.82H146.868L134.254 254.501Z" fill="white"/>
<path d="M134.255 254.501L146.869 241.82L159.47 254.501V437.716H134.255V254.501Z" fill="#E6E6E6"/>
<path d="M282.699 498C425.633 498 541.505 491.235 541.505 482.889C541.505 474.543 425.633 467.778 282.699 467.778C139.764 467.778 23.8921 474.543 23.8921 482.889C23.8921 491.235 139.764 498 282.699 498Z" fill="#F5F5F5"/>
<path d="M440.301 78.8017C433.72 78.508 403.727 80.1366 376.938 90.6556V157.094C376.938 157.094 377.498 193.376 403.18 215.429C428.862 237.481 441.689 245.01 441.689 245.01C441.689 245.01 451.407 237.094 477.422 215.429C505.867 191.748 503.664 157.094 503.664 157.094V90.6556C478.437 78.775 446.882 78.5481 440.301 78.8017Z" fill="#1DA7DD"/>
<path opacity="0.3" d="M441.183 232.876C430.242 225.1 419.697 216.783 409.588 207.953C388.151 189.545 386.896 158.562 386.789 156.973V97.5569C403.536 92.1346 420.971 89.1276 438.566 88.6265H439.901H440.328H440.742C441.423 88.6265 442.384 88.6265 443.612 88.6265C450.606 88.6265 473.485 89.2806 493.868 97.1832V157.013C494.062 166.666 492.117 176.241 488.173 185.053C484.229 193.865 478.383 201.695 471.056 207.98C456.226 220.728 446.562 228.577 441.183 232.876Z" fill="white"/>
<path d="M442.289 175.528L411.948 152.929L419.824 142.343L440.18 157.494L468.13 124.135L478.248 132.625L442.289 175.528Z" fill="#407BFF"/>
<g opacity="0.3">
<path d="M442.288 175.528L411.947 152.929L419.823 142.343L440.179 157.494L468.129 124.135L478.247 132.625L442.288 175.528Z" fill="black"/>
</g>
<path opacity="0.3" d="M451.433 91.6434C451.433 91.6434 435.603 177.464 416.555 190.8C397.507 204.135 392.155 172.205 391.407 161.872C390.66 151.54 390.272 105.059 390.82 102.056C391.367 99.0521 429.329 88.9736 451.433 91.6434Z" fill="white"/>
<path d="M476.248 441.574H244.058V369.196H448.724L467.825 384.707C470.457 386.845 472.579 389.544 474.036 392.606C475.493 395.668 476.249 399.017 476.248 402.408V441.574Z" fill="#407BFF"/>
<path opacity="0.5" d="M476.248 441.574H244.058V369.196H448.724L467.825 384.707C470.457 386.845 472.579 389.544 474.036 392.606C475.493 395.668 476.249 399.017 476.248 402.408V441.574Z" fill="black"/>
<path d="M242.722 435.046C242.722 408.629 254.735 387.217 269.418 387.217H241.093C226.317 387.217 214.397 408.575 214.397 435.046C214.397 461.517 226.41 482.889 241.093 482.889H269.471C254.668 482.889 242.722 461.464 242.722 435.046Z" fill="#263238"/>
<path d="M269.471 482.876C284.245 482.876 296.221 461.462 296.221 435.046C296.221 408.631 284.245 387.217 269.471 387.217C254.698 387.217 242.722 408.631 242.722 435.046C242.722 461.462 254.698 482.876 269.471 482.876Z" fill="#263238"/>
<path d="M271.62 472.343C282.096 472.343 290.588 455.645 290.588 435.046C290.588 414.447 282.096 397.749 271.62 397.749C261.144 397.749 252.652 414.447 252.652 435.046C252.652 455.645 261.144 472.343 271.62 472.343Z" fill="white"/>
<path d="M88.5376 435.046C88.5376 408.629 100.551 387.217 115.234 387.217H86.9091C72.1327 387.217 60.2129 408.575 60.2129 435.046C60.2129 461.517 72.2262 482.889 86.9091 482.889H115.287C100.511 482.889 88.5376 461.464 88.5376 435.046Z" fill="#263238"/>
<path d="M115.287 482.876C130.06 482.876 142.036 461.462 142.036 435.046C142.036 408.631 130.06 387.217 115.287 387.217C100.513 387.217 88.5371 408.631 88.5371 435.046C88.5371 461.462 100.513 482.876 115.287 482.876Z" fill="#263238"/>
<path d="M426.031 435.046C426.031 408.629 438.044 387.217 452.727 387.217H424.402C409.639 387.217 397.706 408.575 397.706 435.046C397.706 461.517 409.719 482.889 424.402 482.889H452.78C438.017 482.889 426.031 461.464 426.031 435.046Z" fill="#263238"/>
<path d="M452.781 482.876C467.554 482.876 479.53 461.462 479.53 435.046C479.53 408.631 467.554 387.217 452.781 387.217C438.007 387.217 426.031 408.631 426.031 435.046C426.031 461.462 438.007 482.876 452.781 482.876Z" fill="#263238"/>
<path d="M454.943 472.343C465.419 472.343 473.911 455.645 473.911 435.046C473.911 414.447 465.419 397.749 454.943 397.749C444.468 397.749 435.976 414.447 435.976 435.046C435.976 455.645 444.468 472.343 454.943 472.343Z" fill="white"/>
<path d="M211.114 448.395H176.796L174.874 446.46C173.898 445.477 172.738 444.698 171.46 444.167C170.181 443.635 168.81 443.362 167.426 443.363H81.6511C80.2667 443.362 78.8958 443.635 77.6175 444.167C76.3391 444.698 75.1786 445.477 74.2029 446.46L73.0282 447.621H69.9048C65.0194 447.621 60.3341 445.68 56.8796 442.225C53.4251 438.771 51.4844 434.085 51.4844 429.199V400.939H246.126L230.643 434.606C229.211 438.64 226.565 442.132 223.068 444.602C219.571 447.071 215.395 448.396 211.114 448.395Z" fill="#0477BF"/>
<path d="M413.724 280.572C413.606 280.574 413.49 280.542 413.391 280.478C413.314 280.435 413.247 280.378 413.194 280.308C413.14 280.239 413.101 280.16 413.078 280.075C413.056 279.991 413.051 279.902 413.063 279.816C413.076 279.729 413.105 279.646 413.15 279.571L422.494 263.552C422.591 263.418 422.734 263.325 422.896 263.291C423.058 263.257 423.226 263.284 423.369 263.367C423.512 263.45 423.619 263.583 423.669 263.741C423.72 263.898 423.71 264.069 423.642 264.219L414.298 280.238C414.24 280.339 414.156 280.423 414.056 280.481C413.955 280.54 413.841 280.571 413.724 280.572Z" fill="#263238"/>
<path d="M463.007 360.252V342.057C463.007 332.486 449.098 287.326 429.97 278.863C410.842 270.4 364.565 266.635 335.412 268.184C306.26 269.732 267.337 330.71 267.337 330.71L271.568 383.132C277.495 383.132 296.369 381.356 299.132 433.231C299.317 436.888 300.902 440.333 303.559 442.853C306.215 445.373 309.74 446.775 313.401 446.766H415.461C418.887 446.762 422.195 445.521 424.78 443.272C427.364 441.023 429.051 437.918 429.53 434.525C432.199 416.05 439.167 383.132 455.972 383.132C467.759 383.132 476.208 393.224 476.208 404.797C476.211 392.082 473.124 379.557 467.211 368.301L463.007 360.252Z" fill="#1DA7DD"/>
<path d="M228.628 268.184C175.542 268.184 115.396 330.711 115.396 330.711H267.39C267.39 330.711 306.273 269.746 335.466 268.184H228.628Z" fill="#1DA7DD"/>
<path opacity="0.4" d="M231.882 268.184C187.166 268.184 140.261 312.543 126.579 326.532C126.239 326.878 126.009 327.317 125.918 327.793C125.827 328.269 125.879 328.762 126.068 329.209C126.256 329.656 126.572 330.037 126.977 330.304C127.382 330.571 127.856 330.713 128.341 330.711H250.957C255.892 330.721 260.759 329.569 265.166 327.347C269.572 325.125 273.393 321.896 276.318 317.922C289.506 299.954 314.908 269.292 335.464 268.184H231.882Z" fill="white"/>
<path d="M267.39 330.71L211.248 375.016L60.1606 374.535C60.1606 374.535 51.4844 387.137 51.4844 400.939H246.126C249.317 392.476 260.502 383.132 271.621 383.132C271.621 367.42 267.39 330.71 267.39 330.71Z" fill="#1DA7DD"/>
<path opacity="0.2" d="M230.642 361.961C230.465 361.973 230.29 361.915 230.156 361.798C230.022 361.682 229.94 361.517 229.927 361.34C229.915 361.163 229.973 360.988 230.09 360.854C230.206 360.72 230.371 360.638 230.548 360.626C244.027 358.447 256.639 352.579 266.988 343.672C269.035 341.951 270.367 339.529 270.725 336.878C271.083 334.227 270.441 331.538 268.924 329.336C268.848 329.191 268.829 329.023 268.868 328.865C268.908 328.706 269.004 328.568 269.139 328.476C269.274 328.384 269.438 328.344 269.6 328.365C269.762 328.386 269.911 328.465 270.018 328.588C271.72 331.065 272.439 334.086 272.037 337.064C271.635 340.042 270.14 342.763 267.843 344.7C257.309 353.767 244.469 359.736 230.748 361.947L230.642 361.961Z" fill="black"/>
<path d="M60.1597 374.535C60.1597 374.535 86.6957 343.606 115.394 330.71H267.389L211.247 375.016L60.1597 374.535Z" fill="#1DA7DD"/>
<path d="M177.69 374.535H78.02V377.432H177.69V374.535Z" fill="#263238"/>
<path d="M175.62 368.742L180.96 363.402C182.16 362.203 183.68 361.374 185.338 361.013L225.662 352.229C227.079 351.921 228.55 351.962 229.947 352.349L232.11 352.963C233.549 353.369 234.863 354.132 235.928 355.182C236.993 356.232 237.775 357.534 238.202 358.968C238.628 360.402 238.685 361.92 238.366 363.382C238.048 364.843 237.365 366.2 236.381 367.327L227.705 377.232C226.213 378.944 224.119 380.015 221.858 380.222L182.682 383.853C181.387 383.973 180.083 383.807 178.86 383.367C177.637 382.926 176.527 382.222 175.607 381.303C174.779 380.48 174.123 379.5 173.675 378.422C173.228 377.344 172.998 376.187 172.999 375.02C173 373.852 173.233 372.696 173.682 371.619C174.132 370.541 174.791 369.563 175.62 368.742Z" fill="white"/>
<path d="M80.8368 371.572L76.4186 363.309C75.7966 362.152 74.8744 361.183 73.749 360.505C72.6809 359.862 71.4646 359.505 70.218 359.47C68.9715 359.435 67.737 359.723 66.6344 360.305L63.284 362.054C61.6351 362.926 60.3835 364.398 59.7868 366.165L57.7446 372.213C57.405 373.208 57.2853 374.266 57.3938 375.312C57.5023 376.358 57.8365 377.369 58.3732 378.273C58.9099 379.178 59.6364 379.956 60.5027 380.553C61.3689 381.149 62.3543 381.551 63.3908 381.73L72.6144 383.319C74.1188 383.579 75.667 383.36 77.0397 382.691C78.4124 382.023 79.54 380.939 80.2628 379.595L80.8769 378.46C81.442 377.399 81.7342 376.213 81.7272 375.011C81.7203 373.808 81.4142 372.627 80.8368 371.572Z" fill="white"/>
<path opacity="0.4" d="M298.438 332.486H438.967C440.158 332.486 441.333 332.208 442.398 331.674C443.463 331.139 444.387 330.362 445.098 329.406C445.809 328.45 446.286 327.341 446.492 326.167C446.697 324.994 446.625 323.788 446.282 322.648C443.078 311.968 436.938 295.269 427.715 286.752C426.689 285.814 425.431 285.169 424.071 284.883C407.506 281.373 380.876 279.036 361.121 277.675C352.166 277.059 343.184 278.391 334.794 281.58C326.404 284.77 318.805 289.741 312.52 296.15C305.004 303.743 298.216 312.025 292.245 320.886C291.497 322.008 291.067 323.313 291.001 324.66C290.935 326.008 291.236 327.348 291.872 328.538C292.507 329.729 293.453 330.724 294.61 331.419C295.766 332.114 297.089 332.483 298.438 332.486Z" fill="white"/>
<path d="M207.576 416.585C207.576 420.963 203.091 424.514 197.565 424.514C192.039 424.514 187.554 420.963 187.554 416.585C187.554 412.206 192.026 408.642 197.565 408.642C203.105 408.642 207.576 412.206 207.576 416.585Z" fill="#263238"/>
<path d="M126.914 368.475C130.198 368.475 131.8 371.839 130.492 375.977C129.183 380.115 125.473 383.479 122.176 383.479C118.879 383.479 117.29 380.129 118.598 375.977C119.907 371.825 123.631 368.475 126.914 368.475Z" fill="#263238"/>
<path d="M59.5593 416.585C59.5593 420.963 58.2245 424.514 56.7429 424.514C55.2612 424.514 53.9131 420.963 53.9131 416.585C53.9131 412.206 55.2479 408.642 56.7429 408.642C58.2379 408.642 59.5593 412.206 59.5593 416.585Z" fill="#263238"/>
<path d="M294.113 331.218V326.719C294.112 325.428 294.398 324.153 294.952 322.987C295.506 321.821 296.313 320.793 297.314 319.978C298.316 319.164 299.486 318.583 300.74 318.278C301.995 317.973 303.301 317.952 304.565 318.216L321.677 321.78C323.631 322.188 325.385 323.256 326.644 324.804C327.903 326.353 328.591 328.287 328.591 330.283V331.218C328.591 333.519 327.677 335.726 326.05 337.353C324.423 338.98 322.216 339.895 319.915 339.895H302.803C301.662 339.896 300.533 339.673 299.479 339.238C298.424 338.803 297.466 338.164 296.659 337.358C295.852 336.552 295.212 335.595 294.775 334.541C294.338 333.488 294.113 332.358 294.113 331.218Z" fill="#263238"/>
<path d="M384.144 279.597L377.884 279.01C395.477 315.052 390.992 332.539 390.992 332.539H404.42C404.553 310.527 384.144 279.597 384.144 279.597Z" fill="#263238"/>
<path opacity="0.2" d="M235.768 316.347C235.496 319.18 234.179 321.81 232.075 323.725C229.97 325.64 227.228 326.702 224.382 326.706H155.199C150.153 326.706 148.325 321.073 151.982 316.868C158.581 309.356 165.748 302.363 173.419 295.95C186.447 284.977 202.625 279.277 217.748 280.318L223.461 280.745C225.927 280.938 228.265 281.921 230.126 283.55C231.988 285.178 233.274 287.364 233.792 289.783C235.811 298.483 236.478 307.443 235.768 316.347Z" fill="#407BFF"/>
<path opacity="0.2" d="M392.594 437.276C392.417 437.276 392.247 437.205 392.122 437.08C391.997 436.955 391.927 436.785 391.927 436.608C391.927 423.099 398.814 367.394 400.616 359.037C402.365 350.934 402.365 341.897 400.616 336.01C400.592 335.922 400.585 335.831 400.596 335.74C400.607 335.65 400.635 335.563 400.68 335.483C400.724 335.404 400.784 335.334 400.856 335.278C400.927 335.222 401.009 335.18 401.097 335.156C401.185 335.131 401.276 335.124 401.367 335.135C401.457 335.146 401.544 335.175 401.624 335.219C401.703 335.264 401.773 335.324 401.829 335.395C401.885 335.467 401.927 335.549 401.951 335.636C403.753 341.724 403.753 351.014 401.951 359.317C400.149 367.621 393.288 423.152 393.288 436.608C393.288 436.698 393.27 436.787 393.235 436.87C393.2 436.953 393.148 437.027 393.083 437.09C393.019 437.152 392.942 437.201 392.858 437.233C392.774 437.265 392.684 437.279 392.594 437.276Z" fill="black"/>
<path opacity="0.2" d="M390.819 359.691H374.548C374.239 359.701 373.932 359.64 373.651 359.513C373.369 359.385 373.121 359.195 372.925 358.956C372.729 358.717 372.59 358.437 372.52 358.136C372.449 357.835 372.449 357.523 372.519 357.222L372.853 355.326C372.99 354.651 373.35 354.042 373.875 353.596C374.401 353.151 375.061 352.895 375.749 352.87H392.02C392.328 352.858 392.635 352.917 392.917 353.043C393.198 353.168 393.447 353.358 393.643 353.595C393.84 353.833 393.978 354.113 394.049 354.413C394.119 354.713 394.119 355.026 394.049 355.326L393.716 357.222C393.581 357.899 393.222 358.511 392.696 358.959C392.171 359.408 391.509 359.665 390.819 359.691Z" fill="black"/>
<path d="M346.73 480.847L354.793 480.726L357.115 462.038L349.066 462.158L346.73 480.847Z" fill="#A7D5F2"/>
<path d="M385.213 480.259L393.035 477.856L388.176 460.156L380.354 462.558L385.213 480.259Z" fill="#A7D5F2"/>
<path d="M392.794 475.52L384.065 480.019C383.924 480.093 383.813 480.212 383.75 480.358C383.686 480.504 383.675 480.667 383.718 480.82L385.586 487.922C385.632 488.094 385.715 488.253 385.831 488.388C385.947 488.523 386.092 488.63 386.256 488.701C386.419 488.771 386.596 488.804 386.774 488.796C386.952 488.789 387.125 488.74 387.282 488.656C390.071 487.147 392.034 485.986 395.571 484.104C397.747 482.982 404.421 479.819 407.424 478.27C410.427 476.722 409.293 473.545 407.931 473.918C401.791 475.547 396.772 476.028 394.183 475.36C393.716 475.237 393.221 475.295 392.794 475.52Z" fill="#263238"/>
<path d="M354.953 479.832L346.157 479.966C345.999 479.971 345.847 480.029 345.726 480.131C345.605 480.232 345.522 480.372 345.489 480.526L344.008 487.721C343.969 487.895 343.97 488.075 344.012 488.247C344.053 488.42 344.134 488.581 344.247 488.717C344.361 488.854 344.504 488.963 344.666 489.036C344.828 489.108 345.005 489.143 345.182 489.136C348.359 489.029 352.938 488.776 356.929 488.709C361.587 488.629 362.949 488.829 368.421 488.709C371.718 488.709 372.586 485.305 371.198 485.025C364.871 483.69 362.401 483.69 356.915 480.406C356.328 480.035 355.648 479.837 354.953 479.832Z" fill="#263238"/>
<path d="M367.194 235.679C369.023 239.35 371.092 243.234 373.161 246.932C375.23 250.63 377.419 254.301 379.755 257.772C380.355 258.613 380.916 259.507 381.53 260.335L383.038 262.39C383.345 262.791 383.519 262.978 383.572 263.071C383.626 263.165 383.652 263.298 384.039 263.325C385.455 263.062 386.771 262.416 387.844 261.456C388.578 260.882 389.325 260.254 390.059 259.574C390.794 258.893 391.528 258.105 392.168 257.464L397.428 260.441C396.983 261.62 396.457 262.767 395.853 263.872C395.257 265.003 394.569 266.084 393.797 267.102C392.976 268.216 392.036 269.236 390.994 270.146C389.756 271.247 388.32 272.104 386.762 272.669C384.811 273.381 382.693 273.497 380.676 273.003C378.788 272.531 377.04 271.616 375.577 270.333C375.216 270.039 374.963 269.759 374.656 269.465L374.229 269.025L373.922 268.678L372.747 267.343C371.959 266.448 371.239 265.527 370.491 264.673C367.64 261.006 365.01 257.173 362.616 253.193C361.441 251.217 360.28 249.188 359.212 247.199C358.144 245.21 357.103 243.194 356.115 240.938L367.194 235.679Z" fill="#A7D5F2"/>
<path d="M352.75 235.732C350.574 243.114 365.858 263.271 365.858 263.271L381.275 253.34C378.376 246.936 374.795 240.863 370.597 235.225C364.283 227.176 355.126 227.616 352.75 235.732Z" fill="#407BFF"/>
<g opacity="0.2">
<path d="M352.75 235.732C350.574 243.114 365.858 263.271 365.858 263.271L381.275 253.34C378.376 246.936 374.795 240.863 370.597 235.225C364.283 227.176 355.126 227.616 352.75 235.732Z" fill="#328DF1"/>
</g>
<path opacity="0.2" d="M362.147 244.409C365.31 245.744 369.982 253.393 372.411 259.093L365.871 263.298C362.214 258.41 358.926 253.256 356.033 247.88C358.102 245.584 360.465 243.688 362.147 244.409Z" fill="black"/>
<path d="M391.246 258.92L396.826 249.896L401.698 257.665C400.529 259.745 398.624 261.311 396.358 262.057L391.246 258.92Z" fill="#B55B52"/>
<path d="M404.608 249.989V252.779C404.604 253.65 404.302 254.493 403.754 255.169L401.725 257.665L396.853 249.896L401.885 248.054C402.194 247.947 402.523 247.917 402.846 247.963C403.17 248.01 403.477 248.133 403.743 248.322C404.009 248.511 404.227 248.761 404.377 249.051C404.527 249.341 404.606 249.663 404.608 249.989Z" fill="#A7D5F2"/>
<path d="M399.162 261.523L390.379 261.389L395.238 243.194L404.021 243.328L399.162 261.523Z" fill="#407BFF"/>
<path d="M400.056 261.523L391.272 261.389L396.131 243.194L404.914 243.328L400.056 261.523Z" fill="#263238"/>
<path opacity="0.2" d="M357.115 462.038L355.914 471.676L347.852 471.796L349.053 462.171L357.115 462.038Z" fill="black"/>
<path opacity="0.2" d="M380.354 462.558L388.19 460.156L390.686 469.286L382.851 471.689L380.354 462.558Z" fill="black"/>
<path d="M318.739 239.644C325.319 267.97 323.891 296.056 324.612 302.117C330.912 301.663 354.645 299.888 367.579 298.926C371.704 252.886 361.933 229.512 361.933 229.512C361.933 229.512 359.17 228.978 355.419 228.591C354.245 228.47 352.963 228.364 351.642 228.297C350.908 228.297 350.173 228.297 349.413 228.217C343.305 228.305 337.208 228.751 331.152 229.552C330.004 229.685 328.843 229.859 327.709 230.046C326.574 230.233 325.64 230.419 324.665 230.606H324.545C323.562 230.802 322.628 231.193 321.799 231.758C320.971 232.322 320.264 233.048 319.722 233.891C319.18 234.735 318.814 235.679 318.645 236.667C318.476 237.656 318.508 238.668 318.739 239.644Z" fill="#407BFF"/>
<g opacity="0.2">
<path d="M318.739 239.644C325.319 267.97 323.891 296.056 324.612 302.117C330.912 301.663 354.645 299.888 367.579 298.926C371.704 252.886 361.933 229.512 361.933 229.512C361.933 229.512 359.17 228.978 355.419 228.591C354.245 228.47 352.963 228.364 351.642 228.297C350.908 228.297 350.173 228.297 349.413 228.217C343.305 228.305 337.208 228.751 331.152 229.552C330.004 229.685 328.843 229.859 327.709 230.046C326.574 230.233 325.64 230.419 324.665 230.606H324.545C323.562 230.802 322.628 231.193 321.799 231.758C320.971 232.322 320.264 233.048 319.722 233.891C319.18 234.735 318.814 235.679 318.645 236.667C318.476 237.656 318.508 238.668 318.739 239.644Z" fill="#328DF1"/>
</g>
<path opacity="0.2" d="M326.014 245.597L321.075 251.938C321.082 252.013 321.082 252.089 321.075 252.165C321.769 256.463 322.303 260.682 322.704 264.74C327.442 258.893 326.748 248.374 326.014 245.597Z" fill="black"/>
<path d="M333.222 217.004C334.249 221.329 334.183 226.135 331.086 229.565C334.516 232.502 338.961 235.866 345.956 235.586C352.95 235.305 351.388 230.606 349.346 228.217C343.38 227.243 343.366 223.358 343.313 219.1C343.309 218.666 343.169 218.245 342.913 217.895C342.656 217.545 342.297 217.285 341.885 217.151L335.317 215.055C335.04 214.966 334.744 214.953 334.459 215.017C334.175 215.08 333.913 215.218 333.7 215.417C333.486 215.615 333.33 215.867 333.246 216.145C333.162 216.424 333.153 216.721 333.222 217.004Z" fill="#A7D5F2"/>
<path d="M352.11 263.205C348.506 263.205 345.182 258.88 344.528 253.353C344.272 251.89 344.317 250.39 344.658 248.944C345 247.498 345.633 246.137 346.517 244.943C346.935 244.44 347.457 244.033 348.046 243.75C348.636 243.466 349.28 243.313 349.934 243.301C353.525 243.301 356.862 247.64 357.502 253.166C357.759 254.627 357.716 256.124 357.376 257.567C357.037 259.011 356.408 260.37 355.527 261.563C355.11 262.067 354.588 262.475 353.998 262.759C353.408 263.042 352.764 263.194 352.11 263.205ZM349.947 244.636C349.483 244.651 349.027 244.764 348.611 244.969C348.194 245.174 347.826 245.465 347.531 245.824C346.779 246.881 346.245 248.076 345.961 249.342C345.677 250.607 345.648 251.916 345.876 253.193C346.423 257.892 349.28 261.87 352.123 261.87C352.591 261.864 353.051 261.754 353.471 261.548C353.891 261.343 354.26 261.047 354.552 260.682C355.303 259.624 355.835 258.428 356.119 257.163C356.404 255.899 356.434 254.59 356.207 253.313C355.687 248.614 352.83 244.636 350.001 244.636H349.947Z" fill="#407BFF"/>
<path opacity="0.2" d="M343.327 219.34L336.72 220.194C336.867 220.488 337.053 220.768 337.227 221.049C338.482 223.051 341.231 224.372 344.088 224.853C343.471 223.084 343.213 221.21 343.327 219.34Z" fill="black"/>
<path d="M351.897 202.173C355.568 202.787 362.429 198.609 360.827 193.069C358.772 195.632 351.897 194.778 351.897 194.778V202.173Z" fill="#263238"/>
<path d="M337.56 208.113C337.961 211.824 333.383 218.419 327.937 216.497C330.606 214.588 330.179 207.673 330.179 207.673L337.56 208.113Z" fill="#263238"/>
<path d="M332.18 200.838C331.192 208.767 330.205 213.359 333.422 218.192C338.24 225.36 348.598 223.531 351.935 216.096C354.939 209.421 356.047 197.514 348.945 192.962C347.391 191.949 345.603 191.35 343.752 191.222C341.901 191.094 340.048 191.441 338.369 192.23C336.69 193.019 335.24 194.224 334.157 195.73C333.074 197.237 332.393 198.995 332.18 200.838Z" fill="#A7D5F2"/>
<path d="M331.086 208.847C333.021 210.89 338.347 202.56 337.373 199.583C339.375 200.451 343.219 198.782 342.979 195.472C348.972 198.675 357.662 201.212 357.795 195.472C357.929 189.732 352.456 185.407 347.117 184.953C347.757 186.661 346.062 187.409 342.578 186.661C339.094 185.914 325.666 179.76 327.148 192.094C322.129 192.361 321.475 198.729 331.086 208.847Z" fill="#263238"/>
<path d="M327.162 205.831C327.444 207.821 328.499 209.62 330.099 210.837C332.235 212.425 333.569 210.743 333.77 208.167C333.957 205.911 333.77 202.347 331.22 201.759C330.66 201.635 330.078 201.654 329.528 201.815C328.978 201.976 328.477 202.273 328.072 202.679C327.667 203.086 327.372 203.587 327.213 204.138C327.054 204.689 327.036 205.271 327.162 205.831Z" fill="#A7D5F2"/>
<path d="M339.268 301.036L367.512 298.927C367.512 298.927 371.17 356.901 370.889 381.49C370.609 407.053 358.876 469.767 358.876 469.767L345.234 469.98C345.234 469.98 346.315 409.149 346.315 384.053C346.315 350.24 339.228 301.036 339.228 301.036" fill="#263238"/>
<path opacity="0.2" d="M350.188 361.293C350.561 362.962 361.066 409.964 364.457 437.382C366.259 425.969 368.114 413.181 369.369 401.874L350.188 361.293Z" fill="black"/>
<path d="M352.27 300.061C352.27 300.061 373.774 352.75 378.619 375.844C383.958 401.14 392.434 465.122 392.434 465.122L377.845 467.404C377.845 467.404 366.806 419.575 360.626 395.133C353.605 367.3 325.761 323.195 324.586 302.13L352.27 300.061Z" fill="#263238"/>
<path d="M394.263 466.376L376.136 470.608L373.854 463.64L393.649 460.236L394.263 466.376Z" fill="#407BFF"/>
<path d="M360.64 470.061L344.382 470.314L344.302 465.068L362.455 464.494L360.64 470.061Z" fill="#407BFF"/>
<path d="M343.234 205.017C343.114 205.657 343.354 206.231 343.768 206.351C344.182 206.472 344.622 205.978 344.742 205.337C344.863 204.696 344.622 204.122 344.195 204.002C343.768 203.882 343.354 204.376 343.234 205.017Z" fill="#263238"/>
<path d="M351.134 206.685C351.014 207.326 351.255 207.913 351.668 208.02C352.082 208.127 352.523 207.633 352.643 207.005C352.763 206.378 352.523 205.777 352.109 205.67C351.695 205.564 351.255 206.044 351.134 206.685Z" fill="#263238"/>
<path d="M348.533 206.538C348.929 208.633 349.612 210.663 350.562 212.572C350.066 212.801 349.526 212.92 348.98 212.92C348.434 212.92 347.894 212.801 347.398 212.572L348.533 206.538Z" fill="#83BDE2"/>
<path d="M346.049 214.534C345.333 214.384 344.656 214.089 344.059 213.667C343.462 213.244 342.958 212.703 342.579 212.078C342.556 212.034 342.551 211.982 342.566 211.935C342.581 211.887 342.615 211.847 342.659 211.824C342.703 211.801 342.755 211.797 342.802 211.812C342.85 211.827 342.89 211.86 342.913 211.905C343.347 212.586 343.936 213.157 344.632 213.569C345.327 213.982 346.11 214.226 346.917 214.281C346.968 214.287 347.014 214.313 347.046 214.353C347.079 214.393 347.094 214.443 347.09 214.494C347.084 214.545 347.058 214.591 347.018 214.624C346.979 214.656 346.928 214.672 346.877 214.668C346.599 214.639 346.322 214.595 346.049 214.534Z" fill="#263238"/>
<path d="M342.445 202.173C342.378 202.156 342.318 202.118 342.272 202.066C342.203 201.994 342.165 201.899 342.165 201.799C342.165 201.7 342.203 201.604 342.272 201.532C342.711 201.112 343.245 200.805 343.828 200.635C344.411 200.465 345.027 200.439 345.622 200.558C345.671 200.57 345.717 200.592 345.757 200.622C345.797 200.653 345.83 200.691 345.855 200.735C345.88 200.778 345.896 200.826 345.902 200.876C345.908 200.926 345.903 200.977 345.889 201.025C345.864 201.12 345.802 201.202 345.717 201.252C345.632 201.302 345.531 201.316 345.435 201.292C344.959 201.201 344.467 201.226 344.002 201.366C343.538 201.505 343.113 201.754 342.766 202.093C342.722 202.129 342.67 202.155 342.615 202.169C342.559 202.183 342.501 202.184 342.445 202.173Z" fill="#263238"/>
<path d="M355.393 204.709C355.332 204.689 355.277 204.655 355.233 204.608C355.188 204.561 355.157 204.504 355.14 204.442C355.027 203.977 354.807 203.545 354.496 203.18C354.185 202.816 353.793 202.531 353.351 202.347C353.254 202.316 353.173 202.248 353.126 202.158C353.078 202.068 353.068 201.963 353.097 201.866C353.113 201.818 353.137 201.774 353.17 201.736C353.202 201.698 353.242 201.666 353.287 201.644C353.332 201.622 353.381 201.608 353.431 201.605C353.481 201.602 353.531 201.609 353.578 201.626C354.151 201.848 354.66 202.208 355.06 202.673C355.46 203.139 355.74 203.696 355.874 204.295C355.89 204.344 355.896 204.395 355.891 204.445C355.886 204.496 355.87 204.545 355.845 204.589C355.82 204.633 355.786 204.671 355.745 204.701C355.704 204.731 355.657 204.752 355.607 204.763C355.532 204.766 355.458 204.747 355.393 204.709Z" fill="#263238"/>
<path d="M395.812 475.547C395.174 475.858 394.502 476.096 393.81 476.255C393.774 476.262 393.736 476.259 393.701 476.248C393.666 476.236 393.634 476.215 393.61 476.188C393.588 476.157 393.576 476.119 393.576 476.081C393.576 476.043 393.588 476.006 393.61 475.974C393.783 475.681 395.358 473.064 396.359 473.064C396.473 473.064 396.583 473.095 396.68 473.154C396.777 473.213 396.855 473.297 396.907 473.398C397.011 473.553 397.076 473.732 397.094 473.918C397.113 474.105 397.085 474.293 397.013 474.466C396.747 474.952 396.324 475.333 395.812 475.547ZM394.17 475.761C395.505 475.374 396.426 474.853 396.653 474.319C396.699 474.198 396.714 474.068 396.698 473.94C396.682 473.812 396.634 473.69 396.56 473.585C396.48 473.465 396.413 473.451 396.346 473.451C395.826 473.451 394.824 474.733 394.17 475.827V475.761Z" fill="#407BFF"/>
<path d="M393.849 476.241C393.815 476.255 393.777 476.255 393.742 476.241C393.708 476.241 393.675 476.231 393.646 476.212C393.618 476.193 393.595 476.166 393.582 476.134C393.096 475.084 392.938 473.912 393.128 472.77C393.187 472.637 393.271 472.516 393.377 472.416C393.482 472.315 393.606 472.236 393.742 472.183C393.869 472.117 394.015 472.098 394.155 472.129C394.294 472.161 394.418 472.242 394.503 472.357C395.077 473.077 394.503 475.373 393.916 476.161C393.903 476.194 393.88 476.223 393.849 476.241ZM393.849 472.597C393.704 472.671 393.591 472.794 393.529 472.944C393.369 473.846 393.481 474.775 393.849 475.614C394.29 474.666 394.597 472.944 394.263 472.584C394.263 472.584 394.156 472.463 393.929 472.584L393.849 472.597Z" fill="#407BFF"/>
<path d="M355.767 480.9C355.733 480.884 355.705 480.858 355.685 480.826C355.665 480.794 355.654 480.757 355.654 480.72C355.654 480.682 355.665 480.645 355.685 480.613C355.705 480.582 355.733 480.556 355.767 480.54C356.128 480.353 359.345 478.657 360.332 479.205C360.424 479.253 360.501 479.323 360.557 479.41C360.613 479.496 360.646 479.596 360.653 479.699C360.674 479.871 360.654 480.045 360.593 480.208C360.533 480.371 360.434 480.516 360.306 480.633C359.438 481.434 357.129 481.154 355.821 480.913L355.767 480.9ZM360.052 479.498C358.769 479.572 357.523 479.957 356.421 480.62C358.21 480.887 359.531 480.793 360.025 480.339C360.109 480.263 360.173 480.167 360.21 480.059C360.247 479.952 360.257 479.837 360.239 479.725C360.24 479.684 360.23 479.643 360.209 479.607C360.187 479.572 360.156 479.543 360.119 479.525L360.052 479.498Z" fill="#407BFF"/>
<path d="M355.767 480.9C355.741 480.879 355.72 480.853 355.706 480.823C355.692 480.792 355.686 480.76 355.687 480.726C355.757 479.587 356.177 478.496 356.888 477.603C357.031 477.477 357.199 477.381 357.38 477.321C357.561 477.262 357.752 477.239 357.942 477.256C358.476 477.256 358.623 477.563 358.663 477.776C358.823 478.684 356.928 480.446 355.994 480.913C355.96 480.936 355.919 480.947 355.878 480.945C355.837 480.943 355.798 480.927 355.767 480.9ZM358.049 477.643H357.862C357.723 477.627 357.581 477.641 357.447 477.685C357.314 477.729 357.191 477.801 357.088 477.896C356.496 478.602 356.137 479.474 356.06 480.393C357.048 479.779 358.33 478.39 358.236 477.843C358.236 477.79 358.209 477.696 358.049 477.643Z" fill="#407BFF"/>
<path d="M331.567 242.127C328.898 246.866 326.228 251.925 323.826 256.891C321.405 261.762 319.331 266.798 317.619 271.962C317.418 272.589 317.272 273.19 317.085 273.817C317.018 274.097 316.898 274.498 316.858 274.685C316.813 274.838 316.777 274.994 316.751 275.152C316.636 275.991 316.659 276.843 316.818 277.675C317.355 279.96 318.232 282.152 319.421 284.176C322.194 288.839 325.423 293.217 329.058 297.245L325.187 301.89C320.021 298.476 315.434 294.257 311.599 289.395C309.46 286.696 307.803 283.648 306.7 280.385C306.067 278.434 305.782 276.387 305.859 274.338C305.859 273.79 305.966 273.216 306.033 272.656C306.099 272.095 306.179 271.841 306.259 271.414C306.42 270.627 306.566 269.826 306.74 269.052C308.236 263.127 310.264 257.35 312.8 251.791C315.236 246.321 318 241.003 321.076 235.866L331.567 242.127Z" fill="#A7D5F2"/>
<path d="M323.184 231.194C315.749 233.236 308.501 254.127 308.501 254.127L326.401 259.08C329.537 254.682 332.04 249.864 333.836 244.77C337.6 234.625 332.181 228.738 323.184 231.194Z" fill="#407BFF"/>
<g opacity="0.2">
<path d="M323.183 231.194C315.748 233.236 308.5 254.127 308.5 254.127L326.4 259.08C329.536 254.682 332.039 249.864 333.835 244.77C337.599 234.625 332.18 228.738 323.183 231.194Z" fill="#328DF1"/>
</g>
<path d="M325.627 295.87L333.796 298.019L330.553 305.694C330.553 305.694 323.225 304.146 323.265 300.141L325.627 295.87Z" fill="#A7D5F2"/>
<path d="M336.933 303.225L334.517 309.299L330.553 305.694L333.796 298.019L336.933 303.225Z" fill="#A7D5F2"/>
</svg>
