<svg width="21" height="13" viewBox="0 0 21 13" fill="none" xmlns="http://www.w3.org/2000/svg">
<path d="M19.3491 0.0898438H9.1611C8.29305 0.0898438 7.58936 0.625874 7.58936 1.2871V1.28968C7.58936 1.95091 8.29305 2.48694 9.1611 2.48694H19.3491C20.2171 2.48694 20.9208 1.95091 20.9208 1.28968V1.2871C20.9208 0.625874 20.2171 0.0898438 19.3491 0.0898438Z" fill="#0B4C73"/>
<path d="M1.7105 0.0898438H1.66647C0.798419 0.0898438 0.0947266 0.625874 0.0947266 1.2871V1.28968C0.0947266 1.95091 0.798419 2.48694 1.66647 2.48694H1.7105C2.57855 2.48694 3.28224 1.95091 3.28224 1.28968V1.2871C3.28224 0.625874 2.57855 0.0898438 1.7105 0.0898438Z" fill="#0B4C73"/>
<path d="M19.3252 9.78906H19.2812C18.4132 9.78906 17.7095 10.3251 17.7095 10.9863V10.9889C17.7095 11.6501 18.4132 12.1862 19.2812 12.1862H19.3252C20.1933 12.1862 20.897 11.6501 20.897 10.9889V10.9863C20.897 10.3251 20.1933 9.78906 19.3252 9.78906Z" fill="#0B4C73"/>
<path d="M13.2577 9.78906H1.73092C0.862872 9.78906 0.15918 10.3251 0.15918 10.9863V10.9889C0.15918 11.6501 0.862872 12.1862 1.73092 12.1862H13.2577C14.1257 12.1862 14.8294 11.6501 14.8294 10.9889V10.9863C14.8294 10.3251 14.1257 9.78906 13.2577 9.78906Z" fill="#0B4C73"/>
<path d="M19.3455 4.95312H1.57174C0.703692 4.95312 0 5.48915 0 6.15038V6.15296C0 6.81419 0.703692 7.35022 1.57174 7.35022H19.3455C20.2136 7.35022 20.9173 6.81419 20.9173 6.15296V6.15038C20.9173 5.48915 20.2136 4.95312 19.3455 4.95312Z" fill="#0B4C73"/>
</svg>
