<svg width="25" height="25" viewBox="0 0 25 25" fill="none" xmlns="http://www.w3.org/2000/svg">
<rect width="25" height="25" rx="9" fill="#0B4C73"/>
<path fill-rule="evenodd" clip-rule="evenodd" d="M12.5946 13.9633C11.2956 13.9633 10.2424 12.9314 10.2424 11.6587C10.2424 10.3859 11.2956 9.35417 12.5946 9.35417C13.8937 9.35417 14.9469 10.3859 14.9469 11.6587C14.9469 12.9314 13.8937 13.9633 12.5946 13.9633ZM12.5946 8.28161C14.4983 8.28161 16.0416 9.79363 16.0416 11.6587C16.0416 13.5238 14.4983 15.0358 12.5946 15.0358C10.691 15.0358 9.14766 13.5238 9.14766 11.6587C9.14766 9.79363 10.691 8.28161 12.5946 8.28161ZM7.00255 12.6626C7.00252 12.7345 6.98726 12.8057 6.95772 12.8715C6.92818 12.9374 6.88501 12.9965 6.83094 13.0452L5.31143 14.4129L4.51256 13.5573L5.66009 12.5289C5.71016 12.4841 5.75015 12.4295 5.77751 12.3687C5.80488 12.3078 5.81902 12.2421 5.81904 12.1756V11.2851C5.81903 11.2153 5.80343 11.1463 5.77334 11.0829C5.74325 11.0196 5.69938 10.9635 5.64482 10.9185L4.31752 9.82522C4.15222 9.68906 4.04304 9.4987 4.0103 9.28956C3.97756 9.08042 4.02348 8.86675 4.13952 8.68831L5.95301 5.89885C6.20019 5.5187 6.70229 5.38547 7.11155 5.59151L8.38228 6.23128C8.44368 6.26217 8.51106 6.27998 8.57998 6.28354C8.64891 6.2871 8.71782 6.27632 8.78219 6.25192L9.60319 5.94059C9.68871 5.90816 9.76318 5.85283 9.81812 5.7809C9.87306 5.70897 9.90623 5.62335 9.91386 5.53383L10.0338 4.1282C10.0723 3.67598 10.4583 3.32812 10.9216 3.32812L14.2581 3.32836C14.7183 3.32836 15.1027 3.67158 15.1452 4.12049L15.277 5.51406C15.2834 5.5814 15.3042 5.64665 15.3382 5.70553C15.3721 5.76441 15.4185 5.81557 15.4741 5.85565L16.1482 6.34155C16.2133 6.38848 16.2892 6.41886 16.3692 6.42998C16.4492 6.4411 16.5308 6.43261 16.6067 6.40527L18.2094 5.82754L18.6181 6.91575L16.4371 7.7019C16.3542 7.73178 16.265 7.74091 16.1776 7.72845C16.0902 7.716 16.0073 7.68236 15.9366 7.63059L14.404 6.50899C14.3315 6.45605 14.271 6.3888 14.2266 6.31157C14.1822 6.23434 14.1548 6.14884 14.1462 6.0606L13.9928 4.48765H11.2026L11.0355 6.27442C11.0233 6.40555 10.973 6.53052 10.8907 6.63462C10.8084 6.73871 10.6974 6.81758 10.5708 6.86195L8.78811 7.48687C8.69755 7.51862 8.60132 7.53187 8.50533 7.52583C8.40935 7.51979 8.31564 7.49458 8.22997 7.45174L6.80875 6.74107L5.30971 9.04678L6.77815 10.2881C6.84857 10.3476 6.90507 10.4214 6.94379 10.5042C6.98251 10.5871 7.00255 10.6771 7.00255 10.7683V12.6626ZM20.6434 13.5301C21.0116 13.8004 21.109 14.301 20.8683 14.6852L19.1223 17.4709C18.88 17.8576 18.3755 17.9978 17.9619 17.7933L16.6766 17.1579C16.5947 17.1174 16.5029 17.1003 16.4116 17.1086C16.3203 17.1168 16.2331 17.15 16.1602 17.2044L15.4597 17.7269C15.4048 17.7679 15.3594 17.8198 15.3264 17.8792C15.2935 17.9386 15.2737 18.0042 15.2685 18.0716L15.1599 19.4673C15.125 19.9168 14.7463 20.2663 14.2863 20.2736L10.9111 20.328C10.6952 20.3315 10.4853 20.258 10.3206 20.1212C10.1558 19.9844 10.0474 19.7937 10.0154 19.5844L9.759 17.9041C9.74848 17.8351 9.72265 17.7691 9.68333 17.7108C9.64402 17.6525 9.59217 17.6034 9.53141 17.5668L8.75692 17.1009C8.69908 17.0661 8.63449 17.0435 8.56726 17.0345C8.50002 17.0255 8.43161 17.0303 8.36636 17.0486L6.87153 17.4686L6.54536 16.3539L8.53004 15.8009C8.60068 15.7813 8.67472 15.7762 8.74747 15.786C8.82022 15.7958 8.89009 15.8203 8.95268 15.8579L10.6004 16.8493C10.6796 16.897 10.7474 16.9609 10.7992 17.0366C10.851 17.1122 10.8856 17.198 10.9005 17.2879L11.2118 19.1634L14.0017 19.1186L14.1273 17.5602C14.1349 17.4663 14.162 17.3748 14.2069 17.2915C14.2519 17.2082 14.3138 17.1347 14.3888 17.0757L15.8653 15.9145C15.9701 15.832 16.0968 15.7806 16.2304 15.7664C16.364 15.7521 16.499 15.7755 16.6195 15.8339L18.2609 16.6295L19.7211 14.3L18.4332 13.3488C18.3609 13.2954 18.3009 13.2278 18.257 13.1503C18.2131 13.0728 18.1862 12.9872 18.1781 12.8989L18.0046 11.0325C17.9966 10.9463 18.0107 10.8595 18.0456 10.7801C18.0805 10.7006 18.1351 10.6309 18.2045 10.5773L20.0296 9.16777L20.7622 10.0784L19.421 11.1143C19.3575 11.1633 19.3074 11.2269 19.2752 11.2995C19.243 11.3722 19.2297 11.4515 19.2365 11.5304L19.3063 12.3475C19.3121 12.4149 19.3324 12.4803 19.3658 12.5394C19.3992 12.5986 19.4451 12.6501 19.5003 12.6907L20.6434 13.5301Z" fill="white"/>
</svg>
