<svg width="310" height="224" viewBox="0 0 310 224" fill="none" xmlns="http://www.w3.org/2000/svg">
<path d="M309.305 203.003H0V203.158H309.305V203.003Z" fill="#EBEBEB"/>
<path d="M278.314 212.978H257.825V213.133H278.314V212.978Z" fill="#EBEBEB"/>
<path d="M204.896 214.664H199.52V214.819H204.896V214.664Z" fill="#EBEBEB"/>
<path d="M257.206 207.225H245.334V207.38H257.206V207.225Z" fill="#EBEBEB"/>
<path d="M59.1715 208.266H32.4537V208.421H59.1715V208.266Z" fill="#EBEBEB"/>
<path d="M68.5977 208.266H64.6819V208.421H68.5977V208.266Z" fill="#EBEBEB"/>
<path d="M139.28 210.883H81.3289V211.038H139.28V210.883Z" fill="#EBEBEB"/>
<path d="M146.609 175.353H27.1615C26.2258 175.352 25.3289 174.978 24.6679 174.314C24.0068 173.651 23.6355 172.751 23.6355 171.813V3.53992C23.6355 2.60215 24.0068 1.7027 24.6679 1.03901C25.3289 0.375322 26.2258 0.00164233 27.1615 0L146.609 0C147.546 0 148.444 0.372955 149.107 1.03682C149.769 1.70068 150.141 2.60108 150.141 3.53992V171.813C150.141 172.278 150.05 172.739 149.872 173.168C149.695 173.598 149.435 173.988 149.107 174.316C148.779 174.645 148.389 174.906 147.961 175.084C147.532 175.262 147.073 175.353 146.609 175.353ZM27.1615 0.154988C26.2668 0.15663 25.4093 0.513981 24.7772 1.1486C24.1451 1.78322 23.7901 2.64326 23.7901 3.53992V171.813C23.7901 172.71 24.1451 173.57 24.7772 174.205C25.4093 174.839 26.2668 175.197 27.1615 175.198H146.609C147.504 175.197 148.363 174.84 148.996 174.205C149.629 173.571 149.985 172.711 149.987 171.813V3.53992C149.985 2.64269 149.629 1.78267 148.996 1.14822C148.363 0.513779 147.504 0.156627 146.609 0.154988H27.1615Z" fill="#EBEBEB"/>
<path d="M280.423 175.353H160.969C160.033 175.352 159.135 174.978 158.473 174.315C157.811 173.651 157.438 172.752 157.437 171.813V3.53992C157.438 2.60158 157.811 1.70214 158.473 1.03863C159.135 0.375121 160.033 0.00163903 160.969 0L280.423 0C281.357 0.00328092 282.253 0.377684 282.912 1.04119C283.572 1.7047 283.943 2.60322 283.943 3.53992V171.813C283.943 172.75 283.572 173.649 282.912 174.312C282.253 174.976 281.357 175.35 280.423 175.353ZM160.969 0.154988C160.074 0.156627 159.216 0.513779 158.582 1.14822C157.949 1.78267 157.593 2.64269 157.591 3.53992V171.813C157.593 172.711 157.949 173.571 158.582 174.205C159.216 174.84 160.074 175.197 160.969 175.198H280.423C281.318 175.197 282.176 174.84 282.809 174.205C283.442 173.571 283.799 172.711 283.8 171.813V3.53992C283.799 2.64269 283.442 1.78267 282.809 1.14822C282.176 0.513779 281.318 0.156627 280.423 0.154988H160.969Z" fill="#EBEBEB"/>
<path d="M179.206 73.8423L264.438 73.8423V17.904L179.206 17.904V73.8423Z" fill="#E6E6E6"/>
<path d="M176.599 73.8423L263.217 73.8423V17.904L176.599 17.904V73.8423Z" fill="#F0F0F0"/>
<path d="M179.206 84.8152L264.438 84.8152V73.8358L179.206 73.8358V84.8152Z" fill="#E6E6E6"/>
<path d="M172.277 84.8152L258.895 84.8152V73.8358L172.277 73.8358V84.8152Z" fill="#F0F0F0"/>
<path d="M259.581 70.197V21.5555L180.244 21.5555V70.197H259.581Z" fill="#FAFAFA"/>
<path d="M241.691 70.1907L231.558 21.5555H215.747L225.879 70.1907H241.691Z" fill="white"/>
<path d="M257.898 66.5578C257.966 66.5578 258.033 66.5303 258.081 66.4815C258.13 66.4327 258.157 66.3665 258.157 66.2974V23.9237C258.157 23.8895 258.151 23.8557 258.138 23.8241C258.125 23.7925 258.105 23.7638 258.081 23.7396C258.057 23.7154 258.029 23.6962 257.997 23.6832C257.965 23.6701 257.932 23.6633 257.898 23.6633C257.863 23.6633 257.83 23.6701 257.798 23.6832C257.767 23.6962 257.738 23.7154 257.714 23.7396C257.69 23.7638 257.671 23.7925 257.658 23.8241C257.644 23.8557 257.638 23.8895 257.638 23.9237V66.2974C257.638 66.3316 257.644 66.3655 257.658 66.397C257.671 66.4286 257.69 66.4573 257.714 66.4815C257.738 66.5057 257.767 66.5249 257.798 66.538C257.83 66.551 257.863 66.5578 257.898 66.5578Z" fill="#F0F0F0"/>
<path d="M222.483 70.1907L212.35 21.5555H206.183L216.322 70.1907H222.483Z" fill="white"/>
<path d="M180.707 70.1969V21.5555H180.243V70.1969H180.707Z" fill="#E6E6E6"/>
<path opacity="0.6" d="M175.746 27.0548H260.979L261.313 22.9694H176.08L175.746 27.0548Z" fill="#EBEBEB"/>
<path opacity="0.6" d="M175.746 33.75H260.979L261.313 29.6646H176.08L175.746 33.75Z" fill="#EBEBEB"/>
<path opacity="0.6" d="M175.746 40.4455H260.979L261.313 36.3662H176.08L175.746 40.4455Z" fill="#EBEBEB"/>
<path opacity="0.6" d="M175.746 47.1474H260.979L261.313 43.0619H176.08L175.746 47.1474Z" fill="#EBEBEB"/>
<path opacity="0.6" d="M175.746 53.8426H260.979L261.313 49.7571H176.08L175.746 53.8426Z" fill="#EBEBEB"/>
<path opacity="0.6" d="M175.746 60.5381H260.979L261.313 56.4526H176.08L175.746 60.5381Z" fill="#EBEBEB"/>
<path d="M252.201 162.322H234.329V165.855H252.201V162.322Z" fill="#E6E6E6"/>
<path d="M200.621 203.003H203.919V121.746H200.621V203.003Z" fill="#E6E6E6"/>
<path d="M189.191 165.849H234.324V162.316H189.191V165.849Z" fill="#F5F5F5"/>
<path d="M252.201 181.646H234.329V185.18H252.201V181.646Z" fill="#E6E6E6"/>
<path d="M189.191 185.173H234.324V181.639H189.191V185.173Z" fill="#F5F5F5"/>
<path d="M252.201 123.681H234.329V127.214H252.201V123.681Z" fill="#E6E6E6"/>
<path d="M189.191 127.207H234.324V123.674H189.191V127.207Z" fill="#F5F5F5"/>
<path d="M252.201 142.997H234.329V146.531H252.201V142.997Z" fill="#E6E6E6"/>
<path d="M189.191 146.531H234.324V142.997H189.191V146.531Z" fill="#F5F5F5"/>
<path d="M245.762 203.003H249.059V121.746H245.762V203.003Z" fill="#E6E6E6"/>
<path d="M231.027 203.003H234.324V121.746H231.027V203.003Z" fill="#F5F5F5"/>
<path d="M189.191 203.003H192.488V121.746H189.191V203.003Z" fill="#F5F5F5"/>
<path d="M40.4447 203.003H74.2085L74.2085 137.356H40.4447L40.4447 203.003Z" fill="#E6E6E6"/>
<path d="M49.4577 203.003H40.4384V193.939H58.9101L49.4577 203.003Z" fill="#FAFAFA"/>
<path d="M132.495 212.003H166.259V146.357H132.495V212.003Z" fill="#E6E6E6"/>
<path d="M40.4451 199.885H140.369V137.356H40.4451L40.4451 199.885Z" fill="#FAFAFA"/>
<path d="M131.349 203.003H140.362V193.939H121.896L131.349 203.003Z" fill="#FAFAFA"/>
<path d="M47.435 176.302H133.372V160.654H47.435V176.302Z" fill="#F0F0F0"/>
<path d="M47.435 195.297H133.372V179.65H47.435V195.297Z" fill="#F0F0F0"/>
<path d="M117.04 162.297H63.7713C63.0199 162.297 62.2993 161.998 61.7679 161.466C61.2366 160.933 60.9381 160.211 60.9381 159.458V159.266H119.867V159.458C119.867 160.21 119.569 160.931 119.039 161.464C118.509 161.996 117.79 162.296 117.04 162.297Z" fill="#FAFAFA"/>
<path d="M47.435 157.312H133.372V141.665H47.435V157.312Z" fill="#F0F0F0"/>
<path d="M117.04 143.333H63.7713C63.0199 143.333 62.2993 143.033 61.7679 142.501C61.2366 141.968 60.9381 141.246 60.9381 140.493V140.301H119.867V140.493C119.867 141.245 119.569 141.966 119.039 142.499C118.509 143.031 117.79 143.331 117.04 143.333Z" fill="#FAFAFA"/>
<path d="M117.04 181.317H63.7713C63.0199 181.317 62.2993 181.018 61.7679 180.486C61.2366 179.953 60.9381 179.231 60.9381 178.478V178.286H119.867V178.478C119.867 179.23 119.569 179.951 119.039 180.483C118.509 181.016 117.79 181.316 117.04 181.317Z" fill="#FAFAFA"/>
<path d="M45.8203 73.8423L131.052 73.8423V17.904L45.8203 17.904V73.8423Z" fill="#E6E6E6"/>
<path d="M43.2231 73.8423L129.841 73.8423V17.904L43.2231 17.904V73.8423Z" fill="#F0F0F0"/>
<path d="M45.8203 84.8152L131.052 84.8152V73.8358L45.8203 73.8358V84.8152Z" fill="#E6E6E6"/>
<path d="M38.8868 84.8152L125.505 84.8152V73.8358L38.8868 73.8358V84.8152Z" fill="#F0F0F0"/>
<path d="M126.196 70.1969V21.5555L46.8595 21.5555V70.1969H126.196Z" fill="#FAFAFA"/>
<path d="M108.306 70.1907L98.1728 21.5555H82.3611L92.494 70.1907H108.306Z" fill="white"/>
<path d="M124.507 66.5578C124.576 66.5578 124.642 66.5303 124.69 66.4815C124.739 66.4327 124.766 66.3665 124.766 66.2974V23.9237C124.766 23.8895 124.76 23.8557 124.747 23.8241C124.734 23.7925 124.714 23.7638 124.69 23.7396C124.666 23.7154 124.638 23.6962 124.606 23.6832C124.575 23.6701 124.541 23.6633 124.507 23.6633C124.438 23.6633 124.372 23.6908 124.323 23.7396C124.274 23.7884 124.247 23.8547 124.247 23.9237V66.2974C124.247 66.3665 124.274 66.4327 124.323 66.4815C124.372 66.5303 124.438 66.5578 124.507 66.5578Z" fill="#F0F0F0"/>
<path d="M89.0987 70.1907L78.9659 21.5555H72.7983L82.9312 70.1907H89.0987Z" fill="white"/>
<path d="M47.322 70.1969V21.5555H46.8581V70.1969H47.322Z" fill="#E6E6E6"/>
<path opacity="0.6" d="M42.3572 27.0548H127.589L127.923 22.9694H42.6913L42.3572 27.0548Z" fill="#EBEBEB"/>
<path opacity="0.6" d="M42.3572 29.3537H127.589L127.923 25.2744H42.6913L42.3572 29.3537Z" fill="#EBEBEB"/>
<path opacity="0.6" d="M42.3572 31.6608H127.589L127.923 27.5753H42.6913L42.3572 31.6608Z" fill="#EBEBEB"/>
<path opacity="0.6" d="M42.3572 33.9615H127.589L127.923 29.8822H42.6913L42.3572 33.9615Z" fill="#EBEBEB"/>
<path opacity="0.6" d="M42.3572 36.2677H127.589L127.923 32.1823H42.6913L42.3572 36.2677Z" fill="#EBEBEB"/>
<path opacity="0.6" d="M42.3572 38.5736H127.589L127.923 34.4882H42.6913L42.3572 38.5736Z" fill="#EBEBEB"/>
<path d="M59.3979 135.342H62.3425L62.3425 102.429H59.3979L59.3979 135.342Z" fill="#F5F5F5"/>
<path d="M59.7686 135.323H60.6037L60.6037 102.41H59.7686L59.7686 135.323Z" fill="#FAFAFA"/>
<path d="M60.9508 135.323H61.2786L61.2786 102.41H60.9508L60.9508 135.323Z" fill="#FAFAFA"/>
<path d="M71.7781 137.356H49.9783C49.9783 136.626 50.2677 135.926 50.7828 135.41C51.2979 134.894 51.9965 134.604 52.7249 134.604H69.0253C69.7538 134.604 70.4524 134.894 70.9675 135.41C71.4826 135.926 71.772 136.626 71.772 137.356H71.7781Z" fill="#F0F0F0"/>
<path d="M55.5764 122.869C55.8007 122.867 56.0153 122.777 56.1739 122.618C56.3325 122.459 56.4223 122.244 56.4239 122.019V100.433C56.4239 100.207 56.3346 99.9913 56.1757 99.832C56.0167 99.6728 55.8012 99.5833 55.5764 99.5833C55.4646 99.5825 55.3537 99.6038 55.2502 99.6461C55.1466 99.6885 55.0525 99.7509 54.9731 99.8298C54.8938 99.9088 54.8308 100.003 54.7878 100.106C54.7448 100.21 54.7227 100.321 54.7227 100.433V122.013C54.7227 122.24 54.8127 122.458 54.9728 122.618C55.1329 122.779 55.35 122.869 55.5764 122.869Z" fill="#F0F0F0"/>
<path d="M47.6776 110.258H74.0613L71.0239 91.7838H50.7149L47.6776 110.258Z" fill="#E0E0E0"/>
<path d="M154.652 221.001C220.895 221.001 274.595 217.859 274.595 213.983C274.595 210.107 220.895 206.965 154.652 206.965C88.41 206.965 34.71 210.107 34.71 213.983C34.71 217.859 88.41 221.001 154.652 221.001Z" fill="#F5F5F5"/>
<path d="M64.4096 91.3883L63.7925 91.4329L64.6143 102.866L65.2313 102.822L64.4096 91.3883Z" fill="#407BFF"/>
<path d="M65.6508 108.723L65.0338 108.768L65.3431 113.071L65.9601 113.027L65.6508 108.723Z" fill="#407BFF"/>
<path d="M208.911 161.318H76.4289C74.9542 161.291 73.5416 160.718 72.4633 159.71C71.385 158.701 70.7174 157.328 70.5892 155.856L64.0815 65.2622C64.0209 64.5636 64.1071 63.8599 64.3344 63.1967C64.5617 62.5334 64.9252 61.9252 65.4013 61.4112C65.8774 60.8973 66.4557 60.489 67.0988 60.2126C67.742 59.9363 68.4358 59.798 69.1355 59.8067H201.617C203.091 59.8331 204.503 60.405 205.581 61.4122C206.659 62.4194 207.327 63.7908 207.457 65.2622L213.965 155.856C214.025 156.555 213.939 157.259 213.712 157.922C213.484 158.586 213.121 159.194 212.645 159.709C212.169 160.223 211.591 160.632 210.948 160.909C210.305 161.186 209.611 161.325 208.911 161.318Z" fill="#407BFF"/>
<path d="M209.417 161.318H76.9358C75.4611 161.291 74.0485 160.718 72.9702 159.71C71.8919 158.701 71.2243 157.328 71.0961 155.856L64.5884 65.2622C64.5278 64.5636 64.614 63.8599 64.8413 63.1967C65.0686 62.5334 65.4321 61.9252 65.9082 61.4112C66.3843 60.8973 66.9626 60.489 67.6057 60.2126C68.2489 59.9363 68.9427 59.798 69.6424 59.8067H202.124C203.598 59.8331 205.01 60.405 206.088 61.4122C207.166 62.4194 207.834 63.7908 207.964 65.2622L214.472 155.856C214.533 156.555 214.447 157.259 214.221 157.923C213.994 158.587 213.63 159.196 213.154 159.711C212.678 160.226 212.099 160.634 211.456 160.911C210.812 161.188 210.118 161.326 209.417 161.318Z" fill="#407BFF"/>
<path opacity="0.5" d="M209.417 161.318H76.9358C75.4611 161.291 74.0485 160.718 72.9702 159.71C71.8919 158.701 71.2243 157.328 71.0961 155.856L64.5884 65.2622C64.5278 64.5636 64.614 63.8599 64.8413 63.1967C65.0686 62.5334 65.4321 61.9252 65.9082 61.4112C66.3843 60.8973 66.9626 60.489 67.6057 60.2126C68.2489 59.9363 68.9427 59.798 69.6424 59.8067H202.124C203.598 59.8331 205.01 60.405 206.088 61.4122C207.166 62.4194 207.834 63.7908 207.964 65.2622L214.472 155.856C214.533 156.555 214.447 157.259 214.221 157.923C213.994 158.587 213.63 159.196 213.154 159.711C212.678 160.226 212.099 160.634 211.456 160.911C210.812 161.188 210.118 161.326 209.417 161.318Z" fill="white"/>
<path d="M202.322 62.5342H69.8405C69.692 62.5342 69.5436 62.5342 69.3951 62.5342C66.0113 62.8132 66.7041 67.9774 70.1189 67.9774H202.823C206.244 67.9774 206.195 62.8132 202.768 62.5342C202.619 62.5342 202.471 62.5342 202.322 62.5342Z" fill="#407BFF"/>
<path d="M73.2919 65.2628C73.3049 65.4226 73.2843 65.5834 73.2315 65.7347C73.1786 65.8861 73.0947 66.0247 72.9851 66.1415C72.8755 66.2584 72.7427 66.3509 72.5952 66.4131C72.4477 66.4753 72.2889 66.5058 72.1289 66.5027C71.7927 66.4979 71.4701 66.3686 71.2234 66.1397C70.9767 65.9107 70.8232 65.5984 70.7927 65.2628C70.7807 65.1037 70.8018 64.9438 70.8546 64.7933C70.9074 64.6428 70.9909 64.5049 71.0996 64.3884C71.2083 64.2719 71.34 64.1792 71.4863 64.1163C71.6326 64.0534 71.7903 64.0216 71.9495 64.0229C72.2864 64.0275 72.6097 64.1565 72.8575 64.3854C73.1052 64.6142 73.2599 64.9266 73.2919 65.2628Z" fill="#FAFAFA"/>
<path d="M77.5418 65.2628C77.5548 65.4226 77.5342 65.5834 77.4814 65.7347C77.4286 65.8861 77.3446 66.0247 77.235 66.1415C77.1254 66.2584 76.9926 66.3509 76.8451 66.4131C76.6977 66.4753 76.5388 66.5058 76.3788 66.5027C76.0426 66.4979 75.72 66.3686 75.4733 66.1397C75.2266 65.9107 75.0732 65.5984 75.0426 65.2628C75.0306 65.1037 75.0517 64.9438 75.1046 64.7933C75.1574 64.6428 75.2408 64.5049 75.3495 64.3884C75.4582 64.2719 75.5899 64.1792 75.7362 64.1163C75.8825 64.0534 76.0402 64.0216 76.1994 64.0229C76.5363 64.0275 76.8597 64.1565 77.1074 64.3854C77.3551 64.6142 77.5098 64.9266 77.5418 65.2628Z" fill="#FAFAFA"/>
<path d="M81.787 65.2628C81.8 65.4221 81.7795 65.5824 81.7271 65.7333C81.6746 65.8842 81.5912 66.0225 81.4823 66.1393C81.3734 66.256 81.2413 66.3486 81.0946 66.4112C80.9478 66.4738 80.7897 66.505 80.6302 66.5027C80.2936 66.4994 79.9702 66.3706 79.7232 66.1413C79.4762 65.9121 79.3232 65.599 79.294 65.2628C79.2811 65.1035 79.3015 64.9433 79.3539 64.7924C79.4064 64.6414 79.4898 64.5032 79.5987 64.3864C79.7076 64.2697 79.8397 64.1771 79.9864 64.1145C80.1332 64.0519 80.2913 64.0207 80.4508 64.0229C80.7866 64.029 81.1084 64.1588 81.3549 64.3875C81.6013 64.6162 81.7551 64.9278 81.787 65.2628Z" fill="#FAFAFA"/>
<path d="M205.906 152.273H79.1839C78.6495 152.264 78.1374 152.057 77.7466 151.691C77.3558 151.326 77.1141 150.829 77.0682 150.295L71.7172 75.7953C71.6934 75.5397 71.7241 75.2819 71.8073 75.0391C71.8906 74.7962 72.0244 74.5739 72.1999 74.3869C72.3754 74.1998 72.5886 74.0523 72.8254 73.9542C73.0621 73.8561 73.317 73.8095 73.5731 73.8177H200.326C200.861 73.8251 201.374 74.0317 201.765 74.3972C202.156 74.7628 202.397 75.2612 202.442 75.7953L207.799 150.295C207.821 150.553 207.788 150.814 207.702 151.058C207.616 151.303 207.479 151.526 207.3 151.713C207.121 151.901 206.904 152.047 206.663 152.144C206.423 152.24 206.165 152.284 205.906 152.273Z" fill="white"/>
<path d="M152.505 123.897L150.439 95.1805L144.191 91.405H126.987L129.326 123.897H152.505Z" fill="white"/>
<path d="M152.506 124.195H129.327C129.251 124.195 129.177 124.166 129.121 124.115C129.065 124.063 129.03 123.992 129.024 123.916L126.692 91.4303C126.689 91.3886 126.695 91.3468 126.709 91.3074C126.722 91.268 126.744 91.2318 126.772 91.201C126.8 91.1712 126.833 91.1475 126.871 91.1315C126.908 91.1155 126.948 91.1075 126.989 91.108H144.192C144.247 91.1069 144.301 91.122 144.347 91.1514L150.595 94.9207C150.637 94.9444 150.673 94.9784 150.699 95.0195C150.725 95.0607 150.74 95.1077 150.743 95.1562L152.797 123.872C152.801 123.914 152.796 123.956 152.782 123.996C152.768 124.035 152.746 124.072 152.717 124.102C152.661 124.158 152.586 124.191 152.506 124.195ZM129.618 123.575H152.179L150.149 95.336L144.137 91.7093H127.31L129.618 123.575Z" fill="#407BFF"/>
<path d="M150.441 95.1805L144.193 91.405L146.488 96.4018L150.441 95.1805Z" fill="#EBEBEB"/>
<path d="M146.487 96.713C146.429 96.7129 146.373 96.6959 146.324 96.6639C146.276 96.632 146.238 96.5866 146.215 96.5333L143.92 91.5736C143.89 91.5152 143.881 91.4486 143.893 91.3841C143.905 91.3196 143.937 91.2609 143.986 91.2171C144.035 91.1733 144.097 91.1468 144.162 91.1417C144.227 91.1367 144.292 91.1534 144.347 91.1893L150.595 94.9586C150.645 94.9889 150.686 95.033 150.712 95.0857C150.739 95.1384 150.749 95.1975 150.743 95.2561C150.734 95.3127 150.709 95.3657 150.672 95.4093C150.635 95.453 150.587 95.4858 150.533 95.5041L146.574 96.744L146.487 96.713ZM144.873 92.175L146.648 96.0435L149.741 95.095L144.873 92.175Z" fill="#407BFF"/>
<path d="M136.713 106.043C136.723 106.212 136.699 106.381 136.641 106.541C136.583 106.7 136.494 106.845 136.378 106.968C136.262 107.092 136.122 107.19 135.967 107.257C135.812 107.323 135.645 107.358 135.476 107.358C135.122 107.351 134.782 107.213 134.524 106.97C134.266 106.727 134.107 106.397 134.078 106.043C134.062 105.873 134.082 105.702 134.138 105.54C134.193 105.379 134.283 105.231 134.4 105.108C134.517 104.984 134.659 104.886 134.817 104.822C134.975 104.758 135.145 104.728 135.315 104.735C135.668 104.741 136.006 104.879 136.264 105.12C136.523 105.362 136.682 105.691 136.713 106.043Z" fill="#407BFF"/>
<path d="M145.19 106.043C145.205 106.213 145.185 106.385 145.13 106.547C145.074 106.708 144.985 106.856 144.868 106.981C144.751 107.105 144.608 107.203 144.451 107.268C144.293 107.333 144.123 107.363 143.952 107.357C143.598 107.351 143.258 107.213 142.998 106.97C142.739 106.728 142.579 106.397 142.548 106.043C142.533 105.873 142.554 105.702 142.61 105.541C142.666 105.38 142.756 105.233 142.873 105.109C142.989 104.986 143.131 104.888 143.289 104.824C143.446 104.759 143.615 104.729 143.785 104.735C144.14 104.738 144.481 104.874 144.74 105.116C145 105.358 145.16 105.689 145.19 106.043Z" fill="#407BFF"/>
<path d="M147.589 114.555C147.513 114.555 147.44 114.526 147.385 114.474C147.33 114.422 147.296 114.351 147.292 114.276C147.137 112.168 143.834 110.451 139.93 110.451C137.338 110.451 135.012 111.219 133.862 112.465C133.626 112.693 133.441 112.968 133.32 113.273C133.198 113.578 133.143 113.905 133.156 114.232C133.159 114.273 133.154 114.314 133.141 114.353C133.128 114.391 133.108 114.427 133.081 114.458C133.027 114.52 132.951 114.558 132.869 114.564C132.787 114.57 132.706 114.543 132.644 114.489C132.582 114.434 132.544 114.358 132.538 114.276C132.52 113.866 132.588 113.456 132.737 113.074C132.886 112.692 133.113 112.345 133.404 112.056C134.641 110.692 137.159 109.849 139.912 109.849C144.199 109.849 147.694 111.777 147.867 114.232C147.87 114.272 147.866 114.312 147.854 114.35C147.841 114.387 147.822 114.422 147.796 114.452C147.77 114.482 147.738 114.507 147.703 114.524C147.667 114.542 147.628 114.552 147.589 114.555Z" fill="#407BFF"/>
<path d="M131.869 103.383C131.832 103.384 131.794 103.377 131.759 103.363C131.724 103.35 131.692 103.329 131.665 103.303C131.638 103.275 131.616 103.242 131.601 103.206C131.586 103.17 131.578 103.131 131.578 103.092C131.578 103.053 131.586 103.014 131.601 102.978C131.616 102.942 131.638 102.909 131.665 102.881L132.983 101.461C133.01 101.433 133.043 101.41 133.079 101.395C133.115 101.379 133.154 101.371 133.193 101.371C133.233 101.371 133.271 101.379 133.308 101.395C133.344 101.41 133.376 101.433 133.404 101.461C133.431 101.489 133.453 101.522 133.468 101.558C133.483 101.594 133.491 101.633 133.491 101.672C133.491 101.711 133.483 101.75 133.468 101.786C133.453 101.822 133.431 101.855 133.404 101.883L132.086 103.303C132.057 103.33 132.023 103.352 131.986 103.365C131.949 103.379 131.909 103.385 131.869 103.383Z" fill="#407BFF"/>
<path d="M146.969 103.383C146.893 103.382 146.821 103.354 146.765 103.303L145.249 101.889C145.22 101.861 145.198 101.828 145.182 101.791C145.167 101.755 145.159 101.715 145.159 101.675C145.159 101.635 145.167 101.596 145.182 101.559C145.198 101.522 145.22 101.489 145.249 101.461C145.276 101.433 145.309 101.41 145.345 101.395C145.381 101.379 145.42 101.371 145.459 101.371C145.499 101.371 145.538 101.379 145.574 101.395C145.61 101.41 145.642 101.433 145.67 101.461L147.185 102.881C147.213 102.909 147.235 102.942 147.25 102.978C147.265 103.014 147.273 103.053 147.273 103.092C147.273 103.131 147.265 103.17 147.25 103.206C147.235 103.242 147.213 103.275 147.185 103.303C147.126 103.356 147.048 103.385 146.969 103.383Z" fill="#407BFF"/>
<path d="M125.119 130.314H126.518L128.534 132.998L128.342 130.314H129.753L130.099 135.168H128.67L126.666 132.502L126.858 135.168H125.447L125.119 130.314Z" fill="#407BFF"/>
<path d="M130.731 132.744C130.683 132.414 130.705 132.077 130.797 131.756C130.889 131.436 131.048 131.138 131.263 130.884C131.497 130.651 131.778 130.471 132.088 130.357C132.397 130.242 132.728 130.196 133.057 130.221C133.754 130.183 134.439 130.416 134.968 130.872C135.454 131.356 135.735 132.008 135.754 132.694C135.804 133.167 135.74 133.646 135.568 134.089C135.408 134.446 135.14 134.743 134.801 134.938C134.394 135.154 133.938 135.259 133.477 135.242C133.003 135.258 132.532 135.167 132.098 134.976C131.717 134.794 131.395 134.508 131.17 134.151C130.905 133.728 130.753 133.243 130.731 132.744ZM132.234 132.744C132.229 133.126 132.351 133.499 132.58 133.804C132.678 133.909 132.797 133.992 132.929 134.048C133.062 134.104 133.204 134.13 133.348 134.126C133.485 134.136 133.622 134.112 133.748 134.057C133.874 134.002 133.985 133.917 134.071 133.81C134.257 133.461 134.317 133.058 134.238 132.669C134.241 132.305 134.119 131.95 133.892 131.665C133.793 131.56 133.673 131.478 133.539 131.424C133.406 131.369 133.263 131.344 133.119 131.349C132.984 131.343 132.85 131.369 132.727 131.425C132.605 131.481 132.497 131.566 132.413 131.671C132.224 131.997 132.16 132.381 132.234 132.75V132.744Z" fill="#407BFF"/>
<path d="M138.661 130.314H140.888C141.255 130.302 141.621 130.363 141.965 130.494C142.236 130.608 142.478 130.784 142.67 131.008C142.865 131.236 143.014 131.499 143.109 131.783C143.209 132.088 143.272 132.405 143.295 132.726C143.342 133.131 143.311 133.541 143.202 133.934C143.117 134.207 142.966 134.454 142.763 134.654C142.593 134.833 142.38 134.966 142.144 135.038C141.856 135.12 141.559 135.163 141.259 135.168H139.038L138.661 130.314ZM140.239 131.43L140.43 134.083H140.795C141.021 134.099 141.247 134.065 141.457 133.984C141.593 133.9 141.693 133.77 141.742 133.618C141.812 133.343 141.829 133.057 141.791 132.775C141.802 132.395 141.686 132.022 141.463 131.715C141.348 131.612 141.212 131.534 141.066 131.485C140.919 131.436 140.764 131.417 140.61 131.43H140.239Z" fill="#407BFF"/>
<path d="M146.89 134.368H145.188L145.009 135.168H143.481L144.953 130.314H146.611L148.783 135.168H147.211L146.89 134.368ZM146.5 133.321L145.844 131.572L145.436 133.321H146.5Z" fill="#407BFF"/>
<path d="M148.076 130.314H152.629L152.716 131.51H151.188L151.448 135.168H149.951L149.691 131.51H148.163L148.076 130.314Z" fill="#407BFF"/>
<path d="M156.119 134.368H154.418L154.239 135.168H152.711L154.183 130.314H155.816L157.981 135.168H156.416L156.119 134.368ZM155.729 133.321L155.067 131.572L154.665 133.321H155.729Z" fill="#407BFF"/>
<path d="M218.798 73.2353C219.349 72.9563 220.035 72.6154 220.617 72.262C221.198 71.9086 221.854 71.5614 222.473 71.1957C223.679 70.4455 224.904 69.7078 226.06 68.8833C228.385 67.2941 230.563 65.4994 232.568 63.5207C232.822 63.2851 233.045 63.0185 233.286 62.7705L233.638 62.3924L233.812 62.2002L233.898 62.1072C233.812 62.2746 233.898 62.225 233.898 62.0638C233.953 61.8424 233.984 61.6159 233.991 61.388C233.977 60.0698 233.826 58.7566 233.539 57.4699C232.989 54.6864 232.154 51.8284 231.331 49.0262L233.731 47.9723C235.248 50.6642 236.513 53.4908 237.511 56.416C238.073 57.9941 238.431 59.6381 238.575 61.3075C238.612 61.8265 238.596 62.348 238.525 62.8635C238.434 63.5906 238.175 64.2865 237.771 64.897L237.666 65.0396L237.585 65.145L237.492 65.2627L237.301 65.4921L236.917 65.9571C236.663 66.2671 236.416 66.577 236.144 66.8746C234.028 69.214 231.668 71.3193 229.104 73.1547C227.867 74.0785 226.555 74.9588 225.213 75.7523C224.553 76.1656 223.879 76.5562 223.19 76.924C222.491 77.3084 221.835 77.6494 221.044 78.0151L218.798 73.2353Z" fill="#A7D5F2"/>
<path d="M213.291 218.985C213.755 218.973 214.215 218.911 214.665 218.799C214.688 218.792 214.708 218.779 214.724 218.762C214.741 218.744 214.752 218.723 214.758 218.7C214.761 218.676 214.757 218.652 214.747 218.63C214.737 218.608 214.722 218.589 214.702 218.576C214.523 218.458 212.951 217.441 212.345 217.714C212.278 217.745 212.22 217.794 212.178 217.855C212.135 217.916 212.11 217.987 212.104 218.061C212.08 218.178 212.087 218.299 212.122 218.413C212.158 218.527 212.222 218.63 212.308 218.712C212.594 218.916 212.942 219.013 213.291 218.985ZM214.312 218.619C213.415 218.799 212.735 218.768 212.456 218.532C212.401 218.475 212.36 218.405 212.338 218.328C212.317 218.251 212.315 218.17 212.333 218.092C212.333 217.987 212.394 217.956 212.438 217.937C212.766 217.795 213.675 218.222 214.312 218.619Z" fill="#407BFF"/>
<path d="M214.657 218.8C214.69 218.798 214.72 218.785 214.743 218.762C214.766 218.739 214.78 218.708 214.781 218.676C214.781 218.614 214.781 217.12 214.212 216.618C214.142 216.555 214.06 216.508 213.97 216.48C213.88 216.452 213.785 216.444 213.692 216.456C213.595 216.457 213.5 216.491 213.425 216.553C213.35 216.616 213.298 216.702 213.278 216.797C213.16 217.38 214.101 218.502 214.596 218.787L214.657 218.8ZM213.773 216.698C213.823 216.697 213.873 216.705 213.919 216.723C213.966 216.741 214.009 216.769 214.045 216.804C214.372 217.285 214.541 217.858 214.527 218.44C214.033 218.043 213.445 217.2 213.519 216.847C213.519 216.785 213.562 216.717 213.717 216.698H213.773Z" fill="#407BFF"/>
<path d="M214.176 57.724C213.557 60.8238 212.32 67.0233 214.454 69.1063C214.454 69.1063 213.613 72.2061 207.903 72.2061C201.618 72.2061 204.903 69.1063 204.903 69.1063C208.33 68.288 208.237 65.7338 207.643 63.3408L214.176 57.724Z" fill="#A7D5F2"/>
<path d="M203.696 70.3465C202.712 70.4829 203.554 67.9225 203.949 67.6559C204.877 67.036 216.854 66.1742 216.773 67.6559C216.724 68.2759 216.427 69.5158 215.907 69.9187C215.388 70.3217 212.307 69.057 203.696 70.3465Z" fill="#263238"/>
<path d="M205.65 69.4841C204.865 69.7507 204.939 67.1717 205.205 66.8617C205.824 66.1425 215.517 63.6441 215.802 65.0576C215.913 65.6776 215.969 66.9175 215.635 67.3576C215.301 67.7978 212.455 67.0477 205.65 69.4841Z" fill="#263238"/>
<path d="M202.044 52.1758C202.005 52.1761 201.967 52.1679 201.932 52.1519C201.897 52.1358 201.865 52.1122 201.84 52.0828C201.651 51.8388 201.408 51.6427 201.13 51.5103C200.851 51.3778 200.546 51.3127 200.238 51.3202C200.206 51.3245 200.173 51.3223 200.142 51.3136C200.11 51.305 200.081 51.2901 200.056 51.2698C200.03 51.2495 200.009 51.2243 199.994 51.1957C199.978 51.1671 199.969 51.1356 199.966 51.1032C199.96 51.0387 199.98 50.9745 200.02 50.9238C200.06 50.8731 200.118 50.8397 200.182 50.8305C200.571 50.8159 200.959 50.8936 201.312 51.0574C201.666 51.2211 201.976 51.4663 202.217 51.7728C202.259 51.8231 202.279 51.8878 202.273 51.9527C202.267 52.0177 202.236 52.0778 202.186 52.12C202.144 52.1502 202.096 52.1694 202.044 52.1758Z" fill="#263238"/>
<path d="M200.844 55.2068C200.563 56.1958 200.147 57.141 199.606 58.0152C199.833 58.1459 200.086 58.2253 200.347 58.2478C200.607 58.2703 200.87 58.2353 201.116 58.1454L200.844 55.2068Z" fill="#049DD9"/>
<path d="M201.147 54.4507C201.19 54.8723 200.999 55.2319 200.726 55.2567C200.454 55.2815 200.201 54.9653 200.164 54.5499C200.126 54.1346 200.312 53.775 200.578 53.744C200.844 53.713 201.104 54.0354 201.147 54.4507Z" fill="#263238"/>
<path d="M200.702 53.7562L199.675 53.5702C199.675 53.5702 200.263 54.3017 200.702 53.7562Z" fill="#263238"/>
<path d="M220.659 218.675H215.475L215.884 206.648H221.068L220.659 218.675Z" fill="#A7D5F2"/>
<path d="M215.066 218.074H220.887C220.988 218.073 221.086 218.109 221.162 218.175C221.238 218.241 221.288 218.333 221.301 218.433L221.963 223.046C221.976 223.162 221.963 223.28 221.927 223.391C221.891 223.503 221.832 223.605 221.754 223.692C221.676 223.779 221.58 223.849 221.473 223.897C221.367 223.945 221.251 223.969 221.134 223.97C219.105 223.932 218.128 223.815 215.567 223.815C213.99 223.815 211.688 223.982 209.517 223.982C207.346 223.982 207.222 221.825 208.131 221.626C212.189 220.752 212.833 219.549 214.2 218.396C214.441 218.189 214.748 218.075 215.066 218.074Z" fill="#263238"/>
<g opacity="0.2">
<path d="M221.067 206.655H215.883L215.673 212.855H220.857L221.067 206.655Z" fill="black"/>
</g>
<path d="M200.04 76.3094C196.835 75.0695 193.779 73.687 190.73 72.1247C187.599 70.5897 184.617 68.7675 181.822 66.6816C181.072 66.0988 180.365 65.4627 179.706 64.7783C179.533 64.5923 179.36 64.425 179.193 64.208C178.997 63.9862 178.815 63.7522 178.648 63.5074C178.193 62.8409 177.908 62.0723 177.819 61.2694C177.751 60.508 177.855 59.741 178.122 59.0252C178.338 58.4485 178.632 57.9041 178.995 57.4071C179.595 56.5909 180.3 55.8573 181.092 55.2249C182.492 54.106 184.005 53.1377 185.608 52.3359C186.375 51.9267 187.154 51.561 187.946 51.22C188.738 50.879 189.517 50.5566 190.365 50.2653L191.46 52.6521C188.762 54.3569 185.966 56.2292 183.913 58.3308C183.453 58.7976 183.048 59.3155 182.706 59.8745C182.409 60.3643 182.416 60.73 182.465 60.699C182.514 60.668 182.465 60.699 182.552 60.761L182.799 61.0276C182.906 61.1453 183.02 61.2571 183.139 61.3624C183.662 61.8496 184.218 62.2992 184.803 62.7077C186.082 63.6116 187.412 64.4396 188.787 65.1875C190.179 65.9624 191.614 66.7064 193.074 67.4131C195.994 68.808 199.013 70.1595 201.976 71.387L200.04 76.3094Z" fill="#A7D5F2"/>
<path d="M193.007 50.9602L193.861 49.1003L189.951 47.7365C189.951 47.7365 188.714 51.3942 190.18 53.0866C190.79 52.993 191.367 52.7499 191.86 52.379C192.353 52.008 192.747 51.5206 193.007 50.9602Z" fill="#A7D5F2"/>
<path d="M193.843 45.071L190.731 44.1721L189.952 47.743L193.843 49.1007V45.071Z" fill="#A7D5F2"/>
<path d="M234.051 49.2796L234.503 44.9399L230.494 45.8761C230.494 45.8761 230.432 49.9553 232.554 50.6063L234.051 49.2796Z" fill="#A7D5F2"/>
<path d="M232.572 41.8778L229.956 43.1053L230.494 45.8703L234.502 44.928L232.572 41.8778Z" fill="#A7D5F2"/>
<path d="M214.992 51.6417C215.184 56.7935 215.37 58.9695 213.05 61.8523C209.555 66.192 203.201 65.293 201.482 60.3024C199.935 55.8078 199.886 48.1452 204.686 45.6096C205.742 45.047 206.924 44.7642 208.119 44.7881C209.315 44.8121 210.485 45.1419 211.517 45.7463C212.55 46.3506 213.411 47.2095 214.019 48.2413C214.627 49.2732 214.962 50.4437 214.992 51.6417Z" fill="#A7D5F2"/>
<path d="M212.754 61.8403C217.802 59.658 221.118 55.0208 219.72 47.8479C218.371 40.9541 213.738 40.2969 211.82 41.7042C209.902 43.1115 205.121 41.0037 202.25 43.3967C197.301 47.5876 201.978 52.076 204.428 54.7852C205.888 57.823 207.805 63.9853 212.754 61.8403Z" fill="#263238"/>
<path d="M210.656 46.6076C211.271 47.4001 212.105 47.9947 213.053 48.3179C214.002 48.641 215.024 48.6786 215.994 48.426C216.964 48.1733 217.839 47.6415 218.51 46.8962C219.182 46.151 219.62 45.2249 219.773 44.2324C219.925 43.2399 219.784 42.2245 219.366 41.3116C218.949 40.3987 218.274 39.6283 217.425 39.0955C216.575 38.5627 215.589 38.291 214.587 38.3138C213.586 38.3367 212.612 38.6531 211.788 39.224C210.664 40.0546 209.913 41.2978 209.701 42.6816C209.489 44.0653 209.832 45.4769 210.656 46.6076Z" fill="#407BFF"/>
<path d="M211.966 42.1872C211.243 38.0336 215.158 34.8346 220.404 36.3783C225.65 37.922 222.879 42.5778 221.796 46.2975C220.713 50.0172 223.547 53.5633 224.722 50.7302C225.897 47.897 223.918 47.0105 223.918 47.0105C223.918 47.0105 229.485 48.4549 224.314 54.7412C219.142 61.0276 214.459 54.1213 215.727 49.9924C216.754 46.6943 212.653 46.1115 211.966 42.1872Z" fill="#263238"/>
<path d="M206.728 43.7563C204.334 42.5164 200.282 41.4934 197.974 45.3805C196.885 47.2404 197.306 49.7202 197.306 49.7202L204.352 50.1914L206.728 43.7563Z" fill="#263238"/>
<path d="M196.477 48.4925C196.456 48.4926 196.436 48.4884 196.417 48.4801C196.398 48.4719 196.381 48.4598 196.367 48.4446C196.353 48.4295 196.342 48.4116 196.336 48.3921C196.329 48.3726 196.326 48.3519 196.328 48.3313C196.328 48.2259 196.507 45.7337 198.011 44.1652C201.642 40.3835 205.898 43.5453 207.11 44.5744C207.137 44.6021 207.152 44.6384 207.153 44.6764C207.154 44.7145 207.141 44.7516 207.116 44.7807C207.092 44.8099 207.058 44.8289 207.02 44.8343C206.982 44.8397 206.944 44.8311 206.913 44.81C205.743 43.7995 201.673 40.7989 198.252 44.3822C196.829 45.8639 196.656 48.3251 196.656 48.3499C196.655 48.3715 196.649 48.3925 196.639 48.4116C196.629 48.4308 196.615 48.4476 196.598 48.461C196.581 48.4744 196.561 48.4842 196.54 48.4896C196.52 48.495 196.498 48.496 196.477 48.4925Z" fill="#263238"/>
<path d="M205.286 54.6055C205.258 55.5806 204.898 56.5167 204.266 57.2589C203.412 58.257 202.41 57.7672 202.206 56.6389C202.002 55.6346 202.206 53.9111 203.282 53.3036C204.359 52.696 205.299 53.4586 205.286 54.6055Z" fill="#A7D5F2"/>
<path d="M204.171 101.778C204.171 101.778 204.505 137.822 207.623 157.908C210.147 174.132 214.805 211.652 214.805 211.652H221.876C221.876 211.652 222.562 175.434 221.257 159.384C218.022 118.783 226.379 111.189 219.636 101.778H204.171Z" fill="#263238"/>
<path opacity="0.1" d="M204.171 101.778C204.171 101.778 204.505 137.822 207.623 157.908C210.147 174.132 214.805 211.652 214.805 211.652H221.876C221.876 211.652 222.562 175.434 221.257 159.384C218.022 118.783 226.379 111.189 219.636 101.778H204.171Z" fill="white"/>
<path opacity="0.3" d="M207.891 118.131C210.365 129.011 208.392 146.147 207.037 153.691C205.602 142.235 204.878 127.387 204.519 116.494C205.8 114.424 207.012 114.287 207.891 118.131Z" fill="black"/>
<path d="M213.841 211.794H222.842L223.312 208.626L213.791 208.304L213.841 211.794Z" fill="#407BFF"/>
<path d="M216.409 71.35C217.256 69.6638 221.809 68.6036 224.296 68.6036L226.152 76.8924C226.152 76.8924 221.203 84.2636 219.137 83.4825C216.706 82.5587 214.596 74.9643 216.409 71.35Z" fill="#407BFF"/>
<path opacity="0.4" d="M216.409 71.35C217.256 69.6638 221.809 68.6036 224.296 68.6036L226.152 76.8924C226.152 76.8924 221.203 84.2636 219.137 83.4825C216.706 82.5587 214.596 74.9643 216.409 71.35Z" fill="black"/>
<path d="M211.163 209.766C211.174 209.748 211.18 209.726 211.18 209.704C211.18 209.683 211.174 209.661 211.163 209.642C211.15 209.62 211.131 209.603 211.108 209.592C211.084 209.581 211.059 209.577 211.033 209.58C210.774 209.618 208.485 209.983 208.175 210.641C208.142 210.699 208.125 210.765 208.125 210.833C208.125 210.9 208.142 210.966 208.175 211.025C208.227 211.124 208.303 211.208 208.396 211.27C208.489 211.332 208.596 211.369 208.707 211.378C209.456 211.459 210.563 210.417 211.12 209.785L211.163 209.766ZM208.417 210.721C208.627 210.374 209.815 210.052 210.718 209.884C209.901 210.715 209.184 211.18 208.763 211.124C208.691 211.116 208.621 211.09 208.561 211.049C208.501 211.008 208.451 210.953 208.417 210.889C208.403 210.865 208.396 210.838 208.396 210.811C208.396 210.784 208.403 210.757 208.417 210.734C208.417 210.734 208.41 210.727 208.417 210.721Z" fill="#407BFF"/>
<path d="M211.164 209.766C211.174 209.748 211.179 209.728 211.179 209.707C211.179 209.687 211.174 209.666 211.164 209.648C211.126 209.599 210.211 208.545 209.363 208.489C209.241 208.477 209.118 208.492 209.002 208.531C208.885 208.571 208.779 208.635 208.689 208.719C208.599 208.774 208.532 208.861 208.501 208.963C208.47 209.064 208.478 209.174 208.522 209.27C208.788 209.803 210.434 209.983 211.096 209.847C211.113 209.84 211.128 209.829 211.14 209.815C211.152 209.801 211.16 209.784 211.164 209.766ZM208.745 208.985C208.772 208.943 208.805 208.905 208.844 208.874C208.908 208.812 208.986 208.765 209.07 208.736C209.154 208.707 209.244 208.697 209.332 208.706C209.906 208.848 210.423 209.164 210.811 209.611C210.075 209.673 208.887 209.45 208.726 209.134C208.716 209.11 208.712 209.083 208.715 209.057C208.719 209.031 208.729 209.006 208.745 208.985Z" fill="#407BFF"/>
<path d="M216.562 207.566L211.824 209.674L209.714 205.272L206.955 199.507L206.627 198.837L211.366 196.723L211.731 197.473L214.403 203.059L216.562 207.566Z" fill="#A7D5F2"/>
<path opacity="0.2" d="M214.404 203.059L209.715 205.272L206.956 199.507L211.732 197.473L214.404 203.059Z" fill="black"/>
<path d="M198.618 101.778C198.618 101.778 183.48 139.489 187.582 157.251C191.294 173.302 207.687 203.698 207.687 203.698L214.04 200.511C214.04 200.511 203.901 163.816 202.806 155.844C200.665 140.345 214.417 118.442 214.417 101.778H198.618Z" fill="#263238"/>
<path opacity="0.1" d="M198.618 101.778C198.618 101.778 183.48 139.489 187.582 157.251C191.294 173.302 207.687 203.698 207.687 203.698L214.04 200.511C214.04 200.511 203.901 163.816 202.806 155.844C200.665 140.345 214.417 118.442 214.417 101.778H198.618Z" fill="white"/>
<path d="M210.983 209.017L215.685 205.583C215.766 205.523 215.865 205.494 215.965 205.502C216.065 205.51 216.159 205.554 216.229 205.626L219.477 208.968C219.556 209.055 219.615 209.158 219.652 209.27C219.688 209.381 219.701 209.5 219.688 209.617C219.676 209.734 219.639 209.847 219.581 209.949C219.522 210.05 219.442 210.139 219.347 210.207C217.683 211.373 216.823 211.857 214.757 213.363C213.483 214.293 210.946 216.345 209.19 217.628C207.433 218.912 206.096 217.238 206.715 216.543C209.486 213.444 210.068 211.522 210.501 209.786C210.568 209.481 210.739 209.21 210.983 209.017Z" fill="#263238"/>
<path d="M207.278 205.043L215.462 201.292L214.417 197.95L205.651 201.955L207.278 205.043Z" fill="#407BFF"/>
<path d="M202.632 70.9288C201.958 69.1681 196.044 67.2091 193.075 66.5891L191.769 76.3347C191.769 76.3347 196.619 83.3154 198.741 82.7326C201.253 82.0569 204.092 74.6981 202.632 70.9288Z" fill="#407BFF"/>
<path opacity="0.4" d="M202.632 70.9288C201.958 69.1681 196.044 67.2091 193.075 66.5891L191.769 76.3347C191.769 76.3347 196.619 83.3154 198.741 82.7326C201.253 82.0569 204.092 74.6981 202.632 70.9288Z" fill="black"/>
<path d="M196.143 70.4326C196.143 70.4326 193.669 71.3068 198.618 101.777H219.65C219.298 93.1911 219.285 87.9029 223.362 70.2839C220.415 69.6745 217.427 69.2808 214.423 69.106C211.243 68.8763 208.051 68.8763 204.872 69.106C200.795 69.4779 196.143 70.4326 196.143 70.4326Z" fill="#407BFF"/>
<path opacity="0.4" d="M196.143 70.4326C196.143 70.4326 193.669 71.3068 198.618 101.777H219.65C219.298 93.1911 219.285 87.9029 223.362 70.2839C220.415 69.6745 217.427 69.2808 214.423 69.106C211.243 68.8763 208.051 68.8763 204.872 69.106C200.795 69.4779 196.143 70.4326 196.143 70.4326Z" fill="black"/>
<path d="M219.978 100.538L220.924 102.428C220.998 102.571 220.825 102.72 220.584 102.72H198.512C198.32 102.72 198.166 102.627 198.153 102.509L197.961 100.649C197.961 100.519 198.116 100.407 198.32 100.407H219.607C219.674 100.394 219.745 100.399 219.81 100.422C219.875 100.445 219.933 100.485 219.978 100.538Z" fill="#407BFF"/>
<path opacity="0.3" d="M219.978 100.538L220.924 102.428C220.998 102.571 220.825 102.72 220.584 102.72H198.512C198.32 102.72 198.166 102.627 198.153 102.509L197.961 100.649C197.961 100.519 198.116 100.407 198.32 100.407H219.607C219.674 100.394 219.745 100.399 219.81 100.422C219.875 100.445 219.933 100.485 219.978 100.538Z" fill="white"/>
<path d="M217.131 102.912H217.7C217.818 102.912 217.905 102.856 217.892 102.782L217.626 100.333C217.626 100.259 217.521 100.203 217.41 100.203H216.834C216.723 100.203 216.636 100.259 216.643 100.333L216.909 102.782C216.902 102.869 217.001 102.912 217.131 102.912Z" fill="#263238"/>
<path d="M203.282 102.912H203.851C203.962 102.912 204.049 102.856 204.042 102.782L203.776 100.333C203.776 100.259 203.671 100.203 203.554 100.203H202.985C202.867 100.203 202.787 100.259 202.793 100.333L203.059 102.782C203.065 102.869 203.164 102.912 203.282 102.912Z" fill="#263238"/>
</svg>
