<svg width="276" height="209" viewBox="0 0 276 209" fill="none" xmlns="http://www.w3.org/2000/svg">
<path d="M276 184.031H0V184.169H276V184.031Z" fill="#EBEBEB"/>
<path d="M110.643 189.295H96.2909V189.433H110.643V189.295Z" fill="#EBEBEB"/>
<path d="M58.8211 187.797H28.9579V187.935H58.8211V187.797Z" fill="#EBEBEB"/>
<path d="M95.7388 194.431H81.2102V194.569H95.7388V194.431Z" fill="#EBEBEB"/>
<path d="M163.977 193.502H142.543V193.641H163.977V193.502Z" fill="#EBEBEB"/>
<path d="M174.791 193.502H168.89V193.641H174.791V193.502Z" fill="#EBEBEB"/>
<path d="M248.35 191.169H218.233V191.307H248.35V191.169Z" fill="#EBEBEB"/>
<path d="M130.824 159.372H24.2383C23.4033 159.371 22.603 159.037 22.0131 158.445C21.4232 157.854 21.0919 157.051 21.0919 156.215V6.14263C21.0919 5.30629 21.4232 4.50412 22.0131 3.91222C22.603 3.32032 23.4033 2.98706 24.2383 2.9856H130.824C131.66 2.9856 132.462 3.31821 133.053 3.91027C133.644 4.50233 133.976 5.30533 133.976 6.14263V156.215C133.976 157.052 133.644 157.855 133.053 158.447C132.462 159.039 131.66 159.372 130.824 159.372ZM24.2383 3.12382C23.4399 3.12528 22.6748 3.44398 22.1107 4.00996C21.5467 4.57594 21.2299 5.34295 21.2299 6.14263V156.215C21.2299 157.015 21.5467 157.782 22.1107 158.348C22.6748 158.914 23.4399 159.232 24.2383 159.234H130.824C131.623 159.232 132.389 158.914 132.954 158.348C133.518 157.782 133.836 157.015 133.838 156.215V6.14263C133.836 5.34244 133.518 4.57544 132.954 4.00962C132.389 3.4438 131.623 3.12528 130.824 3.12382H24.2383Z" fill="#EBEBEB"/>
<path d="M250.227 159.372H143.636C142.8 159.371 142 159.038 141.409 158.446C140.818 157.854 140.485 157.052 140.484 156.215V6.14263C140.485 5.30578 140.818 4.50363 141.409 3.91188C142 3.32014 142.8 2.98706 143.636 2.9856H250.227C251.061 2.98852 251.86 3.32243 252.449 3.91417C253.037 4.50591 253.368 5.30724 253.368 6.14263V156.215C253.368 157.05 253.037 157.852 252.449 158.443C251.86 159.035 251.061 159.369 250.227 159.372ZM143.636 3.12382C142.837 3.12528 142.071 3.4438 141.506 4.00962C140.941 4.57544 140.623 5.34244 140.622 6.14263V156.215C140.623 157.015 140.941 157.782 141.506 158.348C142.071 158.914 142.837 159.232 143.636 159.234H250.227C251.026 159.232 251.792 158.914 252.357 158.348C252.922 157.782 253.24 157.015 253.241 156.215V6.14263C253.24 5.34244 252.922 4.57544 252.357 4.00962C251.792 3.4438 251.026 3.12528 250.227 3.12382H143.636Z" fill="#EBEBEB"/>
<path d="M117.107 184.031C117.107 184.031 108.352 173.559 107.331 162.551C105.846 146.584 121.804 165.902 126.552 161.794C131.299 157.686 116.279 138.661 128.445 134.967C140.611 131.274 143.553 145.246 148.367 155.463C156.255 172.21 156.74 129.687 169.988 150.106C178.627 163.419 173.974 184.048 173.974 184.048L117.107 184.031Z" fill="#F5F5F5"/>
<path d="M172.925 184.031C172.925 184.031 163.646 174.566 166.251 164.575C170.027 150.089 176.187 167.616 181.067 163.889C185.947 160.163 180.377 142.912 190.738 139.562C201.099 136.211 199.051 148.884 199.57 158.156C200.415 173.338 213.834 134.785 217.62 153.307C220.088 165.377 209.34 184.026 209.34 184.026L172.925 184.031Z" fill="#F5F5F5"/>
<path d="M195.276 184.031C195.701 182.975 197.014 175.423 209.131 169.424C203.925 176.385 202.507 181.615 202.777 184.031H195.276Z" fill="#E0E0E0"/>
<path d="M58.3464 184.031C58.3133 182.439 57.0382 168.871 44.8114 162.031C48.5208 172.537 47.7039 180.393 46.0258 184.031H58.3464Z" fill="#F5F5F5"/>
<path d="M51.5568 184.031C51.2532 182.986 50.9496 175.522 38.8608 169.595C43.4204 176.473 44.1656 181.643 43.5363 184.031H51.5568Z" fill="#F5F5F5"/>
<path d="M93.6082 184.031C93.6082 183.058 94.2485 174.77 100.232 170.59C98.4161 176.993 98.819 181.809 99.6415 184.031H93.6082Z" fill="#F5F5F5"/>
<path d="M96.9312 184.031C97.0747 183.39 97.2237 178.834 103.147 175.185C100.939 179.387 100.552 182.544 100.861 184.031H96.9312Z" fill="#F5F5F5"/>
<path d="M132.717 184.031C132.381 182.765 132.044 173.753 118.547 166.587C123.631 174.881 124.459 181.145 123.764 184.031H132.717Z" fill="#E0E0E0"/>
<path d="M136.979 184.031C137.078 183.075 139.325 176.258 131.117 170.845C132.646 177.131 131.536 181.853 130.206 184.031H136.979Z" fill="#E0E0E0"/>
<path d="M199.614 184.031C199.515 183.257 200.056 177.739 192.394 173.355C194.812 178.441 194.801 182.268 194.133 184.031H199.614Z" fill="white"/>
<path d="M210.831 55.8425C220.85 52.8016 206.625 45.8904 190.931 45.2158C153.87 43.5903 144.806 35.2637 118.542 32.3665C110.361 31.4653 116.003 43.6677 134.942 49.0419C158.932 55.848 200.503 51.8782 190.335 56.1521C180.167 60.426 190.953 73.1813 212.338 69.2944C228.898 66.2867 252.214 79.7607 243.846 68.1002C238.552 60.7246 226.116 63.4116 220.369 62.8808C214.623 62.3501 196.01 60.3209 210.831 55.8425Z" fill="#F5F5F5"/>
<path d="M200.166 80.7559C196.656 82.1436 187.846 79.1359 182.248 79.2354C176.651 79.3349 167.968 81.447 163.442 76.9298C158.915 72.4127 182.353 75.0223 187.178 75.4591C196.126 76.2608 205.305 78.7323 200.166 80.7559Z" fill="#FAFAFA"/>
<path d="M218.967 16.3325C220.888 14.4361 226.182 17.9525 229.4 17.6152C232.618 17.2779 237.47 14.2702 240.407 19.871C243.344 25.4719 229.643 23.0004 226.833 22.6355C221.622 21.9278 216.152 19.1136 218.967 16.3325Z" fill="#F5F5F5"/>
<path d="M38.0548 54.6482C39.9758 52.7517 45.2695 56.2682 48.4876 55.9309C51.7058 55.5936 56.5579 52.6135 59.4945 58.1867C62.4312 63.7599 48.736 61.3161 45.9208 60.9512C40.71 60.2656 35.2396 57.4292 38.0548 54.6482Z" fill="#F5F5F5"/>
<path d="M54.6094 15.2709C59.616 19.1744 73.7472 16.0339 82.248 18.0741C90.7488 20.1143 103.467 27.0919 111.416 19.5891C119.364 12.0863 83.065 9.63694 75.6185 8.93477C61.824 7.6244 47.2512 9.55954 54.6094 15.2709Z" fill="#FAFAFA"/>
<path d="M108.468 116.849C115.616 106.698 104.107 35.7558 88.6291 31.1502C73.151 26.5445 72.2347 106.278 77.843 115.743C84.1744 126.431 100.69 127.907 108.468 116.849Z" fill="#EBEBEB"/>
<path d="M94.0718 96.4526C94.6812 96.4521 95.2691 96.678 95.7218 97.0865C96.1745 97.495 96.4599 98.0572 96.5227 98.6642C99.0639 127.059 98.9937 155.627 96.313 184.009H91.3947C94.0529 155.782 94.1323 127.37 91.632 99.1287C91.6005 98.7889 91.6402 98.4464 91.7485 98.1229C91.8569 97.7994 92.0315 97.5022 92.2612 97.2503C92.4909 96.9983 92.7706 96.7973 93.0824 96.6599C93.3942 96.5225 93.7312 96.4519 94.0718 96.4526Z" fill="#E0E0E0"/>
<path d="M221.948 146.517C217.957 140.85 224.388 101.224 233.032 98.6475C241.677 96.071 242.19 140.612 239.06 145.904C235.522 151.858 226.32 152.682 221.948 146.517Z" fill="#EBEBEB"/>
<path d="M235.301 131.268C235.124 131.211 234.964 131.111 234.836 130.975C234.708 130.84 234.617 130.674 234.57 130.494C234.523 130.313 234.523 130.124 234.568 129.943C234.614 129.763 234.705 129.597 234.832 129.46L236.907 127.072C237.104 126.845 237.383 126.705 237.683 126.684C237.983 126.662 238.279 126.761 238.505 126.959C238.732 127.156 238.872 127.435 238.893 127.735C238.914 128.036 238.816 128.332 238.619 128.559L236.543 130.948C236.395 131.124 236.196 131.25 235.973 131.307C235.751 131.365 235.516 131.351 235.301 131.268Z" fill="white"/>
<path d="M227.551 119.702C227.324 119.686 227.106 119.602 226.927 119.461C226.748 119.32 226.615 119.129 226.546 118.911L225.442 115.5C225.351 115.213 225.377 114.902 225.514 114.634C225.652 114.367 225.89 114.165 226.177 114.073C226.463 113.982 226.774 114.008 227.041 114.146C227.308 114.284 227.509 114.522 227.601 114.809L228.705 118.226C228.753 118.367 228.773 118.516 228.762 118.665C228.752 118.814 228.711 118.959 228.643 119.092C228.575 119.225 228.481 119.342 228.366 119.438C228.252 119.533 228.119 119.604 227.976 119.647C227.839 119.693 227.695 119.711 227.551 119.702Z" fill="white"/>
<path d="M229.991 135.111C229.649 135.112 229.319 135.241 229.066 135.472C228.813 135.702 228.655 136.019 228.622 136.361C227.203 152.221 227.242 168.178 228.738 184.031H231.498C230.01 168.259 229.966 152.384 231.365 136.604C231.382 136.413 231.359 136.221 231.298 136.04C231.236 135.859 231.137 135.693 231.008 135.553C230.879 135.412 230.721 135.3 230.546 135.224C230.371 135.148 230.182 135.109 229.991 135.111Z" fill="#E0E0E0"/>
<path d="M88.2703 92.8865C88.0203 92.8875 87.7726 92.8386 87.5417 92.7427L77.9976 88.8172C77.5233 88.6221 77.1457 88.2464 76.948 87.7725C76.7503 87.2987 76.7486 86.7655 76.9433 86.2904C77.138 85.8153 77.5132 85.4372 77.9862 85.2391C78.4593 85.0411 78.9916 85.0394 79.4659 85.2344L89.01 89.16C89.4252 89.3299 89.7685 89.6392 89.9809 90.0349C90.1934 90.4306 90.2617 90.8881 90.1742 91.3287C90.0868 91.7694 89.8489 92.1658 89.5016 92.45C89.1542 92.7343 88.7189 92.8886 88.2703 92.8865Z" fill="white"/>
<path d="M100.939 83.4375C100.703 83.4382 100.469 83.3951 100.249 83.3103C99.7728 83.1237 99.3898 82.7565 99.183 82.2884C98.9763 81.8203 98.9625 81.2894 99.1447 80.8112L101.077 75.7577C101.26 75.2782 101.625 74.8912 102.093 74.6817C102.561 74.4723 103.093 74.4576 103.572 74.6409C104.05 74.8242 104.437 75.1905 104.646 75.6591C104.855 76.1278 104.87 76.6605 104.687 77.14L102.755 82.1935C102.614 82.5613 102.365 82.8774 102.041 83.0997C101.716 83.322 101.332 83.4398 100.939 83.4375Z" fill="white"/>
<path d="M86.6033 70.5937C86.2149 70.594 85.8355 70.477 85.5145 70.2581C85.1935 70.0391 84.9458 69.7283 84.8037 69.3663L82.5957 63.6715C82.4091 63.1934 82.4197 62.6607 82.6252 62.1905C82.8306 61.7202 83.2142 61.351 83.6915 61.1641C84.1687 60.9771 84.7006 60.9877 85.1701 61.1935C85.6395 61.3994 86.0081 61.7835 86.1948 62.2616L88.4028 67.9564C88.4953 68.1934 88.5402 68.4464 88.5348 68.7008C88.5293 68.9552 88.4737 69.206 88.3711 69.4388C88.2685 69.6716 88.1209 69.8817 87.9369 70.0572C87.7528 70.2326 87.536 70.3699 87.2988 70.461C87.0776 70.5496 86.8415 70.5946 86.6033 70.5937Z" fill="white"/>
<path d="M138 209C197.11 209 245.027 206.198 245.027 202.741C245.027 199.285 197.11 196.482 138 196.482C78.8905 196.482 30.9728 199.285 30.9728 202.741C30.9728 206.198 78.8905 209 138 209Z" fill="#F5F5F5"/>
<path d="M90.0423 203.04C89.9833 203.04 89.9256 203.023 89.8767 202.99C84.2573 199.236 86.3329 194.968 88.7341 190.025C91.8473 183.606 95.7279 175.616 85.4221 164.752C76.6508 155.518 72.3893 146.672 73.4271 139.838C73.6865 138.047 74.3659 136.342 75.4098 134.864C76.4538 133.386 77.8324 132.176 79.4328 131.335C79.506 131.296 79.5917 131.288 79.6709 131.312C79.7501 131.337 79.8163 131.391 79.8551 131.465C79.8939 131.538 79.9021 131.624 79.8777 131.703C79.8534 131.782 79.7986 131.849 79.7254 131.888C78.2046 132.685 76.894 133.831 75.9009 135.233C74.9078 136.635 74.2606 138.253 74.0122 139.954C73.0076 146.589 77.2138 155.275 85.8581 164.37C96.462 175.533 92.4821 183.722 89.2861 190.312C86.9125 195.2 85.0357 199.059 90.2245 202.52C90.2893 202.565 90.3341 202.633 90.3496 202.711C90.365 202.788 90.3499 202.868 90.3073 202.935C90.2745 202.972 90.2334 203.001 90.1873 203.019C90.1413 203.037 90.0916 203.044 90.0423 203.04Z" fill="#263238"/>
<path d="M77.556 132.977C81.2378 128.885 79.8357 122.815 78.5551 119.597C75.6681 120.78 73.3221 128.415 77.556 132.977Z" fill="#263238"/>
<path d="M77.5505 154.169C72.7757 145.096 63.894 143.968 58.8873 143.548C61.8516 149.525 69.6458 156.967 77.5505 154.169Z" fill="#263238"/>
<path d="M87.2878 193.513C93.6303 183.086 82.6731 175.55 76.9102 167.942C74.6912 175.616 76.3306 188.83 87.2878 193.513Z" fill="#263238"/>
<path d="M86.2942 165.272C78.5993 156.248 80.3602 149.708 82.4302 145.483C86.5868 150.83 92.8409 160.34 86.2942 165.272Z" fill="#263238"/>
<path d="M75.2762 135.421C77.5174 132.756 81.3979 133.148 83.501 133.701C82.9987 135.625 78.4558 137.732 75.2762 135.421Z" fill="#263238"/>
<path d="M91.8583 183.268C92.7028 176.385 95.7223 176.921 98.0407 173.841C98.3357 174.871 98.4053 175.952 98.2447 177.011C98.084 178.07 97.6969 179.081 97.1099 179.976C96.5228 180.871 95.7496 181.629 94.8433 182.197C93.9369 182.765 92.9187 183.131 91.8583 183.268Z" fill="#263238"/>
<path d="M182.199 54.6704C178.478 55.5273 173.196 57.6228 168.509 59.4971C168.58 59.1455 168.62 58.7886 168.631 58.43C168.388 58.8668 168.145 59.2981 167.907 59.7404L167.731 59.8123C167.75 59.3382 167.717 58.8635 167.631 58.3969C167.507 59.0241 167.236 59.6132 166.842 60.1164C166.824 60.1435 166.803 60.1694 166.781 60.1938L165.843 60.5753C165.956 59.6295 165.956 58.6736 165.843 57.7279C165.76 58.6268 165.617 59.5191 165.412 60.3983C165.379 60.531 165.352 60.6637 165.313 60.7964L164.093 61.3051C164.01 60.9678 163.922 60.6306 163.834 60.2933L163.392 61.5926L162.884 61.8027C162.813 61.2939 162.696 60.7925 162.536 60.3044C162.484 60.9011 162.385 61.4927 162.238 62.0736L161.824 62.2505C161.803 61.343 161.696 60.4396 161.504 59.5524C161.421 60.2435 161.339 60.9236 161.261 61.6092L161.145 62.5325C159.329 63.3066 158.192 63.8097 158.192 63.8097C158.192 63.8097 158.06 57.2303 158.192 47.256C158.325 37.2818 160.306 29.1211 164.369 25.1402C168.432 21.1594 177.109 20.5069 181.2 24.0676C185.29 27.6282 186.444 35.9106 184.892 44.0216C183.982 48.6549 192.648 52.2597 182.199 54.6704Z" fill="#263238"/>
<path d="M145.833 99.8695L146.219 98.6919C146.372 98.2282 146.624 97.804 146.959 97.4494C147.294 97.0949 147.703 96.8187 148.157 96.6406L153.263 94.6226L155.819 95.8721C155.134 98.6366 151.988 101.484 151.988 101.484L151.187 102.363C150.852 102.748 150.398 103.008 149.897 103.102C149.397 103.196 148.879 103.119 148.427 102.883L146.506 101.777C146.188 101.59 145.945 101.295 145.822 100.946C145.699 100.597 145.703 100.216 145.833 99.8695Z" fill="#B55B52"/>
<path d="M174.664 67.4533C174.564 68.3877 174.46 69.206 174.333 70.0629C174.206 70.9199 174.057 71.7603 173.908 72.6007C173.593 74.2871 173.234 75.9623 172.804 77.6321C172.373 79.3018 171.909 80.9495 171.374 82.6081C170.838 84.2668 170.215 85.9255 169.536 87.5234L169.442 87.7501C169.312 88.0604 169.124 88.3436 168.89 88.5849C167.742 89.7352 166.497 90.7841 165.169 91.7199C163.933 92.6377 162.663 93.456 161.399 94.2521C160.135 95.0483 158.843 95.7836 157.535 96.4914C156.227 97.1991 154.924 97.8736 153.544 98.4928C153.132 98.6797 152.666 98.7127 152.231 98.5858C151.796 98.4588 151.421 98.1803 151.173 97.8005C150.925 97.4208 150.821 96.9647 150.879 96.5148C150.937 96.0648 151.154 95.6506 151.491 95.3469H151.518C152.584 94.3903 153.688 93.4394 154.77 92.4994C155.852 91.5595 156.945 90.6196 158.004 89.6742C159.064 88.7287 160.113 87.7833 161.112 86.8433C162.058 85.9693 162.947 85.0348 163.773 84.0457L163.133 85.1017C163.602 83.6255 164.027 82.1271 164.419 80.6011C164.811 79.0751 165.158 77.527 165.473 75.9679C165.788 74.4087 166.091 72.844 166.362 71.2683L166.754 68.9129L167.112 66.6074V66.4968C167.239 65.4938 167.758 64.5822 168.556 63.9627C169.354 63.3432 170.364 63.0664 171.366 63.1932C172.367 63.3201 173.277 63.8401 173.896 64.6391C174.514 65.438 174.79 66.4503 174.664 67.4533Z" fill="#6BC2E4"/>
<path d="M174.824 56.8044C164.485 58.0761 162.719 77.8145 163.657 81.7787C165.114 85.1901 171.457 83.4374 171.457 83.4374C171.457 83.4374 181.509 68.465 174.824 56.8044Z" fill="#263238"/>
<path d="M172.5 82.8458C172.267 83.4157 171.955 83.9499 171.573 84.4326C171.543 84.471 171.503 84.4998 171.457 84.5156C170.905 84.7533 166.93 86.2738 163.602 84.0124C163.544 83.9757 163.5 83.9215 163.475 83.8576C163.159 83.0024 163.016 82.0927 163.055 81.1816C163.057 81.1306 163.07 81.0807 163.095 81.0359C163.119 80.9911 163.154 80.9526 163.195 80.9236C163.237 80.8946 163.285 80.8758 163.336 80.8687C163.386 80.8617 163.438 80.8666 163.486 80.883C164.744 81.3364 168.68 82.6136 172.18 82.3924C172.235 82.3889 172.291 82.3997 172.341 82.4237C172.391 82.4477 172.434 82.4842 172.466 82.5296C172.498 82.5751 172.518 82.628 172.524 82.6833C172.53 82.7387 172.522 82.7946 172.5 82.8458Z" fill="white"/>
<path d="M215.17 202.736C220.209 202.736 219.84 202.658 222.666 202.559C225.084 202.476 225.691 202.78 227.634 202.736C229.262 202.697 229.086 201.138 228.445 199.341C228.125 198.44 227.656 197.334 227.198 195.88H219.536C218.647 197.865 216.688 199.357 213.878 199.75C211.19 200.104 213.155 202.736 215.17 202.736Z" fill="#263238"/>
<path d="M173.521 202.736C179.93 202.736 180.543 199.971 182.905 198.506C184.948 197.256 185.759 197.605 187.873 196.411C189.27 195.625 188.652 193.895 187.531 192.972C186.502 192.14 185.588 191.178 184.81 190.108L178.561 192.872C178.219 195.393 177.037 199.639 173.273 199.905C170.596 200.148 171.54 202.736 173.521 202.736Z" fill="#263238"/>
<path d="M174.785 95.9882C174.785 95.9882 162.641 126.95 161.029 142.304C160.985 155.021 178.577 192.889 178.577 192.889C179.129 193.834 184.175 191.114 184.826 190.124C178.346 174.278 181.751 154.451 175.906 142.818C188.436 124.971 198.157 91.952 198.157 91.952L174.785 95.9882Z" fill="#407BFF"/>
<path opacity="0.2" d="M172.704 103.696C172.668 103.7 172.631 103.69 172.602 103.667C172.573 103.644 172.554 103.611 172.55 103.574C172.545 103.537 172.556 103.5 172.578 103.471C172.601 103.442 172.635 103.424 172.671 103.419C174.19 103.091 175.536 102.215 176.452 100.959C176.472 100.928 176.502 100.907 176.537 100.898C176.572 100.89 176.609 100.896 176.64 100.914C176.656 100.924 176.669 100.936 176.68 100.95C176.691 100.965 176.698 100.981 176.703 100.999C176.707 101.017 176.707 101.035 176.704 101.053C176.701 101.07 176.694 101.087 176.684 101.102C175.739 102.433 174.328 103.357 172.732 103.69L172.704 103.696Z" fill="white"/>
<path opacity="0.2" d="M186.168 110.275C183.463 115.76 183.038 123.943 183.253 130.212C186.635 123.363 189.652 116.339 192.289 109.169H192.262C191.822 108.758 191.292 108.456 190.715 108.286C190.138 108.117 189.53 108.084 188.938 108.192C188.346 108.299 187.787 108.543 187.307 108.905C186.826 109.267 186.436 109.736 186.168 110.275Z" fill="black"/>
<path d="M181.79 94.7718C181.79 94.7718 185.019 123.694 191.428 143.427C194.63 153.268 212.901 175.622 219.536 195.874C220.772 196.56 224.923 196.604 227.198 195.874C227.198 195.874 217.002 151.361 206.023 141.995C205.99 117.938 206.851 106.327 201.607 91.3107L181.79 94.7718Z" fill="#407BFF"/>
<path opacity="0.2" d="M224.388 193.22C224.356 193.221 224.324 193.21 224.299 193.19C224.274 193.17 224.256 193.141 224.25 193.11C219.713 166.233 203.462 142.796 203.274 142.581C203.266 142.55 203.266 142.517 203.274 142.487C203.274 142.487 203.556 139.169 203.826 126.95C204.091 115.45 203.031 102.971 202.899 101.467C202.038 101.611 197.693 102.203 194.403 100.041C194.388 100.031 194.375 100.018 194.365 100.003C194.354 99.9874 194.347 99.9702 194.344 99.9522C194.34 99.9342 194.34 99.9156 194.344 99.8976C194.347 99.8796 194.354 99.8625 194.365 99.8473C194.386 99.8174 194.418 99.7967 194.454 99.7895C194.49 99.7823 194.527 99.7892 194.558 99.8086C198.107 102.142 202.948 101.18 202.998 101.169C203.014 101.161 203.032 101.157 203.05 101.157C203.069 101.157 203.087 101.161 203.103 101.169C203.119 101.18 203.133 101.195 203.143 101.212C203.154 101.229 203.161 101.248 203.164 101.268C203.164 101.401 204.384 114.72 204.102 126.934C203.832 138.345 203.55 141.983 203.55 142.442C204.323 143.548 220.055 166.637 224.526 193.038C224.529 193.056 224.529 193.075 224.524 193.093C224.52 193.111 224.513 193.128 224.502 193.143C224.491 193.157 224.477 193.17 224.462 193.18C224.446 193.189 224.428 193.196 224.41 193.198L224.388 193.22Z" fill="white"/>
<path d="M218.084 193.005C218.332 193.936 218.517 194.884 218.636 195.841C218.664 196.016 218.746 196.177 218.871 196.302C218.996 196.427 219.157 196.51 219.332 196.538C222.263 196.986 226.132 196.333 227.352 196.101C227.407 196.092 227.459 196.073 227.505 196.043C227.552 196.014 227.592 195.975 227.623 195.929C227.654 195.884 227.675 195.832 227.686 195.778C227.696 195.724 227.695 195.668 227.683 195.614L227.341 192.96C227.307 192.774 227.21 192.604 227.067 192.481C226.923 192.357 226.741 192.286 226.552 192.28L218.498 192.435C218.429 192.433 218.36 192.448 218.298 192.478C218.235 192.509 218.181 192.554 218.141 192.61C218.1 192.666 218.073 192.732 218.063 192.8C218.054 192.869 218.061 192.939 218.084 193.005Z" fill="#407BFF"/>
<path opacity="0.2" d="M218.084 193.005C218.332 193.936 218.517 194.884 218.636 195.841C218.664 196.016 218.746 196.177 218.871 196.302C218.996 196.427 219.157 196.51 219.332 196.538C222.263 196.986 226.132 196.333 227.352 196.101C227.407 196.092 227.459 196.073 227.505 196.043C227.552 196.014 227.592 195.975 227.623 195.929C227.654 195.884 227.675 195.832 227.686 195.778C227.696 195.724 227.695 195.668 227.683 195.614L227.341 192.96C227.307 192.774 227.21 192.604 227.067 192.481C226.923 192.357 226.741 192.286 226.552 192.28L218.498 192.435C218.429 192.433 218.36 192.448 218.298 192.478C218.235 192.509 218.181 192.554 218.141 192.61C218.1 192.666 218.073 192.732 218.063 192.8C218.054 192.869 218.061 192.939 218.084 193.005Z" fill="black"/>
<path d="M176.778 190.406C177.026 191.103 177.462 192.352 177.755 193.287C177.801 193.434 177.903 193.558 178.04 193.631C178.176 193.703 178.336 193.719 178.484 193.674C180.813 193.005 184.23 191.152 185.345 190.533C185.453 190.473 185.538 190.38 185.59 190.267C185.641 190.155 185.656 190.03 185.632 189.908L185.135 187.227C185.12 187.141 185.085 187.061 185.034 186.99C184.983 186.92 184.917 186.861 184.841 186.82C184.765 186.778 184.681 186.753 184.594 186.748C184.508 186.743 184.421 186.758 184.34 186.79L177.115 189.643C177.042 189.671 176.976 189.712 176.92 189.766C176.864 189.819 176.818 189.883 176.787 189.954C176.756 190.025 176.739 190.102 176.737 190.179C176.736 190.257 176.75 190.334 176.778 190.406Z" fill="#407BFF"/>
<path opacity="0.2" d="M176.778 190.406C177.026 191.103 177.462 192.352 177.755 193.287C177.801 193.434 177.903 193.558 178.04 193.631C178.176 193.703 178.336 193.719 178.484 193.674C180.813 193.005 184.23 191.152 185.345 190.533C185.453 190.473 185.538 190.38 185.59 190.267C185.641 190.155 185.656 190.03 185.632 189.908L185.135 187.227C185.12 187.141 185.085 187.061 185.034 186.99C184.983 186.92 184.917 186.861 184.841 186.82C184.765 186.778 184.681 186.753 184.594 186.748C184.508 186.743 184.421 186.758 184.34 186.79L177.115 189.643C177.042 189.671 176.976 189.712 176.92 189.766C176.864 189.819 176.818 189.883 176.787 189.954C176.756 190.025 176.739 190.102 176.737 190.179C176.736 190.257 176.75 190.334 176.778 190.406Z" fill="black"/>
<path d="M174.642 94.8381C174.714 95.1975 174.338 96.7345 173.775 98.1057C174.769 98.7803 178.191 99.5267 182.513 99.7147C182.922 99.0457 183.176 97.2819 183.496 96.5631C183.812 97.7942 184.484 98.9042 185.428 99.7534C187.85 99.7158 190.265 99.4772 192.648 99.0401C201.066 97.4588 203.053 94.8381 203.053 94.8381C203.053 94.8381 201.441 89.9726 200.983 88.2034C196.628 88.5296 174.868 89.1654 174.642 94.8381Z" fill="white"/>
<path d="M166.77 70.3449C167.998 74.3199 169.426 78.2302 171.048 82.0607C174.333 90.52 173.56 92.3833 174.41 95.8831C176.765 96.797 179.265 97.2783 181.79 97.3041C182.184 96.4217 182.689 95.5931 183.292 94.8381C183.96 95.286 186.024 96.5742 187.211 96.6516C192.576 95.8223 199.498 93.7379 201.927 91.1614C200.078 83.6862 199.41 75.5366 198.328 57.6062C198.074 53.4539 194.42 50.6563 190.479 51.6017C189.424 51.856 188.315 52.1546 187.167 52.4808C182.784 53.7801 179.201 54.8804 175.497 56.5722C174.272 57.1251 173.013 57.7499 171.816 58.3636C169.723 59.4705 168.078 61.2684 167.158 63.4523C166.238 65.6361 166.101 68.0714 166.77 70.3449Z" fill="#263238"/>
<path d="M212.675 99.8418L211.841 98.924C211.515 98.5614 211.272 98.131 211.131 97.6636C210.99 97.1963 210.953 96.7035 211.024 96.2204L211.813 90.7799L214.176 89.182C216.252 91.1614 217.135 95.2639 217.135 95.2639L217.499 96.3973C217.661 96.8761 217.659 97.395 217.496 97.8731C217.332 98.3512 217.015 98.7615 216.594 99.0401L214.667 100.146C214.353 100.339 213.98 100.415 213.615 100.359C213.251 100.303 212.917 100.12 212.675 99.8418Z" fill="#6BC2E4"/>
<path d="M201.099 56.821C201.811 57.4845 202.407 58.0705 203.031 58.7119C203.655 59.3533 204.234 59.9891 204.825 60.636C205.99 61.9408 207.116 63.2788 208.192 64.6666C209.269 66.0544 210.301 67.4808 211.278 68.9571C212.255 70.4333 213.171 71.9593 214.038 73.524L214.148 73.723C214.229 73.8707 214.293 74.0263 214.342 74.1874C214.765 75.7581 215.057 77.3616 215.214 78.9811C215.39 80.507 215.468 82.0164 215.528 83.5093C215.589 85.0021 215.589 86.4949 215.556 87.9822C215.523 89.4695 215.457 90.9402 215.313 92.4496C215.271 92.9025 215.069 93.3255 214.742 93.6417C214.416 93.958 213.987 94.1466 213.534 94.1733C213.081 94.2001 212.633 94.0632 212.271 93.7875C211.91 93.5118 211.66 93.1156 211.565 92.6707V92.6376C211.261 91.2332 211.013 89.8012 210.709 88.3913C210.406 86.9814 210.157 85.5716 209.865 84.1783C209.572 82.785 209.274 81.4138 208.954 80.0703C208.669 78.8139 208.3 77.5782 207.85 76.3714L208.154 77.0293C207.27 75.719 206.36 74.4252 205.394 73.1591C204.428 71.8929 203.417 70.6434 202.374 69.416C201.331 68.1885 200.271 66.9777 199.178 65.7945L197.522 64.0308C196.97 63.4779 196.418 62.8476 195.894 62.3721L195.833 62.3057C195.111 61.6048 194.696 60.6451 194.68 59.6378C194.664 58.6305 195.048 57.658 195.747 56.9343C196.447 56.2107 197.405 55.7951 198.411 55.779C199.417 55.763 200.388 56.1477 201.11 56.8486L201.099 56.821Z" fill="#6BC2E4"/>
<path d="M190.009 51.6902C199.763 48.0189 210.433 64.6832 211.449 68.653C211.731 72.3519 205.289 73.7231 205.289 73.7231C205.289 73.7231 189.474 65.1255 190.009 51.6902Z" fill="#263238"/>
<path d="M177.485 64.7883C177.424 64.7881 177.365 64.7721 177.313 64.7421C177.261 64.712 177.217 64.6689 177.187 64.6169C177.164 64.5778 177.149 64.5345 177.143 64.4896C177.137 64.4447 177.14 64.3991 177.152 64.3554C177.164 64.3118 177.184 64.2708 177.212 64.235C177.24 64.1993 177.274 64.1693 177.314 64.147C178.114 63.677 181.476 60.3873 182.834 57.6283C182.853 57.5874 182.881 57.5508 182.916 57.5207C182.95 57.4907 182.99 57.4678 183.033 57.4534C183.076 57.439 183.122 57.4333 183.167 57.4368C183.212 57.4402 183.257 57.4527 183.297 57.4735C183.379 57.515 183.441 57.587 183.47 57.6739C183.499 57.7609 183.492 57.8557 183.452 57.9379C181.983 60.8572 178.484 64.2299 177.634 64.7441C177.588 64.7703 177.537 64.7854 177.485 64.7883Z" fill="#407BFF"/>
<path d="M176.298 64.6169C176.235 64.6168 176.174 64.5996 176.121 64.5672C175.089 63.9645 173.251 61.5041 173.488 58.3029C173.487 58.2541 173.495 58.2056 173.514 58.1604C173.532 58.1152 173.56 58.0744 173.595 58.0406C173.63 58.0068 173.672 57.9808 173.718 57.9642C173.763 57.9476 173.812 57.9409 173.861 57.9444C173.909 57.9479 173.957 57.9616 173.999 57.9845C174.042 58.0075 174.08 58.0393 174.11 58.0778C174.14 58.1163 174.161 58.1606 174.173 58.208C174.185 58.2553 174.187 58.3046 174.178 58.3526C173.946 61.4433 175.806 63.583 176.474 63.9756C176.541 64.0131 176.593 64.0719 176.622 64.1426C176.652 64.2132 176.657 64.2917 176.636 64.3654C176.616 64.4392 176.572 64.504 176.51 64.5496C176.449 64.5952 176.374 64.6189 176.298 64.6169Z" fill="#407BFF"/>
<path d="M180.874 39.8085C181.52 43.8833 183.231 51.0267 186.543 52.6799C186.543 52.6799 182.8 53.3876 176.888 60.7134C173.604 58.336 174.879 56.7658 174.879 56.7658C178.787 54.2722 177.915 51.6349 176.16 49.0252L180.874 39.8085Z" fill="#6BC2E4"/>
<path d="M178.147 59.2151C180.758 58.6954 182.85 62.1842 182.85 62.1842C182.85 62.1842 187.343 55.8646 188.193 52.2321C187.294 52.071 186.404 51.8624 185.527 51.6073C185.527 51.6073 179.096 57.2689 178.147 59.2151Z" fill="white"/>
<path d="M175.641 59.6408C175.641 59.6408 173.698 60.9733 173.985 64.274C171.501 58.9884 173.737 57.1583 173.737 57.1583C174.287 56.5401 175.046 56.1465 175.867 56.0525C175.419 56.5313 175.152 57.1512 175.111 57.8059C175.069 58.4607 175.257 59.1094 175.641 59.6408Z" fill="white"/>
<path opacity="0.2" d="M178.953 43.5681L176.16 49.0252C176.583 49.6309 176.953 50.2729 177.264 50.9437C178.727 50.0204 180.217 47.3112 179.781 45.5585C179.625 44.851 179.345 44.1769 178.953 43.5681Z" fill="black"/>
<path d="M166.334 45.5641H165.048C165.026 45.5637 165.004 45.5586 164.984 45.5491C164.964 45.5395 164.946 45.5258 164.932 45.5088C164.919 45.4909 164.909 45.4702 164.904 45.4482C164.9 45.4263 164.9 45.4036 164.904 45.3816L165.545 42.4236C165.551 42.3905 165.569 42.3607 165.595 42.3394C165.622 42.3182 165.655 42.3069 165.688 42.3075C165.722 42.3077 165.756 42.3191 165.783 42.3401C165.81 42.3611 165.829 42.3905 165.837 42.4236L166.478 45.3816C166.483 45.4036 166.483 45.4263 166.478 45.4482C166.473 45.4702 166.464 45.4909 166.45 45.5088C166.435 45.5253 166.418 45.5386 166.398 45.5481C166.378 45.5576 166.356 45.5631 166.334 45.5641ZM165.23 45.26H166.152L165.699 43.17L165.23 45.26Z" fill="white"/>
<path d="M180.714 31.1225C182.237 37.4863 183.01 40.1402 180.929 44.4528C177.788 50.9438 169.889 51.8063 166.544 46.1115C163.536 40.9917 161.576 31.4432 166.726 26.7988C171.876 22.1545 179.19 24.7586 180.714 31.1225Z" fill="#6BC2E4"/>
<path d="M162.906 33.8538C168.752 32.7093 172.29 27.0366 175.05 27.2191C174.636 31.5151 178.003 36.364 181.321 36.4912C185.809 36.646 181.652 25.5991 178.638 23.852C175.453 21.9942 161.874 21.8615 162.906 33.8538Z" fill="#263238"/>
<path d="M178.594 36.7234C178.097 36.7127 177.615 36.5443 177.22 36.2424C175.194 34.7882 173.968 30.2711 174.747 27.1251C174.752 27.0823 174.766 27.041 174.788 27.004C174.81 26.9669 174.84 26.9351 174.875 26.9105C174.91 26.8858 174.951 26.869 174.993 26.8612C175.035 26.8533 175.079 26.8546 175.121 26.8648C175.162 26.8751 175.202 26.8942 175.235 26.9208C175.269 26.9474 175.297 26.9809 175.317 27.0191C175.337 27.0573 175.349 27.0994 175.351 27.1424C175.354 27.1855 175.347 27.2286 175.332 27.2689C174.62 30.1605 175.746 34.4565 177.567 35.7503C177.846 35.9719 178.189 36.0975 178.545 36.1085C178.901 36.1194 179.251 36.0152 179.544 35.8111C179.577 35.7895 179.613 35.7747 179.652 35.7674C179.691 35.7602 179.73 35.7607 179.769 35.7689C179.807 35.7772 179.844 35.7929 179.876 35.8154C179.909 35.8378 179.936 35.8664 179.958 35.8996C180.001 35.967 180.017 36.0492 180 36.1279C179.984 36.2067 179.936 36.2757 179.869 36.3198C179.491 36.5731 179.049 36.7131 178.594 36.7234Z" fill="#263238"/>
<path d="M171.865 36.2644C172.014 36.8173 171.865 37.3149 171.545 37.4366C171.225 37.5582 170.827 37.2209 170.678 36.6957C170.529 36.1704 170.678 35.6397 170.999 35.5235C171.319 35.4074 171.716 35.7336 171.865 36.2644Z" fill="#263238"/>
<path d="M165.362 39.7766C165.7 39.6965 165.872 39.1979 165.745 38.663C165.619 38.1281 165.242 37.7596 164.904 37.8398C164.566 37.92 164.394 38.4186 164.52 38.9534C164.647 39.4883 165.023 39.8568 165.362 39.7766Z" fill="#263238"/>
<path d="M165.009 37.8291L163.701 37.901C163.701 37.901 164.601 38.6695 165.009 37.8291Z" fill="#263238"/>
<path d="M167.692 38.8353C167.588 40.2068 167.31 41.5594 166.864 42.8604C167.714 43.2695 168.752 42.5618 168.752 42.5618L167.692 38.8353Z" fill="#0B4C73"/>
<path d="M171.998 43.358C171.714 43.4615 171.422 43.541 171.125 43.5958C171.105 43.5989 171.085 43.5979 171.065 43.5928C171.046 43.5877 171.027 43.5787 171.011 43.5663C170.995 43.5539 170.982 43.5383 170.972 43.5206C170.962 43.5028 170.956 43.4833 170.954 43.4631C170.949 43.4201 170.961 43.3768 170.986 43.3419C171.012 43.3071 171.05 43.2832 171.092 43.2751C171.765 43.1564 172.402 42.8875 172.956 42.4884C173.51 42.0892 173.968 41.5701 174.294 40.9695C174.311 40.9307 174.342 40.8999 174.381 40.8835C174.42 40.867 174.464 40.8662 174.504 40.8811C174.523 40.8905 174.539 40.9035 174.553 40.9194C174.567 40.9354 174.578 40.9539 174.584 40.9739C174.591 40.994 174.594 41.0151 174.592 41.0362C174.591 41.0573 174.585 41.0778 174.575 41.0967C174.022 42.1417 173.105 42.9465 171.998 43.358Z" fill="#263238"/>
<path d="M183.86 37.1601C183.744 37.7764 183.501 38.3617 183.147 38.8786C182.792 39.3955 182.334 39.8328 181.801 40.1624C180.454 40.9143 179.4 39.4104 179.461 37.6301C179.516 36.0212 180.283 33.6935 181.79 33.6935C183.297 33.6935 184.213 35.518 183.86 37.1601Z" fill="#6BC2E4"/>
<path d="M168.575 33.9589C168.597 33.9234 168.626 33.8928 168.66 33.8691C168.695 33.8453 168.733 33.8288 168.774 33.8206C169.16 33.7659 169.527 33.6153 169.84 33.3826C170.153 33.1498 170.404 32.8424 170.568 32.4882C170.582 32.45 170.603 32.4152 170.631 32.386C170.659 32.3568 170.693 32.3339 170.731 32.3188C170.768 32.3037 170.809 32.2966 170.849 32.2982C170.89 32.2997 170.929 32.3098 170.966 32.3278C171.043 32.3651 171.104 32.4299 171.136 32.5095C171.169 32.5891 171.171 32.678 171.142 32.7591C170.941 33.2068 170.632 33.5975 170.243 33.8957C169.853 34.194 169.396 34.3905 168.912 34.4675C168.829 34.4786 168.744 34.4564 168.677 34.4057C168.61 34.355 168.566 34.2799 168.553 34.1966C168.532 34.1173 168.54 34.0329 168.575 33.9589Z" fill="#263238"/>
<path d="M163.022 36.4524C162.986 36.4689 162.946 36.4775 162.906 36.4775C162.866 36.4775 162.827 36.4689 162.79 36.4524C162.753 36.4352 162.718 36.4106 162.69 36.38C162.662 36.3495 162.64 36.3137 162.626 36.2746C162.611 36.2356 162.605 36.194 162.606 36.1524C162.608 36.1108 162.618 36.07 162.636 36.0322C162.818 35.5486 163.109 35.1136 163.486 34.7607C163.863 34.4079 164.317 34.1468 164.811 33.9976C164.851 33.9897 164.892 33.9901 164.932 33.9988C164.972 34.0074 165.009 34.0242 165.042 34.0481C165.075 34.0719 165.103 34.1023 165.124 34.1374C165.145 34.1724 165.159 34.2114 165.164 34.2519C165.176 34.3371 165.156 34.4238 165.108 34.4953C165.06 34.5668 164.988 34.618 164.905 34.6389C164.515 34.7614 164.159 34.9716 163.863 35.2534C163.568 35.5351 163.34 35.881 163.199 36.2645C163.184 36.3063 163.161 36.3447 163.13 36.377C163.1 36.4094 163.063 36.4351 163.022 36.4524Z" fill="#263238"/>
<path d="M171.153 35.4958L169.845 35.5677C169.845 35.5677 170.745 36.3363 171.153 35.4958Z" fill="#263238"/>
<path d="M176.287 62.2948C176.783 62.1989 177.288 62.1507 177.794 62.151C177.92 62.1545 178.041 62.1983 178.14 62.2759C178.24 62.3535 178.312 62.4608 178.346 62.5823C178.506 63.1352 178.804 64.1414 178.98 64.6224C179.229 65.3136 177.275 66.7345 177.275 66.7345C177.275 66.7345 175.663 65.966 175.619 64.9487C175.614 64.2286 175.668 63.5093 175.779 62.7979C175.797 62.67 175.857 62.5516 175.948 62.4607C176.04 62.3699 176.159 62.3116 176.287 62.2948Z" fill="#407BFF"/>
<path d="M180.327 82.5307C180.195 79.346 178.119 64.7772 178.119 64.7772L176.568 64.9707C176.452 67.0441 175.354 79.5008 175.354 82.8016C175.354 86.1024 178.169 89.7902 178.169 89.7902C178.169 89.7902 180.46 85.6988 180.327 82.5307Z" fill="#407BFF"/>
<path d="M204.096 73.6954C204.567 74.0925 205.091 74.4219 205.653 74.674C205.7 74.6851 205.749 74.6851 205.797 74.674C206.404 74.6243 210.621 74.1212 212.526 70.5826C212.56 70.5241 212.575 70.4566 212.57 70.3891C212.452 69.4852 212.157 68.6134 211.703 67.8237C211.678 67.7793 211.643 67.7413 211.601 67.7128C211.559 67.6844 211.511 67.6662 211.46 67.6597C211.41 67.6533 211.359 67.6587 211.311 67.6757C211.263 67.6926 211.219 67.7206 211.184 67.7573C210.279 68.7415 207.381 71.6939 204.174 73.1204C204.117 73.1405 204.068 73.1757 204.03 73.2223C203.992 73.2688 203.968 73.3249 203.96 73.3843C203.952 73.4437 203.96 73.5042 203.985 73.5591C204.009 73.614 204.047 73.6611 204.096 73.6954Z" fill="white"/>
<path d="M161.184 109.899L158.474 115.428C158.345 115.689 158.165 115.921 157.944 116.109C157.723 116.298 157.466 116.44 157.189 116.526C156.911 116.612 156.619 116.64 156.331 116.609C156.042 116.578 155.762 116.489 155.509 116.346L120.573 96.624L123.648 90.3486L160.152 107.013C160.411 107.132 160.644 107.301 160.838 107.511C161.031 107.722 161.18 107.969 161.276 108.238C161.372 108.507 161.413 108.792 161.398 109.078C161.382 109.363 161.309 109.642 161.184 109.899Z" fill="#407BFF"/>
<path opacity="0.4" d="M161.184 109.899L158.474 115.428C158.345 115.689 158.165 115.921 157.944 116.109C157.723 116.298 157.466 116.44 157.189 116.526C156.911 116.612 156.619 116.64 156.331 116.609C156.042 116.578 155.762 116.489 155.509 116.346L120.573 96.624L123.648 90.3486L160.152 107.013C160.411 107.132 160.644 107.301 160.838 107.511C161.031 107.722 161.18 107.969 161.276 108.238C161.372 108.507 161.413 108.792 161.398 109.078C161.382 109.363 161.309 109.642 161.184 109.899Z" fill="black"/>
<path d="M123.676 67.9011C123.631 67.7905 123.593 67.6855 123.554 67.5749C123.405 67.1934 123.245 66.8119 123.079 66.4304L123.008 66.2811C122.864 65.9494 122.71 65.6232 122.55 65.297C122.494 65.1809 122.434 65.0703 122.373 64.9542C122.235 64.6777 122.091 64.4013 121.942 64.1304C121.882 64.0308 121.826 63.9258 121.771 63.8208C121.567 63.4558 121.352 63.0965 121.131 62.715L121.054 62.5933C120.855 62.2782 120.651 61.963 120.441 61.6534L120.215 61.3327C120.038 61.0784 119.85 60.8241 119.663 60.5697L119.447 60.2767C119.188 59.9394 118.923 59.6022 118.652 59.2759L118.57 59.182C118.321 58.8834 118.062 58.5904 117.802 58.3029L117.537 58.0153C117.317 57.7831 117.096 57.5509 116.869 57.3242L116.605 57.0533C116.295 56.7492 115.981 56.4507 115.661 56.1521L115.594 56.0968C115.291 55.8204 114.982 55.5439 114.661 55.2896L114.358 55.0408L113.585 54.4326L113.276 54.1948C112.908 53.9294 112.54 53.6696 112.172 53.4153L112.133 53.3876C111.775 53.1499 111.41 52.9121 111.029 52.6854L110.676 52.4698C110.395 52.2984 110.124 52.1325 109.809 51.9667L109.451 51.7676C109.048 51.5465 108.645 51.3308 108.225 51.1263C93.4702 43.8723 76.0767 49.064 69.392 62.7371L67.184 67.1602C73.8687 53.5148 91.2622 48.3231 106.023 55.5494C106.437 55.754 106.845 55.9696 107.243 56.1853L107.601 56.3843L108.474 56.893L108.821 57.1031C109.191 57.3353 109.555 57.5675 109.925 57.8108H109.964C110.339 58.0651 110.698 58.325 111.068 58.5904L111.377 58.8281C111.637 59.0216 111.896 59.2262 112.144 59.4308L112.459 59.6851C112.774 59.9505 113.083 60.238 113.386 60.4868L113.453 60.5476C113.778 60.8406 114.087 61.1447 114.397 61.4488C114.49 61.5373 114.573 61.6258 114.661 61.7142C114.888 61.9409 115.109 62.1731 115.329 62.4053L115.594 62.6984C115.859 62.9859 116.113 63.2513 116.362 63.5775L116.444 63.6715C116.717 63.9995 116.982 64.3313 117.239 64.6667L117.46 64.9652C117.648 65.214 117.83 65.4684 118.012 65.7282C118.084 65.8333 118.161 65.9383 118.233 66.0489C118.443 66.3585 118.647 66.6682 118.846 66.9833C118.873 67.0275 118.901 67.0662 118.923 67.1105C119.144 67.4643 119.359 67.8292 119.563 68.2163L119.734 68.5314C119.883 68.8023 120.027 69.0843 120.17 69.3552C120.226 69.4658 120.286 69.5819 120.342 69.698C120.502 70.0242 120.656 70.3504 120.8 70.6767C120.827 70.7264 120.849 70.7817 120.871 70.8315C121.037 71.2074 121.197 71.5945 121.346 71.976L121.468 72.2966C121.578 72.5897 121.677 72.8772 121.777 73.1647C121.821 73.2863 121.86 73.408 121.898 73.5296C122.009 73.8613 122.108 74.1931 122.207 74.5303C122.207 74.5912 122.246 74.652 122.263 74.7183C122.373 75.1109 122.472 75.509 122.561 75.9015C122.561 76.0121 122.61 76.1227 122.632 76.2333C122.699 76.5318 122.759 76.8304 122.815 77.1289C122.815 77.2561 122.864 77.3833 122.881 77.5104C122.941 77.8422 122.991 78.1794 123.035 78.5167C123.035 78.5886 123.035 78.6549 123.063 78.7268C123.118 79.1304 123.157 79.534 123.19 79.9377V80.2694C123.212 80.5716 123.229 80.8757 123.24 81.1817C123.24 81.3088 123.24 81.4415 123.24 81.5687C123.24 81.9004 123.24 82.2322 123.24 82.5694V82.7961C123.24 82.9233 123.24 83.0504 123.24 83.1721C123.24 83.5425 123.206 83.9185 123.173 84.2779C123.173 84.4548 123.135 84.6317 123.118 84.8308C123.085 85.1441 123.046 85.4592 123.002 85.7762C123.002 85.9697 122.941 86.1633 122.908 86.3291C122.859 86.6332 122.803 86.9373 122.743 87.2359C122.704 87.4294 122.66 87.6229 122.621 87.7888C122.55 88.0984 122.472 88.4025 122.389 88.7121C122.334 88.9056 122.285 89.0991 122.229 89.2982L122.097 89.7239C122.014 89.9948 121.926 90.2768 121.832 90.5311C121.782 90.6804 121.727 90.8242 121.672 90.9734C121.573 91.2499 121.462 91.5263 121.346 91.8028C121.297 91.93 121.247 92.0571 121.192 92.1843C121.021 92.5824 120.844 92.9805 120.64 93.373L122.82 88.9222C123.013 88.5296 123.19 88.1316 123.372 87.7335C123.427 87.6063 123.477 87.4791 123.527 87.352C123.643 87.0755 123.747 86.7991 123.852 86.5226C123.907 86.3789 123.957 86.2296 124.012 86.0858C124.106 85.8149 124.195 85.533 124.277 85.2786L124.41 84.8474L124.476 84.6373C124.509 84.5156 124.537 84.3885 124.57 84.2613C124.647 83.9572 124.73 83.6531 124.796 83.3435C124.84 83.15 124.885 82.962 124.923 82.7906C124.984 82.4865 125.039 82.1824 125.089 81.8838C125.122 81.6903 125.155 81.4968 125.183 81.331C125.227 81.0158 125.265 80.7006 125.299 80.38C125.299 80.203 125.337 80.0261 125.354 79.8271C125.387 79.4566 125.403 79.0862 125.42 78.7213C125.42 78.6162 125.42 78.5112 125.42 78.4061V78.1131C125.42 77.7814 125.42 77.4441 125.42 77.1124C125.42 76.9852 125.42 76.858 125.42 76.7309C125.42 76.4268 125.42 76.1171 125.37 75.813C125.37 75.7025 125.37 75.5919 125.37 75.4868C125.37 75.0777 125.299 74.6741 125.249 74.2705C125.249 74.2041 125.249 74.1322 125.221 74.0604C125.177 73.7286 125.127 73.3914 125.067 73.0541L125 72.6781C124.945 72.3796 124.885 72.081 124.818 71.7824C124.818 71.6719 124.774 71.5613 124.747 71.4507C124.653 71.0526 124.553 70.6545 124.448 70.262C124.427 70.2003 124.408 70.1376 124.393 70.074C124.294 69.7423 124.195 69.4105 124.084 69.0788C124.045 68.9571 124.007 68.8355 123.963 68.7139C123.885 68.4761 123.781 68.1886 123.676 67.9011Z" fill="#407BFF"/>
<path opacity="0.4" d="M123.676 67.9011C123.631 67.7905 123.593 67.6855 123.554 67.5749C123.405 67.1934 123.245 66.8119 123.079 66.4304L123.008 66.2811C122.864 65.9494 122.71 65.6232 122.55 65.297C122.494 65.1809 122.434 65.0703 122.373 64.9542C122.235 64.6777 122.091 64.4013 121.942 64.1304C121.882 64.0308 121.826 63.9258 121.771 63.8208C121.567 63.4558 121.352 63.0965 121.131 62.715L121.054 62.5933C120.855 62.2782 120.651 61.963 120.441 61.6534L120.215 61.3327C120.038 61.0784 119.85 60.8241 119.663 60.5697L119.447 60.2767C119.188 59.9394 118.923 59.6022 118.652 59.2759L118.57 59.182C118.321 58.8834 118.062 58.5904 117.802 58.3029L117.537 58.0153C117.317 57.7831 117.096 57.5509 116.869 57.3242L116.605 57.0533C116.295 56.7492 115.981 56.4507 115.661 56.1521L115.594 56.0968C115.291 55.8204 114.982 55.5439 114.661 55.2896L114.358 55.0408L113.585 54.4326L113.276 54.1948C112.908 53.9294 112.54 53.6696 112.172 53.4153L112.133 53.3876C111.775 53.1499 111.41 52.9121 111.029 52.6854L110.676 52.4698C110.395 52.2984 110.124 52.1325 109.809 51.9667L109.451 51.7676C109.048 51.5465 108.645 51.3308 108.225 51.1263C93.4702 43.8723 76.0767 49.064 69.392 62.7371L67.184 67.1602C73.8687 53.5148 91.2622 48.3231 106.023 55.5494C106.437 55.754 106.845 55.9696 107.243 56.1853L107.601 56.3843L108.474 56.893L108.821 57.1031C109.191 57.3353 109.555 57.5675 109.925 57.8108H109.964C110.339 58.0651 110.698 58.325 111.068 58.5904L111.377 58.8281C111.637 59.0216 111.896 59.2262 112.144 59.4308L112.459 59.6851C112.774 59.9505 113.083 60.238 113.386 60.4868L113.453 60.5476C113.778 60.8406 114.087 61.1447 114.397 61.4488C114.49 61.5373 114.573 61.6258 114.661 61.7142C114.888 61.9409 115.109 62.1731 115.329 62.4053L115.594 62.6984C115.859 62.9859 116.113 63.2513 116.362 63.5775L116.444 63.6715C116.717 63.9995 116.982 64.3313 117.239 64.6667L117.46 64.9652C117.648 65.214 117.83 65.4684 118.012 65.7282C118.084 65.8333 118.161 65.9383 118.233 66.0489C118.443 66.3585 118.647 66.6682 118.846 66.9833C118.873 67.0275 118.901 67.0662 118.923 67.1105C119.144 67.4643 119.359 67.8292 119.563 68.2163L119.734 68.5314C119.883 68.8023 120.027 69.0843 120.17 69.3552C120.226 69.4658 120.286 69.5819 120.342 69.698C120.502 70.0242 120.656 70.3504 120.8 70.6767C120.827 70.7264 120.849 70.7817 120.871 70.8315C121.037 71.2074 121.197 71.5945 121.346 71.976L121.468 72.2966C121.578 72.5897 121.677 72.8772 121.777 73.1647C121.821 73.2863 121.86 73.408 121.898 73.5296C122.009 73.8613 122.108 74.1931 122.207 74.5303C122.207 74.5912 122.246 74.652 122.263 74.7183C122.373 75.1109 122.472 75.509 122.561 75.9015C122.561 76.0121 122.61 76.1227 122.632 76.2333C122.699 76.5318 122.759 76.8304 122.815 77.1289C122.815 77.2561 122.864 77.3833 122.881 77.5104C122.941 77.8422 122.991 78.1794 123.035 78.5167C123.035 78.5886 123.035 78.6549 123.063 78.7268C123.118 79.1304 123.157 79.534 123.19 79.9377V80.2694C123.212 80.5716 123.229 80.8757 123.24 81.1817C123.24 81.3088 123.24 81.4415 123.24 81.5687C123.24 81.9004 123.24 82.2322 123.24 82.5694V82.7961C123.24 82.9233 123.24 83.0504 123.24 83.1721C123.24 83.5425 123.206 83.9185 123.173 84.2779C123.173 84.4548 123.135 84.6317 123.118 84.8308C123.085 85.1441 123.046 85.4592 123.002 85.7762C123.002 85.9697 122.941 86.1633 122.908 86.3291C122.859 86.6332 122.803 86.9373 122.743 87.2359C122.704 87.4294 122.66 87.6229 122.621 87.7888C122.55 88.0984 122.472 88.4025 122.389 88.7121C122.334 88.9056 122.285 89.0991 122.229 89.2982L122.097 89.7239C122.014 89.9948 121.926 90.2768 121.832 90.5311C121.782 90.6804 121.727 90.8242 121.672 90.9734C121.573 91.2499 121.462 91.5263 121.346 91.8028C121.297 91.93 121.247 92.0571 121.192 92.1843C121.021 92.5824 120.844 92.9805 120.64 93.373L122.82 88.9222C123.013 88.5296 123.19 88.1316 123.372 87.7335C123.427 87.6063 123.477 87.4791 123.527 87.352C123.643 87.0755 123.747 86.7991 123.852 86.5226C123.907 86.3789 123.957 86.2296 124.012 86.0858C124.106 85.8149 124.195 85.533 124.277 85.2786L124.41 84.8474L124.476 84.6373C124.509 84.5156 124.537 84.3885 124.57 84.2613C124.647 83.9572 124.73 83.6531 124.796 83.3435C124.84 83.15 124.885 82.962 124.923 82.7906C124.984 82.4865 125.039 82.1824 125.089 81.8838C125.122 81.6903 125.155 81.4968 125.183 81.331C125.227 81.0158 125.265 80.7006 125.299 80.38C125.299 80.203 125.337 80.0261 125.354 79.8271C125.387 79.4566 125.403 79.0862 125.42 78.7213C125.42 78.6162 125.42 78.5112 125.42 78.4061V78.1131C125.42 77.7814 125.42 77.4441 125.42 77.1124C125.42 76.9852 125.42 76.858 125.42 76.7309C125.42 76.4268 125.42 76.1171 125.37 75.813C125.37 75.7025 125.37 75.5919 125.37 75.4868C125.37 75.0777 125.299 74.6741 125.249 74.2705C125.249 74.2041 125.249 74.1322 125.221 74.0604C125.177 73.7286 125.127 73.3914 125.067 73.0541L125 72.6781C124.945 72.3796 124.885 72.081 124.818 71.7824C124.818 71.6719 124.774 71.5613 124.747 71.4507C124.653 71.0526 124.553 70.6545 124.448 70.262C124.427 70.2003 124.408 70.1376 124.393 70.074C124.294 69.7423 124.195 69.4105 124.084 69.0788C124.045 68.9571 124.007 68.8355 123.963 68.7139C123.885 68.4761 123.781 68.1886 123.676 67.9011Z" fill="black"/>
<path d="M80.4319 107.92C79.8799 107.654 79.3665 107.367 78.8477 107.096L78.384 106.836C78.0031 106.62 77.6277 106.405 77.28 106.178L76.8273 105.907C76.3471 105.609 75.8724 105.304 75.4087 104.989L75.3535 104.956C74.8714 104.624 74.4022 104.287 73.9459 103.944L73.5374 103.635C73.2007 103.38 72.8695 103.115 72.5383 102.85L72.1409 102.523C71.7324 102.181 71.3294 101.838 70.9375 101.484L70.8492 101.407C70.4297 101.025 70.0212 100.632 69.6237 100.24L69.276 99.8916C68.9834 99.593 68.724 99.3 68.4204 98.9959L68.0726 98.6199C67.7304 98.244 67.3992 97.8625 67.0735 97.481L66.9741 97.3593C66.6153 96.9336 66.2731 96.5024 65.9419 96.0656L65.6549 95.6841C65.412 95.3579 65.1746 95.0261 64.9428 94.6944L64.6557 94.2797C64.3797 93.8761 64.1037 93.4725 63.8609 93.0634L63.756 92.8975C63.4689 92.4386 63.204 91.9686 62.928 91.4987C62.8507 91.366 62.7789 91.2277 62.7072 91.0895C62.5121 90.743 62.3281 90.3892 62.1552 90.028C62.0779 89.8787 62.0006 89.7294 61.9289 89.5801C61.7246 89.1599 61.5259 88.7397 61.3327 88.314C61.3327 88.2476 61.272 88.1758 61.2389 88.1094C61.0236 87.6229 60.8193 87.1253 60.6261 86.6276C60.5709 86.4894 60.5213 86.3457 60.4716 86.2075C60.3281 85.8315 60.1956 85.461 60.0686 85.1017C60.0134 84.9413 59.9582 84.7865 59.9085 84.6262C59.7724 84.1986 59.6399 83.7673 59.5111 83.3324C59.5111 83.255 59.4614 83.1721 59.4393 83.0891C59.2958 82.5805 59.1689 82.0663 59.0529 81.5521C59.0198 81.4083 58.9867 81.2646 58.9591 81.1263C58.8708 80.7393 58.7935 80.3468 58.7217 79.9597C58.7217 79.7994 58.661 79.6335 58.6334 79.4732C58.5635 79.0346 58.4973 78.5978 58.4347 78.1628C58.4347 78.0744 58.4347 77.9804 58.3961 77.8919C58.3298 77.3722 58.2801 76.8469 58.2415 76.3217C58.2415 76.1779 58.2415 76.0397 58.2415 75.896C58.2139 75.4979 58.1918 75.1053 58.1808 74.7072V74.2096C58.1808 73.7784 58.1808 73.3416 58.1808 72.9103V72.6118C58.1808 72.4514 58.1808 72.2911 58.1808 72.1307C58.1808 71.6497 58.2249 71.1632 58.2691 70.6821C58.2691 70.4555 58.3188 70.2232 58.3409 69.991C58.385 69.5819 58.4347 69.1727 58.4899 68.7636C58.5285 68.5148 58.5672 68.2715 58.6113 68.0227C58.6776 67.632 58.7493 67.2395 58.8266 66.8451C58.8763 66.5963 58.9315 66.3474 58.9867 66.0986C59.0787 65.7006 59.1781 65.3025 59.2848 64.9044C59.3565 64.6501 59.4173 64.3957 59.4945 64.1469C59.5718 63.8981 59.6049 63.7765 59.6657 63.594C59.7761 63.2457 59.8865 62.8974 60.0079 62.5491C60.0797 62.3555 60.1459 62.1676 60.2121 61.9962C60.3501 61.6312 60.4881 61.2774 60.6372 60.8904L60.8359 60.3928C61.0622 59.8786 61.2941 59.3644 61.5425 58.8557L59.3345 63.2789C59.0861 63.7931 58.8542 64.3073 58.6334 64.8215C58.5617 64.9873 58.4954 65.1532 58.4292 65.3135C58.2801 65.6729 58.1421 66.0323 58.0097 66.3917C57.9379 66.5797 57.8717 66.7732 57.8054 66.9446C57.684 67.2929 57.5681 67.6412 57.4577 67.9951C57.3969 68.1775 57.3417 68.3655 57.2865 68.548C57.2865 68.642 57.2258 68.7304 57.2037 68.8189C57.1817 68.9074 57.1209 69.1451 57.0823 69.311C56.9719 69.7091 56.8725 70.1016 56.7787 70.4997C56.7235 70.7485 56.6738 70.9973 56.6186 71.2461C56.5413 71.6405 56.4696 72.0331 56.4033 72.4238C56.3592 72.6726 56.3205 72.9214 56.2819 73.1702C56.2267 73.5793 56.177 73.9885 56.1329 74.3976C56.1329 74.6243 56.0832 74.8565 56.0611 75.0887C56.0225 75.5697 55.9949 76.0508 55.9728 76.5318C55.9728 76.67 55.9728 76.8027 55.9728 76.9354C55.9728 76.963 55.9728 76.9907 55.9728 77.0183V77.3169C55.9728 77.7481 55.9728 78.1794 55.9728 78.6162C55.9728 78.7821 55.9728 78.9479 55.9728 79.1138C55.9728 79.5064 56.0059 79.9044 56.0335 80.297C56.0335 80.4408 56.0335 80.5845 56.0335 80.7227C56.0721 81.248 56.1273 81.7732 56.1881 82.2985C56.1881 82.3869 56.1881 82.4754 56.2267 82.5694C56.2874 83.0062 56.3537 83.443 56.4254 83.8742C56.453 84.0401 56.4861 84.2004 56.5137 84.3663C56.5855 84.7533 56.6628 85.1404 56.7511 85.5274C56.7511 85.6711 56.8118 85.8149 56.8449 85.9586C56.9609 86.4728 57.0933 86.987 57.2313 87.4957L57.3031 87.7334C57.4301 88.1702 57.5625 88.6015 57.7005 89.0327C57.7502 89.1931 57.8054 89.3479 57.8606 89.5027C57.9876 89.8787 58.1201 90.2546 58.2636 90.6085C58.3133 90.7523 58.3685 90.8905 58.4181 91.0342C58.6169 91.5318 58.8156 92.0239 59.0309 92.516C59.064 92.5823 59.0971 92.6487 59.1247 92.715C59.3179 93.1408 59.5166 93.5665 59.7209 93.9867C59.7981 94.136 59.8699 94.2853 59.9472 94.429C60.1293 94.7884 60.317 95.1422 60.4992 95.4961C60.5709 95.6343 60.6427 95.767 60.72 95.8997C60.9849 96.3752 61.272 96.8396 61.548 97.3041L61.6529 97.4699C61.9068 97.8791 62.1717 98.2827 62.4477 98.6808L62.7348 99.0954C62.9666 99.4272 63.204 99.7589 63.4469 100.085L63.7339 100.467C64.0706 100.903 64.4129 101.34 64.7661 101.766L64.8655 101.882C65.1912 102.269 65.5224 102.651 65.8646 103.027L66.2124 103.397C66.4939 103.701 66.7644 104 67.0735 104.298L67.4157 104.647C67.8187 105.039 68.2217 105.432 68.6412 105.808L68.724 105.885C69.1214 106.254 69.5244 106.602 69.9329 106.93L70.3358 107.256C70.6615 107.522 70.9927 107.809 71.3294 108.041L71.7379 108.351C72.1961 108.694 72.6653 109.031 73.1455 109.357L73.2007 109.39C73.6644 109.706 74.1391 110.01 74.6193 110.308L75.072 110.585C75.4418 110.806 75.8172 111.027 76.176 111.237L76.6397 111.497C77.1585 111.784 77.6885 112.061 78.2294 112.326C97.3562 121.725 119.894 115.002 128.572 97.3041L130.747 92.8809C122.102 110.579 99.5642 117.324 80.4319 107.92Z" fill="#407BFF"/>
<path opacity="0.4" d="M80.4319 107.92C79.8799 107.654 79.3665 107.367 78.8477 107.096L78.384 106.836C78.0031 106.62 77.6277 106.405 77.28 106.178L76.8273 105.907C76.3471 105.609 75.8724 105.304 75.4087 104.989L75.3535 104.956C74.8714 104.624 74.4022 104.287 73.9459 103.944L73.5374 103.635C73.2007 103.38 72.8695 103.115 72.5383 102.85L72.1409 102.523C71.7324 102.181 71.3294 101.838 70.9375 101.484L70.8492 101.407C70.4297 101.025 70.0212 100.632 69.6237 100.24L69.276 99.8916C68.9834 99.593 68.724 99.3 68.4204 98.9959L68.0726 98.6199C67.7304 98.244 67.3992 97.8625 67.0735 97.481L66.9741 97.3593C66.6153 96.9336 66.2731 96.5024 65.9419 96.0656L65.6549 95.6841C65.412 95.3579 65.1746 95.0261 64.9428 94.6944L64.6557 94.2797C64.3797 93.8761 64.1037 93.4725 63.8609 93.0634L63.756 92.8975C63.4689 92.4386 63.204 91.9686 62.928 91.4987C62.8507 91.366 62.7789 91.2277 62.7072 91.0895C62.5121 90.743 62.3281 90.3892 62.1552 90.028C62.0779 89.8787 62.0006 89.7294 61.9289 89.5801C61.7246 89.1599 61.5259 88.7397 61.3327 88.314C61.3327 88.2476 61.272 88.1758 61.2389 88.1094C61.0236 87.6229 60.8193 87.1253 60.6261 86.6276C60.5709 86.4894 60.5213 86.3457 60.4716 86.2075C60.3281 85.8315 60.1956 85.461 60.0686 85.1017C60.0134 84.9413 59.9582 84.7865 59.9085 84.6262C59.7724 84.1986 59.6399 83.7673 59.5111 83.3324C59.5111 83.255 59.4614 83.1721 59.4393 83.0891C59.2958 82.5805 59.1689 82.0663 59.0529 81.5521C59.0198 81.4083 58.9867 81.2646 58.9591 81.1263C58.8708 80.7393 58.7935 80.3468 58.7217 79.9597C58.7217 79.7994 58.661 79.6335 58.6334 79.4732C58.5635 79.0346 58.4973 78.5978 58.4347 78.1628C58.4347 78.0744 58.4347 77.9804 58.3961 77.8919C58.3298 77.3722 58.2801 76.8469 58.2415 76.3217C58.2415 76.1779 58.2415 76.0397 58.2415 75.896C58.2139 75.4979 58.1918 75.1053 58.1808 74.7072V74.2096C58.1808 73.7784 58.1808 73.3416 58.1808 72.9103V72.6118C58.1808 72.4514 58.1808 72.2911 58.1808 72.1307C58.1808 71.6497 58.2249 71.1632 58.2691 70.6821C58.2691 70.4555 58.3188 70.2232 58.3409 69.991C58.385 69.5819 58.4347 69.1727 58.4899 68.7636C58.5285 68.5148 58.5672 68.2715 58.6113 68.0227C58.6776 67.632 58.7493 67.2395 58.8266 66.8451C58.8763 66.5963 58.9315 66.3474 58.9867 66.0986C59.0787 65.7006 59.1781 65.3025 59.2848 64.9044C59.3565 64.6501 59.4173 64.3957 59.4945 64.1469C59.5718 63.8981 59.6049 63.7765 59.6657 63.594C59.7761 63.2457 59.8865 62.8974 60.0079 62.5491C60.0797 62.3555 60.1459 62.1676 60.2121 61.9962C60.3501 61.6312 60.4881 61.2774 60.6372 60.8904L60.8359 60.3928C61.0622 59.8786 61.2941 59.3644 61.5425 58.8557L59.3345 63.2789C59.0861 63.7931 58.8542 64.3073 58.6334 64.8215C58.5617 64.9873 58.4954 65.1532 58.4292 65.3135C58.2801 65.6729 58.1421 66.0323 58.0097 66.3917C57.9379 66.5797 57.8717 66.7732 57.8054 66.9446C57.684 67.2929 57.5681 67.6412 57.4577 67.9951C57.3969 68.1775 57.3417 68.3655 57.2865 68.548C57.2865 68.642 57.2258 68.7304 57.2037 68.8189C57.1817 68.9074 57.1209 69.1451 57.0823 69.311C56.9719 69.7091 56.8725 70.1016 56.7787 70.4997C56.7235 70.7485 56.6738 70.9973 56.6186 71.2461C56.5413 71.6405 56.4696 72.0331 56.4033 72.4238C56.3592 72.6726 56.3205 72.9214 56.2819 73.1702C56.2267 73.5793 56.177 73.9885 56.1329 74.3976C56.1329 74.6243 56.0832 74.8565 56.0611 75.0887C56.0225 75.5697 55.9949 76.0508 55.9728 76.5318C55.9728 76.67 55.9728 76.8027 55.9728 76.9354C55.9728 76.963 55.9728 76.9907 55.9728 77.0183V77.3169C55.9728 77.7481 55.9728 78.1794 55.9728 78.6162C55.9728 78.7821 55.9728 78.9479 55.9728 79.1138C55.9728 79.5064 56.0059 79.9044 56.0335 80.297C56.0335 80.4408 56.0335 80.5845 56.0335 80.7227C56.0721 81.248 56.1273 81.7732 56.1881 82.2985C56.1881 82.3869 56.1881 82.4754 56.2267 82.5694C56.2874 83.0062 56.3537 83.443 56.4254 83.8742C56.453 84.0401 56.4861 84.2004 56.5137 84.3663C56.5855 84.7533 56.6628 85.1404 56.7511 85.5274C56.7511 85.6711 56.8118 85.8149 56.8449 85.9586C56.9609 86.4728 57.0933 86.987 57.2313 87.4957L57.3031 87.7334C57.4301 88.1702 57.5625 88.6015 57.7005 89.0327C57.7502 89.1931 57.8054 89.3479 57.8606 89.5027C57.9876 89.8787 58.1201 90.2546 58.2636 90.6085C58.3133 90.7523 58.3685 90.8905 58.4181 91.0342C58.6169 91.5318 58.8156 92.0239 59.0309 92.516C59.064 92.5823 59.0971 92.6487 59.1247 92.715C59.3179 93.1408 59.5166 93.5665 59.7209 93.9867C59.7981 94.136 59.8699 94.2853 59.9472 94.429C60.1293 94.7884 60.317 95.1422 60.4992 95.4961C60.5709 95.6343 60.6427 95.767 60.72 95.8997C60.9849 96.3752 61.272 96.8396 61.548 97.3041L61.6529 97.4699C61.9068 97.8791 62.1717 98.2827 62.4477 98.6808L62.7348 99.0954C62.9666 99.4272 63.204 99.7589 63.4469 100.085L63.7339 100.467C64.0706 100.903 64.4129 101.34 64.7661 101.766L64.8655 101.882C65.1912 102.269 65.5224 102.651 65.8646 103.027L66.2124 103.397C66.4939 103.701 66.7644 104 67.0735 104.298L67.4157 104.647C67.8187 105.039 68.2217 105.432 68.6412 105.808L68.724 105.885C69.1214 106.254 69.5244 106.602 69.9329 106.93L70.3358 107.256C70.6615 107.522 70.9927 107.809 71.3294 108.041L71.7379 108.351C72.1961 108.694 72.6653 109.031 73.1455 109.357L73.2007 109.39C73.6644 109.706 74.1391 110.01 74.6193 110.308L75.072 110.585C75.4418 110.806 75.8172 111.027 76.176 111.237L76.6397 111.497C77.1585 111.784 77.6885 112.061 78.2294 112.326C97.3562 121.725 119.894 115.002 128.572 97.3041L130.747 92.8809C122.102 110.579 99.5642 117.324 80.4319 107.92Z" fill="black"/>
<path d="M72.45 44.4418L72.1464 43.9773C73.5153 43.0809 74.9406 42.2738 76.4133 41.5612L76.6562 42.0588C75.2031 42.7592 73.7979 43.5552 72.45 44.4418ZM80.7907 40.3614L80.592 39.8085C87.1624 37.5826 94.1879 37.0558 101.016 38.277L100.922 38.8299C94.1898 37.6363 87.2657 38.1631 80.7907 40.3614Z" fill="#407BFF"/>
<path d="M61.4984 58.8447C70.1703 41.152 92.7029 34.4288 111.835 43.8336C130.968 53.2383 139.435 75.2048 130.774 92.8975C122.113 110.59 99.5643 117.324 80.432 107.92C61.2997 98.5149 52.8264 76.5428 61.4984 58.8447ZM122.859 89.0162C129.543 75.3707 123.008 58.4134 108.247 51.1594C93.4868 43.9054 76.0988 49.0971 69.414 62.7702C62.7293 76.4433 69.2705 93.373 84.0255 100.627C98.7804 107.881 116.163 102.695 122.859 89.0162Z" fill="#407BFF"/>
<path d="M163.392 105.448L160.632 111.043C160.506 111.3 160.33 111.528 160.115 111.715C159.899 111.903 159.648 112.044 159.377 112.133C159.106 112.221 158.82 112.253 158.536 112.229C158.251 112.204 157.975 112.123 157.723 111.989L122.229 93.2679L125.856 85.9033L162.354 102.568C162.614 102.685 162.848 102.854 163.041 103.063C163.235 103.273 163.384 103.519 163.481 103.788C163.578 104.057 163.62 104.342 163.605 104.627C163.589 104.912 163.517 105.192 163.392 105.448Z" fill="#407BFF"/>
<path opacity="0.1" d="M123.366 89.2539C130.184 75.3486 123.521 58.0706 108.462 50.6784C93.4039 43.2862 75.7013 48.5774 68.8841 62.4827C62.0669 76.388 68.7405 93.6715 83.7881 101.064C98.8356 108.456 116.544 103.176 123.361 89.2539" fill="white"/>
<path opacity="0.1" d="M108.479 50.6784C104.771 48.8492 100.749 47.7476 96.6275 47.4329L66.5491 69.9744C65.9543 73.8518 66.201 77.812 67.2722 81.5852L108.479 50.6784Z" fill="white"/>
<path d="M152.987 95.098C150.746 94.2908 149.206 95.7836 147.654 96.5576C147.389 96.6903 147.467 97.4754 147.997 97.5528C148.316 97.6284 148.648 97.6385 148.971 97.5824C149.295 97.5263 149.603 97.4053 149.879 97.2266C150.431 97.7353 152.407 98.5868 153.853 97.0552C153.812 96.3188 153.504 95.6227 152.987 95.098Z" fill="#049DD9"/>
<path d="M182.602 42.7002H181.321C181.298 42.7007 181.276 42.6961 181.255 42.6866C181.234 42.6771 181.216 42.6631 181.202 42.6455C181.188 42.6279 181.177 42.6072 181.172 42.5851C181.167 42.5629 181.167 42.5399 181.172 42.5177L181.812 39.5653C181.82 39.5311 181.839 39.5005 181.866 39.4784C181.893 39.4563 181.926 39.4441 181.961 39.4436C181.996 39.4432 182.029 39.4553 182.056 39.4776C182.082 39.5 182.1 39.5311 182.105 39.5653L182.745 42.5177C182.75 42.5396 182.751 42.5624 182.746 42.5845C182.741 42.6065 182.731 42.6271 182.718 42.6449C182.704 42.6628 182.687 42.6772 182.666 42.6869C182.646 42.6965 182.624 42.7011 182.602 42.7002ZM181.498 42.4016H182.403L181.95 40.3117L181.498 42.4016Z" fill="white"/>
<path d="M145.585 26.2901L142.455 31.2662L141.958 30.951C141.245 30.5328 140.609 29.9962 140.076 29.3642C139.669 28.8324 139.362 28.2311 139.17 27.5894C138.856 26.2674 138.625 24.9267 138.48 23.5754C138.353 22.5083 138.044 21.8172 137.564 21.5186C137.366 21.3755 137.141 21.2763 136.902 21.2276C136.663 21.179 136.416 21.1821 136.178 21.2367C135.659 21.4175 135.227 21.7889 134.97 22.2761C134.781 22.555 134.653 22.8699 134.592 23.2011C134.531 23.5322 134.539 23.8724 134.616 24.2002C134.771 24.8692 135.323 25.5769 136.272 26.3344L132.441 31.0229C130.805 29.8475 129.657 28.1096 129.218 26.1408C128.817 24.2426 129.391 22.0715 130.94 19.6277C132.136 17.7184 133.499 16.4283 135.03 15.7575C135.94 15.3023 136.953 15.0925 137.968 15.1487C138.983 15.2049 139.967 15.5253 140.821 16.0781C141.572 16.564 142.179 17.2441 142.576 18.0465C143.121 19.358 143.44 20.7526 143.52 22.1711C143.572 23.1038 143.785 24.0205 144.149 24.8802C144.501 25.4641 144.995 25.9492 145.585 26.2901ZM143.669 32.2725L147.02 26.9425L151.717 29.9061L148.361 35.2415L143.669 32.2725Z" fill="#407BFF"/>
<path d="M189.888 13.2695L185.759 11.0579L185.985 10.6432C186.283 10.0519 186.679 9.5154 187.156 9.05643C187.559 8.70274 188.022 8.42546 188.524 8.23814C189.566 7.91911 190.626 7.66612 191.698 7.48067C192.543 7.32034 193.079 7.04389 193.294 6.64027C193.396 6.47727 193.462 6.29449 193.489 6.10392C193.516 5.91336 193.502 5.7193 193.448 5.53448C193.28 5.12449 192.959 4.79566 192.554 4.61668C192.323 4.47278 192.066 4.37834 191.797 4.33933C191.528 4.30031 191.254 4.31756 190.992 4.38999C190.313 4.68319 189.746 5.18713 189.375 5.82752L185.433 3.00222C186.288 1.62815 187.618 0.618196 189.17 0.16587C190.672 -0.243273 192.438 0.105051 194.47 1.21084C195.857 1.88079 197.011 2.95396 197.782 4.29047C198.19 4.99661 198.408 5.79695 198.415 6.61304C198.422 7.42914 198.217 8.233 197.82 8.94585C197.472 9.57547 196.959 10.0975 196.335 10.4553C195.32 10.961 194.226 11.2883 193.101 11.4228C192.352 11.5085 191.625 11.7276 190.953 12.0697C190.502 12.3721 190.135 12.7851 189.888 13.2695ZM185.008 12.0365L189.424 14.4527L187.299 18.3672L182.883 15.951L185.008 12.0365Z" fill="#407BFF"/>
<path d="M196.595 24.9356L195.491 21.4081L195.844 21.2975C196.334 21.1288 196.849 21.0447 197.368 21.0487C197.785 21.0673 198.195 21.1649 198.576 21.3363C199.34 21.7222 200.078 22.158 200.784 22.6411C200.968 22.8011 201.184 22.9195 201.417 22.9882C201.651 23.0569 201.896 23.0743 202.137 23.0392C202.286 23.0009 202.425 22.932 202.546 22.8368C202.666 22.7416 202.766 22.6222 202.838 22.4863C202.963 22.1645 202.963 21.8073 202.838 21.4855C202.783 21.281 202.685 21.0902 202.552 20.9255C202.419 20.7608 202.253 20.6257 202.065 20.529C201.524 20.3249 200.932 20.2997 200.376 20.4571L199.697 16.7196C200.925 16.4151 202.222 16.5745 203.34 17.1674C204.404 17.7535 205.206 18.9127 205.747 20.6451C206.157 21.7768 206.217 23.0064 205.918 24.1726C205.764 24.7929 205.452 25.3624 205.011 25.8249C204.571 26.2874 204.018 26.6269 203.406 26.8099C202.869 26.9763 202.295 26.9897 201.75 26.8486C200.905 26.5765 200.112 26.1634 199.404 25.6267C198.938 25.2654 198.411 24.9902 197.848 24.814C197.427 24.749 196.996 24.7908 196.595 24.9356ZM194.525 21.5629L195.701 25.3392L192.389 26.3787L191.213 22.6024L194.525 21.5629Z" fill="#407BFF"/>
</svg>
