<svg width="87" height="70" viewBox="0 0 87 70" fill="none" xmlns="http://www.w3.org/2000/svg">
<path d="M80.0924 0.234619H47.5625C45.8534 0.240605 44.2159 0.922148 43.0073 2.13058C41.7987 3.33902 41.1171 4.97629 41.1111 6.68527V67.221C41.1111 67.8234 41.3504 68.4011 41.7764 68.8271C42.2024 69.2531 42.7802 69.4924 43.3827 69.4924H84.2722C84.8747 69.4924 85.4525 69.2531 85.8785 68.8271C86.3046 68.4011 86.5439 67.8234 86.5439 67.221V6.68527C86.5379 4.97629 85.8563 3.33902 84.6477 2.13058C83.4391 0.922148 81.8016 0.240605 80.0924 0.234619ZM68.3708 64.9497H59.2842V55.8642H68.3708V64.9497ZM82.0006 64.9497H72.914V53.5929C72.914 52.9905 72.6747 52.4127 72.2487 51.9868C71.8227 51.5608 71.2449 51.3215 70.6424 51.3215H57.0126C56.4101 51.3215 55.8323 51.5608 55.4063 51.9868C54.9803 52.4127 54.7409 52.9905 54.7409 53.5929V64.9497H45.6544V6.68527C45.6544 6.17925 45.8554 5.69396 46.2133 5.33615C46.5711 4.97835 47.0565 4.77733 47.5625 4.77733H80.0924C80.5985 4.77733 81.0839 4.97835 81.4417 5.33615C81.7996 5.69396 82.0006 6.17925 82.0006 6.68527V64.9497Z" fill="#A3AED0"/>
<path d="M39.2033 30.8794H6.67338C4.96419 30.8854 3.32671 31.5669 2.11813 32.7754C0.909538 33.9838 0.227911 35.6211 0.221924 37.33V67.2211C0.221924 67.8235 0.461257 68.4012 0.887272 68.8272C1.31329 69.2531 1.89109 69.4924 2.49356 69.4924H43.3831C43.9856 69.4924 44.5634 69.2531 44.9894 68.8272C45.4154 68.4012 45.6547 67.8235 45.6547 67.2211V37.33C45.6487 35.6211 44.9671 33.9838 43.7585 32.7754C42.5499 31.5669 40.9125 30.8854 39.2033 30.8794ZM27.4816 64.9497H18.395V55.8643H27.4816V64.9497ZM41.1115 64.9497H32.0249V53.593C32.0249 52.9906 31.7856 52.4128 31.3595 51.9869C30.9335 51.5609 30.3557 51.3216 29.7532 51.3216H16.1234C15.5209 51.3216 14.9431 51.5609 14.5171 51.9869C14.0911 52.4128 13.8518 52.9906 13.8518 53.593V64.9497H4.7652V37.33C4.7652 36.824 4.96624 36.3387 5.3241 35.9809C5.68195 35.6231 6.1673 35.4221 6.67338 35.4221H39.2033C39.7094 35.4221 40.1947 35.6231 40.5526 35.9809C40.9104 36.3387 41.1115 36.824 41.1115 37.33V64.9497Z" fill="#A3AED0"/>
<path d="M72.9142 5.96875C72.3118 5.96875 71.734 6.20805 71.308 6.63402C70.8819 7.05998 70.6426 7.6377 70.6426 8.24011V12.7828C70.6426 13.3852 70.8819 13.9629 71.308 14.3889C71.734 14.8149 72.3118 15.0542 72.9142 15.0542C73.5167 15.0542 74.0945 14.8149 74.5205 14.3889C74.9466 13.9629 75.1859 13.3852 75.1859 12.7828V8.24011C75.1859 7.6377 74.9466 7.05998 74.5205 6.63402C74.0945 6.20805 73.5167 5.96875 72.9142 5.96875ZM72.9142 19.5969C72.3118 19.5969 71.734 19.8362 71.308 20.2622C70.8819 20.6881 70.6426 21.2658 70.6426 21.8682V26.411C70.6426 27.0134 70.8819 27.5911 71.308 28.017C71.734 28.443 72.3118 28.6823 72.9142 28.6823C73.5167 28.6823 74.0945 28.443 74.5205 28.017C74.9466 27.5911 75.1859 27.0134 75.1859 26.411V21.8682C75.1859 21.2658 74.9466 20.6881 74.5205 20.2622C74.0945 19.8362 73.5167 19.5969 72.9142 19.5969ZM72.9142 33.225C72.3118 33.225 71.734 33.4643 71.308 33.8903C70.8819 34.3162 70.6426 34.894 70.6426 35.4964V40.0391C70.6426 40.6415 70.8819 41.2192 71.308 41.6452C71.734 42.0711 72.3118 42.3104 72.9142 42.3104C73.5167 42.3104 74.0945 42.0711 74.5205 41.6452C74.9466 41.2192 75.1859 40.6415 75.1859 40.0391V35.4964C75.1859 34.894 74.9466 34.3162 74.5205 33.8903C74.0945 33.4643 73.5167 33.225 72.9142 33.225ZM54.7411 5.96875C54.1386 5.96875 53.5608 6.20805 53.1348 6.63402C52.7088 7.05998 52.4695 7.6377 52.4695 8.24011V12.7828C52.4695 13.3852 52.7088 13.9629 53.1348 14.3889C53.5608 14.8149 54.1386 15.0542 54.7411 15.0542C55.3436 15.0542 55.9214 14.8149 56.3474 14.3889C56.7734 13.9629 57.0128 13.3852 57.0128 12.7828V8.24011C57.0128 7.6377 56.7734 7.05998 56.3474 6.63402C55.9214 6.20805 55.3436 5.96875 54.7411 5.96875ZM54.7411 19.5969C54.1386 19.5969 53.5608 19.8362 53.1348 20.2622C52.7088 20.6881 52.4695 21.2658 52.4695 21.8682V26.411C52.4695 27.0134 52.7088 27.5911 53.1348 28.017C53.5608 28.443 54.1386 28.6823 54.7411 28.6823C55.3436 28.6823 55.9214 28.443 56.3474 28.017C56.7734 27.5911 57.0128 27.0134 57.0128 26.411V21.8682C57.0128 21.2658 56.7734 20.6881 56.3474 20.2622C55.9214 19.8362 55.3436 19.5969 54.7411 19.5969ZM54.7411 33.225C54.1386 33.225 53.5608 33.4643 53.1348 33.8903C52.7088 34.3162 52.4695 34.894 52.4695 35.4964V40.0391C52.4695 40.6415 52.7088 41.2192 53.1348 41.6452C53.5608 42.0711 54.1386 42.3104 54.7411 42.3104C55.3436 42.3104 55.9214 42.0711 56.3474 41.6452C56.7734 41.2192 57.0128 40.6415 57.0128 40.0391V35.4964C57.0128 34.894 56.7734 34.3162 56.3474 33.8903C55.9214 33.4643 55.3436 33.225 54.7411 33.225Z" fill="#A3AED0"/>
</svg>
