<svg width="87" height="70" viewBox="0 0 87 70" fill="none" xmlns="http://www.w3.org/2000/svg">
<path d="M80.4985 0.234619H47.9415C46.2308 0.240605 44.592 0.922148 43.3824 2.13058C42.1728 3.33902 41.4906 4.97629 41.4846 6.68527V67.221C41.4846 67.8234 41.7242 68.4011 42.1505 68.8271C42.5769 69.2531 43.1552 69.4924 43.7582 69.4924H84.6818C85.2848 69.4924 85.8631 69.2531 86.2895 68.8271C86.7158 68.4011 86.9554 67.8234 86.9554 67.221V6.68527C86.9494 4.97629 86.2672 3.33902 85.0576 2.13058C83.848 0.922148 82.2091 0.240605 80.4985 0.234619ZM68.7671 64.9497H59.6729V55.8642H68.7671V64.9497ZM82.4083 64.9497H73.3142V53.5929C73.3142 52.9905 73.0746 52.4127 72.6482 51.9868C72.2219 51.5608 71.6436 51.3215 71.0406 51.3215H57.3994C56.7964 51.3215 56.2181 51.5608 55.7918 51.9868C55.3654 52.4127 55.1258 52.9905 55.1258 53.5929V64.9497H46.0317V6.68527C46.0317 6.17925 46.2329 5.69396 46.5911 5.33615C46.9492 4.97835 47.435 4.77733 47.9415 4.77733H80.4985C81.005 4.77733 81.4908 4.97835 81.8489 5.33615C82.2071 5.69396 82.4083 6.17925 82.4083 6.68527V64.9497Z" fill="white"/>
<path d="M39.5752 30.8794H7.01813C5.30751 30.8854 3.66866 31.5669 2.45907 32.7754C1.24947 33.9838 0.567271 35.6211 0.561279 37.33V67.2211C0.561279 67.8235 0.800813 68.4012 1.22718 68.8272C1.65355 69.2531 2.23184 69.4924 2.83482 69.4924H43.7585C44.3615 69.4924 44.9398 69.2531 45.3661 68.8272C45.7925 68.4012 46.032 67.8235 46.032 67.2211V37.33C46.026 35.6211 45.3438 33.9838 44.1343 32.7754C42.9247 31.5669 41.2858 30.8854 39.5752 30.8794ZM27.8437 64.9497H18.7496V55.8643H27.8437V64.9497ZM41.485 64.9497H32.3908V53.593C32.3908 52.9906 32.1513 52.4128 31.7249 51.9869C31.2985 51.5609 30.7203 51.3216 30.1173 51.3216H16.476C15.8731 51.3216 15.2948 51.5609 14.8684 51.9869C14.442 52.4128 14.2025 52.9906 14.2025 53.593V64.9497H5.10836V37.33C5.10836 36.824 5.30956 36.3387 5.66771 35.9809C6.02587 35.6231 6.51162 35.4221 7.01813 35.4221H39.5752C40.0817 35.4221 40.5674 35.6231 40.9256 35.9809C41.2838 36.3387 41.485 36.824 41.485 37.33V64.9497Z" fill="white"/>
<path d="M73.3144 5.96875C72.7114 5.96875 72.1331 6.20805 71.7067 6.63402C71.2804 7.05998 71.0408 7.6377 71.0408 8.24011V12.7828C71.0408 13.3852 71.2804 13.9629 71.7067 14.3889C72.1331 14.8149 72.7114 15.0542 73.3144 15.0542C73.9174 15.0542 74.4956 14.8149 74.922 14.3889C75.3484 13.9629 75.5879 13.3852 75.5879 12.7828V8.24011C75.5879 7.6377 75.3484 7.05998 74.922 6.63402C74.4956 6.20805 73.9174 5.96875 73.3144 5.96875ZM73.3144 19.5969C72.7114 19.5969 72.1331 19.8362 71.7067 20.2622C71.2804 20.6881 71.0408 21.2658 71.0408 21.8682V26.411C71.0408 27.0134 71.2804 27.5911 71.7067 28.017C72.1331 28.443 72.7114 28.6823 73.3144 28.6823C73.9174 28.6823 74.4956 28.443 74.922 28.017C75.3484 27.5911 75.5879 27.0134 75.5879 26.411V21.8682C75.5879 21.2658 75.3484 20.6881 74.922 20.2622C74.4956 19.8362 73.9174 19.5969 73.3144 19.5969ZM73.3144 33.225C72.7114 33.225 72.1331 33.4643 71.7067 33.8903C71.2804 34.3162 71.0408 34.894 71.0408 35.4964V40.0391C71.0408 40.6415 71.2804 41.2192 71.7067 41.6452C72.1331 42.0711 72.7114 42.3104 73.3144 42.3104C73.9174 42.3104 74.4956 42.0711 74.922 41.6452C75.3484 41.2192 75.5879 40.6415 75.5879 40.0391V35.4964C75.5879 34.894 75.3484 34.3162 74.922 33.8903C74.4956 33.4643 73.9174 33.225 73.3144 33.225ZM55.1261 5.96875C54.5231 5.96875 53.9448 6.20805 53.5184 6.63402C53.0921 7.05998 52.8525 7.6377 52.8525 8.24011V12.7828C52.8525 13.3852 53.0921 13.9629 53.5184 14.3889C53.9448 14.8149 54.5231 15.0542 55.1261 15.0542C55.7291 15.0542 56.3073 14.8149 56.7337 14.3889C57.1601 13.9629 57.3996 13.3852 57.3996 12.7828V8.24011C57.3996 7.6377 57.1601 7.05998 56.7337 6.63402C56.3073 6.20805 55.7291 5.96875 55.1261 5.96875ZM55.1261 19.5969C54.5231 19.5969 53.9448 19.8362 53.5184 20.2622C53.0921 20.6881 52.8525 21.2658 52.8525 21.8682V26.411C52.8525 27.0134 53.0921 27.5911 53.5184 28.017C53.9448 28.443 54.5231 28.6823 55.1261 28.6823C55.7291 28.6823 56.3073 28.443 56.7337 28.017C57.1601 27.5911 57.3996 27.0134 57.3996 26.411V21.8682C57.3996 21.2658 57.1601 20.6881 56.7337 20.2622C56.3073 19.8362 55.7291 19.5969 55.1261 19.5969ZM55.1261 33.225C54.5231 33.225 53.9448 33.4643 53.5184 33.8903C53.0921 34.3162 52.8525 34.894 52.8525 35.4964V40.0391C52.8525 40.6415 53.0921 41.2192 53.5184 41.6452C53.9448 42.0711 54.5231 42.3104 55.1261 42.3104C55.7291 42.3104 56.3073 42.0711 56.7337 41.6452C57.1601 41.2192 57.3996 40.6415 57.3996 40.0391V35.4964C57.3996 34.894 57.1601 34.3162 56.7337 33.8903C56.3073 33.4643 55.7291 33.225 55.1261 33.225Z" fill="white"/>
</svg>
