<svg width="19" height="17" viewBox="0 0 19 17" fill="none" xmlns="http://www.w3.org/2000/svg">
<path d="M16.7734 4.13086H13.9531C13.9531 2.0598 11.9594 0.380859 9.5 0.380859C7.04061 0.380859 5.04688 2.0598 5.04688 4.13086H2.22656C0.996869 4.13086 0 4.97033 0 6.00586V14.5059C0 15.5414 0.996869 16.3809 2.22656 16.3809H16.7734C18.0031 16.3809 19 15.5414 19 14.5059V6.00586C19 4.97033 18.0031 4.13086 16.7734 4.13086ZM9.5 2.25586C10.7297 2.25586 11.7266 3.09533 11.7266 4.13086H7.27344C7.27344 3.09533 8.27031 2.25586 9.5 2.25586ZM14.918 8.50586V9.13086C14.918 9.64864 14.4196 10.0684 13.8047 10.0684C13.1898 10.0684 12.6914 9.64864 12.6914 9.13086V8.50586H6.30859V9.13086C6.30859 9.64864 5.81018 10.0684 5.19531 10.0684C4.58045 10.0684 4.08203 9.64864 4.08203 9.13086V8.50586C3.46717 8.50586 2.96875 8.08614 2.96875 7.56836C2.96875 7.05058 3.46717 6.63086 4.08203 6.63086H14.918C15.5328 6.63086 16.0312 7.05058 16.0312 7.56836C16.0312 8.08614 15.5328 8.50586 14.918 8.50586Z" fill="#969696"/>
</svg>
