<svg width="15" height="18" viewBox="0 0 15 18" fill="none" xmlns="http://www.w3.org/2000/svg">
<path d="M7.54128 15.6262C7.81995 15.6262 8.71445 15.2788 9.99427 14.1723C12.0275 12.4224 14.4014 9.34739 14.4014 6.45247C14.4014 4.74117 13.6743 3.09996 12.38 1.88988C11.0858 0.679811 9.33036 0 7.5 0C5.66964 0 3.91425 0.679811 2.61999 1.88988C1.32573 3.09996 0.598624 4.74117 0.598624 6.45247C0.598624 11.0007 6.26491 15.5297 7.54128 15.6262ZM7.5 2.60865C8.1505 2.60865 8.78639 2.789 9.32727 3.12689C9.86814 3.46478 10.2897 3.94504 10.5386 4.50693C10.7876 5.06882 10.8527 5.68711 10.7258 6.28362C10.5989 6.88012 10.2856 7.42804 9.82567 7.85809C9.36569 8.28815 8.77965 8.58102 8.14165 8.69967C7.50365 8.81832 6.84234 8.75742 6.24136 8.52468C5.64037 8.29194 5.1267 7.8978 4.7653 7.39211C4.40391 6.88642 4.21101 6.29189 4.21101 5.6837C4.21192 4.86841 4.55873 4.08675 5.17534 3.51025C5.79195 2.93375 6.62798 2.6095 7.5 2.60865ZM15 16.2309C15 16.8324 12.3544 18 7.5 18C2.64564 18 0 16.8324 0 16.2309C0 15.8288 1.23853 15.0826 3.99771 14.6966C4.04565 14.6895 4.09209 14.6754 4.13532 14.6548C5.4289 15.7966 6.69495 16.53 7.45872 16.5847H7.55505C8.58716 16.5847 10.0906 15.3978 10.6961 14.8767C10.7718 14.8124 10.8475 14.7416 10.9232 14.6708C10.9491 14.6787 10.9755 14.6852 11.0023 14.6901C13.7615 15.0826 15 15.8288 15 16.2309Z" fill="#969696"/>
</svg>
