<svg width="15" height="17" viewBox="0 0 15 17" fill="none" xmlns="http://www.w3.org/2000/svg">
<path d="M4.28571 0C4.87835 0 5.35714 0.474805 5.35714 1.0625V2.125H9.64286V1.0625C9.64286 0.474805 10.1217 0 10.7143 0C11.3069 0 11.7857 0.474805 11.7857 1.0625V2.125H13.3929C14.2801 2.125 15 2.83887 15 3.71875V5.3125H0V3.71875C0 2.83887 0.719866 2.125 1.60714 2.125H3.21429V1.0625C3.21429 0.474805 3.69308 0 4.28571 0ZM0 6.375H15V15.4062C15 16.2861 14.2801 17 13.3929 17H1.60714C0.719866 17 0 16.2861 0 15.4062V6.375ZM2.67857 8.5C2.38393 8.5 2.14286 8.73906 2.14286 9.03125V11.1562C2.14286 11.4484 2.38393 11.6875 2.67857 11.6875H12.3214C12.6161 11.6875 12.8571 11.4484 12.8571 11.1562V9.03125C12.8571 8.73906 12.6161 8.5 12.3214 8.5H2.67857Z" fill="#969696"/>
</svg>
