<svg width="19" height="15" viewBox="0 0 19 15" fill="none" xmlns="http://www.w3.org/2000/svg">
<path d="M5.225 8.4375C5.66164 8.4375 6.09402 8.35263 6.49742 8.18773C6.90083 8.02283 7.26737 7.78114 7.57613 7.47644C7.88488 7.17175 8.1298 6.81003 8.2969 6.41193C8.464 6.01383 8.55 5.58715 8.55 5.15625C8.55 4.72535 8.464 4.29867 8.2969 3.90057C8.1298 3.50247 7.88488 3.14075 7.57613 2.83606C7.26737 2.53136 6.90083 2.28967 6.49742 2.12477C6.09402 1.95987 5.66164 1.875 5.225 1.875C4.78835 1.875 4.35599 1.95987 3.95258 2.12477C3.54917 2.28967 3.18262 2.53136 2.87387 2.83606C2.56511 3.14075 2.3202 3.50247 2.1531 3.90057C1.986 4.29867 1.9 4.72535 1.9 5.15625C1.9 5.58715 1.986 6.01383 2.1531 6.41193C2.3202 6.81003 2.56511 7.17175 2.87387 7.47644C3.18262 7.78114 3.54917 8.02283 3.95258 8.18773C4.35599 8.35263 4.78835 8.4375 5.225 8.4375ZM10.45 5.15625C10.45 7.68457 8.60641 9.78809 6.175 10.2275V11.25H7.125C7.65047 11.25 8.075 11.6689 8.075 12.1875C8.075 12.7061 7.65047 13.125 7.125 13.125H6.175V14.0625C6.175 14.5811 5.75047 15 5.225 15C4.69953 15 4.275 14.5811 4.275 14.0625V13.125H3.325C2.79953 13.125 2.375 12.7061 2.375 12.1875C2.375 11.6689 2.79953 11.25 3.325 11.25H4.275V10.2275C1.84359 9.78809 0 7.68457 0 5.15625C0 2.30859 2.33938 0 5.225 0C8.11063 0 10.45 2.30859 10.45 5.15625ZM8.07203 10.5645C8.645 10.2686 9.1675 9.8877 9.61875 9.43945C10.2125 9.98145 11.0052 10.3125 11.878 10.3125C13.7156 10.3125 15.203 8.84473 15.203 7.03125C15.203 5.21777 13.7156 3.75 11.878 3.75C11.6642 3.75 11.4534 3.77051 11.2516 3.80859C11.1061 3.17871 10.8656 2.58691 10.5391 2.04492C10.9636 1.93359 11.4119 1.875 11.875 1.875C12.9734 1.875 13.9947 2.20898 14.8378 2.7832L15.4494 2.17969L14.4578 1.20117C14.253 0.999023 14.1936 0.697266 14.3034 0.433594C14.4133 0.169922 14.6745 0 14.9625 0H18.2875C18.6823 0 19 0.313477 19 0.703125V3.98438C19 4.26855 18.8278 4.52637 18.5606 4.63477C18.2934 4.74316 17.9877 4.68457 17.7828 4.48242L16.7912 3.50391L16.1797 4.10742C16.7586 4.93945 17.1 5.94434 17.1 7.03125C17.1 9.87891 14.7606 12.1875 11.875 12.1875C10.3758 12.1875 9.025 11.5635 8.07203 10.5645Z" fill="#969696"/>
</svg>
