<svg width="17" height="15" viewBox="0 0 17 15" fill="none" xmlns="http://www.w3.org/2000/svg">
<path d="M7.55556 0H9.44444C9.96684 0 10.3889 0.418945 10.3889 0.9375V2.8125C10.3889 3.33105 9.96684 3.75 9.44444 3.75H7.55556C7.03316 3.75 6.61111 3.33105 6.61111 2.8125V0.9375C6.61111 0.418945 7.03316 0 7.55556 0ZM1.88889 1.875H5.66667V3.28125C5.66667 4.05762 6.30122 4.6875 7.08333 4.6875H9.91667C10.6988 4.6875 11.3333 4.05762 11.3333 3.28125V1.875H15.1111C16.153 1.875 17 2.71582 17 3.75V13.125C17 14.1592 16.153 15 15.1111 15H1.88889C0.847049 15 0 14.1592 0 13.125V3.75C0 2.71582 0.847049 1.875 1.88889 1.875ZM5.19444 12.8115C5.19444 12.9844 5.33611 13.125 5.51024 13.125H11.4898C11.6639 13.125 11.8056 12.9844 11.8056 12.8115C11.8056 11.9473 11.1002 11.25 10.2325 11.25H6.76753C5.89687 11.25 5.19444 11.9502 5.19444 12.8115ZM8.5 10.3125C9.00096 10.3125 9.48141 10.115 9.83565 9.76332C10.1899 9.41169 10.3889 8.93478 10.3889 8.4375C10.3889 7.94022 10.1899 7.46331 9.83565 7.11167C9.48141 6.76004 9.00096 6.5625 8.5 6.5625C7.99904 6.5625 7.51859 6.76004 7.16435 7.11167C6.81012 7.46331 6.61111 7.94022 6.61111 8.4375C6.61111 8.93478 6.81012 9.41169 7.16435 9.76332C7.51859 10.115 7.99904 10.3125 8.5 10.3125Z" fill="#969696"/>
</svg>
