<svg width="22" height="28" viewBox="0 0 22 28" fill="none" xmlns="http://www.w3.org/2000/svg">
<path d="M11.0605 24.3074C11.4693 24.3074 12.7812 23.767 14.6583 22.0457C17.6404 19.3238 21.122 14.5404 21.122 10.0372C21.122 7.37515 20.0556 4.82215 18.1573 2.93982C16.2591 1.05748 13.6845 0 11 0C8.31547 0 5.7409 1.05748 3.84265 2.93982C1.94441 4.82215 0.877982 7.37515 0.877982 10.0372C0.877982 17.1122 9.18853 24.1573 11.0605 24.3074ZM11 4.0579C11.9541 4.0579 12.8867 4.33844 13.68 4.86405C14.4733 5.38966 15.0916 6.13672 15.4567 7.01078C15.8218 7.88484 15.9173 8.84662 15.7312 9.77451C15.545 10.7024 15.0856 11.5547 14.411 12.2237C13.7364 12.8927 12.8768 13.3483 11.9411 13.5328C11.0054 13.7174 10.0354 13.6227 9.15399 13.2606C8.27255 12.8986 7.51917 12.2855 6.98911 11.4988C6.45906 10.7122 6.17615 9.78739 6.17615 8.84132C6.17748 7.57308 6.68614 6.35717 7.5905 5.46039C8.49485 4.56361 9.72104 4.05922 11 4.0579ZM22 25.248C22 26.1837 18.1197 28 11 28C3.88028 28 0 26.1837 0 25.248C0 24.6226 1.81651 23.4618 5.8633 22.8613C5.93361 22.8503 6.00173 22.8284 6.06514 22.7963C7.96239 24.5726 9.81927 25.7134 10.9395 25.7984H11.0807C12.5945 25.7984 14.7995 23.9521 15.6876 23.1415C15.7986 23.0415 15.9096 22.9314 16.0206 22.8213C16.0587 22.8336 16.0974 22.8436 16.1367 22.8513C20.1835 23.4618 22 24.6226 22 25.248Z" fill="#969696"/>
</svg>
