<svg width="16" height="15" viewBox="0 0 16 15" fill="none" xmlns="http://www.w3.org/2000/svg">
<path d="M12.1047 9.56141L10.7665 10.2195C10.6059 10.2984 10.4201 10.3293 10.2376 10.3074C10.055 10.2855 9.88562 10.2121 9.75534 10.0983L5.28896 6.19945C5.1587 6.08568 5.07463 5.93785 5.04956 5.7785C5.02448 5.61914 5.05979 5.457 5.15009 5.31679L5.90398 4.14865C6.03968 3.93841 6.09281 3.69517 6.05525 3.45609C6.0177 3.21701 5.89152 2.99524 5.69599 2.82465L3.69031 1.07384C3.57276 0.971174 3.43318 0.889731 3.27956 0.834166C3.12593 0.7786 2.96128 0.75 2.79499 0.75C2.6287 0.75 2.46404 0.7786 2.31042 0.834166C2.15679 0.889731 2.01722 0.971174 1.89966 1.07384L0.988982 1.86824C0.456443 2.3331 0.117226 2.94003 0.0252693 3.59253C-0.0666874 4.24502 0.093895 4.90563 0.481483 5.4693L0.938424 6.13409C3.27192 9.52896 6.56558 12.3435 10.5035 14.3077L10.5937 14.3529C11.9389 15.0239 13.6009 14.8284 14.678 13.8887L15.629 13.0586C15.7466 12.9559 15.8399 12.8341 15.9036 12.7C15.9672 12.5659 16 12.4222 16 12.277C16 12.1318 15.9672 11.9881 15.9036 11.854C15.8399 11.7199 15.7466 11.5981 15.629 11.4955L13.6221 9.74352C13.4267 9.57263 13.1725 9.46229 12.8985 9.42941C12.6245 9.39652 12.3457 9.44288 12.1047 9.56141Z" fill="#969696"/>
</svg>
