<svg width="19" height="16" viewBox="0 0 19 16" fill="none" xmlns="http://www.w3.org/2000/svg">
<path d="M2.1375 2.75C2.1375 2.28587 2.31266 1.84075 2.62443 1.51256C2.93621 1.18437 3.35908 1 3.8 1C4.24092 1 4.66379 1.18437 4.97556 1.51256C5.28734 1.84075 5.4625 2.28587 5.4625 2.75C5.4625 3.21413 5.28734 3.65925 4.97556 3.98744C4.66379 4.31563 4.24092 4.5 3.8 4.5C3.35908 4.5 2.93621 4.31563 2.62443 3.98744C2.31266 3.65925 2.1375 3.21413 2.1375 2.75ZM1.9 7.67812C1.60312 8.02812 1.425 8.49375 1.425 9C1.425 9.50625 1.60312 9.97187 1.9 10.3219V7.67812ZM6.18687 6.1375C5.30516 6.95937 4.75 8.1625 4.75 9.5C4.75 10.5719 5.10625 11.5562 5.7 12.3281V13C5.7 13.5531 5.27547 14 4.75 14H2.85C2.32453 14 1.9 13.5531 1.9 13V12.1625C0.777813 11.6 0 10.3969 0 9C0 7.06563 1.48734 5.5 3.325 5.5H4.275C4.9875 5.5 5.64656 5.73438 6.18687 6.13438V6.1375ZM13.3 13V12.3281C13.8938 11.5562 14.25 10.5719 14.25 9.5C14.25 8.1625 13.6948 6.95937 12.8131 6.13438C13.3534 5.73438 14.0125 5.5 14.725 5.5H15.675C17.5127 5.5 19 7.06563 19 9C19 10.3969 18.2222 11.6 17.1 12.1625V13C17.1 13.5531 16.6755 14 16.15 14H14.25C13.7245 14 13.3 13.5531 13.3 13ZM13.5375 2.75C13.5375 2.28587 13.7127 1.84075 14.0244 1.51256C14.3362 1.18437 14.7591 1 15.2 1C15.6409 1 16.0638 1.18437 16.3756 1.51256C16.6873 1.84075 16.8625 2.28587 16.8625 2.75C16.8625 3.21413 16.6873 3.65925 16.3756 3.98744C16.0638 4.31563 15.6409 4.5 15.2 4.5C14.7591 4.5 14.3362 4.31563 14.0244 3.98744C13.7127 3.65925 13.5375 3.21413 13.5375 2.75ZM17.1 7.67812V10.325C17.3969 9.97188 17.575 9.50938 17.575 9.00313C17.575 8.49688 17.3969 8.03125 17.1 7.68125V7.67812ZM9.5 1C10.0039 1 10.4872 1.21071 10.8435 1.58579C11.1998 1.96086 11.4 2.46957 11.4 3C11.4 3.53043 11.1998 4.03914 10.8435 4.41421C10.4872 4.78929 10.0039 5 9.5 5C8.99609 5 8.51282 4.78929 8.1565 4.41421C7.80018 4.03914 7.6 3.53043 7.6 3C7.6 2.46957 7.80018 1.96086 8.1565 1.58579C8.51282 1.21071 8.99609 1 9.5 1ZM7.125 9.5C7.125 10.0063 7.30312 10.4688 7.6 10.8219V8.17813C7.30312 8.53125 7.125 8.99375 7.125 9.5ZM11.4 8.17813V10.825C11.6969 10.4719 11.875 10.0094 11.875 9.50313C11.875 8.99688 11.6969 8.53125 11.4 8.18125V8.17813ZM13.3 9.5C13.3 10.8969 12.5222 12.1 11.4 12.6625V14C11.4 14.5531 10.9755 15 10.45 15H8.55C8.02453 15 7.6 14.5531 7.6 14V12.6625C6.47781 12.1 5.7 10.8969 5.7 9.5C5.7 7.56563 7.18734 6 9.025 6H9.975C11.8127 6 13.3 7.56563 13.3 9.5Z" fill="#969696"/>
</svg>
