<svg width="13" height="18" viewBox="0 0 13 18" fill="none" xmlns="http://www.w3.org/2000/svg">
<path d="M7.94444 5.6899L10.7033 2.52002C10.8194 2.38731 10.8793 2.21774 10.8713 2.04477C10.8632 1.87179 10.7879 1.70799 10.66 1.58566L9.21555 0.201435C9.14668 0.141991 9.06875 0.0929774 8.98444 0.0560905C8.88423 0.0148814 8.77559 -0.00404827 8.66666 0.000721405H4.33334C4.23653 0.000899787 4.14074 0.0197292 4.05167 0.0560905C3.96736 0.0929774 3.88943 0.141991 3.82056 0.201435L2.37612 1.58566C2.24825 1.70799 2.17287 1.87179 2.16485 2.04477C2.15683 2.21774 2.21675 2.38731 2.33279 2.52002L5.09167 5.6899C3.52846 6.02238 2.14831 6.89611 1.21585 8.14358C0.283384 9.39105 -0.135777 10.9245 0.0387313 12.4498C0.213239 13.9752 0.969135 15.3851 2.16149 16.4094C3.35385 17.4336 4.89875 18 6.5 18C8.10125 18 9.64615 17.4336 10.8385 16.4094C12.0309 15.3851 12.7868 13.9752 12.9613 12.4498C13.1358 10.9245 12.7166 9.39105 11.7842 8.14358C10.8517 6.89611 9.47154 6.02238 7.90833 5.6899H7.94444ZM6.5 16.6115C5.50011 16.6115 4.52267 16.3273 3.69129 15.795C2.85991 15.2626 2.21193 14.506 1.82929 13.6207C1.44664 12.7354 1.34653 11.7613 1.5416 10.8215C1.73667 9.8817 2.21816 9.01844 2.92519 8.34088C3.63222 7.66332 4.53303 7.2019 5.51371 7.01496C6.49439 6.82802 7.51089 6.92396 8.43467 7.29066C9.35845 7.65735 10.148 8.27832 10.7035 9.07504C11.259 9.87177 11.5555 10.8085 11.5555 11.7667C11.5555 13.0516 11.0229 14.2839 10.0748 15.1925C9.12671 16.101 7.84081 16.6115 6.5 16.6115Z" fill="#969696"/>
</svg>
