<svg width="14" height="13" viewBox="0 0 14 13" fill="none" xmlns="http://www.w3.org/2000/svg">
<g clip-path="url(#clip0_3223_1128)">
<path d="M9.4375 0H4.5625C3.48506 0 2.45175 0.428012 1.68988 1.18988C0.928012 1.95175 0.5 2.98506 0.5 4.0625L0.5 8.9375C0.5 10.0149 0.928012 11.0483 1.68988 11.8101C2.45175 12.572 3.48506 13 4.5625 13H9.4375C10.5149 13 11.5483 12.572 12.3101 11.8101C13.072 11.0483 13.5 10.0149 13.5 8.9375V4.0625C13.5 2.98506 13.072 1.95175 12.3101 1.18988C11.5483 0.428012 10.5149 0 9.4375 0ZM12.2812 8.9375C12.2812 10.5056 11.0056 11.7812 9.4375 11.7812H4.5625C2.99437 11.7812 1.71875 10.5056 1.71875 8.9375V4.0625C1.71875 2.49437 2.99437 1.21875 4.5625 1.21875H9.4375C11.0056 1.21875 12.2812 2.49437 12.2812 4.0625V8.9375Z" fill="white"/>
<path d="M7 3.25C6.13805 3.25 5.3114 3.59241 4.7019 4.2019C4.09241 4.8114 3.75 5.63805 3.75 6.5C3.75 7.36195 4.09241 8.1886 4.7019 8.7981C5.3114 9.40759 6.13805 9.75 7 9.75C7.86195 9.75 8.6886 9.40759 9.2981 8.7981C9.90759 8.1886 10.25 7.36195 10.25 6.5C10.25 5.63805 9.90759 4.8114 9.2981 4.2019C8.6886 3.59241 7.86195 3.25 7 3.25ZM7 8.53125C6.46148 8.5306 5.9452 8.31639 5.5644 7.9356C5.18361 7.5548 4.9694 7.03852 4.96875 6.5C4.96875 5.37956 5.88037 4.46875 7 4.46875C8.11963 4.46875 9.03125 5.37956 9.03125 6.5C9.03125 7.61963 8.11963 8.53125 7 8.53125Z" fill="white"/>
<path d="M10.9331 3.43937C11.1722 3.43937 11.3661 3.24548 11.3661 3.0063C11.3661 2.76713 11.1722 2.57324 10.9331 2.57324C10.6939 2.57324 10.5 2.76713 10.5 3.0063C10.5 3.24548 10.6939 3.43937 10.9331 3.43937Z" fill="white"/>
</g>
<defs>
<clipPath id="clip0_3223_1128">
<rect width="13" height="13" fill="white" transform="translate(0.5)"/>
</clipPath>
</defs>
</svg>
