<svg width="14" height="11" viewBox="0 0 14 11" fill="none" xmlns="http://www.w3.org/2000/svg">
<path d="M13.8095 2.72815C13.8095 2.72815 13.6827 1.77184 13.2931 1.35097C12.7987 0.799279 12.2446 0.796029 11.9907 0.764748C10.1715 0.623779 7.4423 0.623779 7.4423 0.623779H7.4362C7.4362 0.623779 4.70742 0.623779 2.88864 0.764748C2.63433 0.795623 2.08102 0.798873 1.5862 1.35097C1.19661 1.77184 1.06945 2.72815 1.06945 2.72815C1.06945 2.72815 0.939453 3.85022 0.939453 4.97228V6.02406C0.939453 7.14694 1.06945 8.26859 1.06945 8.26859C1.06945 8.26859 1.1962 9.2245 1.5858 9.64456C2.08061 10.1962 2.7298 10.1796 3.01905 10.2373C4.05905 10.3437 7.43945 10.3766 7.43945 10.3766C7.43945 10.3766 10.1711 10.3717 11.9907 10.2324C12.2446 10.1999 12.7987 10.1967 13.2931 9.64456C13.6823 9.2245 13.8095 8.26859 13.8095 8.26859C13.8095 8.26859 13.9395 7.14653 13.9395 6.02406V4.97228C13.9395 3.85022 13.8095 2.72815 13.8095 2.72815ZM5.81608 7.93831V3.06169L9.8798 5.5L5.81608 7.93831Z" fill="white"/>
</svg>
