<svg width="717" height="78" viewBox="0 0 717 78" fill="none" xmlns="http://www.w3.org/2000/svg">
<path d="M57.0893 -0.00043462H659.983C675.105 -0.00043462 689.607 6.97935 700.3 19.4035C710.993 31.8276 717 48.6783 717 66.2487V94.9995H0V66.2276C0.00237768 57.5223 1.48133 48.9029 4.35229 40.8621C7.22326 32.8213 11.4299 25.5168 16.7319 19.3662C22.0338 13.2155 28.3271 8.33926 35.2519 5.01621C42.1767 1.69316 49.5972 -0.011514 57.0893 -0.00043462Z" fill="url(#paint0_linear_2489_6345)"/>
<path d="M354.626 40.872C353.841 40.218 353.103 39.5085 352.419 38.749C352.165 38.4649 351.982 38.1236 351.887 37.7541C351.793 37.3846 351.788 36.9977 351.874 36.6261C351.978 36.1564 352.194 35.79 352.757 35.8088C353.321 35.8276 353.508 36.2221 353.593 36.6918C353.657 37.1542 353.622 37.625 353.49 38.0727C353.415 38.3357 353.49 38.4484 353.771 38.4672L355.208 38.6175C357.002 38.7866 357.002 38.7772 357.002 36.9548C357.002 34.9822 356.335 33.6671 354.88 33.0659C354.161 32.7521 353.382 32.5983 352.598 32.615C351.816 32.635 351.048 32.8207 350.343 33.1598C349.907 33.3541 349.516 33.6391 349.198 33.9959C348.879 34.3498 348.636 34.7654 348.484 35.217C348.076 36.2614 347.971 37.3997 348.18 38.5013C348.389 39.6028 348.905 40.6231 349.667 41.445C350.484 42.3843 351.546 43.117 352.344 44.0376C352.763 44.4358 353.07 44.9367 353.234 45.4905C353.399 46.0443 353.416 46.6315 353.283 47.1939C353.17 47.6541 352.945 47.9829 352.428 48.0017C352.205 48.005 351.987 47.9282 351.815 47.7853C351.643 47.6423 351.527 47.4426 351.489 47.222C351.339 46.643 351.339 46.0351 351.489 45.456C351.564 45.1367 351.489 45.0333 351.161 44.9958C350.278 44.9112 349.395 44.7985 348.512 44.6858C348.324 44.6858 348.183 44.6858 348.127 44.883C347.704 46.3578 347.714 48.5371 349.019 49.8616C349.646 50.4817 350.435 50.9128 351.295 51.1055C352.156 51.2982 353.053 51.2448 353.884 50.9513C354.673 50.7612 355.387 50.3394 355.934 49.7401C356.482 49.1408 356.837 48.3914 356.955 47.5884C357.223 46.3629 357.147 45.0872 356.736 43.9021C356.325 42.7169 355.595 41.6683 354.626 40.872Z" fill="#FCFCFD"/>
<path d="M295.073 29.2517C290.477 26.6027 285.885 23.9443 281.295 21.2766C281.072 21.1147 280.808 21.0199 280.532 21.0035C280.257 20.9871 279.983 21.0498 279.742 21.184C279.501 21.3183 279.304 21.5185 279.173 21.7613C279.042 22.004 278.984 22.2791 279.004 22.5541C279.004 23.1428 279.004 23.7346 279.004 24.3295C279.004 31.7316 279.004 39.1338 279.004 46.5359C278.989 46.8834 279.068 47.2285 279.234 47.5345C279.399 47.8405 279.644 48.0959 279.943 48.2738C283.637 50.7787 287.319 53.3181 290.988 55.892L295.561 59.0482C295.561 58.8415 295.561 58.757 295.561 58.6725C295.561 49.0847 295.561 39.4939 295.561 29.8999C295.566 29.7524 295.52 29.6077 295.431 29.4899C295.342 29.372 295.216 29.288 295.073 29.2517Z" fill="#FDFDFD"/>
<path d="M318.373 21.9905C317.867 21.9578 317.367 22.1194 316.976 22.4423C316.586 22.7652 316.333 23.2252 316.269 23.7283C316.25 23.8622 316.202 23.9904 316.128 24.104C316.045 24.2133 315.939 24.3031 315.818 24.367L303.121 31.7504C302.908 31.8492 302.721 31.9968 302.576 32.1812C302.431 32.3656 302.331 32.5817 302.285 32.8119C302.226 33.1217 302.089 33.4116 301.889 33.655C301.688 33.8983 301.429 34.0871 301.136 34.2041C300.844 34.3211 300.526 34.3624 300.213 34.3243C299.9 34.2862 299.601 34.1699 299.345 33.9861C299.081 33.7655 298.867 33.4919 298.715 33.183C298.564 32.8741 298.48 32.5368 298.467 32.193C298.455 31.8493 298.515 31.5068 298.643 31.1878C298.772 30.8687 298.966 30.5804 299.214 30.3414C299.457 30.1028 299.766 29.9436 300.102 29.8848C300.437 29.8261 300.783 29.8707 301.092 30.0126C301.231 30.0959 301.391 30.1352 301.552 30.1253C301.715 30.1091 301.87 30.0508 302.003 29.9562C303.881 28.829 305.816 27.73 307.723 26.6121C309.122 25.7949 310.54 24.9964 311.911 24.1698C312.314 23.9233 312.609 23.5343 312.738 23.0801C312.855 22.6262 312.791 22.1444 312.559 21.7368C312.451 21.5525 312.305 21.3935 312.13 21.2707C311.955 21.1478 311.755 21.064 311.545 21.0248C311.335 20.9856 311.119 20.992 310.912 21.0436C310.704 21.0951 310.51 21.1906 310.343 21.3235C305.854 24.0195 301.336 26.5745 296.847 29.1766C296.674 29.2603 296.53 29.3954 296.436 29.5634C296.342 29.7314 296.302 29.9243 296.321 30.1159C296.321 39.5095 296.321 48.9344 296.321 58.3907V59.0482C296.495 58.9569 296.665 58.8566 296.828 58.7476L312.043 48.2456C312.296 48.0853 312.503 47.8619 312.644 47.5974C312.784 47.3349 312.852 47.04 312.841 46.7426C312.841 45.8032 312.841 44.9202 312.841 44.0184C312.834 43.8807 312.867 43.7438 312.935 43.6239C313.007 43.5084 313.111 43.4168 313.235 43.3609C313.996 42.9382 314.748 42.4967 315.499 42.0552C315.655 41.9821 315.794 41.8774 315.907 41.7476C316.02 41.6179 316.105 41.466 316.156 41.3016C316.207 41.1373 316.224 40.964 316.204 40.793C316.185 40.6219 316.13 40.4567 316.044 40.308C315.715 39.7632 315.198 39.7256 314.447 40.1671L308.699 43.483C308.574 43.5676 308.43 43.6206 308.28 43.6376C308.13 43.6545 307.977 43.635 307.836 43.5806C307.695 43.5262 307.569 43.4385 307.47 43.325C307.37 43.2116 307.299 43.0756 307.262 42.9288C307.174 42.6604 307.189 42.3685 307.306 42.111C307.423 41.8535 307.632 41.6492 307.892 41.5385C309.282 40.7213 310.709 39.9228 312.09 39.1244C313.668 38.185 315.245 37.3302 316.786 36.4002C316.926 36.3163 317.047 36.2044 317.142 36.0715C317.239 35.9391 317.309 35.7891 317.349 35.63C317.377 35.4715 317.377 35.3093 317.349 35.1509C317.319 34.9904 317.259 34.8373 317.171 34.7C316.842 34.1834 316.325 34.0988 315.668 34.4746L305.647 40.2234C305.522 40.278 305.415 40.3657 305.337 40.4771C305.255 40.5869 305.203 40.7165 305.187 40.8528C305.149 41.206 305.017 41.5428 304.806 41.8284C304.595 42.114 304.311 42.3382 303.985 42.4779C303.702 42.5893 303.397 42.6325 303.095 42.6042C302.793 42.5759 302.501 42.4768 302.244 42.3149C301.987 42.153 301.772 41.9329 301.616 41.6724C301.46 41.4118 301.367 41.1182 301.346 40.8152C301.253 40.4033 301.278 39.9735 301.417 39.5749C301.557 39.1763 301.805 38.8249 302.135 38.5608C302.412 38.3086 302.766 38.156 303.14 38.1271C303.514 38.0982 303.887 38.1946 304.201 38.4011C304.417 38.5138 304.548 38.4011 304.708 38.3259L307.591 36.6539L312.155 33.9861C312.301 33.9122 312.43 33.8095 312.534 33.6841C312.639 33.5588 312.717 33.4135 312.764 33.257C312.81 33.1006 312.824 32.9363 312.805 32.7742C312.786 32.6121 312.735 32.4555 312.653 32.314C312.325 31.7598 311.846 31.6847 311.113 32.1074C309.601 32.9716 308.098 33.864 306.586 34.7282C306.458 34.8066 306.314 34.8533 306.164 34.8643C306.015 34.8753 305.865 34.8503 305.727 34.7914C305.589 34.7326 305.467 34.6415 305.371 34.5259C305.276 34.4103 305.209 34.2735 305.177 34.127C305.098 33.8562 305.121 33.5656 305.242 33.3108C305.363 33.056 305.575 32.855 305.835 32.7461L316.701 26.4055C316.814 26.3247 316.948 26.2789 317.086 26.2739C317.221 26.2672 317.355 26.2999 317.471 26.3679C317.707 26.4877 317.968 26.5489 318.232 26.5464C318.495 26.5423 318.752 26.4746 318.983 26.3491C319.39 26.1365 319.722 25.8051 319.935 25.3989C320.148 24.9927 320.232 24.5311 320.176 24.0758C320.175 23.5699 319.992 23.0812 319.661 22.6986C319.33 22.3159 318.873 22.0647 318.373 21.9905ZM318.157 25.2219C317.923 25.1656 317.715 25.0301 317.57 24.8384C317.424 24.6466 317.35 24.4104 317.358 24.1698C317.358 24.0591 317.381 23.9496 317.425 23.8479C317.468 23.7461 317.532 23.6543 317.612 23.578C317.774 23.4209 317.988 23.3275 318.213 23.315C318.44 23.3448 318.649 23.4568 318.8 23.6298C318.95 23.8028 319.032 24.025 319.03 24.2543C319.038 24.4973 318.951 24.7339 318.789 24.9143C318.626 25.0947 318.399 25.205 318.157 25.2219Z" fill="#FCFCFD"/>
<path d="M336.848 27.9463C336.838 27.8526 336.838 27.7582 336.848 27.6645C336.848 27.3733 336.744 27.2794 336.463 27.2794C335.251 27.2794 334.04 27.2794 332.837 27.2794C332.556 27.2794 332.443 27.3639 332.415 27.6551C332.321 28.5945 332.199 29.5338 332.086 30.5295L331.147 38.6456C331.147 38.7865 331.147 39.0495 330.969 39.0495C330.79 39.0495 330.818 38.7865 330.799 38.6362C330.668 37.6405 330.555 36.6542 330.443 35.6584C330.123 33.047 329.81 30.4325 329.503 27.8148C329.456 27.4015 329.306 27.2606 328.884 27.27C327.785 27.27 326.686 27.27 325.596 27.27C325.118 27.27 325.005 27.4109 325.014 27.8618C325.014 31.1495 325.014 34.4373 325.014 37.7156C325.014 41.8864 325.014 46.0603 325.014 50.2373C325.014 50.7258 325.089 50.9418 325.634 50.8949C326.322 50.8479 327.012 50.8479 327.7 50.8949C328.189 50.8949 328.311 50.7634 328.311 50.2749C328.311 45.7002 328.311 41.1161 328.311 36.5321C328.272 36.3203 328.294 36.1018 328.376 35.9027C328.592 36.006 328.536 36.1751 328.545 36.3066L329.982 49.7488C330.095 50.8855 330.076 50.8667 331.203 50.8949C331.664 50.8949 331.842 50.8009 331.889 50.3031C332.321 45.982 332.781 41.6704 333.241 37.3587C333.241 36.8608 333.363 36.4193 333.439 35.7806C333.536 35.9301 333.603 36.0978 333.636 36.2736C333.668 36.4494 333.665 36.6299 333.626 36.8045C333.626 41.3134 333.626 45.8223 333.626 50.3312C333.626 50.7446 333.711 50.923 334.171 50.8949C334.856 50.8479 335.543 50.8479 336.228 50.8949C336.735 50.8949 336.885 50.7821 336.885 50.2561C336.854 42.8164 336.841 35.3798 336.848 27.9463Z" fill="#FCFCFD"/>
<path d="M390.361 39.0496C390.107 38.9463 389.985 38.8241 390.361 38.6739C390.76 38.4847 391.096 38.185 391.329 37.8102C391.562 37.4355 391.682 37.0016 391.676 36.5603C391.85 34.4911 391.85 32.4109 391.676 30.3417C391.645 29.6818 391.4 29.0499 390.978 28.5415C390.556 28.0331 389.98 27.6759 389.337 27.5237C388.676 27.3285 387.989 27.2304 387.299 27.2325C385.684 27.2325 384.069 27.2325 382.453 27.2325C381.974 27.2325 381.88 27.3828 381.88 27.8336C381.88 29.7124 381.88 31.5911 381.88 33.4698V50.3219C381.88 50.5943 381.815 50.8761 382.265 50.8667C384.144 50.8667 386.022 50.8667 387.957 50.8667C388.433 50.8959 388.909 50.8288 389.358 50.6692C389.808 50.5096 390.22 50.261 390.571 49.9382C390.922 49.6154 391.204 49.2251 391.4 48.7906C391.596 48.3562 391.703 47.8866 391.713 47.4099C391.918 45.2228 391.918 43.0215 391.713 40.8344C391.702 40.433 391.566 40.0452 391.323 39.7251C391.081 39.4051 390.744 39.1689 390.361 39.0496ZM387.806 46.3108C387.818 46.5385 387.77 46.7652 387.668 46.9691C387.566 47.1729 387.414 47.3471 387.225 47.4746C387.036 47.6021 386.817 47.6787 386.59 47.697C386.363 47.7153 386.135 47.6746 385.928 47.579C385.693 47.4944 385.768 47.316 385.768 47.1657V40.8626C385.768 40.5526 385.853 40.4211 386.172 40.4492C386.492 40.4774 386.651 40.4492 386.895 40.4492C387.111 40.4387 387.322 40.512 387.485 40.6538C387.648 40.7957 387.75 40.995 387.769 41.2101C387.808 41.3737 387.833 41.5402 387.844 41.708C387.816 43.2673 387.844 44.8079 387.806 46.3484V46.3108ZM387.806 35.9779C387.829 36.2096 387.789 36.4431 387.691 36.6543C387.593 36.8654 387.44 37.0464 387.249 37.1787C387.057 37.3109 386.833 37.3895 386.601 37.4063C386.369 37.4231 386.137 37.3775 385.928 37.2742C385.646 37.1991 385.74 36.9924 385.731 36.8327V30.9899C385.731 30.6611 385.834 30.5578 386.144 30.586C386.454 30.6141 386.557 30.586 386.755 30.586C386.998 30.5675 387.239 30.6444 387.426 30.8004C387.614 30.9565 387.733 31.1794 387.76 31.422C387.833 31.8626 387.855 32.3102 387.825 32.7559C387.825 33.8455 387.825 34.9352 387.825 36.0343L387.806 35.9779Z" fill="#FCFCFD"/>
<path d="M421.758 44.5634C421.504 43.2389 420.903 41.9426 421.363 40.5335C421.463 40.1779 421.545 39.8174 421.607 39.4532C422.03 37.443 422.453 35.4234 422.903 33.4226C422.988 33.028 422.903 32.8965 422.5 32.9059C421.56 32.9059 420.565 32.9059 419.597 32.9059C419.288 32.9059 419.175 33.0092 419.137 33.3098C419.081 33.8735 418.987 34.4465 418.903 35.0101C418.677 36.6634 418.452 38.3166 418.208 39.9699C418.208 40.2047 418.208 40.5053 417.794 40.4771C417.381 40.449 417.531 40.1202 417.494 39.9041C417.484 39.7948 417.484 39.6847 417.494 39.5754C417.494 35.4985 417.494 31.428 417.494 27.3637C417.494 26.8846 417.419 26.678 416.874 26.7061C416.057 26.7531 415.239 26.7531 414.423 26.7061C413.906 26.7061 413.737 26.8001 413.746 27.3637C413.746 28.3031 413.746 29.2424 413.746 30.1818V50.3686C413.746 50.7819 413.831 50.9134 414.263 50.904C415.136 50.904 416.01 50.904 416.874 50.904C417.381 50.904 417.494 50.7631 417.484 50.2841C417.484 48.1141 417.484 45.9442 417.484 43.7743C417.484 43.5582 417.484 43.3704 417.785 43.3704C418.085 43.3704 418.161 43.4455 418.179 43.6992C418.188 43.8288 418.207 43.9575 418.236 44.0843C418.561 46.2072 418.874 48.3333 419.175 50.4625C419.222 50.7913 419.335 50.904 419.663 50.8946C420.602 50.8946 421.598 50.8946 422.556 50.8946C422.978 50.8946 423.054 50.7819 422.969 50.378C422.584 48.4429 422.161 46.5642 421.758 44.5634Z" fill="#FDFDFD"/>
<path d="M401.858 35.6957C401.695 35.0264 401.356 34.4126 400.878 33.9173C400.399 33.4221 399.797 33.0632 399.134 32.8776C398.072 32.5773 396.947 32.5773 395.884 32.8776C395.054 33.1395 394.327 33.6541 393.803 34.3496C393.279 35.0451 392.986 35.8868 392.964 36.7572C392.813 38.495 392.964 40.2422 392.907 41.5573V46.6674C392.907 46.8459 392.907 47.0338 392.907 47.2216C392.921 48.0773 393.211 48.9057 393.734 49.583C394.257 50.2603 394.985 50.75 395.809 50.9791C396.858 51.2415 397.954 51.2415 399.002 50.9791C399.635 50.8553 400.223 50.5631 400.704 50.1333C401.185 49.7035 401.541 49.152 401.735 48.5367C401.954 47.9346 402.066 47.2987 402.064 46.658C402.064 43.5268 402.064 40.3956 402.064 37.2644C402.075 36.7341 402.005 36.2052 401.858 35.6957ZM398.373 46.5641C398.373 46.8063 398.354 47.0481 398.317 47.2874C398.307 47.4744 398.228 47.651 398.094 47.7816C397.959 47.9123 397.781 47.9874 397.594 47.9919C397.397 48.0146 397.199 47.9625 397.039 47.8459C396.879 47.7293 396.768 47.5568 396.73 47.3625C396.664 47.1337 396.636 46.8959 396.645 46.658V37.0953C396.622 36.771 396.687 36.4466 396.833 36.156C396.908 36.0265 397.019 35.9218 397.152 35.855C397.286 35.7882 397.436 35.7622 397.584 35.7802C397.734 35.7795 397.88 35.8291 397.998 35.9211C398.123 36.0053 398.213 36.1322 398.251 36.2781C398.349 36.5811 398.391 36.8995 398.373 37.2175V46.5641Z" fill="#FCFCFD"/>
<path d="M412.471 37.0393C412.367 34.4561 410.836 32.8216 408.404 32.6619C406.469 32.5398 404.807 33.0377 403.868 34.907C403.463 35.7666 403.267 36.7096 403.295 37.6593V46.3484C403.271 46.6611 403.271 46.9751 403.295 47.2877C403.316 48.1839 403.643 49.0457 404.222 49.7296C404.802 50.4134 405.598 50.8778 406.479 51.0452C407.443 51.2612 408.444 51.2612 409.409 51.0452C410.089 50.9056 410.715 50.5753 411.214 50.0929C411.713 49.6105 412.064 48.9959 412.226 48.321C412.394 47.7092 412.473 47.0766 412.461 46.4423V42.0461C412.48 40.3834 412.536 38.7114 412.471 37.0393ZM408.714 46.5456C408.714 46.8234 408.686 47.1004 408.629 47.3723C408.61 47.5517 408.522 47.7168 408.384 47.8324C408.245 47.9481 408.067 48.0055 407.887 47.9923C407.711 48.0119 407.533 47.965 407.39 47.8607C407.243 47.76 407.136 47.6101 407.089 47.438C406.996 47.1568 406.958 46.8602 406.976 46.5644V37.2272C406.956 36.9076 407.004 36.5873 407.117 36.2878C407.178 36.1317 407.288 35.9996 407.43 35.9114C407.572 35.8233 407.74 35.784 407.906 35.7994C408.076 35.7913 408.242 35.8446 408.376 35.9497C408.506 36.0604 408.592 36.2134 408.62 36.3818C408.684 36.6685 408.716 36.9616 408.714 37.2554C408.758 40.3615 408.773 43.4645 408.761 46.5644L408.714 46.5456Z" fill="#FDFDFD"/>
<path d="M373.522 36.7668C373.372 34.4466 372.198 33.1033 370.216 32.737C367.398 32.2109 365.229 33.5166 364.675 36.1281C364.565 36.6373 364.512 37.1571 364.515 37.678C364.515 39.1058 364.515 40.4961 364.515 41.9615V46.5644C364.511 46.6394 364.511 46.7147 364.515 46.7898C364.628 49.1194 365.755 50.6036 367.737 51.0263C368.376 51.1545 369.031 51.1893 369.681 51.1296C370.438 51.1181 371.174 50.8778 371.793 50.4403C372.411 50.0027 372.883 49.3884 373.146 48.6779C373.547 47.2686 373.684 45.7972 373.55 44.3381C373.55 44.1032 373.39 44.0844 373.212 44.0657C372.273 43.9623 371.334 43.8684 370.394 43.7463C370.084 43.7463 369.962 43.7463 369.972 44.1032C369.972 44.8078 369.972 45.5123 369.972 46.2262C370.007 46.6497 369.965 47.076 369.85 47.4849C369.806 47.6281 369.717 47.7533 369.596 47.8419C369.479 47.9348 369.332 47.9816 369.183 47.9734C369.024 47.993 368.864 47.9635 368.723 47.8888C368.581 47.8161 368.468 47.6967 368.403 47.5507C368.27 47.2561 368.209 46.9342 368.225 46.6113C368.225 45.4653 368.225 44.3099 368.225 43.1639C368.225 42.7224 368.347 42.6003 368.779 42.6096C370.225 42.6096 371.681 42.6096 373.127 42.6096C373.362 42.6096 373.569 42.6096 373.569 42.2809C373.559 40.4397 373.644 38.5892 373.522 36.7668ZM369.906 39.8385C369.521 40.0922 368.967 39.9043 368.497 39.9231C368.291 39.9231 368.244 39.8104 368.244 39.6413C368.244 38.7019 368.244 37.678 368.3 36.7011C368.281 36.4943 368.341 36.288 368.468 36.124C368.596 35.96 368.781 35.8506 368.986 35.8181C369.087 35.7855 369.194 35.7757 369.3 35.7894C369.406 35.8031 369.507 35.84 369.597 35.8975C369.687 35.9549 369.762 36.0315 369.819 36.1217C369.876 36.2119 369.912 36.3135 369.925 36.4193C370.019 36.9871 370.051 37.5636 370.019 38.1383C370.019 38.4013 370.019 38.5704 370.019 38.7301C369.962 39.1152 370.178 39.6601 369.906 39.8385Z" fill="#FCFCFD"/>
<path d="M346.971 36.2315C346.642 33.8737 345.374 32.737 342.989 32.6337C342.057 32.5401 341.121 32.7551 340.323 33.2455C339.526 33.736 338.911 34.4748 338.574 35.3485C338.19 36.6548 338.167 38.0412 338.509 39.3595C338.509 39.6601 338.781 39.6038 338.978 39.585C339.833 39.491 340.678 39.3783 341.533 39.3032C341.871 39.3032 341.918 39.1529 341.843 38.8429C341.646 38.1247 341.579 37.3771 341.646 36.6354C341.711 36.0154 342.012 35.696 342.481 35.696C342.951 35.696 343.158 36.0154 343.251 36.6354C343.411 37.432 343.347 38.2572 343.067 39.0198C342.787 39.7823 342.301 40.4526 341.664 40.9564C340.96 41.5388 340.302 42.1588 339.654 42.8352C338.818 43.6775 338.24 44.741 337.987 45.9008C337.734 47.0606 337.817 48.2684 338.227 49.3825C338.432 49.9162 338.8 50.3715 339.279 50.6835C339.758 50.9956 340.323 51.1484 340.894 51.1203C341.419 51.1722 341.944 51.0337 342.375 50.7302C342.806 50.4267 343.114 49.9784 343.242 49.467C343.242 49.4201 343.308 49.3919 343.392 49.2979C343.544 49.6817 343.629 50.0882 343.646 50.5003C343.646 50.8291 343.824 50.8855 344.116 50.8855C344.895 50.8855 345.675 50.8855 346.454 50.8855C346.98 50.8855 347.055 50.7258 347.055 50.2561C347.055 45.9538 347.055 41.6516 347.055 37.3493C347.053 36.9752 347.025 36.6016 346.971 36.2315ZM343.214 47.3911C343.218 47.5081 343.198 47.6246 343.155 47.7336C343.112 47.8425 343.047 47.9414 342.964 48.0242C342.881 48.1069 342.782 48.1718 342.674 48.2148C342.565 48.2578 342.448 48.278 342.331 48.274C342.223 48.2717 342.117 48.2477 342.019 48.2037C341.921 48.1597 341.832 48.0964 341.759 48.0176C341.685 47.9388 341.628 47.8461 341.591 47.745C341.554 47.6438 341.537 47.5363 341.542 47.4286C341.357 45.434 341.957 43.4457 343.214 41.8864C343.261 43.7463 343.355 45.5593 343.233 47.3911H343.214Z" fill="#FCFCFD"/>
<path d="M363.651 47.4097C363.651 47.1279 363.538 47.0433 363.228 47.1091C362.655 47.2124 362.364 46.9682 362.289 46.3764C362.27 46.0792 362.27 45.7812 362.289 45.484V36.917C362.289 35.865 362.289 35.8462 363.35 35.8368C363.707 35.8368 363.801 35.7241 363.792 35.3859C363.792 34.7158 363.792 34.0489 363.792 33.3851C363.792 33.0281 363.707 32.8966 363.331 32.9154C362.608 32.9154 361.894 32.9154 361.171 32.9154L361.096 32.7933C361.525 32.4946 361.887 32.1098 362.158 31.6634C362.43 31.217 362.606 30.7188 362.674 30.2006C362.74 29.8343 362.674 29.6746 362.242 29.6934C361.237 29.6934 360.232 29.6934 359.227 29.6934C358.87 29.6934 358.767 29.7873 358.748 30.1443C358.786 31.1179 358.45 32.069 357.809 32.8027C357.769 32.8502 357.737 32.9042 357.715 32.9623C357.702 33.0242 357.702 33.0883 357.715 33.1502V35.4892C357.715 35.7241 357.79 35.8556 358.044 35.818C358.551 35.7335 358.598 36.0059 358.598 36.4286C358.598 39.9136 358.598 43.3986 358.598 46.8837C358.577 47.5709 358.657 48.2575 358.833 48.9221C358.929 49.4057 359.154 49.8543 359.485 50.2199C359.816 50.5855 360.24 50.8544 360.711 50.998C361.744 51.2897 362.849 51.1754 363.801 50.6787C363.939 50.6313 364.054 50.533 364.122 50.4038C364.19 50.2746 364.206 50.1243 364.167 49.9835C363.923 49.1287 363.773 48.2739 363.651 47.4097Z" fill="#FCFCFD"/>
<path d="M380.81 32.718C380.462 32.5395 380.059 32.8025 379.73 32.9998C379.474 33.1562 379.264 33.3763 379.119 33.6385L378.678 34.4558H378.565C378.565 34.1082 378.565 33.7513 378.565 33.4037C378.565 33.0561 378.509 32.9434 378.143 32.9528C377.172 32.9528 376.205 32.9528 375.241 32.9528C374.893 32.9528 374.809 33.0655 374.809 33.3943C374.809 39.0993 374.809 44.795 374.809 50.4812C374.809 50.8194 374.912 50.9415 375.25 50.9321C376.189 50.9321 377.072 50.9321 377.983 50.9321C378.509 50.9321 378.584 50.7631 378.584 50.3028C378.584 46.5453 378.584 42.7879 378.584 39.0305C378.584 37.659 379.148 37.0672 380.462 37.0954C380.838 37.0954 380.885 36.9733 380.885 36.6539C380.885 35.6582 380.885 34.653 380.885 33.6573C380.913 33.291 381.073 32.8495 380.81 32.718Z" fill="#FCFCFD"/>
<path d="M300.435 31.1398C300.198 31.1564 299.975 31.2627 299.813 31.4371C299.651 31.6115 299.561 31.841 299.562 32.0791C299.555 32.2064 299.575 32.3336 299.619 32.453C299.664 32.5725 299.732 32.6817 299.82 32.7739C299.907 32.8662 300.013 32.9396 300.13 32.9897C300.247 33.0398 300.374 33.0656 300.501 33.0655C300.757 33.0655 301.003 32.9635 301.185 32.7821C301.366 32.6006 301.468 32.3545 301.468 32.0979C301.468 31.8413 301.366 31.5952 301.185 31.4138C301.003 31.2323 300.757 31.1304 300.501 31.1304L300.435 31.1398Z" fill="#FCFCFD"/>
<path d="M302.418 40.402C302.417 40.6386 302.506 40.8668 302.666 41.041C302.826 41.2151 303.046 41.3224 303.282 41.3413C303.399 41.3354 303.513 41.3062 303.619 41.2556C303.724 41.205 303.818 41.1339 303.896 41.0465C303.974 40.9591 304.034 40.8571 304.072 40.7465C304.11 40.6358 304.125 40.5187 304.118 40.402C304.134 40.1631 304.059 39.927 303.907 39.742C303.755 39.5569 303.538 39.4368 303.301 39.4062C303.177 39.4134 303.056 39.4449 302.945 39.4989C302.834 39.5529 302.735 39.6283 302.653 39.7208C302.57 39.8133 302.508 39.9211 302.467 40.038C302.427 40.1549 302.41 40.2786 302.418 40.402Z" fill="#FCFCFD"/>
<path d="M65.148 41.5235H66.898V48.9995H65.148V41.5235ZM66.03 40.2915C65.7127 40.2915 65.4467 40.1935 65.232 39.9975C65.0173 39.7922 64.91 39.5402 64.91 39.2415C64.91 38.9428 65.0173 38.6955 65.232 38.4995C65.4467 38.2942 65.7127 38.1915 66.03 38.1915C66.3473 38.1915 66.6133 38.2895 66.828 38.4855C67.0427 38.6722 67.15 38.9102 67.15 39.1995C67.15 39.5075 67.0427 39.7688 66.828 39.9835C66.6227 40.1888 66.3567 40.2915 66.03 40.2915ZM73.4369 41.4395C74.3795 41.4395 75.1355 41.7148 75.7049 42.2655C76.2742 42.8162 76.5589 43.6328 76.5589 44.7155V48.9995H74.8089V44.9395C74.8089 44.2862 74.6549 43.7962 74.3469 43.4695C74.0389 43.1335 73.6002 42.9655 73.0309 42.9655C72.3869 42.9655 71.8782 43.1615 71.5049 43.5535C71.1315 43.9362 70.9449 44.4915 70.9449 45.2195V48.9995H69.1949V41.5235H70.8609V42.4895C71.1502 42.1442 71.5142 41.8828 71.9529 41.7055C72.3915 41.5282 72.8862 41.4395 73.4369 41.4395ZM81.8169 39.9275C81.0795 39.9275 80.7109 40.3288 80.7109 41.1315V41.5795H82.7689V42.9795H80.7669V48.9995H79.0169V42.9795H77.7849V41.5795H79.0169V41.1035C79.0169 40.3008 79.2502 39.6708 79.7169 39.2135C80.1835 38.7468 80.8415 38.5135 81.6909 38.5135C82.3629 38.5135 82.8902 38.6488 83.2729 38.9195L82.7829 40.2355C82.4842 40.0302 82.1622 39.9275 81.8169 39.9275ZM87.1975 49.0975C86.4415 49.0975 85.7601 48.9342 85.1535 48.6075C84.5468 48.2808 84.0708 47.8282 83.7255 47.2495C83.3895 46.6615 83.2215 45.9988 83.2215 45.2615C83.2215 44.5242 83.3895 43.8662 83.7255 43.2875C84.0708 42.7088 84.5468 42.2562 85.1535 41.9295C85.7601 41.6028 86.4415 41.4395 87.1975 41.4395C87.9628 41.4395 88.6488 41.6028 89.2555 41.9295C89.8621 42.2562 90.3335 42.7088 90.6695 43.2875C91.0148 43.8662 91.1875 44.5242 91.1875 45.2615C91.1875 45.9988 91.0148 46.6615 90.6695 47.2495C90.3335 47.8282 89.8621 48.2808 89.2555 48.6075C88.6488 48.9342 87.9628 49.0975 87.1975 49.0975ZM87.1975 47.5995C87.8415 47.5995 88.3735 47.3848 88.7935 46.9555C89.2135 46.5262 89.4235 45.9615 89.4235 45.2615C89.4235 44.5615 89.2135 43.9968 88.7935 43.5675C88.3735 43.1382 87.8415 42.9235 87.1975 42.9235C86.5535 42.9235 86.0215 43.1382 85.6015 43.5675C85.1908 43.9968 84.9855 44.5615 84.9855 45.2615C84.9855 45.9615 85.1908 46.5262 85.6015 46.9555C86.0215 47.3848 86.5535 47.5995 87.1975 47.5995ZM99.0209 39.0735C100.29 39.0735 101.424 39.3348 102.423 39.8575C103.422 40.3802 104.196 41.1082 104.747 42.0415C105.307 42.9748 105.587 44.0295 105.587 45.2055C105.587 46.4188 105.349 47.3708 104.873 48.0615C104.397 48.7428 103.739 49.0835 102.899 49.0835C102.451 49.0835 102.073 48.9808 101.765 48.7755C101.457 48.5608 101.242 48.2575 101.121 47.8655C100.561 48.6775 99.7209 49.0835 98.6009 49.0835C97.9662 49.0835 97.3922 48.9342 96.8789 48.6355C96.3656 48.3275 95.9642 47.9028 95.6749 47.3615C95.3856 46.8202 95.2409 46.2042 95.2409 45.5135C95.2409 44.8322 95.3856 44.2255 95.6749 43.6935C95.9642 43.1522 96.3656 42.7322 96.8789 42.4335C97.3922 42.1255 97.9662 41.9715 98.6009 41.9715C99.0956 41.9715 99.5389 42.0555 99.9309 42.2235C100.332 42.3915 100.668 42.6388 100.939 42.9655V42.0555H102.493V46.8155C102.493 47.1515 102.558 47.3942 102.689 47.5435C102.829 47.6928 103.006 47.7675 103.221 47.7675C103.604 47.7675 103.893 47.5528 104.089 47.1235C104.294 46.6848 104.397 46.0548 104.397 45.2335C104.397 44.2442 104.168 43.3715 103.711 42.6155C103.263 41.8595 102.633 41.2715 101.821 40.8515C101.009 40.4315 100.076 40.2215 99.0209 40.2215C97.9569 40.2215 97.0142 40.4455 96.1929 40.8935C95.3716 41.3322 94.7369 41.9482 94.2889 42.7415C93.8409 43.5348 93.6169 44.4355 93.6169 45.4435C93.6169 46.4702 93.8362 47.3802 94.2749 48.1735C94.7229 48.9668 95.3529 49.5828 96.1649 50.0215C96.9769 50.4695 97.9102 50.6935 98.9649 50.6935C99.4222 50.6935 99.8842 50.6422 100.351 50.5395C100.827 50.4368 101.27 50.2828 101.681 50.0775L102.059 51.1975C101.648 51.4122 101.163 51.5755 100.603 51.6875C100.052 51.7995 99.5062 51.8555 98.9649 51.8555C97.6582 51.8555 96.5009 51.5802 95.4929 51.0295C94.4942 50.4788 93.7149 49.7182 93.1549 48.7475C92.6042 47.7768 92.3289 46.6755 92.3289 45.4435C92.3289 44.2302 92.6089 43.1428 93.1689 42.1815C93.7289 41.2108 94.5129 40.4502 95.5209 39.8995C96.5382 39.3488 97.7049 39.0735 99.0209 39.0735ZM98.8949 47.7255C99.5016 47.7255 99.9962 47.5295 100.379 47.1375C100.771 46.7362 100.967 46.1948 100.967 45.5135C100.967 44.8415 100.771 44.3095 100.379 43.9175C99.9962 43.5255 99.5016 43.3295 98.8949 43.3295C98.2789 43.3295 97.7796 43.5302 97.3969 43.9315C97.0142 44.3235 96.8229 44.8508 96.8229 45.5135C96.8229 46.1855 97.0142 46.7222 97.3969 47.1235C97.7796 47.5248 98.2789 47.7255 98.8949 47.7255ZM116.775 41.4395C117.718 41.4395 118.465 41.7148 119.015 42.2655C119.566 42.8068 119.841 43.6235 119.841 44.7155V48.9995H118.091V44.9395C118.091 44.2862 117.947 43.7962 117.657 43.4695C117.368 43.1335 116.953 42.9655 116.411 42.9655C115.823 42.9655 115.352 43.1615 114.997 43.5535C114.643 43.9362 114.465 44.4868 114.465 45.2055V48.9995H112.715V44.9395C112.715 44.2862 112.571 43.7962 112.281 43.4695C111.992 43.1335 111.577 42.9655 111.035 42.9655C110.438 42.9655 109.962 43.1568 109.607 43.5395C109.262 43.9222 109.089 44.4775 109.089 45.2055V48.9995H107.339V41.5235H109.005V42.4755C109.285 42.1395 109.635 41.8828 110.055 41.7055C110.475 41.5282 110.942 41.4395 111.455 41.4395C112.015 41.4395 112.51 41.5468 112.939 41.7615C113.378 41.9668 113.723 42.2748 113.975 42.6855C114.283 42.2935 114.68 41.9902 115.165 41.7755C115.651 41.5515 116.187 41.4395 116.775 41.4395ZM128.941 41.5235L125.441 49.6015C125.114 50.4135 124.718 50.9828 124.251 51.3095C123.784 51.6455 123.22 51.8135 122.557 51.8135C122.184 51.8135 121.815 51.7528 121.451 51.6315C121.087 51.5102 120.788 51.3422 120.555 51.1275L121.255 49.8395C121.423 49.9982 121.619 50.1242 121.843 50.2175C122.076 50.3108 122.31 50.3575 122.543 50.3575C122.851 50.3575 123.103 50.2782 123.299 50.1195C123.504 49.9608 123.691 49.6948 123.859 49.3215L123.985 49.0275L120.723 41.5235H122.543L124.895 47.0535L127.261 41.5235H128.941ZM139.471 41.4395C140.413 41.4395 141.16 41.7148 141.711 42.2655C142.261 42.8068 142.537 43.6235 142.537 44.7155V48.9995H140.787V44.9395C140.787 44.2862 140.642 43.7962 140.353 43.4695C140.063 43.1335 139.648 42.9655 139.107 42.9655C138.519 42.9655 138.047 43.1615 137.693 43.5535C137.338 43.9362 137.161 44.4868 137.161 45.2055V48.9995H135.411V44.9395C135.411 44.2862 135.266 43.7962 134.977 43.4695C134.687 43.1335 134.272 42.9655 133.731 42.9655C133.133 42.9655 132.657 43.1568 132.303 43.5395C131.957 43.9222 131.785 44.4775 131.785 45.2055V48.9995H130.035V41.5235H131.701V42.4755C131.981 42.1395 132.331 41.8828 132.751 41.7055C133.171 41.5282 133.637 41.4395 134.151 41.4395C134.711 41.4395 135.205 41.5468 135.635 41.7615C136.073 41.9668 136.419 42.2748 136.671 42.6855C136.979 42.2935 137.375 41.9902 137.861 41.7755C138.346 41.5515 138.883 41.4395 139.471 41.4395ZM147.629 41.4395C148.73 41.4395 149.57 41.7055 150.149 42.2375C150.737 42.7602 151.031 43.5535 151.031 44.6175V48.9995H149.379V48.0895C149.164 48.4162 148.856 48.6682 148.455 48.8455C148.063 49.0135 147.587 49.0975 147.027 49.0975C146.467 49.0975 145.977 49.0042 145.557 48.8175C145.137 48.6215 144.81 48.3555 144.577 48.0195C144.353 47.6742 144.241 47.2868 144.241 46.8575C144.241 46.1855 144.488 45.6488 144.983 45.2475C145.487 44.8368 146.276 44.6315 147.349 44.6315H149.281V44.5195C149.281 43.9968 149.122 43.5955 148.805 43.3155C148.497 43.0355 148.035 42.8955 147.419 42.8955C146.999 42.8955 146.584 42.9608 146.173 43.0915C145.772 43.2222 145.431 43.4042 145.151 43.6375L144.465 42.3635C144.857 42.0648 145.328 41.8362 145.879 41.6775C146.43 41.5188 147.013 41.4395 147.629 41.4395ZM147.391 47.8235C147.83 47.8235 148.217 47.7255 148.553 47.5295C148.898 47.3242 149.141 47.0348 149.281 46.6615V45.7935H147.475C146.467 45.7935 145.963 46.1248 145.963 46.7875C145.963 47.1048 146.089 47.3568 146.341 47.5435C146.593 47.7302 146.943 47.8235 147.391 47.8235ZM155.587 49.0975C154.98 49.0975 154.388 49.0182 153.809 48.8595C153.23 48.7008 152.768 48.5002 152.423 48.2575L153.095 46.9275C153.431 47.1515 153.832 47.3335 154.299 47.4735C154.775 47.6042 155.242 47.6695 155.699 47.6695C156.744 47.6695 157.267 47.3942 157.267 46.8435C157.267 46.5822 157.132 46.4002 156.861 46.2975C156.6 46.1948 156.175 46.0968 155.587 46.0035C154.971 45.9102 154.467 45.8028 154.075 45.6815C153.692 45.5602 153.356 45.3502 153.067 45.0515C152.787 44.7435 152.647 44.3188 152.647 43.7775C152.647 43.0682 152.941 42.5035 153.529 42.0835C154.126 41.6542 154.929 41.4395 155.937 41.4395C156.45 41.4395 156.964 41.5002 157.477 41.6215C157.99 41.7335 158.41 41.8875 158.737 42.0835L158.065 43.4135C157.43 43.0402 156.716 42.8535 155.923 42.8535C155.41 42.8535 155.018 42.9328 154.747 43.0915C154.486 43.2408 154.355 43.4415 154.355 43.6935C154.355 43.9735 154.495 44.1742 154.775 44.2955C155.064 44.4075 155.508 44.5148 156.105 44.6175C156.702 44.7108 157.192 44.8182 157.575 44.9395C157.958 45.0608 158.284 45.2662 158.555 45.5555C158.835 45.8448 158.975 46.2555 158.975 46.7875C158.975 47.4875 158.672 48.0475 158.065 48.4675C157.458 48.8875 156.632 49.0975 155.587 49.0975ZM164.976 48.5935C164.771 48.7615 164.519 48.8875 164.22 48.9715C163.931 49.0555 163.623 49.0975 163.296 49.0975C162.475 49.0975 161.84 48.8828 161.392 48.4535C160.944 48.0242 160.72 47.3988 160.72 46.5775V42.9795H159.488V41.5795H160.72V39.8715H162.47V41.5795H164.472V42.9795H162.47V46.5355C162.47 46.8995 162.559 47.1795 162.736 47.3755C162.913 47.5622 163.17 47.6555 163.506 47.6555C163.898 47.6555 164.225 47.5528 164.486 47.3475L164.976 48.5935ZM173.197 45.3035C173.197 45.4248 173.188 45.5975 173.169 45.8215H167.303C167.406 46.3722 167.672 46.8108 168.101 47.1375C168.54 47.4548 169.081 47.6135 169.725 47.6135C170.547 47.6135 171.223 47.3428 171.755 46.8015L172.693 47.8795C172.357 48.2808 171.933 48.5842 171.419 48.7895C170.906 48.9948 170.327 49.0975 169.683 49.0975C168.862 49.0975 168.139 48.9342 167.513 48.6075C166.888 48.2808 166.403 47.8282 166.057 47.2495C165.721 46.6615 165.553 45.9988 165.553 45.2615C165.553 44.5335 165.717 43.8802 166.043 43.3015C166.379 42.7135 166.841 42.2562 167.429 41.9295C168.017 41.6028 168.68 41.4395 169.417 41.4395C170.145 41.4395 170.794 41.6028 171.363 41.9295C171.942 42.2468 172.39 42.6995 172.707 43.2875C173.034 43.8662 173.197 44.5382 173.197 45.3035ZM169.417 42.8395C168.857 42.8395 168.381 43.0075 167.989 43.3435C167.607 43.6702 167.373 44.1088 167.289 44.6595H171.531C171.457 44.1182 171.228 43.6795 170.845 43.3435C170.463 43.0075 169.987 42.8395 169.417 42.8395ZM176.544 42.6155C177.048 41.8315 177.935 41.4395 179.204 41.4395V43.1055C179.055 43.0775 178.92 43.0635 178.798 43.0635C178.117 43.0635 177.585 43.2642 177.202 43.6655C176.82 44.0575 176.628 44.6268 176.628 45.3735V48.9995H174.878V41.5235H176.544V42.6155ZM184.833 41.4395C185.561 41.4395 186.21 41.5982 186.779 41.9155C187.358 42.2328 187.81 42.6808 188.137 43.2595C188.464 43.8382 188.627 44.5055 188.627 45.2615C188.627 46.0175 188.464 46.6895 188.137 47.2775C187.81 47.8562 187.358 48.3042 186.779 48.6215C186.21 48.9388 185.561 49.0975 184.833 49.0975C184.32 49.0975 183.848 49.0088 183.419 48.8315C182.999 48.6542 182.644 48.3882 182.355 48.0335V48.9995H180.689V38.6115H182.439V42.4335C182.738 42.1068 183.088 41.8595 183.489 41.6915C183.9 41.5235 184.348 41.4395 184.833 41.4395ZM184.637 47.5995C185.281 47.5995 185.808 47.3848 186.219 46.9555C186.639 46.5262 186.849 45.9615 186.849 45.2615C186.849 44.5615 186.639 43.9968 186.219 43.5675C185.808 43.1382 185.281 42.9235 184.637 42.9235C184.217 42.9235 183.839 43.0215 183.503 43.2175C183.167 43.4042 182.901 43.6748 182.705 44.0295C182.509 44.3842 182.411 44.7948 182.411 45.2615C182.411 45.7282 182.509 46.1388 182.705 46.4935C182.901 46.8482 183.167 47.1235 183.503 47.3195C183.839 47.5062 184.217 47.5995 184.637 47.5995ZM193.647 49.0975C192.891 49.0975 192.209 48.9342 191.603 48.6075C190.996 48.2808 190.52 47.8282 190.175 47.2495C189.839 46.6615 189.671 45.9988 189.671 45.2615C189.671 44.5242 189.839 43.8662 190.175 43.2875C190.52 42.7088 190.996 42.2562 191.603 41.9295C192.209 41.6028 192.891 41.4395 193.647 41.4395C194.412 41.4395 195.098 41.6028 195.705 41.9295C196.311 42.2562 196.783 42.7088 197.119 43.2875C197.464 43.8662 197.637 44.5242 197.637 45.2615C197.637 45.9988 197.464 46.6615 197.119 47.2495C196.783 47.8282 196.311 48.2808 195.705 48.6075C195.098 48.9342 194.412 49.0975 193.647 49.0975ZM193.647 47.5995C194.291 47.5995 194.823 47.3848 195.243 46.9555C195.663 46.5262 195.873 45.9615 195.873 45.2615C195.873 44.5615 195.663 43.9968 195.243 43.5675C194.823 43.1382 194.291 42.9235 193.647 42.9235C193.003 42.9235 192.471 43.1382 192.051 43.5675C191.64 43.9968 191.435 44.5615 191.435 45.2615C191.435 45.9615 191.64 46.5262 192.051 46.9555C192.471 47.3848 193.003 47.5995 193.647 47.5995ZM202.67 49.0975C201.914 49.0975 201.233 48.9342 200.626 48.6075C200.019 48.2808 199.543 47.8282 199.198 47.2495C198.862 46.6615 198.694 45.9988 198.694 45.2615C198.694 44.5242 198.862 43.8662 199.198 43.2875C199.543 42.7088 200.019 42.2562 200.626 41.9295C201.233 41.6028 201.914 41.4395 202.67 41.4395C203.435 41.4395 204.121 41.6028 204.728 41.9295C205.335 42.2562 205.806 42.7088 206.142 43.2875C206.487 43.8662 206.66 44.5242 206.66 45.2615C206.66 45.9988 206.487 46.6615 206.142 47.2495C205.806 47.8282 205.335 48.2808 204.728 48.6075C204.121 48.9342 203.435 49.0975 202.67 49.0975ZM202.67 47.5995C203.314 47.5995 203.846 47.3848 204.266 46.9555C204.686 46.5262 204.896 45.9615 204.896 45.2615C204.896 44.5615 204.686 43.9968 204.266 43.5675C203.846 43.1382 203.314 42.9235 202.67 42.9235C202.026 42.9235 201.494 43.1382 201.074 43.5675C200.663 43.9968 200.458 44.5615 200.458 45.2615C200.458 45.9615 200.663 46.5262 201.074 46.9555C201.494 47.3848 202.026 47.5995 202.67 47.5995ZM211.386 45.7935L210.084 47.0255V48.9995H208.334V38.6115H210.084V44.8835L213.71 41.5235H215.81L212.688 44.6595L216.104 48.9995H213.976L211.386 45.7935ZM217.931 49.0975C217.613 49.0975 217.343 48.9902 217.119 48.7755C216.895 48.5515 216.783 48.2715 216.783 47.9355C216.783 47.5902 216.89 47.3102 217.105 47.0955C217.329 46.8808 217.604 46.7735 217.931 46.7735C218.257 46.7735 218.528 46.8808 218.743 47.0955C218.967 47.3102 219.079 47.5902 219.079 47.9355C219.079 48.2715 218.967 48.5515 218.743 48.7755C218.519 48.9902 218.248 49.0975 217.931 49.0975ZM224.082 49.0975C223.307 49.0975 222.612 48.9342 221.996 48.6075C221.38 48.2808 220.899 47.8282 220.554 47.2495C220.209 46.6615 220.036 45.9988 220.036 45.2615C220.036 44.5242 220.209 43.8662 220.554 43.2875C220.899 42.7088 221.375 42.2562 221.982 41.9295C222.598 41.6028 223.298 41.4395 224.082 41.4395C224.819 41.4395 225.463 41.5888 226.014 41.8875C226.574 42.1862 226.994 42.6155 227.274 43.1755L225.93 43.9595C225.715 43.6142 225.445 43.3575 225.118 43.1895C224.801 43.0122 224.451 42.9235 224.068 42.9235C223.415 42.9235 222.873 43.1382 222.444 43.5675C222.015 43.9875 221.8 44.5522 221.8 45.2615C221.8 45.9708 222.01 46.5402 222.43 46.9695C222.859 47.3895 223.405 47.5995 224.068 47.5995C224.451 47.5995 224.801 47.5155 225.118 47.3475C225.445 47.1702 225.715 46.9088 225.93 46.5635L227.274 47.3475C226.985 47.9075 226.56 48.3415 226 48.6495C225.449 48.9482 224.81 49.0975 224.082 49.0975ZM232.037 49.0975C231.281 49.0975 230.6 48.9342 229.993 48.6075C229.387 48.2808 228.911 47.8282 228.565 47.2495C228.229 46.6615 228.061 45.9988 228.061 45.2615C228.061 44.5242 228.229 43.8662 228.565 43.2875C228.911 42.7088 229.387 42.2562 229.993 41.9295C230.6 41.6028 231.281 41.4395 232.037 41.4395C232.803 41.4395 233.489 41.6028 234.095 41.9295C234.702 42.2562 235.173 42.7088 235.509 43.2875C235.855 43.8662 236.027 44.5242 236.027 45.2615C236.027 45.9988 235.855 46.6615 235.509 47.2495C235.173 47.8282 234.702 48.2808 234.095 48.6075C233.489 48.9342 232.803 49.0975 232.037 49.0975ZM232.037 47.5995C232.681 47.5995 233.213 47.3848 233.633 46.9555C234.053 46.5262 234.263 45.9615 234.263 45.2615C234.263 44.5615 234.053 43.9968 233.633 43.5675C233.213 43.1382 232.681 42.9235 232.037 42.9235C231.393 42.9235 230.861 43.1382 230.441 43.5675C230.031 43.9968 229.825 44.5615 229.825 45.2615C229.825 45.9615 230.031 46.5262 230.441 46.9555C230.861 47.3848 231.393 47.5995 232.037 47.5995ZM247.137 41.4395C248.079 41.4395 248.826 41.7148 249.377 42.2655C249.927 42.8068 250.203 43.6235 250.203 44.7155V48.9995H248.453V44.9395C248.453 44.2862 248.308 43.7962 248.019 43.4695C247.729 43.1335 247.314 42.9655 246.773 42.9655C246.185 42.9655 245.713 43.1615 245.359 43.5535C245.004 43.9362 244.827 44.4868 244.827 45.2055V48.9995H243.077V44.9395C243.077 44.2862 242.932 43.7962 242.643 43.4695C242.353 43.1335 241.938 42.9655 241.397 42.9655C240.799 42.9655 240.323 43.1568 239.969 43.5395C239.623 43.9222 239.451 44.4775 239.451 45.2055V48.9995H237.701V41.5235H239.367V42.4755C239.647 42.1395 239.997 41.8828 240.417 41.7055C240.837 41.5282 241.303 41.4395 241.817 41.4395C242.377 41.4395 242.871 41.5468 243.301 41.7615C243.739 41.9668 244.085 42.2748 244.337 42.6855C244.645 42.2935 245.041 41.9902 245.527 41.7755C246.012 41.5515 246.549 41.4395 247.137 41.4395Z" fill="white"/>
<path d="M481.39 41.4395C482.333 41.4395 483.089 41.7148 483.658 42.2655C484.227 42.8162 484.512 43.6328 484.512 44.7155V48.9995H482.762V44.9395C482.762 44.2862 482.608 43.7962 482.3 43.4695C481.992 43.1335 481.553 42.9655 480.984 42.9655C480.34 42.9655 479.831 43.1615 479.458 43.5535C479.085 43.9362 478.898 44.4915 478.898 45.2195V48.9995H477.148V38.6115H478.898V42.3915C479.187 42.0835 479.542 41.8502 479.962 41.6915C480.391 41.5235 480.867 41.4395 481.39 41.4395ZM491.226 48.5935C491.021 48.7615 490.769 48.8875 490.47 48.9715C490.181 49.0555 489.873 49.0975 489.546 49.0975C488.725 49.0975 488.09 48.8828 487.642 48.4535C487.194 48.0242 486.97 47.3988 486.97 46.5775V42.9795H485.738V41.5795H486.97V39.8715H488.72V41.5795H490.722V42.9795H488.72V46.5355C488.72 46.8995 488.809 47.1795 488.986 47.3755C489.163 47.5622 489.42 47.6555 489.756 47.6555C490.148 47.6555 490.475 47.5528 490.736 47.3475L491.226 48.5935ZM496.982 48.5935C496.777 48.7615 496.525 48.8875 496.226 48.9715C495.937 49.0555 495.629 49.0975 495.302 49.0975C494.481 49.0975 493.846 48.8828 493.398 48.4535C492.95 48.0242 492.726 47.3988 492.726 46.5775V42.9795H491.494V41.5795H492.726V39.8715H494.476V41.5795H496.478V42.9795H494.476V46.5355C494.476 46.8995 494.565 47.1795 494.742 47.3755C494.919 47.5622 495.176 47.6555 495.512 47.6555C495.904 47.6555 496.231 47.5528 496.492 47.3475L496.982 48.5935ZM502.565 41.4395C503.293 41.4395 503.942 41.5982 504.511 41.9155C505.09 42.2328 505.543 42.6808 505.869 43.2595C506.196 43.8382 506.359 44.5055 506.359 45.2615C506.359 46.0175 506.196 46.6895 505.869 47.2775C505.543 47.8562 505.09 48.3042 504.511 48.6215C503.942 48.9388 503.293 49.0975 502.565 49.0975C501.557 49.0975 500.759 48.7615 500.171 48.0895V51.7155H498.421V41.5235H500.087V42.5035C500.377 42.1488 500.731 41.8828 501.151 41.7055C501.581 41.5282 502.052 41.4395 502.565 41.4395ZM502.369 47.5995C503.013 47.5995 503.541 47.3848 503.951 46.9555C504.371 46.5262 504.581 45.9615 504.581 45.2615C504.581 44.5615 504.371 43.9968 503.951 43.5675C503.541 43.1382 503.013 42.9235 502.369 42.9235C501.949 42.9235 501.571 43.0215 501.235 43.2175C500.899 43.4042 500.633 43.6748 500.437 44.0295C500.241 44.3842 500.143 44.7948 500.143 45.2615C500.143 45.7282 500.241 46.1388 500.437 46.4935C500.633 46.8482 500.899 47.1235 501.235 47.3195C501.571 47.5062 501.949 47.5995 502.369 47.5995ZM510.329 49.0975C509.722 49.0975 509.13 49.0182 508.551 48.8595C507.972 48.7008 507.51 48.5002 507.165 48.2575L507.837 46.9275C508.173 47.1515 508.574 47.3335 509.041 47.4735C509.517 47.6042 509.984 47.6695 510.441 47.6695C511.486 47.6695 512.009 47.3942 512.009 46.8435C512.009 46.5822 511.874 46.4002 511.603 46.2975C511.342 46.1948 510.917 46.0968 510.329 46.0035C509.713 45.9102 509.209 45.8028 508.817 45.6815C508.434 45.5602 508.098 45.3502 507.809 45.0515C507.529 44.7435 507.389 44.3188 507.389 43.7775C507.389 43.0682 507.683 42.5035 508.271 42.0835C508.868 41.6542 509.671 41.4395 510.679 41.4395C511.192 41.4395 511.706 41.5002 512.219 41.6215C512.732 41.7335 513.152 41.8875 513.479 42.0835L512.807 43.4135C512.172 43.0402 511.458 42.8535 510.665 42.8535C510.152 42.8535 509.76 42.9328 509.489 43.0915C509.228 43.2408 509.097 43.4415 509.097 43.6935C509.097 43.9735 509.237 44.1742 509.517 44.2955C509.806 44.4075 510.25 44.5148 510.847 44.6175C511.444 44.7108 511.934 44.8182 512.317 44.9395C512.7 45.0608 513.026 45.2662 513.297 45.5555C513.577 45.8448 513.717 46.2555 513.717 46.7875C513.717 47.4875 513.414 48.0475 512.807 48.4675C512.2 48.8875 511.374 49.0975 510.329 49.0975ZM515.784 43.7635C515.467 43.7635 515.196 43.6562 514.972 43.4415C514.748 43.2175 514.636 42.9375 514.636 42.6015C514.636 42.2562 514.744 41.9762 514.958 41.7615C515.182 41.5468 515.458 41.4395 515.784 41.4395C516.111 41.4395 516.382 41.5468 516.596 41.7615C516.82 41.9762 516.932 42.2562 516.932 42.6015C516.932 42.9375 516.82 43.2175 516.596 43.4415C516.372 43.6562 516.102 43.7635 515.784 43.7635ZM515.784 49.0975C515.467 49.0975 515.196 48.9902 514.972 48.7755C514.748 48.5515 514.636 48.2715 514.636 47.9355C514.636 47.5902 514.744 47.3102 514.958 47.0955C515.182 46.8808 515.458 46.7735 515.784 46.7735C516.111 46.7735 516.382 46.8808 516.596 47.0955C516.82 47.3102 516.932 47.5902 516.932 47.9355C516.932 48.2715 516.82 48.5515 516.596 48.7755C516.372 48.9902 516.102 49.0975 515.784 49.0975ZM522.391 37.2115H523.959L519.339 50.3995H517.771L522.391 37.2115ZM533.055 41.4395C533.997 41.4395 534.744 41.7148 535.295 42.2655C535.845 42.8068 536.121 43.6235 536.121 44.7155V48.9995H534.371V44.9395C534.371 44.2862 534.226 43.7962 533.937 43.4695C533.647 43.1335 533.232 42.9655 532.691 42.9655C532.103 42.9655 531.631 43.1615 531.277 43.5535C530.922 43.9362 530.745 44.4868 530.745 45.2055V48.9995H528.995V44.9395C528.995 44.2862 528.85 43.7962 528.561 43.4695C528.271 43.1335 527.856 42.9655 527.315 42.9655C526.717 42.9655 526.241 43.1568 525.887 43.5395C525.541 43.9222 525.369 44.4775 525.369 45.2055V48.9995H523.619V41.5235H525.285V42.4755C525.565 42.1395 525.915 41.8828 526.335 41.7055C526.755 41.5282 527.221 41.4395 527.735 41.4395C528.295 41.4395 528.789 41.5468 529.219 41.7615C529.657 41.9668 530.003 42.2748 530.255 42.6855C530.563 42.2935 530.959 41.9902 531.445 41.7755C531.93 41.5515 532.467 41.4395 533.055 41.4395ZM545.22 41.5235L541.72 49.6015C541.394 50.4135 540.997 50.9828 540.53 51.3095C540.064 51.6455 539.499 51.8135 538.836 51.8135C538.463 51.8135 538.094 51.7528 537.73 51.6315C537.366 51.5102 537.068 51.3422 536.834 51.1275L537.534 49.8395C537.702 49.9982 537.898 50.1242 538.122 50.2175C538.356 50.3108 538.589 50.3575 538.822 50.3575C539.13 50.3575 539.382 50.2782 539.578 50.1195C539.784 49.9608 539.97 49.6948 540.138 49.3215L540.264 49.0275L537.002 41.5235H538.822L541.174 47.0535L543.54 41.5235H545.22ZM555.75 41.4395C556.693 41.4395 557.439 41.7148 557.99 42.2655C558.541 42.8068 558.816 43.6235 558.816 44.7155V48.9995H557.066V44.9395C557.066 44.2862 556.921 43.7962 556.632 43.4695C556.343 43.1335 555.927 42.9655 555.386 42.9655C554.798 42.9655 554.327 43.1615 553.972 43.5535C553.617 43.9362 553.44 44.4868 553.44 45.2055V48.9995H551.69V44.9395C551.69 44.2862 551.545 43.7962 551.256 43.4695C550.967 43.1335 550.551 42.9655 550.01 42.9655C549.413 42.9655 548.937 43.1568 548.582 43.5395C548.237 43.9222 548.064 44.4775 548.064 45.2055V48.9995H546.314V41.5235H547.98V42.4755C548.26 42.1395 548.61 41.8828 549.03 41.7055C549.45 41.5282 549.917 41.4395 550.43 41.4395C550.99 41.4395 551.485 41.5468 551.914 41.7615C552.353 41.9668 552.698 42.2748 552.95 42.6855C553.258 42.2935 553.655 41.9902 554.14 41.7755C554.625 41.5515 555.162 41.4395 555.75 41.4395ZM563.908 41.4395C565.01 41.4395 565.85 41.7055 566.428 42.2375C567.016 42.7602 567.31 43.5535 567.31 44.6175V48.9995H565.658V48.0895C565.444 48.4162 565.136 48.6682 564.734 48.8455C564.342 49.0135 563.866 49.0975 563.306 49.0975C562.746 49.0975 562.256 49.0042 561.836 48.8175C561.416 48.6215 561.09 48.3555 560.856 48.0195C560.632 47.6742 560.52 47.2868 560.52 46.8575C560.52 46.1855 560.768 45.6488 561.262 45.2475C561.766 44.8368 562.555 44.6315 563.628 44.6315H565.56V44.5195C565.56 43.9968 565.402 43.5955 565.084 43.3155C564.776 43.0355 564.314 42.8955 563.698 42.8955C563.278 42.8955 562.863 42.9608 562.452 43.0915C562.051 43.2222 561.71 43.4042 561.43 43.6375L560.744 42.3635C561.136 42.0648 561.608 41.8362 562.158 41.6775C562.709 41.5188 563.292 41.4395 563.908 41.4395ZM563.67 47.8235C564.109 47.8235 564.496 47.7255 564.832 47.5295C565.178 47.3242 565.42 47.0348 565.56 46.6615V45.7935H563.754C562.746 45.7935 562.242 46.1248 562.242 46.7875C562.242 47.1048 562.368 47.3568 562.62 47.5435C562.872 47.7302 563.222 47.8235 563.67 47.8235ZM571.866 49.0975C571.26 49.0975 570.667 49.0182 570.088 48.8595C569.51 48.7008 569.048 48.5002 568.702 48.2575L569.374 46.9275C569.71 47.1515 570.112 47.3335 570.578 47.4735C571.054 47.6042 571.521 47.6695 571.978 47.6695C573.024 47.6695 573.546 47.3942 573.546 46.8435C573.546 46.5822 573.411 46.4002 573.14 46.2975C572.879 46.1948 572.454 46.0968 571.866 46.0035C571.25 45.9102 570.746 45.8028 570.354 45.6815C569.972 45.5602 569.636 45.3502 569.346 45.0515C569.066 44.7435 568.926 44.3188 568.926 43.7775C568.926 43.0682 569.22 42.5035 569.808 42.0835C570.406 41.6542 571.208 41.4395 572.216 41.4395C572.73 41.4395 573.243 41.5002 573.756 41.6215C574.27 41.7335 574.69 41.8875 575.016 42.0835L574.344 43.4135C573.71 43.0402 572.996 42.8535 572.202 42.8535C571.689 42.8535 571.297 42.9328 571.026 43.0915C570.765 43.2408 570.634 43.4415 570.634 43.6935C570.634 43.9735 570.774 44.1742 571.054 44.2955C571.344 44.4075 571.787 44.5148 572.384 44.6175C572.982 44.7108 573.472 44.8182 573.854 44.9395C574.237 45.0608 574.564 45.2662 574.834 45.5555C575.114 45.8448 575.254 46.2555 575.254 46.7875C575.254 47.4875 574.951 48.0475 574.344 48.4675C573.738 48.8875 572.912 49.0975 571.866 49.0975ZM581.255 48.5935C581.05 48.7615 580.798 48.8875 580.499 48.9715C580.21 49.0555 579.902 49.0975 579.575 49.0975C578.754 49.0975 578.119 48.8828 577.671 48.4535C577.223 48.0242 576.999 47.3988 576.999 46.5775V42.9795H575.767V41.5795H576.999V39.8715H578.749V41.5795H580.751V42.9795H578.749V46.5355C578.749 46.8995 578.838 47.1795 579.015 47.3755C579.193 47.5622 579.449 47.6555 579.785 47.6555C580.177 47.6555 580.504 47.5528 580.765 47.3475L581.255 48.5935ZM589.477 45.3035C589.477 45.4248 589.467 45.5975 589.449 45.8215H583.583C583.685 46.3722 583.951 46.8108 584.381 47.1375C584.819 47.4548 585.361 47.6135 586.005 47.6135C586.826 47.6135 587.503 47.3428 588.035 46.8015L588.973 47.8795C588.637 48.2808 588.212 48.5842 587.699 48.7895C587.185 48.9948 586.607 49.0975 585.963 49.0975C585.141 49.0975 584.418 48.9342 583.793 48.6075C583.167 48.2808 582.682 47.8282 582.337 47.2495C582.001 46.6615 581.833 45.9988 581.833 45.2615C581.833 44.5335 581.996 43.8802 582.323 43.3015C582.659 42.7135 583.121 42.2562 583.709 41.9295C584.297 41.6028 584.959 41.4395 585.697 41.4395C586.425 41.4395 587.073 41.6028 587.643 41.9295C588.221 42.2468 588.669 42.6995 588.987 43.2875C589.313 43.8662 589.477 44.5382 589.477 45.3035ZM585.697 42.8395C585.137 42.8395 584.661 43.0075 584.269 43.3435C583.886 43.6702 583.653 44.1088 583.569 44.6595H587.811C587.736 44.1182 587.507 43.6795 587.125 43.3435C586.742 43.0075 586.266 42.8395 585.697 42.8395ZM592.824 42.6155C593.328 41.8315 594.214 41.4395 595.484 41.4395V43.1055C595.334 43.0775 595.199 43.0635 595.078 43.0635C594.396 43.0635 593.864 43.2642 593.482 43.6655C593.099 44.0575 592.908 44.6268 592.908 45.3735V48.9995H591.158V41.5235H592.824V42.6155ZM601.112 41.4395C601.84 41.4395 602.489 41.5982 603.058 41.9155C603.637 42.2328 604.09 42.6808 604.416 43.2595C604.743 43.8382 604.906 44.5055 604.906 45.2615C604.906 46.0175 604.743 46.6895 604.416 47.2775C604.09 47.8562 603.637 48.3042 603.058 48.6215C602.489 48.9388 601.84 49.0975 601.112 49.0975C600.599 49.0975 600.128 49.0088 599.698 48.8315C599.278 48.6542 598.924 48.3882 598.634 48.0335V48.9995H596.968V38.6115H598.718V42.4335C599.017 42.1068 599.367 41.8595 599.768 41.6915C600.179 41.5235 600.627 41.4395 601.112 41.4395ZM600.916 47.5995C601.56 47.5995 602.088 47.3848 602.498 46.9555C602.918 46.5262 603.128 45.9615 603.128 45.2615C603.128 44.5615 602.918 43.9968 602.498 43.5675C602.088 43.1382 601.56 42.9235 600.916 42.9235C600.496 42.9235 600.118 43.0215 599.782 43.2175C599.446 43.4042 599.18 43.6748 598.984 44.0295C598.788 44.3842 598.69 44.7948 598.69 45.2615C598.69 45.7282 598.788 46.1388 598.984 46.4935C599.18 46.8482 599.446 47.1235 599.782 47.3195C600.118 47.5062 600.496 47.5995 600.916 47.5995ZM609.926 49.0975C609.17 49.0975 608.489 48.9342 607.882 48.6075C607.275 48.2808 606.799 47.8282 606.454 47.2495C606.118 46.6615 605.95 45.9988 605.95 45.2615C605.95 44.5242 606.118 43.8662 606.454 43.2875C606.799 42.7088 607.275 42.2562 607.882 41.9295C608.489 41.6028 609.17 41.4395 609.926 41.4395C610.691 41.4395 611.377 41.6028 611.984 41.9295C612.591 42.2562 613.062 42.7088 613.398 43.2875C613.743 43.8662 613.916 44.5242 613.916 45.2615C613.916 45.9988 613.743 46.6615 613.398 47.2495C613.062 47.8282 612.591 48.2808 611.984 48.6075C611.377 48.9342 610.691 49.0975 609.926 49.0975ZM609.926 47.5995C610.57 47.5995 611.102 47.3848 611.522 46.9555C611.942 46.5262 612.152 45.9615 612.152 45.2615C612.152 44.5615 611.942 43.9968 611.522 43.5675C611.102 43.1382 610.57 42.9235 609.926 42.9235C609.282 42.9235 608.75 43.1382 608.33 43.5675C607.919 43.9968 607.714 44.5615 607.714 45.2615C607.714 45.9615 607.919 46.5262 608.33 46.9555C608.75 47.3848 609.282 47.5995 609.926 47.5995ZM618.949 49.0975C618.193 49.0975 617.512 48.9342 616.905 48.6075C616.299 48.2808 615.823 47.8282 615.477 47.2495C615.141 46.6615 614.973 45.9988 614.973 45.2615C614.973 44.5242 615.141 43.8662 615.477 43.2875C615.823 42.7088 616.299 42.2562 616.905 41.9295C617.512 41.6028 618.193 41.4395 618.949 41.4395C619.715 41.4395 620.401 41.6028 621.007 41.9295C621.614 42.2562 622.085 42.7088 622.421 43.2875C622.767 43.8662 622.939 44.5242 622.939 45.2615C622.939 45.9988 622.767 46.6615 622.421 47.2495C622.085 47.8282 621.614 48.2808 621.007 48.6075C620.401 48.9342 619.715 49.0975 618.949 49.0975ZM618.949 47.5995C619.593 47.5995 620.125 47.3848 620.545 46.9555C620.965 46.5262 621.175 45.9615 621.175 45.2615C621.175 44.5615 620.965 43.9968 620.545 43.5675C620.125 43.1382 619.593 42.9235 618.949 42.9235C618.305 42.9235 617.773 43.1382 617.353 43.5675C616.943 43.9968 616.737 44.5615 616.737 45.2615C616.737 45.9615 616.943 46.5262 617.353 46.9555C617.773 47.3848 618.305 47.5995 618.949 47.5995ZM627.665 45.7935L626.363 47.0255V48.9995H624.613V38.6115H626.363V44.8835L629.989 41.5235H632.089L628.967 44.6595L632.383 48.9995H630.255L627.665 45.7935ZM634.21 49.0975C633.893 49.0975 633.622 48.9902 633.398 48.7755C633.174 48.5515 633.062 48.2715 633.062 47.9355C633.062 47.5902 633.169 47.3102 633.384 47.0955C633.608 46.8808 633.883 46.7735 634.21 46.7735C634.537 46.7735 634.807 46.8808 635.022 47.0955C635.246 47.3102 635.358 47.5902 635.358 47.9355C635.358 48.2715 635.246 48.5515 635.022 48.7755C634.798 48.9902 634.527 49.0975 634.21 49.0975ZM640.361 49.0975C639.587 49.0975 638.891 48.9342 638.275 48.6075C637.659 48.2808 637.179 47.8282 636.833 47.2495C636.488 46.6615 636.315 45.9988 636.315 45.2615C636.315 44.5242 636.488 43.8662 636.833 43.2875C637.179 42.7088 637.655 42.2562 638.261 41.9295C638.877 41.6028 639.577 41.4395 640.361 41.4395C641.099 41.4395 641.743 41.5888 642.293 41.8875C642.853 42.1862 643.273 42.6155 643.553 43.1755L642.209 43.9595C641.995 43.6142 641.724 43.3575 641.397 43.1895C641.08 43.0122 640.73 42.9235 640.347 42.9235C639.694 42.9235 639.153 43.1382 638.723 43.5675C638.294 43.9875 638.079 44.5522 638.079 45.2615C638.079 45.9708 638.289 46.5402 638.709 46.9695C639.139 47.3895 639.685 47.5995 640.347 47.5995C640.73 47.5995 641.08 47.5155 641.397 47.3475C641.724 47.1702 641.995 46.9088 642.209 46.5635L643.553 47.3475C643.264 47.9075 642.839 48.3415 642.279 48.6495C641.729 48.9482 641.089 49.0975 640.361 49.0975ZM648.317 49.0975C647.561 49.0975 646.879 48.9342 646.273 48.6075C645.666 48.2808 645.19 47.8282 644.845 47.2495C644.509 46.6615 644.341 45.9988 644.341 45.2615C644.341 44.5242 644.509 43.8662 644.845 43.2875C645.19 42.7088 645.666 42.2562 646.273 41.9295C646.879 41.6028 647.561 41.4395 648.317 41.4395C649.082 41.4395 649.768 41.6028 650.375 41.9295C650.981 42.2562 651.453 42.7088 651.789 43.2875C652.134 43.8662 652.307 44.5242 652.307 45.2615C652.307 45.9988 652.134 46.6615 651.789 47.2495C651.453 47.8282 650.981 48.2808 650.375 48.6075C649.768 48.9342 649.082 49.0975 648.317 49.0975ZM648.317 47.5995C648.961 47.5995 649.493 47.3848 649.913 46.9555C650.333 46.5262 650.543 45.9615 650.543 45.2615C650.543 44.5615 650.333 43.9968 649.913 43.5675C649.493 43.1382 648.961 42.9235 648.317 42.9235C647.673 42.9235 647.141 43.1382 646.721 43.5675C646.31 43.9968 646.105 44.5615 646.105 45.2615C646.105 45.9615 646.31 46.5262 646.721 46.9555C647.141 47.3848 647.673 47.5995 648.317 47.5995ZM663.416 41.4395C664.359 41.4395 665.105 41.7148 665.656 42.2655C666.207 42.8068 666.482 43.6235 666.482 44.7155V48.9995H664.732V44.9395C664.732 44.2862 664.587 43.7962 664.298 43.4695C664.009 43.1335 663.593 42.9655 663.052 42.9655C662.464 42.9655 661.993 43.1615 661.638 43.5535C661.283 43.9362 661.106 44.4868 661.106 45.2055V48.9995H659.356V44.9395C659.356 44.2862 659.211 43.7962 658.922 43.4695C658.633 43.1335 658.217 42.9655 657.676 42.9655C657.079 42.9655 656.603 43.1568 656.248 43.5395C655.903 43.9222 655.73 44.4775 655.73 45.2055V48.9995H653.98V41.5235H655.646V42.4755C655.926 42.1395 656.276 41.8828 656.696 41.7055C657.116 41.5282 657.583 41.4395 658.096 41.4395C658.656 41.4395 659.151 41.5468 659.58 41.7615C660.019 41.9668 660.364 42.2748 660.616 42.6855C660.924 42.2935 661.321 41.9902 661.806 41.7755C662.291 41.5515 662.828 41.4395 663.416 41.4395Z" fill="white"/>
<g clip-path="url(#clip0_2489_6345)">
<path d="M49.666 37.333H36.3327C35.416 37.333 34.6743 38.083 34.6743 38.9997L34.666 48.9997C34.666 49.9163 35.416 50.6663 36.3327 50.6663H49.666C50.5827 50.6663 51.3327 49.9163 51.3327 48.9997V38.9997C51.3327 38.083 50.5827 37.333 49.666 37.333ZM49.3327 40.8747L43.441 44.558C43.1743 44.7247 42.8243 44.7247 42.5577 44.558L36.666 40.8747C36.4577 40.7413 36.3327 40.5163 36.3327 40.2747C36.3327 39.7163 36.941 39.383 37.416 39.6747L42.9993 43.1663L48.5827 39.6747C49.0577 39.383 49.666 39.7163 49.666 40.2747C49.666 40.5163 49.541 40.7413 49.3327 40.8747Z" fill="white"/>
</g>
<g clip-path="url(#clip1_2489_6345)">
<path d="M455 34.9995C450.03 34.9995 446 39.0299 446 43.9995C446 48.9691 450.03 52.9995 455 52.9995C459.97 52.9995 464 48.9691 464 43.9995C464 39.0299 459.97 34.9995 455 34.9995ZM455.724 51.3952C455.685 51.3952 455.646 51.3952 455.587 51.4147V47.1691C456.604 47.1495 457.524 47.1299 458.365 47.0713C457.622 49.3604 456.233 50.8865 455.724 51.3952ZM454.276 51.3952C453.748 50.8669 452.378 49.3408 451.635 47.0713C452.457 47.1299 453.396 47.1691 454.413 47.1691V51.4147C454.374 51.4147 454.335 51.3952 454.276 51.3952ZM447.565 43.9995C447.565 43.5104 447.624 43.0213 447.702 42.5517C448.133 42.4734 448.954 42.356 450.109 42.2386C450.011 42.806 449.952 43.393 449.952 44.0191C449.952 44.6452 450.011 45.2321 450.089 45.7799C448.954 45.6626 448.113 45.5452 447.683 45.4669C447.624 44.9778 447.565 44.4886 447.565 43.9995ZM451.146 43.9995C451.146 43.3343 451.224 42.7082 451.341 42.1213C452.241 42.0626 453.259 42.0039 454.413 42.0039V45.9952C453.278 45.9756 452.241 45.9365 451.322 45.8582C451.224 45.2908 451.146 44.6647 451.146 43.9995ZM455.704 36.6039C456.233 37.1321 457.583 38.6973 458.346 40.9278C457.524 40.8691 456.604 40.8299 455.587 40.8299V36.5843C455.626 36.5843 455.665 36.6039 455.704 36.6039ZM454.413 36.5843V40.8299C453.396 40.8495 452.476 40.8691 451.654 40.9278C452.398 38.6973 453.767 37.1321 454.276 36.6039C454.335 36.6039 454.374 36.5843 454.413 36.5843ZM455.587 45.9952V42.0039C456.722 42.0234 457.759 42.0626 458.659 42.1213C458.776 42.7082 458.854 43.3343 458.854 43.9995C458.854 44.6647 458.796 45.2908 458.678 45.8778C457.778 45.9365 456.741 45.9756 455.587 45.9952ZM459.872 42.2386C461.026 42.356 461.848 42.4734 462.278 42.5517C462.376 43.0213 462.435 43.5104 462.435 43.9995C462.435 44.4886 462.376 44.9778 462.298 45.4473C461.867 45.5256 461.046 45.643 459.891 45.7604C459.989 45.193 460.028 44.606 460.028 43.9799C460.028 43.393 459.97 42.7865 459.872 42.2386ZM461.926 41.2995C461.378 41.2213 460.596 41.1234 459.598 41.0256C459.128 39.343 458.307 37.993 457.622 37.0343C459.598 37.7778 461.163 39.343 461.926 41.2995ZM452.378 37.0343C451.674 37.9734 450.872 39.3234 450.402 41.006C449.424 41.0843 448.641 41.2017 448.074 41.2799C448.837 39.343 450.422 37.7778 452.378 37.0343ZM448.074 46.6995C448.622 46.7778 449.404 46.8756 450.383 46.9734C450.852 48.656 451.635 50.006 452.339 50.9452C450.383 50.1821 448.837 48.6365 448.074 46.6995ZM457.661 50.9452C458.365 50.006 459.148 48.6756 459.617 46.993C460.596 46.9147 461.378 46.7973 461.926 46.7191C461.163 48.6365 459.617 50.1821 457.661 50.9452Z" fill="white"/>
</g>
<defs>
<linearGradient id="paint0_linear_2489_6345" x1="76.5072" y1="0.330171" x2="628.185" y2="148.989" gradientUnits="userSpaceOnUse">
<stop stop-color="#1CA4D9"/>
<stop offset="0.929852" stop-color="#023859"/>
</linearGradient>
<clipPath id="clip0_2489_6345">
<rect width="20" height="20" fill="white" transform="translate(33 33.9995)"/>
</clipPath>
<clipPath id="clip1_2489_6345">
<rect width="18" height="18" fill="white" transform="translate(446 34.9995)"/>
</clipPath>
</defs>
</svg>
