<svg width="51" height="50" viewBox="0 0 51 50" fill="none" xmlns="http://www.w3.org/2000/svg">
<path d="M10.7147 26.5867C10.8277 26.6023 10.9375 26.6446 11.0511 26.6446C11.4362 26.6446 11.8109 26.5397 12.1593 26.3651L20.29 25.3527C22.8687 25.0182 25.1784 23.7264 26.7974 21.7098L32.6141 14.4531C33.552 13.2679 34.9602 12.5892 36.4774 12.5892H47.7932C49.165 12.5892 50.275 11.4791 50.275 10.1073C50.275 8.73549 49.165 7.6254 47.7932 7.6254H36.4774C34.0431 7.6254 31.771 8.53128 29.9889 10.0954L27.7766 4.26367C27.4784 3.47596 26.8023 2.89425 25.9782 2.71731C25.1421 2.53067 24.2962 2.79487 23.7024 3.38869L20.2609 6.83042L12.0545 0.676528C11.2184 0.0487765 10.0696 0.0148486 9.19466 0.594128C8.3173 1.17584 7.90287 2.2447 8.15978 3.26269L10.7603 13.6727L2.68724 15.1099C1.73475 15.2796 0.968874 15.9825 0.721663 16.9156C0.474452 17.8487 0.789515 18.8425 1.53358 19.4606L6.12149 23.2834C5.24549 23.8896 4.43737 24.6025 3.77784 25.486C2.14432 27.6746 1.48993 30.3601 1.94074 33.0626L2.11283 34.066C2.9102 38.8796 7.02794 42.3722 11.9067 42.3722H18.3641C19.4737 46.6424 23.326 49.818 27.9389 49.818C32.5518 49.818 36.4042 46.6424 37.5138 42.3722H47.7932C49.165 42.3722 50.275 41.2622 50.275 39.8903C50.275 38.5185 49.165 37.4084 47.7932 37.4084H37.5138C36.4042 33.1382 32.5518 29.9627 27.9389 29.9627C23.326 29.9627 19.4737 33.1382 18.3641 37.4084H11.9067C9.46853 37.4084 7.40844 35.6609 7.00612 33.242L6.83403 32.2361C6.61107 30.8934 6.93824 29.5506 7.75743 28.4551C8.48954 27.473 9.5338 26.8339 10.7147 26.5867ZM27.9389 34.9265C30.6752 34.9265 32.9025 37.1539 32.9025 39.8903C32.9025 42.6267 30.6752 44.8542 27.9389 44.8542C25.2027 44.8542 22.9754 42.6267 22.9754 39.8903C22.9754 37.1539 25.2027 34.9265 27.9389 34.9265ZM14.2479 18.0936C14.9265 17.9724 15.5227 17.5773 15.896 17.0004C16.2716 16.4236 16.388 15.7159 16.2207 15.0493L14.6696 8.84211L19.0055 12.0924C19.9894 12.8364 21.3758 12.7371 22.2483 11.8621L24.4974 9.61287L26.309 14.3837L22.9269 18.605C22.115 19.6133 20.9541 20.2604 19.6647 20.4277L11.6472 21.4273L8.80929 19.0631L14.2479 18.0936Z" fill="#A3AED0"/>
</svg>
