<svg width="51" height="50" viewBox="0 0 51 50" fill="none" xmlns="http://www.w3.org/2000/svg">
<path d="M10.9862 26.6785C11.0992 26.6941 11.209 26.7364 11.3226 26.7364C11.7077 26.7364 12.0824 26.6315 12.4308 26.4569L20.5615 25.4445C23.1402 25.11 25.4499 23.8182 27.0689 21.8016L32.8856 14.5449C33.8235 13.3597 35.2316 12.681 36.7488 12.681H48.0647C49.4365 12.681 50.5465 11.5709 50.5465 10.1991C50.5465 8.82729 49.4365 7.7172 48.0647 7.7172H36.7488C34.3146 7.7172 32.0425 8.62307 30.2604 10.1872L28.048 4.35546C27.7499 3.56775 27.0737 2.98604 26.2497 2.80911C25.4136 2.62247 24.5677 2.88667 23.9739 3.48049L20.5324 6.92221L12.326 0.768325C11.4899 0.140573 10.3411 0.106645 9.46615 0.685925C8.58878 1.26764 8.17435 2.3365 8.43127 3.35448L11.0318 13.7645L2.95872 15.2017C2.00624 15.3714 1.24036 16.0743 0.993148 17.0074C0.745937 17.9405 1.061 18.9343 1.80506 19.5523L6.39297 23.3752C5.51698 23.9814 4.70886 24.6943 4.04932 25.5778C2.41581 27.7664 1.76141 30.4519 2.21223 33.1544L2.38431 34.1578C3.18169 38.9714 7.29942 42.464 12.1782 42.464H18.6356C19.7452 46.7342 23.5975 49.9098 28.2104 49.9098C32.8233 49.9098 36.6757 46.7342 37.7852 42.464H48.0647C49.4365 42.464 50.5465 41.354 50.5465 39.9821C50.5465 38.6103 49.4365 37.5002 48.0647 37.5002H37.7852C36.6757 33.23 32.8233 30.0545 28.2104 30.0545C23.5975 30.0545 19.7452 33.23 18.6356 37.5002H12.1782C9.74001 37.5002 7.67993 35.7527 7.27761 33.3338L7.10552 32.3279C6.88255 30.9852 7.20973 29.6424 8.02892 28.5469C8.76102 27.5648 9.80528 26.9257 10.9862 26.6785ZM28.2104 35.0183C30.9467 35.0183 33.174 37.2457 33.174 39.9821C33.174 42.7185 30.9467 44.946 28.2104 44.946C25.4742 44.946 23.2468 42.7185 23.2468 39.9821C23.2468 37.2457 25.4742 35.0183 28.2104 35.0183ZM14.5194 18.1854C15.198 18.0642 15.7942 17.6691 16.1674 17.0922C16.5431 16.5154 16.6594 15.8077 16.4922 15.1411L14.9411 8.93391L19.277 12.1842C20.2609 12.9282 21.6473 12.8289 22.5198 11.9539L24.7689 9.70467L26.5805 14.4755L23.1984 18.6968C22.3865 19.7051 21.2256 20.3522 19.9362 20.5195L11.9187 21.5191L9.08077 19.1549L14.5194 18.1854Z" fill="white"/>
</svg>
