<svg width="67" height="67" viewBox="0 0 67 67" fill="none" xmlns="http://www.w3.org/2000/svg">
<path d="M13.7884 52.003V55.1522C13.7884 56.6751 15.0231 57.9098 16.5459 57.9098C18.0688 57.9098 19.3035 56.6751 19.3035 55.1522V52.3947H46.8793V55.1522C46.8793 56.6751 48.114 57.9098 49.6368 57.9098C51.1597 57.9098 52.3944 56.6751 52.3944 55.1522V52.003C57.1382 50.7696 60.6671 46.4887 60.6671 41.3643V38.6068C60.6671 34.4277 58.3037 30.828 54.8687 28.9569L54.4742 27.5765H55.152C56.6749 27.5765 57.9096 26.3418 57.9096 24.8189C57.9096 23.296 56.6749 22.0613 55.152 22.0613H52.8982L51.2445 16.2742C49.9007 11.5629 45.5395 8.27344 40.6397 8.27344H25.5431C20.6432 8.27344 16.282 11.5629 14.9383 16.2728L13.2843 22.0613H11.0308C9.5079 22.0613 8.2732 23.296 8.2732 24.8189C8.2732 26.3418 9.5079 27.5765 11.0308 27.5765H11.7084L11.314 28.9569C7.87903 30.828 5.51562 34.4278 5.51562 38.6068V41.3643C5.51562 46.4887 9.04455 50.7696 13.7884 52.003ZM20.2406 17.7876C20.9139 15.4326 23.0938 13.7886 25.5431 13.7886H40.6397C43.0889 13.7886 45.2689 15.4326 45.9421 17.7889L48.7387 27.5765H17.444L20.2406 17.7876ZM11.0308 38.6068C11.0308 35.5651 13.5042 33.0916 16.5459 33.0916H49.6368C52.6785 33.0916 55.152 35.5651 55.152 38.6068V41.3643C55.152 44.406 52.6785 46.8795 49.6368 46.8795H16.5459C13.5042 46.8795 11.0308 44.406 11.0308 41.3643V38.6068Z" fill="#A3AED0"/>
<path d="M19.3045 44.1226C20.8274 44.1226 22.062 42.888 22.062 41.365C22.062 39.842 20.8274 38.6074 19.3045 38.6074C17.7815 38.6074 16.5469 39.842 16.5469 41.365C16.5469 42.888 17.7815 44.1226 19.3045 44.1226Z" fill="#A3AED0"/>
<path d="M46.8787 44.1226C48.4016 44.1226 49.6362 42.888 49.6362 41.365C49.6362 39.842 48.4016 38.6074 46.8787 38.6074C45.3557 38.6074 44.1211 39.842 44.1211 41.365C44.1211 42.888 45.3557 44.1226 46.8787 44.1226Z" fill="#A3AED0"/>
</svg>
