<svg width="23" height="19" viewBox="0 0 23 19" fill="none" xmlns="http://www.w3.org/2000/svg">
<path fill-rule="evenodd" clip-rule="evenodd" d="M3.625 0.5C2.72989 0.5 1.87145 0.855579 1.23851 1.48851C0.605579 2.12145 0.25 2.97989 0.25 3.875V15.125C0.25 16.0201 0.605579 16.8786 1.23851 17.5115C1.87145 18.1444 2.72989 18.5 3.625 18.5H19.375C20.2701 18.5 21.1286 18.1444 21.7615 17.5115C22.3944 16.8786 22.75 16.0201 22.75 15.125V3.875C22.75 2.97989 22.3944 2.12145 21.7615 1.48851C21.1286 0.855579 20.2701 0.5 19.375 0.5H3.625ZM19.375 2.1875H3.625C3.17745 2.1875 2.74822 2.36529 2.43176 2.68176C2.11529 2.99822 1.9375 3.42745 1.9375 3.875V5.28125H21.0625V3.875C21.0625 3.42745 20.8847 2.99822 20.5682 2.68176C20.2518 2.36529 19.8226 2.1875 19.375 2.1875ZM1.9375 15.125V6.96875H21.0625V15.125C21.0625 15.5726 20.8847 16.0018 20.5682 16.3182C20.2518 16.6347 19.8226 16.8125 19.375 16.8125H3.625C3.17745 16.8125 2.74822 16.6347 2.43176 16.3182C2.11529 16.0018 1.9375 15.5726 1.9375 15.125Z" fill="#0468BF"/>
</svg>
