<svg width="56" height="50" viewBox="0 0 56 50" fill="none" xmlns="http://www.w3.org/2000/svg">
<path d="M8.42507 43.9112V47.0604C8.42507 48.5833 9.65977 49.818 11.1826 49.818C12.7055 49.818 13.9402 48.5833 13.9402 47.0604V44.3029H41.516V47.0604C41.516 48.5833 42.7507 49.818 44.2736 49.818C45.7964 49.818 47.0311 48.5833 47.0311 47.0604V43.9112C51.7749 42.6778 55.3039 38.3969 55.3039 33.2726V30.515C55.3039 26.3359 52.9404 22.7362 49.5054 20.8651L49.1109 19.4847H49.7887C51.3116 19.4847 52.5463 18.25 52.5463 16.7271C52.5463 15.2042 51.3116 13.9695 49.7887 13.9695H47.5349L45.8812 8.18239C44.5375 3.47107 40.1762 0.181641 35.2764 0.181641H20.1798C15.28 0.181641 10.9187 3.47107 9.57498 8.18104L7.92099 13.9695H5.66749C4.14462 13.9695 2.90992 15.2042 2.90992 16.7271C2.90992 18.25 4.14462 19.4847 5.66749 19.4847H6.34511L5.95075 20.8651C2.51575 22.7362 0.152344 26.336 0.152344 30.515V33.2726C0.152344 38.3969 3.68127 42.6778 8.42507 43.9112ZM14.8774 9.69583C15.5506 7.34083 17.7305 5.69679 20.1798 5.69679H35.2764C37.7257 5.69679 39.9056 7.34083 40.5788 9.69715L43.3755 19.4847H12.0807L14.8774 9.69583ZM5.66749 30.515C5.66749 27.4733 8.14096 24.9998 11.1826 24.9998H44.2736C47.3152 24.9998 49.7887 27.4733 49.7887 30.515V33.2726C49.7887 36.3142 47.3152 38.7877 44.2736 38.7877H11.1826C8.14096 38.7877 5.66749 36.3142 5.66749 33.2726V30.515Z" fill="white"/>
</svg>
