<svg width="52" height="51" viewBox="0 0 52 51" fill="none" xmlns="http://www.w3.org/2000/svg">
<path d="M36.3632 16.0054C37.1968 15.1748 38.5488 15.1748 39.3824 16.0054C40.2159 16.8364 40.2159 18.1837 39.3824 19.0144L23.3479 34.9937C22.5141 35.8244 21.162 35.8244 20.3285 34.9937L12.311 27.004C11.4774 26.1734 11.4774 24.826 12.311 23.9954C13.1448 23.1645 14.4969 23.1645 15.3304 23.9954L21.8382 30.4806L36.3632 16.0054ZM25.8465 0C32.9117 0 39.3096 2.85466 43.9402 7.46926C48.5709 12.0836 51.4355 18.4595 51.4355 25.4999C51.4355 32.5413 48.5712 38.9161 43.9402 43.5307C39.3096 48.1453 32.9117 51 25.8465 51C18.7808 51 12.3835 48.1456 7.7531 43.5307C3.12185 38.9161 0.257812 32.5413 0.257812 25.4999C0.257812 18.4595 3.12242 12.0836 7.7531 7.46926C12.3835 2.85409 18.7808 0 25.8465 0ZM40.9211 10.4779C37.0636 6.63402 31.7337 4.25619 25.8465 4.25619C19.9591 4.25619 14.6292 6.63402 10.7722 10.4779C6.91495 14.3218 4.52883 19.6334 4.52883 25.4999C4.52883 31.3672 6.91495 36.6785 10.7722 40.5221C14.6292 44.366 19.9591 46.7435 25.8465 46.7435C31.7337 46.7435 37.0636 44.366 40.9211 40.5221C44.7784 36.6785 47.1642 31.3672 47.1642 25.4999C47.1642 19.6334 44.7784 14.3218 40.9211 10.4779Z" fill="#049DD9"/>
</svg>
