<svg width="50" height="50" viewBox="0 0 50 50" fill="none" xmlns="http://www.w3.org/2000/svg">
<path d="M42.4671 15.1643C40.7128 15.161 39.0139 15.7786 37.6713 16.9078C36.3288 18.037 35.4292 19.6049 35.1319 21.3337C34.8346 23.0626 35.1589 24.8408 36.0471 26.3535C36.9354 27.8663 38.3305 29.0158 39.9852 29.5986V33.778C39.9852 36.74 38.8084 39.5806 36.7139 41.6751C34.6193 43.7695 31.7784 44.9462 28.8162 44.9462C25.8541 44.9462 23.0132 43.7695 20.9186 41.6751C18.824 39.5806 17.6473 36.74 17.6473 33.778V32.3137C21.1139 31.7258 24.261 29.9311 26.532 27.2469C28.803 24.5627 30.0517 21.1621 30.0572 17.6462V2.75526C30.0572 2.09704 29.7957 1.46578 29.3303 1.00035C28.8648 0.534914 28.2335 0.273438 27.5752 0.273438H22.6113C21.953 0.273438 21.3217 0.534914 20.8563 1.00035C20.3908 1.46578 20.1293 2.09704 20.1293 2.75526C20.1293 3.41347 20.3908 4.04474 20.8563 4.51017C21.3217 4.9756 21.953 5.23707 22.6113 5.23707H25.0933V17.6462C25.0933 20.279 24.0473 22.8041 22.1854 24.6658C20.3236 26.5275 17.7984 27.5734 15.1653 27.5734C12.5323 27.5734 10.0071 26.5275 8.14522 24.6658C6.28338 22.8041 5.2374 20.279 5.2374 17.6462V5.23707H7.71938C8.37765 5.23707 9.00895 4.9756 9.47441 4.51017C9.93987 4.04474 10.2014 3.41347 10.2014 2.75526C10.2014 2.09704 9.93987 1.46578 9.47441 1.00035C9.00895 0.534914 8.37765 0.273438 7.71938 0.273438H2.75542C2.09716 0.273438 1.46586 0.534914 1.00039 1.00035C0.534931 1.46578 0.273438 2.09704 0.273438 2.75526V17.6462C0.278978 21.1621 1.52765 24.5627 3.79866 27.2469C6.06968 29.9311 9.21673 31.7258 12.6833 32.3137V33.778C12.6833 38.0564 14.3831 42.1596 17.4086 45.1849C20.4341 48.2102 24.5375 49.9098 28.8162 49.9098C33.0949 49.9098 37.1984 48.2102 40.2239 45.1849C43.2494 42.1596 44.9491 38.0564 44.9491 33.778V29.5986C46.6038 29.0158 47.9988 27.8663 48.8871 26.3535C49.7754 24.8408 50.0996 23.0626 49.8024 21.3337C49.5051 19.6049 48.6055 18.037 47.2629 16.9078C45.9204 15.7786 44.2215 15.161 42.4671 15.1643ZM42.4671 25.0916C41.9762 25.0916 41.4964 24.9461 41.0882 24.6734C40.6801 24.4007 40.3619 24.013 40.1741 23.5596C39.9862 23.1061 39.9371 22.607 40.0328 22.1256C40.1286 21.6442 40.365 21.202 40.7121 20.8549C41.0592 20.5078 41.5015 20.2714 41.9829 20.1757C42.4644 20.0799 42.9634 20.1291 43.4169 20.3169C43.8705 20.5047 44.2581 20.8228 44.5308 21.231C44.8036 21.6391 44.9491 22.1189 44.9491 22.6098C44.9485 23.2678 44.6868 23.8987 44.2214 24.364C43.7561 24.8293 43.1252 25.091 42.4671 25.0916Z" fill="#A3AED0"/>
</svg>
