<svg width="52" height="52" viewBox="0 0 52 52" fill="none" xmlns="http://www.w3.org/2000/svg">
<path d="M47.1303 27.2305L47.1302 27.2306L47.1364 27.2361C47.5925 27.6352 48.1662 27.8665 48.7454 27.8665C49.3219 27.8665 49.9542 27.6368 50.4157 27.1753L50.4157 27.1754L50.419 27.1718C51.2804 26.253 51.2858 24.7562 50.3594 23.8864C50.359 23.8861 50.3586 23.8857 50.3582 23.8854L27.7066 1.7729L27.7067 1.77288L27.7045 1.77081C26.7838 0.907647 25.3995 0.907647 24.4788 1.77081L24.4788 1.77079L24.4766 1.7729L1.82281 23.8874L1.82153 23.8887C0.900508 24.8097 0.90054 26.2506 1.76423 27.1718L1.76417 27.1719L1.76759 27.1753C2.68861 28.0963 4.12942 28.0963 5.05069 27.2326L5.05071 27.2326L5.05292 27.2305L26.0916 6.67467L47.1303 27.2305ZM44.1489 48.7523V26.4807C44.1489 25.2113 43.1109 24.1732 41.8414 24.1732C40.5719 24.1732 39.5339 25.2113 39.5339 26.4807V46.4448H33.0917V35.0521C33.0917 33.405 31.73 32.0433 30.083 32.0433H22.1002C20.4532 32.0433 19.0915 33.405 19.0915 35.0521V46.4448H12.6494V26.4807C12.6494 25.2113 11.6113 24.1732 10.3419 24.1732C9.07238 24.1732 8.03435 25.2113 8.03435 26.4807V48.7523C8.03435 50.0218 9.07238 51.0598 10.3419 51.0598H21.399C22.6685 51.0598 23.7066 50.0218 23.7066 48.7523V36.6584H28.5306V48.7523C28.5306 50.0218 29.5687 51.0598 30.8381 51.0598H41.8953C43.1697 51.0598 44.1489 50.0168 44.1489 48.7523Z" fill="#A3AED0" stroke="#A3AED0" stroke-width="0.3"/>
</svg>
