<svg width="41" height="52" viewBox="0 0 41 52" fill="none" xmlns="http://www.w3.org/2000/svg">
<path d="M40.2057 44.0903L40.21 44.0796L40.2134 44.0686C40.3605 43.5952 40.3191 43.0849 40.0978 42.6406C39.8767 42.1966 39.4931 41.8525 39.0256 41.6755C38.5582 41.4985 38.04 41.501 37.5744 41.6823C37.1086 41.8637 36.7283 42.2114 36.5115 42.6576L36.5068 42.6674L36.5028 42.6774C36.2567 43.2936 35.6834 43.901 34.7902 44.4665C33.9011 45.0295 32.7216 45.5341 31.3092 45.956C28.4853 46.7997 24.7694 47.3018 20.6817 47.3018C16.594 47.3018 12.8781 46.7997 10.0542 45.956C8.6418 45.5341 7.46231 45.0295 6.57317 44.4665C5.67999 43.901 5.10668 43.2936 4.86063 42.6774C4.62325 42.0824 4.58866 41.0834 4.91092 39.8085C5.23073 38.5434 5.89456 37.0383 7.00906 35.452L7.00912 35.4521L7.01267 35.4468C8.5061 33.2222 10.5314 31.3861 12.9141 30.0978C15.2945 28.8107 17.9597 28.1091 20.6798 28.054C23.8848 28.1596 26.9957 29.1372 29.6631 30.8764C32.3285 32.6143 34.4451 35.0436 35.7763 37.891C35.8666 38.1425 36.0083 38.3729 36.1925 38.5682C36.3802 38.7673 36.6078 38.9257 36.8607 39.0335C37.1135 39.1413 37.3863 39.1963 37.6617 39.1953C37.9371 39.1943 38.2095 39.1372 38.4615 39.0275C38.7135 38.9178 38.9399 38.7577 39.1261 38.5572C39.3123 38.3566 39.4541 38.1199 39.5421 37.862C39.6302 37.6041 39.6624 37.3309 39.6367 37.0599C39.6114 36.7934 39.5306 36.5352 39.3997 36.3011C37.7773 32.7507 35.1586 29.7243 31.8485 27.573C28.5349 25.4194 24.6645 24.2311 20.6881 24.146L20.6881 24.1457L20.6767 24.1459C17.3069 24.2019 14.0013 25.0589 11.0452 26.6434C8.08949 28.2276 5.57156 30.4916 3.709 33.2407C1.0482 37.0616 0.0207515 41.2235 1.15763 44.0902L1.15767 44.0903C2.22507 46.7784 5.15788 48.5479 8.73868 49.648C12.3362 50.7533 16.672 51.2098 20.6817 51.2098C24.6914 51.2098 29.0272 50.7533 32.6247 49.648C36.2055 48.5479 39.1383 46.7784 40.2057 44.0903ZM20.6812 21.9176C22.7969 21.9209 24.8665 21.3105 26.6283 20.1627C28.3901 19.0148 29.7653 17.3809 30.5787 15.467C31.3921 13.5529 31.6068 11.4455 31.1954 9.4117C30.784 7.37791 29.7651 5.51012 28.2688 4.04432C26.7726 2.57859 24.8662 1.58061 22.7913 1.17566C20.7165 0.770724 18.5653 0.976794 16.6099 1.76806C14.6544 2.55936 12.9817 3.90064 11.8044 5.6232C10.627 7.34584 9.99808 9.37209 9.99808 11.4455C9.99808 14.2221 11.1247 16.8838 13.1284 18.8467C15.1319 20.8093 17.8484 21.9131 20.6812 21.9176ZM20.6824 4.89796C22.014 4.89482 23.316 5.27838 24.4235 5.99929C25.5309 6.72016 26.3936 7.74562 26.9033 8.94495C27.4129 10.1442 27.547 11.464 27.2888 12.7375C27.0306 14.011 26.3915 15.1818 25.4515 16.1012C24.5113 17.0206 23.3125 17.6472 22.0065 17.9005C20.7005 18.1538 19.3471 18.0221 18.118 17.5225C16.889 17.0229 15.8403 16.1782 15.1041 15.0964C14.368 14.0147 13.9772 12.7443 13.9804 11.4462C13.9846 9.71298 14.6905 8.05053 15.9457 6.82285C17.2012 5.59496 18.9041 4.90214 20.6824 4.89796Z" fill="#A3AED0" stroke="#A3AED0" stroke-width="0.6"/>
</svg>
