<svg width="50" height="16" viewBox="0 0 50 16" fill="none" xmlns="http://www.w3.org/2000/svg">
<path d="M7.3108 0.546875C3.32985 0.546875 0.0898438 3.9121 0.0898438 8.04688C0.0898438 12.1816 3.32985 15.5469 7.3108 15.5469C11.2933 15.5469 14.5333 12.1817 14.5333 8.04688C14.5333 3.91209 11.2933 0.546875 7.3108 0.546875ZM7.3108 10.6217C5.94318 10.6217 4.83178 9.46735 4.83178 8.04688C4.83178 6.6264 5.94318 5.47206 7.3108 5.47206C8.67842 5.47206 9.79137 6.6264 9.79137 8.04688C9.79137 9.46735 8.67842 10.6217 7.3108 10.6217ZM24.5898 0.546875C20.6089 0.546875 17.3689 3.91209 17.3689 8.04688C17.3689 12.1817 20.6089 15.5469 24.5898 15.5469C28.5708 15.5469 31.8108 12.1816 31.8108 8.04688C31.8108 3.9121 28.5708 0.546875 24.5898 0.546875ZM24.5898 10.6217C23.2222 10.6217 22.1108 9.46735 22.1108 8.04688C22.1108 6.6264 23.2222 5.47206 24.5898 5.47206C25.9575 5.47206 27.0689 6.6264 27.0689 8.04688C27.0689 9.46735 25.9575 10.6217 24.5898 10.6217ZM41.8689 0.546875C37.8864 0.546875 34.6464 3.91209 34.6464 8.04688C34.6464 12.1817 37.8864 15.5469 41.8689 15.5469C45.8498 15.5469 49.0898 12.1816 49.0898 8.04688C49.0898 3.9121 45.8498 0.546875 41.8689 0.546875ZM41.8689 10.6217C40.5013 10.6217 39.3883 9.46735 39.3883 8.04688C39.3883 6.6264 40.5013 5.47206 41.8689 5.47206C43.2365 5.47206 44.3479 6.6264 44.3479 8.04688C44.3479 9.46735 43.2365 10.6217 41.8689 10.6217Z" fill="white"/>
</svg>
