<svg width="20" height="24" viewBox="0 0 20 24" fill="none" xmlns="http://www.w3.org/2000/svg">
<mask id="path-1-outside-1_2083_6682" maskUnits="userSpaceOnUse" x="0.119141" y="-0.0546875" width="19" height="24" fill="black">
<rect fill="white" x="0.119141" y="-0.0546875" width="19" height="24"/>
<path d="M13.7049 6.52515C13.7049 6.7314 13.6908 6.93765 13.6651 7.14156C13.6768 7.05953 13.6885 6.97515 13.6979 6.89312C13.6416 7.30093 13.5338 7.69703 13.3768 8.07672C13.4072 8.00172 13.4401 7.92672 13.4705 7.85172C13.3135 8.22203 13.1119 8.5689 12.8658 8.88765L13.0135 8.69781C12.7697 9.01187 12.4861 9.29547 12.1721 9.53922L12.3619 9.39156C12.0432 9.63531 11.6963 9.83922 11.326 9.99625C11.401 9.96578 11.476 9.93297 11.551 9.9025C11.1713 10.0595 10.7752 10.1673 10.3674 10.2236C10.4494 10.2119 10.5338 10.2002 10.6158 10.1908C10.2057 10.2447 9.79318 10.2447 9.38302 10.1908C9.46505 10.2025 9.54943 10.2142 9.63146 10.2236C9.22364 10.1673 8.82755 10.0595 8.44786 9.9025C8.52286 9.93297 8.59786 9.96578 8.67286 9.99625C8.30255 9.83922 7.95568 9.63765 7.63693 9.39156L7.82677 9.53922C7.51271 9.29547 7.22911 9.01187 6.98536 8.69781L7.13302 8.88765C6.88927 8.5689 6.68536 8.22203 6.52833 7.85172C6.5588 7.92672 6.59161 8.00172 6.62208 8.07672C6.46505 7.69703 6.35724 7.30093 6.30099 6.89312C6.31271 6.97515 6.32443 7.05953 6.3338 7.14156C6.27989 6.7314 6.27989 6.3189 6.3338 5.90875C6.32208 5.99078 6.31036 6.07515 6.30099 6.15719C6.35724 5.74937 6.46505 5.35328 6.62208 4.97359C6.59161 5.04859 6.5588 5.12359 6.52833 5.19859C6.68536 4.82828 6.88693 4.4814 7.13302 4.16265L6.98536 4.3525C7.22911 4.03843 7.51271 3.75484 7.82677 3.51109L7.63693 3.65875C7.95568 3.415 8.30255 3.21109 8.67286 3.05406C8.59786 3.08453 8.52286 3.11734 8.44786 3.14781C8.82755 2.99078 9.22364 2.88297 9.63146 2.82672C9.54943 2.83843 9.46505 2.85015 9.38302 2.85953C9.79318 2.80562 10.2057 2.80562 10.6158 2.85953C10.5338 2.84781 10.4494 2.83609 10.3674 2.82672C10.7752 2.88297 11.1713 2.99078 11.551 3.14781C11.476 3.11734 11.401 3.08453 11.326 3.05406C11.6963 3.21109 12.0432 3.41265 12.3619 3.65875L12.1721 3.51109C12.4861 3.75484 12.7697 4.03843 13.0135 4.3525L12.8658 4.16265C13.1096 4.4814 13.3135 4.82828 13.4705 5.19859C13.4401 5.12359 13.4072 5.04859 13.3768 4.97359C13.5338 5.35328 13.6416 5.74937 13.6979 6.15719C13.6861 6.07515 13.6744 5.99078 13.6651 5.90875C13.6908 6.11265 13.7025 6.3189 13.7049 6.52515C13.7072 7.015 14.1338 7.48609 14.6424 7.46265C15.1486 7.43922 15.5822 7.05015 15.5799 6.52515C15.5752 5.4025 15.2377 4.25406 14.5768 3.34C14.3986 3.0939 14.2088 2.8525 13.9979 2.63453C13.7846 2.41422 13.5502 2.22437 13.3065 2.03922C12.8635 1.70172 12.369 1.45328 11.844 1.26109C9.72755 0.48531 7.17521 1.17672 5.74318 2.92047C5.5463 3.15953 5.3588 3.40797 5.19943 3.67515C5.04005 3.94 4.91583 4.22125 4.80099 4.50718C4.58536 5.03687 4.47521 5.59937 4.43068 6.1689C4.34396 7.28453 4.63458 8.44937 5.21583 9.40562C5.77599 10.3291 6.62208 11.1212 7.61115 11.5689C7.90177 11.7002 8.19943 11.822 8.5088 11.9087C8.81583 11.9931 9.12755 12.04 9.44396 12.0775C10.0205 12.1455 10.6088 12.0986 11.1783 11.9837C13.3416 11.5431 15.1533 9.67984 15.4885 7.49312C15.5377 7.17437 15.5752 6.85562 15.5752 6.53219C15.5776 6.04234 15.1416 5.57125 14.6377 5.59468C14.1315 5.61109 13.7049 6.00015 13.7049 6.52515ZM16.8151 21.1806H4.78927C4.25724 21.1806 3.72521 21.1853 3.19318 21.1806C3.13458 21.1806 3.07599 21.1759 3.01974 21.1689C3.10177 21.1806 3.18614 21.1923 3.26818 21.2017C3.17443 21.1877 3.08536 21.1619 2.99864 21.1267C3.07364 21.1572 3.14864 21.19 3.22364 21.2205C3.12989 21.1806 3.04318 21.1291 2.96114 21.0658L3.15099 21.2134C3.08068 21.1548 3.01505 21.0916 2.9588 21.0212L3.10646 21.2111C3.04318 21.1291 2.99396 21.0423 2.95177 20.9486C2.98224 21.0236 3.01505 21.0986 3.04552 21.1736C3.01036 21.0869 2.98693 20.9955 2.97052 20.9041C2.98224 20.9861 2.99396 21.0705 3.00333 21.1525C2.96583 20.8689 2.99161 20.5689 2.99161 20.283V19.2798C2.99161 19.0291 3.00568 18.7806 3.03849 18.5322C3.02677 18.6142 3.01505 18.6986 3.00568 18.7806C3.0713 18.3002 3.19786 17.8291 3.38771 17.3814C3.35724 17.4564 3.32443 17.5314 3.29396 17.6064C3.47677 17.1798 3.71114 16.7791 3.99474 16.4111L3.84708 16.6009C4.13068 16.2377 4.45646 15.9095 4.82208 15.6259L4.63224 15.7736C5.00021 15.49 5.40099 15.2556 5.82755 15.0728C5.75255 15.1033 5.67755 15.1361 5.60255 15.1666C6.05021 14.9791 6.51896 14.8502 7.00177 14.7845C6.91974 14.7962 6.83536 14.808 6.75333 14.8173C7.10021 14.7728 7.44474 14.7705 7.79396 14.7705H12.083C12.4697 14.7705 12.8541 14.7681 13.2408 14.8173C13.1588 14.8056 13.0744 14.7939 12.9924 14.7845C13.4729 14.8502 13.944 14.9767 14.3916 15.1666C14.3166 15.1361 14.2416 15.1033 14.1666 15.0728C14.5932 15.2556 14.994 15.49 15.3619 15.7736L15.1721 15.6259C15.5354 15.9095 15.8635 16.2353 16.1471 16.6009L15.9994 16.4111C16.283 16.7791 16.5174 17.1798 16.7002 17.6064C16.6697 17.5314 16.6369 17.4564 16.6065 17.3814C16.794 17.8291 16.9229 18.2978 16.9885 18.7806C16.9768 18.6986 16.965 18.6142 16.9557 18.5322C17.0002 18.8861 17.0026 19.2377 17.0026 19.5939V20.7541C17.0026 20.8877 17.0072 21.0212 16.9908 21.1525C17.0026 21.0705 17.0143 20.9861 17.0236 20.9041C17.0096 20.9978 16.9838 21.0869 16.9486 21.1736C16.9791 21.0986 17.0119 21.0236 17.0424 20.9486C17.0026 21.0423 16.951 21.1291 16.8877 21.2111L17.0354 21.0212C16.9768 21.0916 16.9135 21.1572 16.8432 21.2134L17.033 21.0658C16.951 21.1291 16.8643 21.1783 16.7705 21.2205C16.8455 21.19 16.9205 21.1572 16.9955 21.1267C16.9088 21.1619 16.8174 21.1853 16.726 21.2017C16.808 21.19 16.8924 21.1783 16.9744 21.1689C16.9229 21.1759 16.869 21.1783 16.8151 21.1806C16.5736 21.183 16.3252 21.2837 16.1518 21.4548C15.9901 21.6166 15.8658 21.8837 15.8776 22.1181C15.901 22.6197 16.2901 23.0627 16.8151 23.0556C17.7268 23.0416 18.5283 22.4462 18.7955 21.572C18.901 21.2252 18.8776 20.8525 18.8776 20.4962C18.8776 19.6806 18.9033 18.872 18.7627 18.0634C18.5565 16.8798 17.9611 15.7666 17.1455 14.8923C16.3299 14.0181 15.233 13.3759 14.0729 13.09C13.4072 12.9259 12.7369 12.9002 12.0572 12.9002H7.89943C7.20333 12.9002 6.51193 12.933 5.83458 13.1134C4.6838 13.4181 3.60099 14.0673 2.80177 14.9486C1.99552 15.8369 1.41193 16.9525 1.22208 18.1431C1.09552 18.9423 1.1213 19.7439 1.1213 20.5502C1.1213 20.9205 1.10021 21.3072 1.2338 21.6611C1.40724 22.1158 1.6838 22.4744 2.08927 22.7439C2.40568 22.9525 2.80646 23.0533 3.18146 23.058C3.36427 23.0603 3.54708 23.058 3.72989 23.058H16.8174C17.3072 23.058 17.7783 22.6267 17.7549 22.1205C17.7315 21.6095 17.3424 21.1806 16.8151 21.1806Z"/>
</mask>
<path d="M13.7049 6.52515C13.7049 6.7314 13.6908 6.93765 13.6651 7.14156C13.6768 7.05953 13.6885 6.97515 13.6979 6.89312C13.6416 7.30093 13.5338 7.69703 13.3768 8.07672C13.4072 8.00172 13.4401 7.92672 13.4705 7.85172C13.3135 8.22203 13.1119 8.5689 12.8658 8.88765L13.0135 8.69781C12.7697 9.01187 12.4861 9.29547 12.1721 9.53922L12.3619 9.39156C12.0432 9.63531 11.6963 9.83922 11.326 9.99625C11.401 9.96578 11.476 9.93297 11.551 9.9025C11.1713 10.0595 10.7752 10.1673 10.3674 10.2236C10.4494 10.2119 10.5338 10.2002 10.6158 10.1908C10.2057 10.2447 9.79318 10.2447 9.38302 10.1908C9.46505 10.2025 9.54943 10.2142 9.63146 10.2236C9.22364 10.1673 8.82755 10.0595 8.44786 9.9025C8.52286 9.93297 8.59786 9.96578 8.67286 9.99625C8.30255 9.83922 7.95568 9.63765 7.63693 9.39156L7.82677 9.53922C7.51271 9.29547 7.22911 9.01187 6.98536 8.69781L7.13302 8.88765C6.88927 8.5689 6.68536 8.22203 6.52833 7.85172C6.5588 7.92672 6.59161 8.00172 6.62208 8.07672C6.46505 7.69703 6.35724 7.30093 6.30099 6.89312C6.31271 6.97515 6.32443 7.05953 6.3338 7.14156C6.27989 6.7314 6.27989 6.3189 6.3338 5.90875C6.32208 5.99078 6.31036 6.07515 6.30099 6.15719C6.35724 5.74937 6.46505 5.35328 6.62208 4.97359C6.59161 5.04859 6.5588 5.12359 6.52833 5.19859C6.68536 4.82828 6.88693 4.4814 7.13302 4.16265L6.98536 4.3525C7.22911 4.03843 7.51271 3.75484 7.82677 3.51109L7.63693 3.65875C7.95568 3.415 8.30255 3.21109 8.67286 3.05406C8.59786 3.08453 8.52286 3.11734 8.44786 3.14781C8.82755 2.99078 9.22364 2.88297 9.63146 2.82672C9.54943 2.83843 9.46505 2.85015 9.38302 2.85953C9.79318 2.80562 10.2057 2.80562 10.6158 2.85953C10.5338 2.84781 10.4494 2.83609 10.3674 2.82672C10.7752 2.88297 11.1713 2.99078 11.551 3.14781C11.476 3.11734 11.401 3.08453 11.326 3.05406C11.6963 3.21109 12.0432 3.41265 12.3619 3.65875L12.1721 3.51109C12.4861 3.75484 12.7697 4.03843 13.0135 4.3525L12.8658 4.16265C13.1096 4.4814 13.3135 4.82828 13.4705 5.19859C13.4401 5.12359 13.4072 5.04859 13.3768 4.97359C13.5338 5.35328 13.6416 5.74937 13.6979 6.15719C13.6861 6.07515 13.6744 5.99078 13.6651 5.90875C13.6908 6.11265 13.7025 6.3189 13.7049 6.52515C13.7072 7.015 14.1338 7.48609 14.6424 7.46265C15.1486 7.43922 15.5822 7.05015 15.5799 6.52515C15.5752 5.4025 15.2377 4.25406 14.5768 3.34C14.3986 3.0939 14.2088 2.8525 13.9979 2.63453C13.7846 2.41422 13.5502 2.22437 13.3065 2.03922C12.8635 1.70172 12.369 1.45328 11.844 1.26109C9.72755 0.48531 7.17521 1.17672 5.74318 2.92047C5.5463 3.15953 5.3588 3.40797 5.19943 3.67515C5.04005 3.94 4.91583 4.22125 4.80099 4.50718C4.58536 5.03687 4.47521 5.59937 4.43068 6.1689C4.34396 7.28453 4.63458 8.44937 5.21583 9.40562C5.77599 10.3291 6.62208 11.1212 7.61115 11.5689C7.90177 11.7002 8.19943 11.822 8.5088 11.9087C8.81583 11.9931 9.12755 12.04 9.44396 12.0775C10.0205 12.1455 10.6088 12.0986 11.1783 11.9837C13.3416 11.5431 15.1533 9.67984 15.4885 7.49312C15.5377 7.17437 15.5752 6.85562 15.5752 6.53219C15.5776 6.04234 15.1416 5.57125 14.6377 5.59468C14.1315 5.61109 13.7049 6.00015 13.7049 6.52515ZM16.8151 21.1806H4.78927C4.25724 21.1806 3.72521 21.1853 3.19318 21.1806C3.13458 21.1806 3.07599 21.1759 3.01974 21.1689C3.10177 21.1806 3.18614 21.1923 3.26818 21.2017C3.17443 21.1877 3.08536 21.1619 2.99864 21.1267C3.07364 21.1572 3.14864 21.19 3.22364 21.2205C3.12989 21.1806 3.04318 21.1291 2.96114 21.0658L3.15099 21.2134C3.08068 21.1548 3.01505 21.0916 2.9588 21.0212L3.10646 21.2111C3.04318 21.1291 2.99396 21.0423 2.95177 20.9486C2.98224 21.0236 3.01505 21.0986 3.04552 21.1736C3.01036 21.0869 2.98693 20.9955 2.97052 20.9041C2.98224 20.9861 2.99396 21.0705 3.00333 21.1525C2.96583 20.8689 2.99161 20.5689 2.99161 20.283V19.2798C2.99161 19.0291 3.00568 18.7806 3.03849 18.5322C3.02677 18.6142 3.01505 18.6986 3.00568 18.7806C3.0713 18.3002 3.19786 17.8291 3.38771 17.3814C3.35724 17.4564 3.32443 17.5314 3.29396 17.6064C3.47677 17.1798 3.71114 16.7791 3.99474 16.4111L3.84708 16.6009C4.13068 16.2377 4.45646 15.9095 4.82208 15.6259L4.63224 15.7736C5.00021 15.49 5.40099 15.2556 5.82755 15.0728C5.75255 15.1033 5.67755 15.1361 5.60255 15.1666C6.05021 14.9791 6.51896 14.8502 7.00177 14.7845C6.91974 14.7962 6.83536 14.808 6.75333 14.8173C7.10021 14.7728 7.44474 14.7705 7.79396 14.7705H12.083C12.4697 14.7705 12.8541 14.7681 13.2408 14.8173C13.1588 14.8056 13.0744 14.7939 12.9924 14.7845C13.4729 14.8502 13.944 14.9767 14.3916 15.1666C14.3166 15.1361 14.2416 15.1033 14.1666 15.0728C14.5932 15.2556 14.994 15.49 15.3619 15.7736L15.1721 15.6259C15.5354 15.9095 15.8635 16.2353 16.1471 16.6009L15.9994 16.4111C16.283 16.7791 16.5174 17.1798 16.7002 17.6064C16.6697 17.5314 16.6369 17.4564 16.6065 17.3814C16.794 17.8291 16.9229 18.2978 16.9885 18.7806C16.9768 18.6986 16.965 18.6142 16.9557 18.5322C17.0002 18.8861 17.0026 19.2377 17.0026 19.5939V20.7541C17.0026 20.8877 17.0072 21.0212 16.9908 21.1525C17.0026 21.0705 17.0143 20.9861 17.0236 20.9041C17.0096 20.9978 16.9838 21.0869 16.9486 21.1736C16.9791 21.0986 17.0119 21.0236 17.0424 20.9486C17.0026 21.0423 16.951 21.1291 16.8877 21.2111L17.0354 21.0212C16.9768 21.0916 16.9135 21.1572 16.8432 21.2134L17.033 21.0658C16.951 21.1291 16.8643 21.1783 16.7705 21.2205C16.8455 21.19 16.9205 21.1572 16.9955 21.1267C16.9088 21.1619 16.8174 21.1853 16.726 21.2017C16.808 21.19 16.8924 21.1783 16.9744 21.1689C16.9229 21.1759 16.869 21.1783 16.8151 21.1806C16.5736 21.183 16.3252 21.2837 16.1518 21.4548C15.9901 21.6166 15.8658 21.8837 15.8776 22.1181C15.901 22.6197 16.2901 23.0627 16.8151 23.0556C17.7268 23.0416 18.5283 22.4462 18.7955 21.572C18.901 21.2252 18.8776 20.8525 18.8776 20.4962C18.8776 19.6806 18.9033 18.872 18.7627 18.0634C18.5565 16.8798 17.9611 15.7666 17.1455 14.8923C16.3299 14.0181 15.233 13.3759 14.0729 13.09C13.4072 12.9259 12.7369 12.9002 12.0572 12.9002H7.89943C7.20333 12.9002 6.51193 12.933 5.83458 13.1134C4.6838 13.4181 3.60099 14.0673 2.80177 14.9486C1.99552 15.8369 1.41193 16.9525 1.22208 18.1431C1.09552 18.9423 1.1213 19.7439 1.1213 20.5502C1.1213 20.9205 1.10021 21.3072 1.2338 21.6611C1.40724 22.1158 1.6838 22.4744 2.08927 22.7439C2.40568 22.9525 2.80646 23.0533 3.18146 23.058C3.36427 23.0603 3.54708 23.058 3.72989 23.058H16.8174C17.3072 23.058 17.7783 22.6267 17.7549 22.1205C17.7315 21.6095 17.3424 21.1806 16.8151 21.1806Z" fill="#0468BF"/>
<path d="M13.6651 7.14156L13.4666 7.11647L13.863 7.16984L13.6651 7.14156ZM13.6979 6.89312L13.8966 6.91583L13.4997 6.86579L13.6979 6.89312ZM13.3768 8.07672L13.1915 8.00144L13.5616 8.15315L13.3768 8.07672ZM13.4705 7.85172L13.6558 7.92699L13.2864 7.77364L13.4705 7.85172ZM12.8658 8.88765L12.7075 8.76543L13.0237 9.01044L12.8658 8.88765ZM13.0135 8.69781L13.1715 8.82043L12.8556 8.57502L13.0135 8.69781ZM12.1721 9.53922L12.0493 9.38134L12.2947 9.69721L12.1721 9.53922ZM12.3619 9.39156L12.4847 9.54943L12.2404 9.23269L12.3619 9.39156ZM11.326 9.99625L11.2479 9.81212L11.4013 10.1815L11.326 9.99625ZM11.551 9.9025L11.6274 10.0873L11.4757 9.7172L11.551 9.9025ZM10.3674 10.2236L10.3391 10.0256L10.3947 10.4217L10.3674 10.2236ZM10.6158 10.1908L10.6419 10.3891L10.5931 9.99207L10.6158 10.1908ZM9.38302 10.1908L9.40908 9.99248L9.35474 10.3888L9.38302 10.1908ZM9.63146 10.2236L9.60875 10.4223L9.65878 10.0255L9.63146 10.2236ZM8.44786 9.9025L8.52314 9.7172L8.37143 10.0873L8.44786 9.9025ZM8.67286 9.99625L8.59759 10.1815L8.75094 9.81212L8.67286 9.99625ZM7.63693 9.39156L7.75915 9.23325L7.51414 9.54943L7.63693 9.39156ZM7.82677 9.53922L7.70414 9.69721L7.94956 9.38134L7.82677 9.53922ZM6.98536 8.69781L7.14323 8.57502L6.82737 8.82043L6.98536 8.69781ZM7.13302 8.88765L6.97515 9.01044L7.29189 8.76616L7.13302 8.88765ZM6.52833 7.85172L6.71246 7.77364L6.34304 7.92699L6.52833 7.85172ZM6.62208 8.07672L6.43726 8.15315L6.80738 8.00144L6.62208 8.07672ZM6.30099 6.89312L6.49898 6.86484L6.10286 6.92045L6.30099 6.89312ZM6.3338 7.14156L6.13551 7.16762L6.53251 7.11885L6.3338 7.14156ZM6.3338 5.90875L6.5321 5.93481L6.13581 5.88046L6.3338 5.90875ZM6.30099 6.15719L6.10228 6.13448L6.49911 6.18451L6.30099 6.15719ZM6.62208 4.97359L6.80738 5.04887L6.43726 4.89715L6.62208 4.97359ZM6.52833 5.19859L6.34304 5.12332L6.71246 5.27667L6.52833 5.19859ZM7.13302 4.16265L7.29133 4.28488L6.97515 4.03987L7.13302 4.16265ZM6.98536 4.3525L6.82737 4.22987L7.14323 4.47529L6.98536 4.3525ZM7.82677 3.51109L7.94956 3.66896L7.70414 3.35309L7.82677 3.51109ZM7.63693 3.65875L7.51414 3.50088L7.75842 3.81762L7.63693 3.65875ZM8.67286 3.05406L8.75094 3.23819L8.59759 2.86877L8.67286 3.05406ZM8.44786 3.14781L8.37143 2.96299L8.52314 3.3331L8.44786 3.14781ZM9.63146 2.82672L9.65974 3.02471L9.60413 2.62859L9.63146 2.82672ZM9.38302 2.85953L9.35696 2.66123L9.40573 3.05824L9.38302 2.85953ZM10.6158 2.85953L10.5898 3.05782L10.6441 2.66154L10.6158 2.85953ZM10.3674 2.82672L10.3901 2.62801L10.3401 3.02484L10.3674 2.82672ZM11.551 3.14781L11.4757 3.3331L11.6274 2.96299L11.551 3.14781ZM11.326 3.05406L11.4013 2.86877L11.2479 3.23819L11.326 3.05406ZM12.3619 3.65875L12.2397 3.81706L12.4847 3.50088L12.3619 3.65875ZM12.1721 3.51109L12.2947 3.35309L12.0493 3.66896L12.1721 3.51109ZM13.0135 4.3525L12.8556 4.47529L13.1715 4.22987L13.0135 4.3525ZM12.8658 4.16265L13.0237 4.03987L12.707 4.28414L12.8658 4.16265ZM13.4705 5.19859L13.2864 5.27667L13.6558 5.12332L13.4705 5.19859ZM13.3768 4.97359L13.5616 4.89715L13.1915 5.04887L13.3768 4.97359ZM13.6979 6.15719L13.4999 6.18547L13.896 6.12986L13.6979 6.15719ZM13.6651 5.90875L13.8635 5.88366L13.4663 5.93146L13.6651 5.90875ZM14.6424 7.46265L14.6516 7.66244L14.6516 7.66244L14.6424 7.46265ZM15.5799 6.52515L15.3799 6.52599V6.52605L15.5799 6.52515ZM14.5768 3.34L14.7388 3.22281L14.7388 3.22273L14.5768 3.34ZM13.9979 2.63453L14.1416 2.49544L14.1416 2.49542L13.9979 2.63453ZM13.3065 2.03922L13.1852 2.1983L13.1855 2.19848L13.3065 2.03922ZM11.844 1.26109L11.7751 1.44887L11.7752 1.4489L11.844 1.26109ZM5.74318 2.92047L5.89756 3.04761L5.89774 3.0474L5.74318 2.92047ZM5.19943 3.67515L5.37079 3.77828L5.37119 3.77761L5.19943 3.67515ZM4.80099 4.50718L4.98623 4.58259L4.98658 4.58173L4.80099 4.50718ZM4.43068 6.1689L4.23128 6.15331L4.23128 6.1534L4.43068 6.1689ZM5.21583 9.40562L5.38683 9.30189L5.38674 9.30174L5.21583 9.40562ZM7.61115 11.5689L7.52868 11.7511L7.52883 11.7512L7.61115 11.5689ZM8.5088 11.9087L8.45482 12.1013L8.4558 12.1016L8.5088 11.9087ZM9.44396 12.0775L9.42042 12.2761L9.42054 12.2761L9.44396 12.0775ZM11.1783 11.9837L11.2179 12.1798L11.2182 12.1797L11.1783 11.9837ZM15.4885 7.49312L15.2908 7.4626L15.2908 7.46282L15.4885 7.49312ZM15.5752 6.53219L15.3752 6.53123V6.53219H15.5752ZM14.6377 5.59468L14.6442 5.7946L14.647 5.79447L14.6377 5.59468ZM3.19318 21.1806L3.19494 20.9806H3.19318V21.1806ZM3.01974 21.1689L3.04455 20.9704L2.99145 21.3669L3.01974 21.1689ZM3.26818 21.2017L3.24547 21.4004L3.29784 21.0039L3.26818 21.2017ZM2.99864 21.1267L3.07379 20.9414L2.92337 21.312L2.99864 21.1267ZM3.22364 21.2205L3.14837 21.4058L3.30187 21.0364L3.22364 21.2205ZM2.96114 21.0658L3.08331 20.9074L2.83836 21.2236L2.96114 21.0658ZM3.15099 21.2134L3.0282 21.3713L3.27903 21.0598L3.15099 21.2134ZM2.9588 21.0212L3.11497 20.8963L2.80093 21.144L2.9588 21.0212ZM3.10646 21.2111L2.94859 21.3339L3.26481 21.0889L3.10646 21.2111ZM2.95177 20.9486L3.13415 20.8665L2.76648 21.0239L2.95177 20.9486ZM3.04552 21.1736L2.86023 21.2489L3.23087 21.0984L3.04552 21.1736ZM2.97052 20.9041L3.16737 20.8687L2.77253 20.9323L2.97052 20.9041ZM3.00333 21.1525L2.80506 21.1787L3.20204 21.1298L3.00333 21.1525ZM3.03849 18.5322L3.23677 18.5584L2.8405 18.5039L3.03849 18.5322ZM3.00568 18.7806L2.80697 18.7579L3.20384 18.8077L3.00568 18.7806ZM3.38771 17.3814L3.573 17.4567L3.20358 17.3033L3.38771 17.3814ZM3.29396 17.6064L3.10866 17.5311L3.47779 17.6852L3.29396 17.6064ZM3.99474 16.4111L4.15315 16.5332L3.83687 16.2883L3.99474 16.4111ZM3.84708 16.6009L3.68921 16.4781L4.00473 16.724L3.84708 16.6009ZM4.82208 15.6259L4.94487 15.7838L4.6995 15.4679L4.82208 15.6259ZM4.63224 15.7736L4.50945 15.6157L4.75433 15.932L4.63224 15.7736ZM5.82755 15.0728L5.90633 15.2566L5.75228 14.8875L5.82755 15.0728ZM5.60255 15.1666L5.52529 14.9821L5.67783 15.3519L5.60255 15.1666ZM7.00177 14.7845L7.03005 14.9825L6.97483 14.5863L7.00177 14.7845ZM6.75333 14.8173L6.72787 14.619L6.77604 15.016L6.75333 14.8173ZM13.2408 14.8173L13.2156 15.0157L13.2691 14.6194L13.2408 14.8173ZM12.9924 14.7845L13.0151 14.5858L12.9653 14.9827L12.9924 14.7845ZM14.3916 15.1666L14.3163 15.3519L14.4697 14.9824L14.3916 15.1666ZM14.1666 15.0728L14.2419 14.8875L14.0878 15.2566L14.1666 15.0728ZM15.3619 15.7736L15.2398 15.932L15.4847 15.6157L15.3619 15.7736ZM15.1721 15.6259L15.2949 15.4681L15.049 15.7836L15.1721 15.6259ZM16.1471 16.6009L15.9892 16.7237L16.3051 16.4784L16.1471 16.6009ZM15.9994 16.4111L16.1573 16.2883L15.841 16.5332L15.9994 16.4111ZM16.7002 17.6064L16.5164 17.6852L16.8855 17.5311L16.7002 17.6064ZM16.6065 17.3814L16.7909 17.3041L16.4212 17.4567L16.6065 17.3814ZM16.9885 18.7806L16.7905 18.8089L17.1867 18.7537L16.9885 18.7806ZM16.9557 18.5322L17.1541 18.5072L16.757 18.5549L16.9557 18.5322ZM16.9908 21.1525L16.7924 21.1277L17.1888 21.1808L16.9908 21.1525ZM17.0236 20.9041L17.2224 20.9268L16.8259 20.8744L17.0236 20.9041ZM16.9486 21.1736L16.7633 21.0984L17.1339 21.2489L16.9486 21.1736ZM17.0424 20.9486L17.2277 21.0239L16.8583 20.8704L17.0424 20.9486ZM16.8877 21.2111L16.7294 21.0889L17.0456 21.3339L16.8877 21.2111ZM17.0354 21.0212L17.1932 21.144L16.8817 20.8932L17.0354 21.0212ZM16.8432 21.2134L16.7182 21.0573L16.966 21.3713L16.8432 21.2134ZM17.033 21.0658L17.1558 21.2236L16.9109 20.9074L17.033 21.0658ZM16.7705 21.2205L16.6884 21.0381L16.8458 21.4058L16.7705 21.2205ZM16.9955 21.1267L17.0708 21.312L16.9204 20.9414L16.9955 21.1267ZM16.726 21.2017L16.6907 21.0049L16.7543 21.3997L16.726 21.2017ZM16.9744 21.1689L17.0014 21.3671L16.9517 20.9702L16.9744 21.1689ZM16.1518 21.4548L16.0113 21.3125L16.0103 21.3134L16.1518 21.4548ZM15.8776 22.1181L16.0773 22.1088L16.0773 22.1081L15.8776 22.1181ZM16.8151 23.0556L16.8177 23.2556L16.8181 23.2556L16.8151 23.0556ZM18.7955 21.572L18.9868 21.6305L18.9869 21.6302L18.7955 21.572ZM18.7627 18.0634L18.9597 18.0292L18.9597 18.0291L18.7627 18.0634ZM14.0729 13.09L14.025 13.2842L14.025 13.2842L14.0729 13.09ZM5.83458 13.1134L5.88577 13.3068L5.88607 13.3067L5.83458 13.1134ZM2.80177 14.9486L2.94986 15.083L2.94992 15.0829L2.80177 14.9486ZM1.22208 18.1431L1.02458 18.1116L1.02454 18.1118L1.22208 18.1431ZM1.2338 21.6611L1.04669 21.7317L1.04693 21.7324L1.2338 21.6611ZM2.08927 22.7439L1.97855 22.9105L1.97919 22.9109L2.08927 22.7439ZM3.18146 23.058L3.18402 22.858L3.18396 22.858L3.18146 23.058ZM17.7549 22.1205L17.5551 22.1296L17.5551 22.1297L17.7549 22.1205ZM13.5049 6.52515C13.5049 6.72235 13.4914 6.9202 13.4666 7.11647L13.8635 7.16665C13.8902 6.95511 13.9049 6.74046 13.9049 6.52515H13.5049ZM13.863 7.16984C13.8748 7.08757 13.8869 7.00084 13.8966 6.91583L13.4992 6.87041C13.4901 6.94947 13.4787 7.03149 13.4671 7.11328L13.863 7.16984ZM13.4997 6.86579C13.4458 7.2566 13.3425 7.6362 13.192 8.00028L13.5616 8.15315C13.7251 7.75786 13.8374 7.34527 13.896 6.92045L13.4997 6.86579ZM13.5621 8.15199C13.5767 8.11593 13.592 8.07967 13.6079 8.04196C13.6236 8.00467 13.64 7.96593 13.6558 7.92699L13.2852 7.77644C13.2706 7.8125 13.2553 7.84877 13.2394 7.88648C13.2236 7.92377 13.2073 7.9625 13.1915 8.00144L13.5621 8.15199ZM13.2864 7.77364C13.1359 8.12854 12.9429 8.46053 12.7075 8.76543L13.0241 9.00988C13.2809 8.67728 13.4911 8.31552 13.6546 7.9298L13.2864 7.77364ZM13.0237 9.01044L13.1714 8.8206L12.8556 8.57502L12.708 8.76487L13.0237 9.01044ZM12.8555 8.57518C12.622 8.87602 12.3503 9.14773 12.0495 9.38122L12.2947 9.69721C12.622 9.4432 12.9175 9.14772 13.1715 8.82043L12.8555 8.57518ZM12.2949 9.69709L12.4847 9.54943L12.2391 9.23369L12.0493 9.38134L12.2949 9.69709ZM12.2404 9.23269C11.9346 9.46659 11.6022 9.66187 11.2479 9.81212L11.4041 10.1804C11.7904 10.0166 12.1518 9.80403 12.4834 9.55043L12.2404 9.23269ZM11.4013 10.1815C11.4402 10.1657 11.4789 10.1494 11.5162 10.1336C11.5539 10.1177 11.5902 10.1024 11.6263 10.0878L11.4757 9.7172C11.4368 9.73302 11.398 9.74937 11.3607 9.7651C11.323 9.78101 11.2868 9.7963 11.2507 9.81095L11.4013 10.1815ZM11.4746 9.71768C11.1105 9.86825 10.7309 9.97156 10.3401 10.0255L10.3947 10.4217C10.8195 10.3631 11.2321 10.2508 11.6274 10.0873L11.4746 9.71768ZM10.3957 10.4216C10.4775 10.4099 10.5595 10.3985 10.6385 10.3895L10.5931 9.99207C10.5081 10.0018 10.4214 10.0138 10.3391 10.0256L10.3957 10.4216ZM10.5898 9.99248C10.1969 10.0441 9.80194 10.0441 9.40908 9.99248L9.35696 10.3891C9.78442 10.4453 10.2144 10.4453 10.6419 10.3891L10.5898 9.99248ZM9.35474 10.3888C9.43701 10.4005 9.52374 10.4126 9.60875 10.4223L9.65417 10.0249C9.57512 10.0159 9.4931 10.0045 9.4113 9.99279L9.35474 10.3888ZM9.65878 10.0255C9.26798 9.97156 8.88838 9.86825 8.5243 9.71768L8.37143 10.0873C8.76672 10.2508 9.17931 10.3631 9.60413 10.4217L9.65878 10.0255ZM8.37259 10.0878C8.40864 10.1024 8.44491 10.1177 8.48262 10.1336C8.51991 10.1494 8.55864 10.1657 8.59759 10.1815L8.74814 9.81095C8.71208 9.79631 8.67581 9.78101 8.6381 9.7651C8.60081 9.74937 8.56208 9.73302 8.52314 9.7172L8.37259 10.0878ZM8.75094 9.81212C8.39604 9.66162 8.06405 9.46865 7.75915 9.23325L7.5147 9.54987C7.8473 9.80665 8.20906 10.0168 8.59478 10.1804L8.75094 9.81212ZM7.51414 9.54943L7.70398 9.69709L7.94956 9.38134L7.75971 9.23369L7.51414 9.54943ZM7.94939 9.38122C7.64856 9.14773 7.37685 8.87602 7.14336 8.57518L6.82737 8.82043C7.08138 9.14772 7.37686 9.4432 7.70414 9.69721L7.94939 9.38122ZM6.82749 8.8206L6.97515 9.01044L7.29089 8.76486L7.14323 8.57502L6.82749 8.8206ZM7.29189 8.76616C7.05799 8.4603 6.8627 8.12794 6.71246 7.77364L6.3442 7.9298C6.50802 8.31611 6.72055 8.67751 6.97415 9.00914L7.29189 8.76616ZM6.34304 7.92699C6.35886 7.96593 6.3752 8.00467 6.39093 8.04196C6.40684 8.07967 6.42214 8.11593 6.43679 8.15199L6.80738 8.00144C6.79155 7.9625 6.77521 7.92377 6.75948 7.88648C6.74357 7.84877 6.72827 7.8125 6.71363 7.77644L6.34304 7.92699ZM6.8069 8.00028C6.65632 7.6362 6.55302 7.2566 6.49911 6.86579L6.10286 6.92045C6.16146 7.34527 6.27378 7.75785 6.43726 8.15315L6.8069 8.00028ZM6.103 6.92141C6.11468 7.0032 6.12606 7.08522 6.13509 7.16427L6.53251 7.11885C6.52279 7.03384 6.51073 6.94711 6.49898 6.86484L6.103 6.92141ZM6.5321 7.1155C6.48046 6.72264 6.48046 6.32767 6.5321 5.93481L6.13551 5.88269C6.07933 6.31014 6.07933 6.74016 6.13551 7.16762L6.5321 7.1155ZM6.13581 5.88046C6.12406 5.96273 6.112 6.04947 6.10228 6.13448L6.4997 6.17989C6.50873 6.10084 6.52011 6.01882 6.53179 5.93703L6.13581 5.88046ZM6.49911 6.18451C6.55302 5.7937 6.65632 5.41411 6.8069 5.05003L6.43726 4.89715C6.27378 5.29245 6.16146 5.70504 6.10286 6.12986L6.49911 6.18451ZM6.43679 4.89832C6.42214 4.93437 6.40684 4.97064 6.39093 5.00835C6.3752 5.04564 6.35886 5.08437 6.34304 5.12332L6.71363 5.27387C6.72827 5.23781 6.74357 5.20154 6.75948 5.16383C6.77521 5.12654 6.79155 5.08781 6.80738 5.04887L6.43679 4.89832ZM6.71246 5.27667C6.86296 4.92177 7.05592 4.58978 7.29133 4.28488L6.97471 4.04043C6.71793 4.37303 6.50777 4.73479 6.3442 5.12051L6.71246 5.27667ZM6.97515 4.03987L6.82749 4.22971L7.14323 4.47529L7.29089 4.28544L6.97515 4.03987ZM7.14336 4.47512C7.37685 4.17428 7.64856 3.90257 7.94939 3.66909L7.70414 3.35309C7.37686 3.60711 7.08138 3.90259 6.82737 4.22987L7.14336 4.47512ZM7.70398 3.35322L7.51414 3.50088L7.75971 3.81662L7.94956 3.66896L7.70398 3.35322ZM7.75842 3.81762C8.06428 3.58372 8.39664 3.38843 8.75094 3.23819L8.59478 2.86993C8.20846 3.03375 7.84707 3.24627 7.51544 3.49988L7.75842 3.81762ZM8.59759 2.86877C8.55864 2.88459 8.51991 2.90093 8.48262 2.91666C8.44491 2.93257 8.40864 2.94787 8.37259 2.96252L8.52314 3.3331C8.56208 3.31728 8.60081 3.30094 8.6381 3.28521C8.67581 3.2693 8.71208 3.254 8.74814 3.23935L8.59759 2.86877ZM8.5243 3.33263C8.88838 3.18205 9.26798 3.07874 9.65878 3.02484L9.60413 2.62859C9.17931 2.68719 8.76672 2.79951 8.37143 2.96299L8.5243 3.33263ZM9.60317 2.62873C9.52138 2.64041 9.43936 2.65179 9.36031 2.66082L9.40573 3.05824C9.49074 3.04852 9.57747 3.03646 9.65974 3.02471L9.60317 2.62873ZM9.40908 3.05782C9.80194 3.00619 10.1969 3.00619 10.5898 3.05782L10.6419 2.66123C10.2144 2.60505 9.78442 2.60505 9.35696 2.66123L9.40908 3.05782ZM10.6441 2.66154C10.5618 2.64979 10.4751 2.63773 10.3901 2.62801L10.3447 3.02542C10.4237 3.03446 10.5058 3.04583 10.5875 3.05752L10.6441 2.66154ZM10.3401 3.02484C10.7309 3.07874 11.1105 3.18205 11.4746 3.33263L11.6274 2.96299C11.2321 2.79951 10.8195 2.68719 10.3947 2.62859L10.3401 3.02484ZM11.6263 2.96252C11.5902 2.94787 11.5539 2.93257 11.5162 2.91666C11.4789 2.90093 11.4402 2.88459 11.4013 2.86877L11.2507 3.23935C11.2868 3.254 11.323 3.2693 11.3607 3.28521C11.398 3.30094 11.4368 3.31728 11.4757 3.3331L11.6263 2.96252ZM11.2479 3.23819C11.6028 3.38869 11.9348 3.58165 12.2397 3.81706L12.4841 3.50044C12.1516 3.24366 11.7898 3.0335 11.4041 2.86993L11.2479 3.23819ZM12.4847 3.50088L12.2949 3.35322L12.0493 3.66896L12.2391 3.81662L12.4847 3.50088ZM12.0495 3.66909C12.3503 3.90257 12.622 4.17428 12.8555 4.47512L13.1715 4.22987C12.9175 3.90259 12.622 3.60711 12.2947 3.35309L12.0495 3.66909ZM13.1714 4.22971L13.0237 4.03987L12.708 4.28544L12.8556 4.47529L13.1714 4.22971ZM12.707 4.28414C12.9409 4.59001 13.1361 4.92236 13.2864 5.27667L13.6546 5.12051C13.4908 4.73419 13.2783 4.3728 13.0247 4.04116L12.707 4.28414ZM13.6558 5.12332C13.64 5.08437 13.6236 5.04564 13.6079 5.00835C13.592 4.97064 13.5767 4.93437 13.5621 4.89832L13.1915 5.04887C13.2073 5.08781 13.2236 5.12654 13.2394 5.16383C13.2553 5.20154 13.2706 5.23781 13.2852 5.27387L13.6558 5.12332ZM13.192 5.05003C13.3425 5.41411 13.4458 5.7937 13.4997 6.18451L13.896 6.12986C13.8374 5.70504 13.7251 5.29245 13.5616 4.89715L13.192 5.05003ZM13.8959 6.1289C13.8842 6.04711 13.8728 5.96509 13.8638 5.88604L13.4663 5.93146C13.4761 6.01647 13.4881 6.1032 13.4999 6.18547L13.8959 6.1289ZM13.4666 5.93384C13.4913 6.12867 13.5026 6.32713 13.5049 6.52743L13.9049 6.52288C13.9025 6.31068 13.8904 6.09664 13.8635 5.88366L13.4666 5.93384ZM13.5049 6.52611C13.5077 7.11336 14.0138 7.69183 14.6516 7.66244L14.6332 7.26287C14.2538 7.28035 13.9068 6.91664 13.9049 6.5242L13.5049 6.52611ZM14.6516 7.66244C15.2492 7.63477 15.7828 7.17159 15.7799 6.52426L15.3799 6.52605C15.3817 6.92871 15.0481 7.24366 14.6331 7.26287L14.6516 7.66244ZM15.7799 6.52432C15.775 5.36419 15.4267 4.17408 14.7388 3.22281L14.4147 3.45719C15.0487 4.33403 15.3754 5.4408 15.3799 6.52599L15.7799 6.52432ZM14.7388 3.22273C14.5578 2.97275 14.3617 2.72294 14.1416 2.49544L13.8541 2.77361C14.0559 2.98205 14.2394 3.21506 14.4148 3.45726L14.7388 3.22273ZM14.1416 2.49542C13.9177 2.26418 13.6738 2.06712 13.4274 1.87995L13.1855 2.19848C13.4266 2.38162 13.6515 2.56426 13.8542 2.77364L14.1416 2.49542ZM13.4277 1.88013C12.9651 1.52773 12.4517 1.2706 11.9127 1.07328L11.7752 1.4489C12.2862 1.63596 12.7618 1.87571 13.1852 2.1983L13.4277 1.88013ZM11.9128 1.07331C9.71676 0.268343 7.07475 0.983909 5.58862 2.79354L5.89774 3.0474C7.27567 1.36952 9.73834 0.702277 11.7751 1.44887L11.9128 1.07331ZM5.58879 2.79332C5.38862 3.03638 5.19422 3.29347 5.02766 3.5727L5.37119 3.77761C5.52339 3.52246 5.70398 3.28268 5.89756 3.04761L5.58879 2.79332ZM5.02806 3.57203C4.86049 3.8505 4.73161 4.14331 4.6154 4.43264L4.98658 4.58173C5.10006 4.29919 5.21962 4.02949 5.37079 3.77828L5.02806 3.57203ZM4.61575 4.43178C4.39049 4.98514 4.27699 5.56883 4.23128 6.15331L4.63007 6.18449C4.67343 5.62992 4.78024 5.08861 4.98623 4.58259L4.61575 4.43178ZM4.23128 6.1534C4.14119 7.31233 4.4427 8.51874 5.04493 9.5095L5.38674 9.30174C4.82647 8.38001 4.54672 7.25673 4.63007 6.1844L4.23128 6.1534ZM5.04483 9.50935C5.62384 10.4639 6.49938 11.2852 7.52868 11.7511L7.69361 11.3867C6.74478 10.9572 5.92814 10.1943 5.38683 9.30189L5.04483 9.50935ZM7.52883 11.7512C7.82314 11.8841 8.13131 12.0106 8.45482 12.1013L8.56278 11.7162C8.26754 11.6334 7.9804 11.5162 7.69346 11.3866L7.52883 11.7512ZM8.4558 12.1016C8.77731 12.1899 9.1007 12.2382 9.42042 12.2761L9.4675 11.8789C9.1544 11.8418 8.85435 11.7963 8.5618 11.7159L8.4558 12.1016ZM9.42054 12.2761C10.023 12.3471 10.6331 12.2977 11.2179 12.1798L11.1388 11.7877C10.5845 11.8995 10.018 11.9438 9.46737 11.8789L9.42054 12.2761ZM11.2182 12.1797C13.4618 11.7228 15.338 9.79483 15.6862 7.52342L15.2908 7.46282C14.9686 9.56485 13.2215 11.3635 11.1384 11.7878L11.2182 12.1797ZM15.6861 7.52364C15.736 7.20082 15.7752 6.87053 15.7752 6.53219H15.3752C15.3752 6.84072 15.3394 7.14792 15.2908 7.4626L15.6861 7.52364ZM15.7752 6.53314C15.778 5.94198 15.2594 5.36555 14.6284 5.3949L14.647 5.79447C15.0238 5.77694 15.3771 6.1427 15.3752 6.53123L15.7752 6.53314ZM14.6312 5.39479C14.0288 5.41431 13.5049 5.88087 13.5049 6.52515H13.9049C13.9049 6.11943 14.2341 5.80787 14.6442 5.79458L14.6312 5.39479ZM16.8151 20.9806H4.78927V21.3806H16.8151V20.9806ZM4.78927 20.9806C4.25474 20.9806 3.72594 20.9853 3.19494 20.9806L3.19141 21.3806C3.72447 21.3853 4.25974 21.3806 4.78927 21.3806V20.9806ZM3.19318 20.9806C3.14497 20.9806 3.09495 20.9767 3.04455 20.9704L2.99493 21.3674C3.05703 21.3751 3.12419 21.3806 3.19318 21.3806V20.9806ZM2.99145 21.3669C3.07373 21.3786 3.16046 21.3907 3.24547 21.4004L3.29089 21.003C3.21183 20.994 3.12981 20.9826 3.04802 20.9709L2.99145 21.3669ZM3.29784 21.0039C3.22148 20.9925 3.14767 20.9713 3.07379 20.9414L2.9235 21.3121C3.02306 21.3524 3.12737 21.3828 3.23851 21.3995L3.29784 21.0039ZM2.92337 21.312C2.95943 21.3267 2.99569 21.342 3.0334 21.3579C3.07069 21.3736 3.10943 21.3899 3.14837 21.4058L3.29892 21.0352C3.26286 21.0205 3.22659 21.0052 3.18888 20.9893C3.15159 20.9736 3.11286 20.9572 3.07392 20.9414L2.92337 21.312ZM3.30187 21.0364C3.22478 21.0036 3.15271 20.961 3.08331 20.9074L2.83898 21.2241C2.93364 21.2972 3.03501 21.3576 3.14542 21.4045L3.30187 21.0364ZM2.83836 21.2236L3.0282 21.3713L3.27378 21.0556L3.08393 20.9079L2.83836 21.2236ZM3.27903 21.0598C3.21582 21.0071 3.16057 20.9533 3.11497 20.8963L2.80263 21.1462C2.86953 21.2298 2.94554 21.3026 3.02295 21.3671L3.27903 21.0598ZM2.80093 21.144L2.94859 21.3339L3.26433 21.0883L3.11667 20.8985L2.80093 21.144ZM3.26481 21.0889C3.21287 21.0216 3.17125 20.949 3.13415 20.8665L2.76939 21.0307C2.81666 21.1357 2.87348 21.2365 2.9481 21.3333L3.26481 21.0889ZM2.76648 21.0239C2.7823 21.0628 2.79864 21.1015 2.81437 21.1388C2.83028 21.1765 2.84558 21.2128 2.86023 21.2489L3.23081 21.0983C3.21499 21.0594 3.19865 21.0206 3.18292 20.9834C3.16701 20.9456 3.15171 20.9094 3.13706 20.8733L2.76648 21.0239ZM3.23087 21.0984C3.20233 21.0281 3.1821 20.9508 3.16737 20.8687L2.77367 20.9394C2.79175 21.0401 2.8184 21.1457 2.86017 21.2487L3.23087 21.0984ZM2.77253 20.9323C2.78421 21.0141 2.79559 21.0962 2.80463 21.1752L3.20204 21.1298C3.19232 21.0448 3.18026 20.958 3.16851 20.8758L2.77253 20.9323ZM3.20161 21.1263C3.16637 20.8598 3.19161 20.5932 3.19161 20.283H2.79161C2.79161 20.5446 2.7653 20.878 2.80506 21.1787L3.20161 21.1263ZM3.19161 20.283V19.2798H2.79161V20.283H3.19161ZM3.19161 19.2798C3.19161 19.0366 3.20525 18.797 3.23677 18.5584L2.84021 18.506C2.8061 18.7643 2.79161 19.0216 2.79161 19.2798H3.19161ZM2.8405 18.5039C2.82875 18.5862 2.81669 18.6729 2.80697 18.7579L3.20438 18.8033C3.21342 18.7243 3.22479 18.6423 3.23648 18.5605L2.8405 18.5039ZM3.20384 18.8077C3.26717 18.344 3.38921 17.8901 3.57183 17.4595L3.20358 17.3033C3.00652 17.768 2.87543 18.2563 2.80752 18.7536L3.20384 18.8077ZM3.20241 17.3061C3.18777 17.3422 3.17247 17.3785 3.15656 17.4162C3.14083 17.4535 3.12448 17.4922 3.10866 17.5311L3.47925 17.6817C3.4939 17.6456 3.5092 17.6094 3.5251 17.5716C3.54084 17.5344 3.55718 17.4956 3.573 17.4567L3.20241 17.3061ZM3.47779 17.6852C3.65406 17.2739 3.87994 16.8877 4.15315 16.5332L3.83633 16.289C3.54235 16.6704 3.29948 17.0858 3.11013 17.5276L3.47779 17.6852ZM3.83687 16.2883L3.68921 16.4781L4.00495 16.7237L4.15261 16.5339L3.83687 16.2883ZM4.00473 16.724C4.27854 16.3733 4.59265 16.057 4.94466 15.784L4.6995 15.4679C4.32027 15.7621 3.98281 16.102 3.68943 16.4779L4.00473 16.724ZM4.69929 15.4681L4.50945 15.6157L4.75503 15.9315L4.94487 15.7838L4.69929 15.4681ZM4.75433 15.932C5.10882 15.6588 5.49503 15.4329 5.90633 15.2566L5.74877 14.889C5.30695 15.0783 4.89159 15.3212 4.51015 15.6152L4.75433 15.932ZM5.75228 14.8875C5.71333 14.9033 5.6746 14.9197 5.63731 14.9354C5.5996 14.9513 5.56333 14.9666 5.52728 14.9813L5.67783 15.3519C5.71677 15.336 5.7555 15.3197 5.79279 15.304C5.8305 15.288 5.86677 15.2727 5.90283 15.2581L5.75228 14.8875ZM5.67982 15.351C6.11165 15.1702 6.5635 15.0459 7.02871 14.9827L6.97483 14.5863C6.47442 14.6544 5.98877 14.788 5.52529 14.9821L5.67982 15.351ZM6.97349 14.5865C6.89169 14.5982 6.80967 14.6096 6.73062 14.6186L6.77604 15.016C6.86105 15.0063 6.94778 14.9943 7.03005 14.9825L6.97349 14.5865ZM6.7788 15.0157C7.11139 14.973 7.44401 14.9705 7.79396 14.9705V14.5705C7.44547 14.5705 7.08903 14.5726 6.72787 14.619L6.7788 15.0157ZM7.79396 14.9705H12.083V14.5705H7.79396V14.9705ZM12.083 14.9705C12.473 14.9705 12.8439 14.9684 13.2156 15.0157L13.2661 14.6189C12.8643 14.5678 12.4665 14.5705 12.083 14.5705V14.9705ZM13.2691 14.6194C13.1868 14.6076 13.1001 14.5955 13.0151 14.5858L12.9697 14.9832C13.0487 14.9923 13.1308 15.0036 13.2125 15.0153L13.2691 14.6194ZM12.9653 14.9827C13.429 15.046 13.8829 15.1681 14.3135 15.3507L14.4697 14.9824C14.005 14.7854 13.5167 14.6543 13.0195 14.5864L12.9653 14.9827ZM14.4669 14.9813C14.4308 14.9666 14.3946 14.9513 14.3569 14.9354C14.3196 14.9197 14.2808 14.9033 14.2419 14.8875L14.0913 15.2581C14.1274 15.2727 14.1637 15.288 14.2014 15.304C14.2387 15.3197 14.2774 15.336 14.3163 15.3519L14.4669 14.9813ZM14.0878 15.2566C14.4991 15.4329 14.8853 15.6588 15.2398 15.932L15.484 15.6152C15.1026 15.3212 14.6872 15.0783 14.2454 14.889L14.0878 15.2566ZM15.4847 15.6157L15.2949 15.4681L15.0493 15.7838L15.2391 15.9315L15.4847 15.6157ZM15.049 15.7836C15.3998 16.0574 15.716 16.3715 15.989 16.7235L16.3051 16.4784C16.011 16.0991 15.671 15.7617 15.2952 15.4683L15.049 15.7836ZM16.305 16.4781L16.1573 16.2883L15.8416 16.5339L15.9892 16.7237L16.305 16.4781ZM15.841 16.5332C16.1142 16.8877 16.3401 17.2739 16.5164 17.6852L16.884 17.5276C16.6947 17.0858 16.4518 16.6704 16.1578 16.289L15.841 16.5332ZM16.8855 17.5311C16.8697 17.4922 16.8533 17.4535 16.8376 17.4162C16.8217 17.3785 16.8064 17.3422 16.7918 17.3061L16.4212 17.4567C16.437 17.4956 16.4533 17.5344 16.4691 17.5716C16.485 17.6094 16.5003 17.6456 16.5149 17.6817L16.8855 17.5311ZM16.422 17.4587C16.6029 17.8905 16.7271 18.3423 16.7903 18.8076L17.1867 18.7537C17.1186 18.2533 16.9851 17.7676 16.7909 17.3041L16.422 17.4587ZM17.1865 18.7523C17.1748 18.6705 17.1634 18.5885 17.1544 18.5095L16.757 18.5549C16.7667 18.6399 16.7787 18.7266 16.7905 18.8089L17.1865 18.7523ZM16.7572 18.5572C16.8 18.897 16.8026 19.2369 16.8026 19.5939H17.2026C17.2026 19.2384 17.2004 18.8751 17.1541 18.5072L16.7572 18.5572ZM16.8026 19.5939V20.7541H17.2026V19.5939H16.8026ZM16.8026 20.7541C16.8026 20.8976 16.8068 21.0125 16.7924 21.1277L17.1893 21.1773C17.2077 21.03 17.2026 20.8777 17.2026 20.7541H16.8026ZM17.1888 21.1808C17.2006 21.0985 17.2126 21.0118 17.2224 20.9268L16.8249 20.8813C16.8159 20.9604 16.8045 21.0424 16.7928 21.1242L17.1888 21.1808ZM16.8259 20.8744C16.8144 20.9508 16.7933 21.0246 16.7633 21.0984L17.134 21.2487C17.1744 21.1492 17.2048 21.0449 17.2214 20.9337L16.8259 20.8744ZM17.1339 21.2489C17.1486 21.2128 17.1639 21.1765 17.1798 21.1388C17.1955 21.1015 17.2119 21.0628 17.2277 21.0239L16.8571 20.8733C16.8425 20.9094 16.8272 20.9456 16.8112 20.9834C16.7955 21.0206 16.7792 21.0594 16.7634 21.0983L17.1339 21.2489ZM16.8583 20.8704C16.8256 20.9475 16.7829 21.0195 16.7294 21.0889L17.0461 21.3333C17.1191 21.2386 17.1795 21.1372 17.2265 21.0268L16.8583 20.8704ZM17.0456 21.3339L17.1932 21.144L16.8775 20.8985L16.7298 21.0883L17.0456 21.3339ZM16.8817 20.8932C16.829 20.9564 16.7752 21.0117 16.7182 21.0573L16.9681 21.3696C17.0517 21.3027 17.1245 21.2267 17.189 21.1493L16.8817 20.8932ZM16.966 21.3713L17.1558 21.2236L16.9102 20.9079L16.7204 21.0556L16.966 21.3713ZM16.9109 20.9074C16.8435 20.9594 16.7709 21.001 16.6884 21.0381L16.8526 21.4028C16.9577 21.3556 17.0585 21.2988 17.1552 21.2241L16.9109 20.9074ZM16.8458 21.4058C16.8847 21.3899 16.9235 21.3736 16.9608 21.3579C16.9985 21.342 17.0347 21.3267 17.0708 21.312L16.9202 20.9414C16.8813 20.9572 16.8426 20.9736 16.8053 20.9893C16.7676 21.0052 16.7313 21.0205 16.6952 21.0352L16.8458 21.4058ZM16.9204 20.9414C16.85 20.9699 16.7727 20.9901 16.6907 21.0049L16.7613 21.3986C16.8621 21.3805 16.9676 21.3538 17.0707 21.3121L16.9204 20.9414ZM16.7543 21.3997C16.8361 21.388 16.9181 21.3766 16.9971 21.3676L16.9517 20.9702C16.8667 20.9799 16.78 20.992 16.6977 21.0037L16.7543 21.3997ZM16.9474 20.9707C16.9066 20.9763 16.8621 20.9784 16.8064 20.9808L16.8237 21.3804C16.8759 21.3782 16.9392 21.3756 17.0014 21.3671L16.9474 20.9707ZM16.8131 20.9806C16.5209 20.9835 16.2225 21.1041 16.0113 21.3125L16.2922 21.5972C16.4279 21.4634 16.6263 21.3825 16.817 21.3806L16.8131 20.9806ZM16.0103 21.3134C15.8166 21.5072 15.6627 21.827 15.6778 22.1281L16.0773 22.1081C16.0689 21.9405 16.1635 21.7259 16.2932 21.5963L16.0103 21.3134ZM15.6778 22.1275C15.7054 22.7178 16.1668 23.2643 16.8177 23.2556L16.8124 22.8556C16.4133 22.861 16.0966 22.5216 16.0773 22.1088L15.6778 22.1275ZM16.8181 23.2556C17.8156 23.2402 18.6939 22.5887 18.9868 21.6305L18.6043 21.5136C18.3627 22.3038 17.6379 22.8429 16.812 22.8556L16.8181 23.2556ZM18.9869 21.6302C19.1034 21.2468 19.0776 20.833 19.0776 20.4962H18.6775C18.6775 20.872 18.6985 21.2035 18.6042 21.5138L18.9869 21.6302ZM19.0776 20.4962C19.0776 19.6901 19.1041 18.8593 18.9597 18.0292L18.5657 18.0977C18.7025 18.8848 18.6775 19.6711 18.6775 20.4962H19.0776ZM18.9597 18.0291C18.7461 16.8032 18.1309 15.6554 17.2918 14.7559L16.9993 15.0288C17.7914 15.8778 18.3668 16.9564 18.5657 18.0978L18.9597 18.0291ZM17.2918 14.7559C16.4495 13.8532 15.3184 13.191 14.1207 12.8958L14.025 13.2842C15.1476 13.5609 16.2103 14.1831 16.9993 15.0288L17.2918 14.7559ZM14.1207 12.8958C13.4306 12.7257 12.7403 12.7002 12.0572 12.7002V13.1002C12.7336 13.1002 13.3839 13.1262 14.025 13.2842L14.1207 12.8958ZM12.0572 12.7002H7.89943V13.1002H12.0572V12.7002ZM7.89943 12.7002C7.19875 12.7002 6.48624 12.7328 5.78309 12.9202L5.88607 13.3067C6.53761 13.1331 7.20792 13.1002 7.89943 13.1002V12.7002ZM5.78339 12.9201C4.5962 13.2344 3.47942 13.9037 2.65362 14.8142L2.94992 15.0829C3.72256 14.231 4.77141 13.6018 5.88577 13.3068L5.78339 12.9201ZM2.65368 14.8142C1.82469 15.7275 1.22129 16.8779 1.02458 18.1116L1.41959 18.1746C1.60256 17.0271 2.16635 15.9462 2.94986 15.083L2.65368 14.8142ZM1.02454 18.1118C0.894845 18.9309 0.921301 19.7533 0.921301 20.5502H1.3213C1.3213 19.7345 1.29619 18.9538 1.41962 18.1744L1.02454 18.1118ZM0.921301 20.5502C0.921301 20.9017 0.896902 21.3349 1.04669 21.7317L1.42091 21.5905C1.30351 21.2794 1.3213 20.9393 1.3213 20.5502H0.921301ZM1.04693 21.7324C1.23435 22.2237 1.53644 22.6166 1.97855 22.9105L2.19999 22.5773C1.83116 22.3322 1.58012 22.0078 1.42067 21.5898L1.04693 21.7324ZM1.97919 22.9109C2.33346 23.1444 2.77342 23.2529 3.17896 23.2579L3.18396 22.858C2.8395 22.8537 2.47789 22.7606 2.19935 22.5769L1.97919 22.9109ZM3.17889 23.2579C3.3632 23.2603 3.55071 23.258 3.72989 23.258V22.858C3.54345 22.858 3.36534 22.8603 3.18402 22.858L3.17889 23.2579ZM3.72989 23.258H16.8174V22.858H3.72989V23.258ZM16.8174 23.258C17.4066 23.258 17.9841 22.7456 17.9547 22.1112L17.5551 22.1297C17.5726 22.5078 17.2079 22.858 16.8174 22.858V23.258ZM17.9547 22.1113C17.927 21.5077 17.4629 20.9806 16.8151 20.9806V21.3806C17.2219 21.3806 17.5359 21.7113 17.5551 22.1296L17.9547 22.1113Z" fill="#0468BF" mask="url(#path-1-outside-1_2083_6682)"/>
</svg>
