<svg width="24" height="24" viewBox="0 0 24 24" fill="none" xmlns="http://www.w3.org/2000/svg">
<path d="M12.9943 23.86C13.8214 23.32 14.6509 22.7825 15.478 22.2425C15.8524 21.9988 16.2316 21.7577 16.5962 21.4965C17.4625 20.876 18.2749 20.1702 18.9967 19.3765C20.4258 17.8016 21.5122 15.9354 22.1998 13.9033C22.7602 12.243 23 10.4923 23 8.73907V5.39588C23 4.94627 22.6941 4.55443 22.2806 4.42633C21.9821 4.3334 21.686 4.23795 21.3997 4.11487C21.478 4.14752 21.5563 4.18269 21.6346 4.21534C21.1232 3.99179 20.6436 3.70545 20.2031 3.35882L20.4013 3.51706C19.9657 3.17044 19.5742 2.77106 19.2365 2.32396L19.3907 2.52742C19.053 2.0753 18.7716 1.58047 18.5538 1.05551C18.5856 1.13589 18.6199 1.21626 18.6517 1.29664C18.5783 1.11579 18.5098 0.92992 18.4511 0.744048C18.3189 0.319555 17.9494 0.00558175 17.5065 0.00558175H8.72431C8.32056 0.00558175 7.91436 -0.00697719 7.5106 0.00558175H7.49347C7.04812 0.00558175 6.68108 0.319555 6.54894 0.744048C6.49021 0.932432 6.42414 1.11579 6.34829 1.29664C6.3801 1.21626 6.41436 1.13589 6.44617 1.05551C6.22839 1.58047 5.94698 2.07278 5.6093 2.52742L5.76346 2.32396C5.42577 2.77106 5.03426 3.17044 4.5987 3.51706L4.7969 3.35882C4.35644 3.70545 3.87439 3.99179 3.36542 4.21534C3.44372 4.18269 3.52202 4.14752 3.60033 4.11487C3.31158 4.23795 3.01794 4.3334 2.71941 4.42633C2.30587 4.55443 2 4.94627 2 5.39588V8.4251C2 8.9576 2 9.4901 2.0367 10.0226C2.11501 11.1052 2.29364 12.1853 2.58972 13.2276C3.177 15.2974 4.19494 17.2038 5.54568 18.849C6.59543 20.1275 7.86052 21.1624 9.23083 22.0541L11.9396 23.8173C11.9617 23.8324 11.9861 23.8475 12.0082 23.8626C12.4413 24.1439 13.1069 23.9706 13.3467 23.5009C13.6011 23.0035 13.4568 22.4283 12.9943 22.1269C12.5538 21.8406 12.1134 21.5542 11.6754 21.2679C11.1126 20.9012 10.5522 20.537 9.9894 20.1702C9.59543 19.914 9.21126 19.6402 8.83932 19.3489L9.03752 19.5071C8.11256 18.7712 7.28059 17.9172 6.56362 16.9677L6.71778 17.1712C5.98858 16.1991 5.38173 15.1341 4.91436 14.0038C4.94617 14.0842 4.98042 14.1645 5.01224 14.2449C4.53507 13.082 4.20963 11.8612 4.04568 10.6104C4.05791 10.6983 4.07015 10.7887 4.07993 10.8766C3.97471 10.0628 3.95759 9.24897 3.95759 8.43264V5.40593C3.71778 5.72995 3.47798 6.05146 3.23817 6.37548C4.08238 6.11425 4.89967 5.76763 5.61664 5.23764C6.46574 4.60969 7.19005 3.83606 7.72839 2.91172C8.02447 2.40434 8.26183 1.85175 8.43801 1.28911C8.12235 1.53526 7.80914 1.78142 7.49347 2.02757H16.2757C16.6794 2.02757 17.0856 2.03762 17.4894 2.02757H17.5065C17.1909 1.78142 16.8777 1.53526 16.562 1.28911C17.1762 3.25584 18.571 4.96637 20.4013 5.85052C20.8418 6.06402 21.2945 6.2298 21.7618 6.37548C21.522 6.05146 21.2822 5.72995 21.0424 5.40593V8.96765C21.0424 9.60564 21.0008 10.2436 20.9201 10.8766C20.9323 10.7887 20.9445 10.6983 20.9543 10.6104C20.7879 11.8587 20.4625 13.082 19.9878 14.2449C20.0196 14.1645 20.0538 14.0842 20.0856 14.0038C19.6183 15.1341 19.0114 16.1991 18.2822 17.1712L18.4364 16.9677C17.7194 17.9172 16.8874 18.7712 15.9625 19.5071L16.1607 19.3489C15.6126 19.7834 15.0302 20.1577 14.4478 20.5395C13.8018 20.9614 13.1558 21.3809 12.5098 21.8029C12.3434 21.9109 12.1746 22.0214 12.0082 22.1294C11.7953 22.2676 11.6264 22.4761 11.5579 22.7297C11.4943 22.9709 11.5237 23.2899 11.6558 23.5034C11.9347 23.9454 12.5318 24.1615 12.9943 23.86Z" fill="#0468BF"/>
<path d="M7.12589 11.4452L9.8338 14.1531L10.2188 14.5381C10.6222 14.9415 11.3077 14.9415 11.7111 14.5381L13.8021 12.4472L17.1111 9.1381L17.8732 8.37609C18.2634 7.98585 18.2924 7.26866 17.8732 6.8837C17.4513 6.49611 16.7974 6.4671 16.3808 6.8837L14.2899 8.97462L10.9808 12.2837L10.2188 13.0457H11.7111L9.00323 10.3378L8.61827 9.95284C8.22804 9.56261 7.51085 9.53361 7.12589 9.95284C6.73829 10.3747 6.70929 11.026 7.12589 11.4452Z" fill="#0468BF"/>
</svg>
