<svg width="20" height="23" viewBox="0 0 20 23" fill="none" xmlns="http://www.w3.org/2000/svg">
<path d="M10 12.5965C9.62895 12.5924 9.26548 12.6946 8.95851 12.8892C8.65154 13.0838 8.4158 13.3614 8.28304 13.6849C8.15028 14.0083 8.12686 14.3619 8.21593 14.6981C8.305 15.0343 8.5023 15.337 8.78125 15.5654V17.1465C8.78125 17.4482 8.90965 17.7375 9.13821 17.9508C9.36677 18.1641 9.67677 18.284 10 18.284C10.3232 18.284 10.6332 18.1641 10.8618 17.9508C11.0903 17.7375 11.2188 17.4482 11.2188 17.1465V15.5654C11.4977 15.337 11.695 15.0343 11.7841 14.6981C11.8731 14.3619 11.8497 14.0083 11.717 13.6849C11.5842 13.3614 11.3485 13.0838 11.0415 12.8892C10.7345 12.6946 10.371 12.5924 10 12.5965ZM16.0938 8.04648V5.77148C16.0938 4.26307 15.4517 2.81643 14.3089 1.74981C13.1661 0.683201 11.6162 0.0839844 10 0.0839844C8.38384 0.0839844 6.83387 0.683201 5.69107 1.74981C4.54827 2.81643 3.90625 4.26307 3.90625 5.77148V8.04648C2.93655 8.04648 2.00657 8.40601 1.32089 9.04598C0.635211 9.68595 0.25 10.5539 0.25 11.459V19.4215C0.25 20.3265 0.635211 21.1945 1.32089 21.8345C2.00657 22.4745 2.93655 22.834 3.90625 22.834H16.0938C17.0634 22.834 17.9934 22.4745 18.6791 21.8345C19.3648 21.1945 19.75 20.3265 19.75 19.4215V11.459C19.75 10.5539 19.3648 9.68595 18.6791 9.04598C17.9934 8.40601 17.0634 8.04648 16.0938 8.04648ZM6.34375 5.77148C6.34375 4.86643 6.72896 3.99845 7.41464 3.35848C8.10032 2.71851 9.0303 2.35898 10 2.35898C10.9697 2.35898 11.8997 2.71851 12.5854 3.35848C13.271 3.99845 13.6562 4.86643 13.6562 5.77148V8.04648H6.34375V5.77148ZM17.3125 19.4215C17.3125 19.7232 17.1841 20.0125 16.9555 20.2258C16.727 20.4391 16.417 20.559 16.0938 20.559H3.90625C3.58302 20.559 3.27302 20.4391 3.04446 20.2258C2.8159 20.0125 2.6875 19.7232 2.6875 19.4215V11.459C2.6875 11.1573 2.8159 10.868 3.04446 10.6547C3.27302 10.4413 3.58302 10.3215 3.90625 10.3215H16.0938C16.417 10.3215 16.727 10.4413 16.9555 10.6547C17.1841 10.868 17.3125 11.1573 17.3125 11.459V19.4215Z" fill="#0468BF"/>
</svg>
