<svg width="54" height="54" viewBox="0 0 54 54" fill="none" xmlns="http://www.w3.org/2000/svg">
<path d="M4.23833 36.1959L4.2384 36.1959L10.1754 35.1578L17.8243 26.1368L2.21654 19.9048C1.86844 19.7659 1.56028 19.5427 1.3197 19.2553C1.07913 18.9679 0.913677 18.6253 0.838189 18.2582C0.762702 17.8911 0.779543 17.511 0.887202 17.152C0.994861 16.793 1.18997 16.4664 1.45502 16.2014L7.02005 10.6367C7.02012 10.6366 7.02018 10.6365 7.02025 10.6365C7.26827 10.3879 7.57083 10.2005 7.90392 10.0893C8.23697 9.97805 8.59136 9.94598 8.93895 9.99563L4.23833 36.1959ZM4.23833 36.1959C3.83009 36.2674 3.44929 36.4495 3.13738 36.7224C2.82548 36.9952 2.59442 37.3485 2.46935 37.7435M4.23833 36.1959L34.213 51.9591M34.213 51.9591L28.0414 36.3668L19.0265 44.0089L17.9891 49.9453C17.918 50.3538 17.736 50.7348 17.463 51.0469C17.1899 51.3589 16.8364 51.5899 16.4409 51.7146L16.4408 51.7146C15.6361 51.968 14.7553 51.7547 14.1579 51.1566L3.02723 40.0269C2.73393 39.7339 2.52677 39.366 2.42839 38.9634C2.33001 38.5607 2.34418 38.1387 2.46935 37.7435M34.213 51.9591C34.213 51.9592 34.213 51.9592 34.213 51.9592L34.213 51.9591ZM2.46935 37.7435L2.75535 37.8341M2.46935 37.7435C2.46935 37.7436 2.46934 37.7436 2.46933 37.7436L2.75535 37.8341M2.75535 37.8341C2.64677 38.1769 2.63448 38.5429 2.71982 38.8921C2.80515 39.2414 2.98483 39.5605 3.23923 39.8146M2.75535 37.8341C2.86385 37.4914 3.06431 37.1849 3.33492 36.9481L3.23923 39.8146M3.23923 39.8146L14.3701 50.9446L3.23923 39.8146ZM14.2788 44.8739L14.7077 42.4224C14.7077 42.4223 14.7077 42.4223 14.7077 42.4223C14.7988 41.9009 15.0699 41.4279 15.4738 41.0857L27.5201 30.8727C27.5202 30.8727 27.5203 30.8726 27.5204 30.8725C27.9288 30.5249 28.4478 30.3341 28.9841 30.3344M14.2788 44.8739L29.5347 30.4023C29.3547 30.3571 29.1698 30.3342 28.9841 30.3344M14.2788 44.8739L9.31034 39.9059L11.7621 39.4771L11.7622 39.477C12.2835 39.3856 12.7563 39.1146 13.0987 38.7111L13.0987 38.7111L23.3129 26.6645C23.5451 26.3906 23.7089 26.0655 23.7907 25.7159C23.8724 25.3663 23.8698 25.0023 23.7831 24.6539L23.7831 24.6538C23.6964 24.3054 23.528 23.9826 23.292 23.712C23.0559 23.4414 22.7589 23.2309 22.4254 23.0977L22.3141 23.3763L22.4254 23.0977L7.08703 16.9735L9.42351 14.6372L30.958 17.6868C30.9581 17.6868 30.9581 17.6868 30.9581 17.6868C31.3057 17.7361 31.66 17.7039 31.993 17.5927C32.326 17.4815 32.6286 17.2943 32.8768 17.046L43.7463 6.17786C44.2991 5.62504 45.0427 5.31905 45.8442 5.31905C46.6462 5.31905 47.3898 5.62502 47.9434 6.17856C49.135 7.37018 49.1558 9.2415 47.9957 10.4523L37.0795 21.3036L37.0794 21.3037C36.8299 21.5521 36.6417 21.8551 36.5297 22.1889C36.4177 22.5226 36.385 22.8778 36.4341 23.2264L36.4342 23.2265L39.4833 44.7601L37.1551 47.0881L31.09 31.7661L14.2788 44.8739ZM28.9841 30.3344C28.9842 30.3344 28.9843 30.3344 28.9844 30.3344L28.9842 30.6344L28.984 30.3344C28.984 30.3344 28.9841 30.3344 28.9841 30.3344ZM30.4772 30.8959C30.7477 31.133 30.9578 31.4313 31.0899 31.7659L30.4772 30.8959ZM30.4772 30.8959C30.2067 30.6588 29.8836 30.4896 29.5347 30.4024L30.4772 30.8959ZM30.4743 13.0452L8.93936 9.99569L35.0542 52.6296C35.3035 52.8392 35.601 52.9836 35.9199 53.0496L35.8588 53.3433C35.8589 53.3433 35.859 53.3433 35.8591 53.3434C36.0112 53.375 36.1652 53.3908 36.318 53.3908H36.3181C36.9183 53.3906 37.4939 53.152 37.9182 52.7275C37.9182 52.7275 37.9182 52.7275 37.9182 52.7275L43.4836 47.1625C43.987 46.6592 44.2247 45.949 44.125 45.2441L44.125 45.244L41.076 23.7149L51.2052 13.6462L51.2058 13.6455C51.2131 13.6382 51.2246 13.6267 51.2368 13.6137C54.1455 10.6103 54.1048 5.93534 51.1444 2.9764C49.7355 1.56697 47.8518 0.79082 45.8442 0.79082C43.8372 0.79082 41.9535 1.56696 40.5446 2.97634C40.5446 2.97636 40.5446 2.97638 40.5446 2.9764L30.4743 13.0452Z" fill="#A3AED0" stroke="#A3AED0" stroke-width="0.6"/>
</svg>
