<svg width="51" height="51" viewBox="0 0 51 51" fill="none" xmlns="http://www.w3.org/2000/svg">
<path d="M25.1816 0.0917969C21.8986 0.0917969 18.6477 0.738441 15.6146 1.99481C12.5814 3.25118 9.82544 5.09266 7.50397 7.41413C2.81556 12.1025 0.181641 18.4614 0.181641 25.0918C0.181641 25.7548 0.445033 26.3907 0.913874 26.8596C1.38271 27.3284 2.0186 27.5918 2.68164 27.5918H22.6816V42.5918C22.6816 44.5809 23.4718 46.4886 24.8783 47.8951C26.2849 49.3016 28.1925 50.0918 30.1816 50.0918C32.1708 50.0918 34.0784 49.3016 35.4849 47.8951C36.8915 46.4886 37.6816 44.5809 37.6816 42.5918C37.6816 41.9288 37.4183 41.2929 36.9494 40.824C36.4806 40.3552 35.8447 40.0918 35.1816 40.0918C34.5186 40.0918 33.8827 40.3552 33.4139 40.824C32.945 41.2929 32.6816 41.9288 32.6816 42.5918C32.6816 43.2548 32.4182 43.8907 31.9494 44.3596C31.4806 44.8284 30.8447 45.0918 30.1816 45.0918C29.5186 45.0918 28.8827 44.8284 28.4139 44.3596C27.945 43.8907 27.6816 43.2548 27.6816 42.5918V27.5918H47.6816C48.3447 27.5918 48.9806 27.3284 49.4494 26.8596C49.9183 26.3907 50.1816 25.7548 50.1816 25.0918C50.1816 21.8088 49.535 18.5578 48.2786 15.5247C47.0223 12.4916 45.1808 9.73559 42.8593 7.41413C40.5378 5.09266 37.7819 3.25118 34.7487 1.99481C31.7156 0.738441 28.4647 0.0917969 25.1816 0.0917969ZM5.33164 22.5918C5.92831 17.7475 8.27587 13.2886 11.9321 10.0551C15.5883 6.82157 20.3007 5.03669 25.1816 5.03669C30.0626 5.03669 34.775 6.82157 38.4312 10.0551C42.0874 13.2886 44.435 17.7475 45.0316 22.5918H5.33164Z" fill="white"/>
</svg>
