<svg width="24" height="23" viewBox="0 0 24 23" fill="none" xmlns="http://www.w3.org/2000/svg">
<path d="M3.04297 19.7867V21.1667C3.04297 21.834 3.584 22.375 4.2513 22.375C4.9186 22.375 5.45963 21.834 5.45963 21.1667V19.9583H17.543V21.1667C17.543 21.834 18.084 22.375 18.7513 22.375C19.4186 22.375 19.9596 21.834 19.9596 21.1667V19.7867C22.0383 19.2463 23.5846 17.3704 23.5846 15.125V13.9167C23.5846 12.0854 22.549 10.5081 21.0438 9.68824L20.871 9.08333H21.168C21.8353 9.08333 22.3763 8.5423 22.3763 7.875C22.3763 7.2077 21.8353 6.66667 21.168 6.66667H20.1804L19.4558 4.13082C18.8669 2.06638 16.9559 0.625 14.8089 0.625H8.19373C6.04669 0.625 4.13566 2.06638 3.54684 4.13023L2.82209 6.66667H1.83464C1.16733 6.66667 0.626302 7.2077 0.626302 7.875C0.626302 8.5423 1.16733 9.08333 1.83464 9.08333H2.13156L1.95876 9.68824C0.453583 10.5081 -0.582031 12.0855 -0.582031 13.9167V15.125C-0.582031 17.3704 0.964297 19.2463 3.04297 19.7867ZM5.87028 4.79399C6.16528 3.76206 7.1205 3.04167 8.19373 3.04167H14.8089C15.8821 3.04167 16.8373 3.76206 17.1323 4.79457L18.3578 9.08333H4.64483L5.87028 4.79399ZM1.83464 13.9167C1.83464 12.5838 2.91847 11.5 4.2513 11.5H18.7513C20.0841 11.5 21.168 12.5838 21.168 13.9167V15.125C21.168 16.4578 20.0841 17.5417 18.7513 17.5417H4.2513C2.91847 17.5417 1.83464 16.4578 1.83464 15.125V13.9167Z" fill="#0468BF"/>
</svg>
